<?xml version="1.0" encoding="UTF-8" standalone="no"?>
<!-- Created with Inkscape (http://www.inkscape.org/) -->

<svg
   width="210mm"
   height="297mm"
   viewBox="0 0 210 297"
   version="1.1"
   id="svg1955"
   inkscape:version="1.2.2 (732a01da63, 2022-12-09)"
   sodipodi:docname="10C.svg"
   xmlns:inkscape="http://www.inkscape.org/namespaces/inkscape"
   xmlns:sodipodi="http://sodipodi.sourceforge.net/DTD/sodipodi-0.dtd"
   xmlns="http://www.w3.org/2000/svg"
   xmlns:svg="http://www.w3.org/2000/svg">
  <sodipodi:namedview
     id="namedview1957"
     pagecolor="#ffffff"
     bordercolor="#000000"
     borderopacity="0.25"
     inkscape:showpageshadow="2"
     inkscape:pageopacity="0.0"
     inkscape:pagecheckerboard="0"
     inkscape:deskcolor="#d1d1d1"
     inkscape:document-units="mm"
     showgrid="false"
     inkscape:zoom="1.6352936"
     inkscape:cx="117.10436"
     inkscape:cy="64.820166"
     inkscape:window-width="725"
     inkscape:window-height="439"
     inkscape:window-x="849"
     inkscape:window-y="396"
     inkscape:window-maximized="0"
     inkscape:current-layer="layer1" />
  <defs
     id="defs1952" />
  <g
     inkscape:label="Layer 1"
     inkscape:groupmode="layer"
     id="layer1">
    <g
       id="g15708"
       transform="matrix(0.26458333,0,0,0.26458333,-204.76132,-38.857286)">
      <g
         transform="translate(753.04393,136.92857)"
         id="g4496">
        <rect
           style="fill:#000000;fill-opacity:1;stroke:none;stroke-width:3;stroke-linecap:butt;stroke-linejoin:round;stroke-miterlimit:4;stroke-dasharray:none;stroke-opacity:1"
           id="rect4498"
           width="90"
           height="135"
           x="20.85714"
           y="9.9336166"
           ry="14.04" />
        <rect
           style="fill:#f2f2f2;fill-opacity:1;stroke:none;stroke-width:3;stroke-linecap:butt;stroke-linejoin:round;stroke-miterlimit:4;stroke-dasharray:none;stroke-opacity:1"
           id="rect4500"
           width="80"
           height="125"
           x="25.85714"
           y="14.933617"
           ry="13" />
      </g>
      <path
         id="text4560"
         d="m 784.96221,233.38645 c -0.0533,-0.79997 -0.10667,-1.5733 -0.16,-2.32 -10e-6,-0.74664 -0.0267,-1.51997 -0.08,-2.32 v -0.16 c 3.46666,-3.51996 7.19999,-6.61329 11.2,-9.28 4.05331,-2.71996 8.15997,-5.19995 12.32,-7.44 l 0.08,0.08 c -0.1067,1.22671 -0.1867,2.48005 -0.24,3.76 -0.0534,1.28004 -0.13336,2.53338 -0.24,3.76 l -0.08,0.24 c -3.94669,1.86671 -7.81335,3.92004 -11.6,6.16 -3.73335,2.1867 -7.36001,4.72003 -10.88,7.6 l -0.32,-0.08 v 0 m -1.28,-28.64 c 4.21332,-0.42661 8.39999,-0.77328 12.56,-1.04 4.21331,-0.26661 8.39997,-0.61328 12.56,-1.04 l 0.08,0.08 c -0.0534,1.22672 -0.13336,2.48006 -0.24,3.76 -0.1067,1.22672 -0.16003,2.45339 -0.16,3.68 -4.21336,2.34672 -8.32002,4.82671 -12.32,7.44 -4.00001,2.61337 -7.78668,5.6267 -11.36,9.04 l -0.16,-0.08 c -0.16001,-3.7333 -0.32001,-7.41329 -0.48,-11.04 -0.16001,-3.62662 -0.34667,-7.22661 -0.56,-10.8 l 0.08,-0.08 v 0.08 m 5.68,55.12 c -0.42668,-4.37333 -0.66668,-8.79999 -0.72,-13.28 -0.0533,-4.47998 -0.24001,-8.93331 -0.56,-13.36 l 0.08,-0.16 c 3.03999,-2.23997 6.18665,-4.31997 9.44,-6.24 3.30664,-1.91996 6.63997,-3.78663 10,-5.6 l -0.24,0.08 c -0.26669,6.40003 -0.61336,12.69336 -1.04,18.88 -0.42669,6.13335 -1.01336,12.34668 -1.76,18.64 l -0.08,0.16 c -2.56002,0.21334 -5.09335,0.42667 -7.6,0.64 -2.45335,0.16 -4.93335,0.32 -7.44,0.48 l -0.08,-0.24 m 43.4775,-31.36 c -0.0534,0.21337 -0.08,0.53337 -0.08,0.96 -3e-5,0.2667 -3e-5,0.56003 0,0.88 0.0533,0.2667 0.08,0.53336 0.08,0.8 -3e-5,0.4267 -0.0267,0.7467 -0.08,0.96 v -0.08 c -3.36002,2.08003 -6.53335,4.40002 -9.52,6.96 -2.98668,2.50669 -5.78668,5.25335 -8.4,8.24 l -0.16,-0.08 c -0.26667,-0.42665 -0.45334,-0.85332 -0.56,-1.28 -0.10667,-0.42665 -0.26667,-0.85332 -0.48,-1.28 h -0.08 c 2.93332,-3.19998 5.99999,-6.13331 9.2,-8.8 3.19998,-2.66664 6.50664,-5.11997 9.92,-7.36 l 0.16,0.08 v 0 m 18.8,-10.32 c 0.15996,0.53338 0.34662,1.06671 0.56,1.6 0.21329,0.48004 0.37329,0.98671 0.48,1.52 l 0.08,-0.08 c -3.41338,1.60004 -6.77337,3.25337 -10.08,4.96 -3.3067,1.65337 -6.48003,3.52003 -9.52,5.6 l -0.16,-0.96 -0.08,-1.68 0.08,-0.88 c 2.9333,-1.86663 5.94663,-3.67996 9.04,-5.44 3.0933,-1.75996 6.26663,-3.33329 9.52,-4.72 l 0.08,0.08 m -19.52,42.56 c -1.86669,0 -3.65335,-0.34667 -5.36,-1.04 -1.70668,-0.64 -3.28002,-1.52 -4.72,-2.64 -1.38668,-1.11999 -2.66668,-2.39999 -3.84,-3.84 -1.12001,-1.43999 -2.05334,-2.93332 -2.8,-4.48 l -0.08,-0.08 c 2.55999,-2.87998 5.25332,-5.54665 8.08,-8 2.87998,-2.50664 5.94664,-4.77331 9.2,-6.8 h 0.32 c -0.10669,4.53336 -0.24003,9.01335 -0.4,13.44 -0.10669,4.42668 -0.26669,8.88 -0.48,13.36 l 0.08,0.08 m 1.68,-0.16 c -0.10669,-4.53333 -0.21336,-9.03999 -0.32,-13.52 -0.0534,-4.47998 -0.16003,-8.98664 -0.32,-13.52 v -0.16 c 3.2533,-1.9733 6.50663,-3.8133 9.76,-5.52 3.30663,-1.70663 6.66662,-3.38663 10.08,-5.04 l 0.08,0.08 c 0.37329,1.44004 0.63995,2.9067 0.8,4.4 0.15995,1.49337 0.26662,2.9867 0.32,4.48 v 0.88 c -5e-5,3.09336 -0.40005,6.24002 -1.2,9.44 -0.80004,3.20002 -2.02671,6.13335 -3.68,8.8 -1.65337,2.61334 -3.76004,4.82667 -6.32,6.64 -2.5067,1.76 -5.49336,2.8 -8.96,3.12 l -0.08,-0.08 h -0.16 m -22.4,-28.64 c 0,-3.0933 0.45333,-6.34663 1.36,-9.76 0.90666,-3.41329 2.26666,-6.55995 4.08,-9.44 1.81332,-2.87995 4.05332,-5.25328 6.72,-7.12 2.71998,-1.86661 5.89331,-2.79994 9.52,-2.8 2.02664,6e-5 3.9733,0.40006 5.84,1.2 1.86663,0.74672 3.5733,1.78672 5.12,3.12 1.54663,1.33339 2.90663,2.85338 4.08,4.56 1.22662,1.70671 2.21329,3.46671 2.96,5.28 l -0.08,0.08 c -3.09337,1.28004 -6.16004,2.72004 -9.2,4.32 -2.9867,1.5467 -5.92003,3.20004 -8.8,4.96 l -0.24,0.08 c -3.57336,2.40003 -7.01335,4.96003 -10.32,7.68 -3.25335,2.72002 -6.29334,5.76002 -9.12,9.12 l -0.16,-0.08 c -0.48001,-1.81331 -0.85334,-3.65331 -1.12,-5.52 -0.26667,-1.91997 -0.4,-3.81331 -0.4,-5.68 h -0.24"
         style="font-style:normal;font-variant:normal;font-weight:normal;font-stretch:normal;font-size:80px;line-height:125%;font-family:'Airmole Stripe';-inkscape-font-specification:'Airmole Stripe';text-align:start;writing-mode:lr-tb;text-anchor:start;fill:#333333;fill-opacity:1;stroke:none;stroke-width:1px;stroke-linecap:butt;stroke-linejoin:miter;stroke-opacity:1" />
      <path
         id="text5289"
         d="m 807.88898,162.66462 h -5.44 v -2.96889 c 3.9111,2e-5 6.23406,-1.35701 6.96889,-4.07111 h 2.95111 v 22.70222 h -4.48 v -15.66222 m 22.10555,15.75111 c -0.92445,0.42667 -1.99704,0.64 -3.21777,0.64 -1.22075,0 -2.29334,-0.20741 -3.21778,-0.62222 -0.9126,-0.41481 -1.65926,-0.97185 -2.24,-1.67111 -0.56889,-0.69926 -1.03704,-1.56444 -1.40445,-2.59556 -0.35555,-1.04295 -0.60444,-2.1274 -0.74666,-3.25333 -0.13037,-1.12592 -0.19556,-2.38814 -0.19556,-3.78667 0,-4.33776 0.64,-7.35998 1.92,-9.06666 0.68741,-0.93628 1.53481,-1.65331 2.54222,-2.15111 1.00741,-0.49776 2.12148,-0.74665 3.34223,-0.74667 1.32739,2e-5 2.52443,0.29039 3.59111,0.87111 1.0785,0.58076 1.94369,1.41039 2.59555,2.48889 1.07851,1.71854 1.61776,4.62816 1.61778,8.72889 -2e-5,1.36297 -0.0711,2.59556 -0.21333,3.69778 -0.13039,1.10222 -0.37335,2.16889 -0.72889,3.2 -0.35557,1.03111 -0.82372,1.89629 -1.40445,2.59555 -0.5689,0.69926 -1.31556,1.2563 -2.24,1.67111 m 0.10667,-11.27111 c -10e-6,-1.7185 -0.077,-3.14073 -0.23111,-4.26667 -0.14223,-1.1259 -0.36742,-1.97924 -0.67556,-2.56 -0.30815,-0.59257 -0.65186,-0.99553 -1.03111,-1.20888 -0.36741,-0.21332 -0.82964,-0.31998 -1.38666,-0.32 -0.79409,2e-5 -1.42816,0.24298 -1.90223,0.72888 -0.46222,0.48595 -0.81778,1.33928 -1.06666,2.56 -0.23704,1.22076 -0.35556,2.8978 -0.35556,5.03112 0,1.64741 0.0711,3.0163 0.21334,4.10666 0.14221,1.07853 0.36147,1.90816 0.65777,2.48889 0.30815,0.56889 0.65185,0.96593 1.03111,1.19111 0.39111,0.21334 0.86518,0.32001 1.42223,0.32 1.29184,1e-5 2.20443,-0.69333 2.73777,-2.08 0.16592,-0.43851 0.30222,-1.22666 0.40889,-2.36444 0.11851,-1.14962 0.17777,-2.35851 0.17778,-3.62667"
         style="font-style:normal;font-variant:normal;font-weight:bold;font-stretch:normal;font-size:32px;line-height:125%;font-family:AlMothnna;-inkscape-font-specification:'AlMothnna Bold';text-align:start;writing-mode:lr-tb;text-anchor:start;fill:#000000;fill-opacity:1;stroke:none;stroke-width:1px;stroke-linecap:butt;stroke-linejoin:miter;stroke-opacity:1" />
      <path
         sodipodi:nodetypes="ccccsccccccscccc"
         id="path5432"
         d="m 792.8737,154.79661 c -2.95714,0 -5.35714,2.52 -5.35714,5.625 0.0258,1.95404 1.03405,3.60527 2.08333,5.17578 -1.16957,-0.88503 -2.46938,-1.42026 -3.86905,-1.42578 -2.95714,0 -5.35714,2.52 -5.35714,5.625 0,3.105 2.4,5.625 5.35714,5.625 2.39553,-0.0401 4.31146,-1.71621 6.1942,-3.125 -0.3369,4.20822 -1.02218,6.57097 -5.00372,7.5 2.97619,0 8.92857,0 11.90476,0 -3.98153,-0.92903 -4.66682,-3.29178 -5.00372,-7.5 1.86093,1.59506 3.81258,2.94817 6.1942,3.125 2.95714,0 5.35714,-2.52 5.35714,-5.625 0,-3.105 -2.4,-5.625 -5.35714,-5.625 -1.43557,-1.5e-4 -2.67554,0.66045 -3.86905,1.42578 1.1876,-1.55433 1.96934,-3.23152 2.08334,-5.17578 0,-3.105 -2.4,-5.625 -5.35715,-5.625 z"
         style="fill:#000000;fill-opacity:1;stroke:none;stroke-width:0.354331;stroke-linecap:round;stroke-linejoin:round;stroke-miterlimit:4;stroke-dasharray:1.41732, 1.41732;stroke-dashoffset:0;stroke-opacity:1" />
      <path
         sodipodi:nodetypes="ccccsccccccscccc"
         id="path5580"
         d="m 785.42855,197.36219 c -1.77429,0 -3.21429,1.512 -3.21429,3.375 0.0155,1.17242 0.62044,2.16316 1.25,3.10547 -0.70174,-0.53102 -1.48163,-0.85216 -2.32143,-0.85547 -1.77428,0 -3.21428,1.512 -3.21428,3.375 0,1.863 1.44,3.375 3.21428,3.375 1.43732,-0.024 2.58688,-1.02973 3.71652,-1.875 -0.20214,2.52493 -0.61331,3.94258 -3.00223,4.5 1.78572,0 5.35714,0 7.14286,0 -2.38892,-0.55742 -2.80009,-1.97507 -3.00223,-4.5 1.11655,0.95704 2.28754,1.7689 3.71651,1.875 1.77429,0 3.21429,-1.512 3.21429,-3.375 0,-1.863 -1.44,-3.375 -3.21429,-3.375 -0.86134,-9e-5 -1.60532,0.39627 -2.32142,0.85547 0.71256,-0.9326 1.1816,-1.93891 1.25,-3.10547 0,-1.863 -1.44,-3.375 -3.21429,-3.375 z"
         style="fill:#000000;fill-opacity:1;stroke:none;stroke-width:0.354331;stroke-linecap:round;stroke-linejoin:round;stroke-miterlimit:4;stroke-dasharray:1.41732, 1.41732;stroke-dashoffset:0;stroke-opacity:1" />
      <path
         sodipodi:nodetypes="ccccsccccccscccc"
         id="path5582"
         d="m 806.42855,197.36219 c -1.77429,0 -3.21429,1.512 -3.21429,3.375 0.0155,1.17242 0.62044,2.16316 1.25,3.10547 -0.70174,-0.53102 -1.48163,-0.85216 -2.32143,-0.85547 -1.77428,0 -3.21428,1.512 -3.21428,3.375 0,1.863 1.44,3.375 3.21428,3.375 1.43732,-0.024 2.58688,-1.02973 3.71652,-1.875 -0.20214,2.52493 -0.61331,3.94258 -3.00223,4.5 1.78572,0 5.35714,0 7.14286,0 -2.38892,-0.55742 -2.80009,-1.97507 -3.00223,-4.5 1.11655,0.95704 2.28754,1.7689 3.71651,1.875 1.77429,0 3.21429,-1.512 3.21429,-3.375 0,-1.863 -1.44,-3.375 -3.21429,-3.375 -0.86134,-9e-5 -1.60532,0.39627 -2.32142,0.85547 0.71256,-0.9326 1.1816,-1.93891 1.25,-3.10547 0,-1.863 -1.44,-3.375 -3.21429,-3.375 z"
         style="fill:#000000;fill-opacity:1;stroke:none;stroke-width:0.354331;stroke-linecap:round;stroke-linejoin:round;stroke-miterlimit:4;stroke-dasharray:1.41732, 1.41732;stroke-dashoffset:0;stroke-opacity:1" />
      <path
         sodipodi:nodetypes="ccccsccccccscccc"
         id="path5584"
         d="m 789.42855,251.36219 c -1.77429,0 -3.21429,1.512 -3.21429,3.375 0.0155,1.17242 0.62044,2.16316 1.25,3.10547 -0.70174,-0.53102 -1.48163,-0.85216 -2.32143,-0.85547 -1.77428,0 -3.21428,1.512 -3.21428,3.375 0,1.863 1.44,3.375 3.21428,3.375 1.43732,-0.024 2.58688,-1.02973 3.71652,-1.875 -0.20214,2.52493 -0.61331,3.94258 -3.00223,4.5 1.78572,0 5.35714,0 7.14286,0 -2.38892,-0.55742 -2.80009,-1.97507 -3.00223,-4.5 1.11655,0.95704 2.28754,1.7689 3.71651,1.875 1.77429,0 3.21429,-1.512 3.21429,-3.375 0,-1.863 -1.44,-3.375 -3.21429,-3.375 -0.86134,-9e-5 -1.60532,0.39627 -2.32142,0.85547 0.71256,-0.9326 1.1816,-1.93891 1.25,-3.10547 0,-1.863 -1.44,-3.375 -3.21429,-3.375 z"
         style="fill:#000000;fill-opacity:1;stroke:none;stroke-width:0.354331;stroke-linecap:round;stroke-linejoin:round;stroke-miterlimit:4;stroke-dasharray:1.41732, 1.41732;stroke-dashoffset:0;stroke-opacity:1" />
      <path
         sodipodi:nodetypes="ccccsccccccscccc"
         id="path5586"
         d="m 804.42855,248.36219 c -1.77429,0 -3.21429,1.512 -3.21429,3.375 0.0155,1.17242 0.62044,2.16316 1.25,3.10547 -0.70174,-0.53102 -1.48163,-0.85216 -2.32143,-0.85547 -1.77428,0 -3.21428,1.512 -3.21428,3.375 0,1.863 1.44,3.375 3.21428,3.375 1.43732,-0.024 2.58688,-1.02973 3.71652,-1.875 -0.20214,2.52493 -0.61331,3.94258 -3.00223,4.5 1.78572,0 5.35714,0 7.14286,0 -2.38892,-0.55742 -2.80009,-1.97507 -3.00223,-4.5 1.11655,0.95704 2.28754,1.7689 3.71651,1.875 1.77429,0 3.21429,-1.512 3.21429,-3.375 0,-1.863 -1.44,-3.375 -3.21429,-3.375 -0.86134,-9e-5 -1.60532,0.39627 -2.32142,0.85547 0.71256,-0.9326 1.1816,-1.93891 1.25,-3.10547 0,-1.863 -1.44,-3.375 -3.21429,-3.375 z"
         style="fill:#000000;fill-opacity:1;stroke:none;stroke-width:0.354331;stroke-linecap:round;stroke-linejoin:round;stroke-miterlimit:4;stroke-dasharray:1.41732, 1.41732;stroke-dashoffset:0;stroke-opacity:1" />
      <path
         sodipodi:nodetypes="ccccsccccccscccc"
         id="path5588"
         d="m 834.42855,220.36219 c -1.77429,0 -3.21429,1.512 -3.21429,3.375 0.0155,1.17242 0.62044,2.16316 1.25,3.10547 -0.70174,-0.53102 -1.48163,-0.85216 -2.32143,-0.85547 -1.77428,0 -3.21428,1.512 -3.21428,3.375 0,1.863 1.44,3.375 3.21428,3.375 1.43732,-0.024 2.58688,-1.02973 3.71652,-1.875 -0.20214,2.52493 -0.61331,3.94258 -3.00223,4.5 1.78572,0 5.35714,0 7.14286,0 -2.38892,-0.55742 -2.80009,-1.97507 -3.00223,-4.5 1.11655,0.95704 2.28754,1.7689 3.71651,1.875 1.77429,0 3.21429,-1.512 3.21429,-3.375 0,-1.863 -1.44,-3.375 -3.21429,-3.375 -0.86134,-9e-5 -1.60532,0.39627 -2.32142,0.85547 0.71256,-0.9326 1.1816,-1.93891 1.25,-3.10547 0,-1.863 -1.44,-3.375 -3.21429,-3.375 z"
         style="fill:#000000;fill-opacity:1;stroke:none;stroke-width:0.354331;stroke-linecap:round;stroke-linejoin:round;stroke-miterlimit:4;stroke-dasharray:1.41732, 1.41732;stroke-dashoffset:0;stroke-opacity:1" />
      <path
         sodipodi:nodetypes="ccccsccccccscccc"
         id="path5590"
         d="m 818.42855,202.36219 c -1.77429,0 -3.21429,1.512 -3.21429,3.375 0.0155,1.17242 0.62044,2.16316 1.25,3.10547 -0.70174,-0.53102 -1.48163,-0.85216 -2.32143,-0.85547 -1.77428,0 -3.21428,1.512 -3.21428,3.375 0,1.863 1.44,3.375 3.21428,3.375 1.43732,-0.024 2.58688,-1.02973 3.71652,-1.875 -0.20214,2.52493 -0.61331,3.94258 -3.00223,4.5 1.78572,0 5.35714,0 7.14286,0 -2.38892,-0.55742 -2.80009,-1.97507 -3.00223,-4.5 1.11655,0.95704 2.28754,1.7689 3.71651,1.875 1.77429,0 3.21429,-1.512 3.21429,-3.375 0,-1.863 -1.44,-3.375 -3.21429,-3.375 -0.86134,-9e-5 -1.60532,0.39627 -2.32142,0.85547 0.71256,-0.9326 1.1816,-1.93891 1.25,-3.10547 0,-1.863 -1.44,-3.375 -3.21429,-3.375 z"
         style="fill:#000000;fill-opacity:1;stroke:none;stroke-width:0.354331;stroke-linecap:round;stroke-linejoin:round;stroke-miterlimit:4;stroke-dasharray:1.41732, 1.41732;stroke-dashoffset:0;stroke-opacity:1" />
      <path
         sodipodi:nodetypes="ccccsccccccscccc"
         id="path5592"
         d="m 846.42855,199.36219 c -1.77429,0 -3.21429,1.512 -3.21429,3.375 0.0155,1.17242 0.62044,2.16316 1.25,3.10547 -0.70174,-0.53102 -1.48163,-0.85216 -2.32143,-0.85547 -1.77428,0 -3.21428,1.512 -3.21428,3.375 0,1.863 1.44,3.375 3.21428,3.375 1.43732,-0.024 2.58688,-1.02973 3.71652,-1.875 -0.20214,2.52493 -0.61331,3.94258 -3.00223,4.5 1.78572,0 5.35714,0 7.14286,0 -2.38892,-0.55742 -2.80009,-1.97507 -3.00223,-4.5 1.11655,0.95704 2.28754,1.7689 3.71651,1.875 1.77429,0 3.21429,-1.512 3.21429,-3.375 0,-1.863 -1.44,-3.375 -3.21429,-3.375 -0.86134,-9e-5 -1.60532,0.39627 -2.32142,0.85547 0.71256,-0.9326 1.1816,-1.93891 1.25,-3.10547 0,-1.863 -1.44,-3.375 -3.21429,-3.375 z"
         style="fill:#000000;fill-opacity:1;stroke:none;stroke-width:0.354331;stroke-linecap:round;stroke-linejoin:round;stroke-miterlimit:4;stroke-dasharray:1.41732, 1.41732;stroke-dashoffset:0;stroke-opacity:1" />
      <path
         sodipodi:nodetypes="ccccsccccccscccc"
         id="path5594"
         d="m 852.42855,222.36219 c -1.77429,0 -3.21429,1.512 -3.21429,3.375 0.0155,1.17242 0.62044,2.16316 1.25,3.10547 -0.70174,-0.53102 -1.48163,-0.85216 -2.32143,-0.85547 -1.77428,0 -3.21428,1.512 -3.21428,3.375 0,1.863 1.44,3.375 3.21428,3.375 1.43732,-0.024 2.58688,-1.02973 3.71652,-1.875 -0.20214,2.52493 -0.61331,3.94258 -3.00223,4.5 1.78572,0 5.35714,0 7.14286,0 -2.38892,-0.55742 -2.80009,-1.97507 -3.00223,-4.5 1.11655,0.95704 2.28754,1.7689 3.71651,1.875 1.77429,0 3.21429,-1.512 3.21429,-3.375 0,-1.863 -1.44,-3.375 -3.21429,-3.375 -0.86134,-9e-5 -1.60532,0.39627 -2.32142,0.85547 0.71256,-0.9326 1.1816,-1.93891 1.25,-3.10547 0,-1.863 -1.44,-3.375 -3.21429,-3.375 z"
         style="fill:#000000;fill-opacity:1;stroke:none;stroke-width:0.354331;stroke-linecap:round;stroke-linejoin:round;stroke-miterlimit:4;stroke-dasharray:1.41732, 1.41732;stroke-dashoffset:0;stroke-opacity:1" />
      <path
         sodipodi:nodetypes="ccccsccccccscccc"
         id="path5596"
         d="m 845.42855,246.36219 c -1.77429,0 -3.21429,1.512 -3.21429,3.375 0.0155,1.17242 0.62044,2.16316 1.25,3.10547 -0.70174,-0.53102 -1.48163,-0.85216 -2.32143,-0.85547 -1.77428,0 -3.21428,1.512 -3.21428,3.375 0,1.863 1.44,3.375 3.21428,3.375 1.43732,-0.024 2.58688,-1.02973 3.71652,-1.875 -0.20214,2.52493 -0.61331,3.94258 -3.00223,4.5 1.78572,0 5.35714,0 7.14286,0 -2.38892,-0.55742 -2.80009,-1.97507 -3.00223,-4.5 1.11655,0.95704 2.28754,1.7689 3.71651,1.875 1.77429,0 3.21429,-1.512 3.21429,-3.375 0,-1.863 -1.44,-3.375 -3.21429,-3.375 -0.86134,-9e-5 -1.60532,0.39627 -2.32142,0.85547 0.71256,-0.9326 1.1816,-1.93891 1.25,-3.10547 0,-1.863 -1.44,-3.375 -3.21429,-3.375 z"
         style="fill:#000000;fill-opacity:1;stroke:none;stroke-width:0.354331;stroke-linecap:round;stroke-linejoin:round;stroke-miterlimit:4;stroke-dasharray:1.41732, 1.41732;stroke-dashoffset:0;stroke-opacity:1" />
      <path
         sodipodi:nodetypes="ccccsccccccscccc"
         id="path5598"
         d="m 824.42855,247.36219 c -1.77429,0 -3.21429,1.512 -3.21429,3.375 0.0155,1.17242 0.62044,2.16316 1.25,3.10547 -0.70174,-0.53102 -1.48163,-0.85216 -2.32143,-0.85547 -1.77428,0 -3.21428,1.512 -3.21428,3.375 0,1.863 1.44,3.375 3.21428,3.375 1.43732,-0.024 2.58688,-1.02973 3.71652,-1.875 -0.20214,2.52493 -0.61331,3.94258 -3.00223,4.5 1.78572,0 5.35714,0 7.14286,0 -2.38892,-0.55742 -2.80009,-1.97507 -3.00223,-4.5 1.11655,0.95704 2.28754,1.7689 3.71651,1.875 1.77429,0 3.21429,-1.512 3.21429,-3.375 0,-1.863 -1.44,-3.375 -3.21429,-3.375 -0.86134,-9e-5 -1.60532,0.39627 -2.32142,0.85547 0.71256,-0.9326 1.1816,-1.93891 1.25,-3.10547 0,-1.863 -1.44,-3.375 -3.21429,-3.375 z"
         style="fill:#000000;fill-opacity:1;stroke:none;stroke-width:0.354331;stroke-linecap:round;stroke-linejoin:round;stroke-miterlimit:4;stroke-dasharray:1.41732, 1.41732;stroke-dashoffset:0;stroke-opacity:1" />
    </g>
  </g>
</svg>
