<?xml version="1.0" encoding="UTF-8" standalone="no"?>
<!-- Created with Inkscape (http://www.inkscape.org/) -->

<svg
   width="210mm"
   height="297mm"
   viewBox="0 0 210 297"
   version="1.1"
   id="svg1955"
   inkscape:version="1.2.2 (732a01da63, 2022-12-09)"
   sodipodi:docname="10H.svg"
   xmlns:inkscape="http://www.inkscape.org/namespaces/inkscape"
   xmlns:sodipodi="http://sodipodi.sourceforge.net/DTD/sodipodi-0.dtd"
   xmlns="http://www.w3.org/2000/svg"
   xmlns:svg="http://www.w3.org/2000/svg">
  <sodipodi:namedview
     id="namedview1957"
     pagecolor="#ffffff"
     bordercolor="#000000"
     borderopacity="0.25"
     inkscape:showpageshadow="2"
     inkscape:pageopacity="0.0"
     inkscape:pagecheckerboard="0"
     inkscape:deskcolor="#d1d1d1"
     inkscape:document-units="mm"
     showgrid="false"
     inkscape:zoom="1.6352936"
     inkscape:cx="117.10436"
     inkscape:cy="64.820166"
     inkscape:window-width="725"
     inkscape:window-height="439"
     inkscape:window-x="866"
     inkscape:window-y="423"
     inkscape:window-maximized="0"
     inkscape:current-layer="layer1" />
  <defs
     id="defs1952" />
  <g
     inkscape:label="Layer 1"
     inkscape:groupmode="layer"
     id="layer1">
    <g
       id="g15514"
       transform="matrix(0.26458333,0,0,0.26458333,-204.49674,-76.163536)">
      <g
         transform="translate(752.04393,277.92857)"
         id="g4632">
        <rect
           style="fill:#000000;fill-opacity:1;stroke:none;stroke-width:3;stroke-linecap:butt;stroke-linejoin:round;stroke-miterlimit:4;stroke-dasharray:none;stroke-opacity:1"
           id="rect4634"
           width="90"
           height="135"
           x="20.85714"
           y="9.9336166"
           ry="14.04" />
        <rect
           style="fill:#f2f2f2;fill-opacity:1;stroke:none;stroke-width:3;stroke-linecap:butt;stroke-linejoin:round;stroke-miterlimit:4;stroke-dasharray:none;stroke-opacity:1"
           id="rect4636"
           width="80"
           height="125"
           x="25.85714"
           y="14.933617"
           ry="13" />
      </g>
      <path
         id="text4696"
         d="m 783.96221,374.38645 c -0.0533,-0.79997 -0.10667,-1.5733 -0.16,-2.32 -10e-6,-0.74664 -0.0267,-1.51997 -0.08,-2.32 v -0.16 c 3.46666,-3.51996 7.19999,-6.61329 11.2,-9.28 4.05331,-2.71996 8.15997,-5.19995 12.32,-7.44 l 0.08,0.08 c -0.1067,1.22671 -0.1867,2.48005 -0.24,3.76 -0.0534,1.28004 -0.13336,2.53338 -0.24,3.76 l -0.08,0.24 c -3.94669,1.86671 -7.81335,3.92004 -11.6,6.16 -3.73335,2.1867 -7.36001,4.72003 -10.88,7.6 l -0.32,-0.08 v 0 m -1.28,-28.64 c 4.21332,-0.42661 8.39999,-0.77328 12.56,-1.04 4.21331,-0.26661 8.39997,-0.61328 12.56,-1.04 l 0.08,0.08 c -0.0534,1.22672 -0.13336,2.48006 -0.24,3.76 -0.1067,1.22672 -0.16003,2.45339 -0.16,3.68 -4.21336,2.34672 -8.32002,4.82671 -12.32,7.44 -4.00001,2.61337 -7.78668,5.6267 -11.36,9.04 l -0.16,-0.08 c -0.16001,-3.7333 -0.32001,-7.41329 -0.48,-11.04 -0.16001,-3.62662 -0.34667,-7.22661 -0.56,-10.8 l 0.08,-0.08 v 0.08 m 5.68,55.12 c -0.42668,-4.37333 -0.66668,-8.79999 -0.72,-13.28 -0.0533,-4.47998 -0.24001,-8.93331 -0.56,-13.36 l 0.08,-0.16 c 3.03999,-2.23997 6.18665,-4.31997 9.44,-6.24 3.30664,-1.91996 6.63997,-3.78663 10,-5.6 l -0.24,0.08 c -0.26669,6.40003 -0.61336,12.69336 -1.04,18.88 -0.42669,6.13335 -1.01336,12.34668 -1.76,18.64 l -0.08,0.16 c -2.56002,0.21334 -5.09335,0.42667 -7.6,0.64 -2.45335,0.16 -4.93335,0.32 -7.44,0.48 l -0.08,-0.24 m 43.4775,-31.36 c -0.0534,0.21337 -0.08,0.53337 -0.08,0.96 -3e-5,0.2667 -3e-5,0.56003 0,0.88 0.0533,0.2667 0.08,0.53336 0.08,0.8 -3e-5,0.4267 -0.0267,0.7467 -0.08,0.96 v -0.08 c -3.36002,2.08003 -6.53335,4.40002 -9.52,6.96 -2.98668,2.50669 -5.78668,5.25335 -8.4,8.24 l -0.16,-0.08 c -0.26667,-0.42665 -0.45334,-0.85332 -0.56,-1.28 -0.10667,-0.42665 -0.26667,-0.85332 -0.48,-1.28 h -0.08 c 2.93332,-3.19998 5.99999,-6.13331 9.2,-8.8 3.19998,-2.66664 6.50664,-5.11997 9.92,-7.36 l 0.16,0.08 v 0 m 18.8,-10.32 c 0.15996,0.53338 0.34662,1.06671 0.56,1.6 0.21329,0.48004 0.37329,0.98671 0.48,1.52 l 0.08,-0.08 c -3.41338,1.60004 -6.77337,3.25337 -10.08,4.96 -3.3067,1.65337 -6.48003,3.52003 -9.52,5.6 l -0.16,-0.96 -0.08,-1.68 0.08,-0.88 c 2.9333,-1.86663 5.94663,-3.67996 9.04,-5.44 3.0933,-1.75996 6.26663,-3.33329 9.52,-4.72 l 0.08,0.08 m -19.52,42.56 c -1.86669,0 -3.65335,-0.34667 -5.36,-1.04 -1.70668,-0.64 -3.28002,-1.52 -4.72,-2.64 -1.38668,-1.11999 -2.66668,-2.39999 -3.84,-3.84 -1.12001,-1.43999 -2.05334,-2.93332 -2.8,-4.48 l -0.08,-0.08 c 2.55999,-2.87998 5.25332,-5.54665 8.08,-8 2.87998,-2.50664 5.94664,-4.77331 9.2,-6.8 h 0.32 c -0.10669,4.53336 -0.24003,9.01335 -0.4,13.44 -0.10669,4.42668 -0.26669,8.88 -0.48,13.36 l 0.08,0.08 m 1.68,-0.16 c -0.10669,-4.53333 -0.21336,-9.03999 -0.32,-13.52 -0.0534,-4.47998 -0.16003,-8.98664 -0.32,-13.52 v -0.16 c 3.2533,-1.9733 6.50663,-3.8133 9.76,-5.52 3.30663,-1.70663 6.66662,-3.38663 10.08,-5.04 l 0.08,0.08 c 0.37329,1.44004 0.63995,2.9067 0.8,4.4 0.15995,1.49337 0.26662,2.9867 0.32,4.48 v 0.88 c -5e-5,3.09336 -0.40005,6.24002 -1.2,9.44 -0.80004,3.20002 -2.02671,6.13335 -3.68,8.8 -1.65337,2.61334 -3.76004,4.82667 -6.32,6.64 -2.5067,1.76 -5.49336,2.8 -8.96,3.12 l -0.08,-0.08 h -0.16 m -22.4,-28.64 c 0,-3.0933 0.45333,-6.34663 1.36,-9.76 0.90666,-3.41329 2.26666,-6.55995 4.08,-9.44 1.81332,-2.87995 4.05332,-5.25328 6.72,-7.12 2.71998,-1.86661 5.89331,-2.79994 9.52,-2.8 2.02664,6e-5 3.9733,0.40006 5.84,1.2 1.86663,0.74672 3.5733,1.78672 5.12,3.12 1.54663,1.33339 2.90663,2.85338 4.08,4.56 1.22662,1.70671 2.21329,3.46671 2.96,5.28 l -0.08,0.08 c -3.09337,1.28004 -6.16004,2.72004 -9.2,4.32 -2.9867,1.5467 -5.92003,3.20004 -8.8,4.96 l -0.24,0.08 c -3.57336,2.40003 -7.01335,4.96003 -10.32,7.68 -3.25335,2.72002 -6.29334,5.76002 -9.12,9.12 l -0.16,-0.08 c -0.48001,-1.81331 -0.85334,-3.65331 -1.12,-5.52 -0.26667,-1.91997 -0.4,-3.81331 -0.4,-5.68 h -0.24"
         style="font-style:normal;font-variant:normal;font-weight:normal;font-stretch:normal;font-size:80px;line-height:125%;font-family:'Airmole Stripe';-inkscape-font-specification:'Airmole Stripe';text-align:start;writing-mode:lr-tb;text-anchor:start;fill:#800000;fill-opacity:1;stroke:none;stroke-width:1px;stroke-linecap:butt;stroke-linejoin:miter;stroke-opacity:1" />
      <path
         id="text5341"
         d="m 809.3031,305.50019 h -5.44 v -2.96889 c 3.91111,2e-5 6.23407,-1.35701 6.96889,-4.07111 h 2.95111 v 22.70222 h -4.48 v -15.66222 m 22.10556,15.75111 c -0.92446,0.42667 -1.99705,0.64 -3.21778,0.64 -1.22075,0 -2.29334,-0.2074 -3.21778,-0.62222 -0.91259,-0.41481 -1.65926,-0.97185 -2.24,-1.67111 -0.56889,-0.69926 -1.03704,-1.56444 -1.40444,-2.59556 -0.35556,-1.04295 -0.60445,-2.1274 -0.74667,-3.25333 -0.13037,-1.12592 -0.19555,-2.38814 -0.19555,-3.78667 0,-4.33776 0.63999,-7.35998 1.92,-9.06666 0.6874,-0.93628 1.53481,-1.65331 2.54222,-2.15111 1.0074,-0.49776 2.12147,-0.74665 3.34222,-0.74667 1.3274,2e-5 2.52443,0.29039 3.59111,0.87111 1.07851,0.58076 1.94369,1.41039 2.59556,2.48889 1.0785,1.71854 1.61776,4.62816 1.61777,8.72889 -10e-6,1.36297 -0.0711,2.59556 -0.21333,3.69778 -0.13038,1.10223 -0.37335,2.16889 -0.72889,3.2 -0.35557,1.03111 -0.82372,1.8963 -1.40444,2.59555 -0.5689,0.69926 -1.31557,1.2563 -2.24,1.67111 m 0.10666,-11.27111 c -10e-6,-1.7185 -0.077,-3.14072 -0.23111,-4.26666 -0.14223,-1.12591 -0.36742,-1.97925 -0.67555,-2.56 -0.30816,-0.59258 -0.65186,-0.99554 -1.03111,-1.20889 -0.36742,-0.21332 -0.82964,-0.31998 -1.38667,-0.32 -0.79408,2e-5 -1.42815,0.24298 -1.90222,0.72889 -0.46223,0.48594 -0.81779,1.33927 -1.06667,2.56 -0.23704,1.22075 -0.35556,2.89779 -0.35555,5.03111 -10e-6,1.64741 0.0711,3.0163 0.21333,4.10666 0.14222,1.07853 0.36147,1.90816 0.65778,2.48889 0.30814,0.5689 0.65184,0.96593 1.03111,1.19111 0.3911,0.21334 0.86518,0.32001 1.42222,0.32 1.29184,10e-6 2.20443,-0.69333 2.73778,-2.08 0.16591,-0.43851 0.30221,-1.22666 0.40889,-2.36444 0.1185,-1.14962 0.17776,-2.35851 0.17777,-3.62667"
         style="font-style:normal;font-variant:normal;font-weight:bold;font-stretch:normal;font-size:32px;line-height:125%;font-family:AlMothnna;-inkscape-font-specification:'AlMothnna Bold';text-align:start;writing-mode:lr-tb;text-anchor:start;fill:#aa0000;fill-opacity:1;stroke:none;stroke-width:1px;stroke-linecap:butt;stroke-linejoin:miter;stroke-opacity:1" />
      <path
         sodipodi:nodetypes="ccccccc"
         id="path5458"
         d="m 792.87372,305.29639 c 0.6064,-3.125 1.8192,-6.25 6.064,-6.25 4.2448,0 7.58001,3.125 6.06401,9.375 -1.516,6.25 -8.48961,9.375 -12.12801,15.625 -3.6384,-6.25 -10.612,-9.375 -12.12801,-15.625 -1.516,-6.25 1.81921,-9.375 6.06401,-9.375 4.2448,0 5.4576,3.125 6.064,6.25 z"
         style="fill:#d40000;fill-opacity:1;stroke:none;stroke-width:0.354331;stroke-linecap:round;stroke-linejoin:round;stroke-miterlimit:4;stroke-dasharray:1.41732, 1.41732;stroke-dashoffset:0;stroke-opacity:1" />
      <path
         sodipodi:nodetypes="ccccccc"
         id="path5644"
         d="m 833.42855,368.11219 c 0.36384,-1.875 1.09152,-3.75 3.6384,-3.75 2.54688,0 4.548,1.875 3.6384,5.625 -0.9096,3.75 -5.09376,5.625 -7.2768,9.375 -2.18304,-3.75 -6.3672,-5.625 -7.2768,-9.375 -0.9096,-3.75 1.09152,-5.625 3.6384,-5.625 2.54688,0 3.27456,1.875 3.6384,3.75 z"
         style="fill:#d40000;fill-opacity:1;stroke:none;stroke-width:0.354331;stroke-linecap:round;stroke-linejoin:round;stroke-miterlimit:4;stroke-dasharray:1.41732, 1.41732;stroke-dashoffset:0;stroke-opacity:1" />
      <path
         sodipodi:nodetypes="ccccccc"
         id="path5700"
         d="m 786.42855,340.11219 c 0.36384,-1.875 1.09152,-3.75 3.6384,-3.75 2.54688,0 4.548,1.875 3.6384,5.625 -0.9096,3.75 -5.09376,5.625 -7.2768,9.375 -2.18304,-3.75 -6.3672,-5.625 -7.2768,-9.375 -0.9096,-3.75 1.09152,-5.625 3.6384,-5.625 2.54688,0 3.27456,1.875 3.6384,3.75 z"
         style="fill:#d40000;fill-opacity:1;stroke:none;stroke-width:0.354331;stroke-linecap:round;stroke-linejoin:round;stroke-miterlimit:4;stroke-dasharray:1.41732, 1.41732;stroke-dashoffset:0;stroke-opacity:1" />
      <path
         sodipodi:nodetypes="ccccccc"
         id="path5702"
         d="m 805.42855,342.11219 c 0.36384,-1.875 1.09152,-3.75 3.6384,-3.75 2.54688,0 4.548,1.875 3.6384,5.625 -0.9096,3.75 -5.09376,5.625 -7.2768,9.375 -2.18304,-3.75 -6.3672,-5.625 -7.2768,-9.375 -0.9096,-3.75 1.09152,-5.625 3.6384,-5.625 2.54688,0 3.27456,1.875 3.6384,3.75 z"
         style="fill:#d40000;fill-opacity:1;stroke:none;stroke-width:0.354331;stroke-linecap:round;stroke-linejoin:round;stroke-miterlimit:4;stroke-dasharray:1.41732, 1.41732;stroke-dashoffset:0;stroke-opacity:1" />
      <path
         sodipodi:nodetypes="ccccccc"
         id="path5704"
         d="m 789.42855,394.11219 c 0.36384,-1.875 1.09152,-3.75 3.6384,-3.75 2.54688,0 4.548,1.875 3.6384,5.625 -0.9096,3.75 -5.09376,5.625 -7.2768,9.375 -2.18304,-3.75 -6.3672,-5.625 -7.2768,-9.375 -0.9096,-3.75 1.09152,-5.625 3.6384,-5.625 2.54688,0 3.27456,1.875 3.6384,3.75 z"
         style="fill:#d40000;fill-opacity:1;stroke:none;stroke-width:0.354331;stroke-linecap:round;stroke-linejoin:round;stroke-miterlimit:4;stroke-dasharray:1.41732, 1.41732;stroke-dashoffset:0;stroke-opacity:1" />
      <path
         sodipodi:nodetypes="ccccccc"
         id="path5706"
         d="m 803.42855,394.11219 c 0.36384,-1.875 1.09152,-3.75 3.6384,-3.75 2.54688,0 4.548,1.875 3.6384,5.625 -0.9096,3.75 -5.09376,5.625 -7.2768,9.375 -2.18304,-3.75 -6.3672,-5.625 -7.2768,-9.375 -0.9096,-3.75 1.09152,-5.625 3.6384,-5.625 2.54688,0 3.27456,1.875 3.6384,3.75 z"
         style="fill:#d40000;fill-opacity:1;stroke:none;stroke-width:0.354331;stroke-linecap:round;stroke-linejoin:round;stroke-miterlimit:4;stroke-dasharray:1.41732, 1.41732;stroke-dashoffset:0;stroke-opacity:1" />
      <path
         sodipodi:nodetypes="ccccccc"
         id="path5708"
         d="m 823.42855,392.11219 c 0.36384,-1.875 1.09152,-3.75 3.6384,-3.75 2.54688,0 4.548,1.875 3.6384,5.625 -0.9096,3.75 -5.09376,5.625 -7.2768,9.375 -2.18304,-3.75 -6.3672,-5.625 -7.2768,-9.375 -0.9096,-3.75 1.09152,-5.625 3.6384,-5.625 2.54688,0 3.27456,1.875 3.6384,3.75 z"
         style="fill:#d40000;fill-opacity:1;stroke:none;stroke-width:0.354331;stroke-linecap:round;stroke-linejoin:round;stroke-miterlimit:4;stroke-dasharray:1.41732, 1.41732;stroke-dashoffset:0;stroke-opacity:1" />
      <path
         sodipodi:nodetypes="ccccccc"
         id="path5710"
         d="m 846.42855,392.11219 c 0.36384,-1.875 1.09152,-3.75 3.6384,-3.75 2.54688,0 4.548,1.875 3.6384,5.625 -0.9096,3.75 -5.09376,5.625 -7.2768,9.375 -2.18304,-3.75 -6.3672,-5.625 -7.2768,-9.375 -0.9096,-3.75 1.09152,-5.625 3.6384,-5.625 2.54688,0 3.27456,1.875 3.6384,3.75 z"
         style="fill:#d40000;fill-opacity:1;stroke:none;stroke-width:0.354331;stroke-linecap:round;stroke-linejoin:round;stroke-miterlimit:4;stroke-dasharray:1.41732, 1.41732;stroke-dashoffset:0;stroke-opacity:1" />
      <path
         sodipodi:nodetypes="ccccccc"
         id="path5712"
         d="m 854.42855,364.11219 c 0.36384,-1.875 1.09152,-3.75 3.6384,-3.75 2.54688,0 4.548,1.875 3.6384,5.625 -0.9096,3.75 -5.09376,5.625 -7.2768,9.375 -2.18304,-3.75 -6.3672,-5.625 -7.2768,-9.375 -0.9096,-3.75 1.09152,-5.625 3.6384,-5.625 2.54688,0 3.27456,1.875 3.6384,3.75 z"
         style="fill:#d40000;fill-opacity:1;stroke:none;stroke-width:0.354331;stroke-linecap:round;stroke-linejoin:round;stroke-miterlimit:4;stroke-dasharray:1.41732, 1.41732;stroke-dashoffset:0;stroke-opacity:1" />
      <path
         sodipodi:nodetypes="ccccccc"
         id="path5714"
         d="m 845.42855,341.11219 c 0.36384,-1.875 1.09152,-3.75 3.6384,-3.75 2.54688,0 4.548,1.875 3.6384,5.625 -0.9096,3.75 -5.09376,5.625 -7.2768,9.375 -2.18304,-3.75 -6.3672,-5.625 -7.2768,-9.375 -0.9096,-3.75 1.09152,-5.625 3.6384,-5.625 2.54688,0 3.27456,1.875 3.6384,3.75 z"
         style="fill:#d40000;fill-opacity:1;stroke:none;stroke-width:0.354331;stroke-linecap:round;stroke-linejoin:round;stroke-miterlimit:4;stroke-dasharray:1.41732, 1.41732;stroke-dashoffset:0;stroke-opacity:1" />
      <path
         sodipodi:nodetypes="ccccccc"
         id="path5716"
         d="m 821.42855,344.11219 c 0.36384,-1.875 1.09152,-3.75 3.6384,-3.75 2.54688,0 4.548,1.875 3.6384,5.625 -0.9096,3.75 -5.09376,5.625 -7.2768,9.375 -2.18304,-3.75 -6.3672,-5.625 -7.2768,-9.375 -0.9096,-3.75 1.09152,-5.625 3.6384,-5.625 2.54688,0 3.27456,1.875 3.6384,3.75 z"
         style="fill:#d40000;fill-opacity:1;stroke:none;stroke-width:0.354331;stroke-linecap:round;stroke-linejoin:round;stroke-miterlimit:4;stroke-dasharray:1.41732, 1.41732;stroke-dashoffset:0;stroke-opacity:1" />
    </g>
  </g>
</svg>
