<?xml version="1.0" encoding="UTF-8" standalone="no"?>
<!-- Created with Inkscape (http://www.inkscape.org/) -->

<svg
   width="210mm"
   height="297mm"
   viewBox="0 0 210 297"
   version="1.1"
   id="svg1955"
   inkscape:version="1.2.2 (732a01da63, 2022-12-09)"
   sodipodi:docname="10S.svg"
   xmlns:inkscape="http://www.inkscape.org/namespaces/inkscape"
   xmlns:sodipodi="http://sodipodi.sourceforge.net/DTD/sodipodi-0.dtd"
   xmlns="http://www.w3.org/2000/svg"
   xmlns:svg="http://www.w3.org/2000/svg">
  <sodipodi:namedview
     id="namedview1957"
     pagecolor="#ffffff"
     bordercolor="#000000"
     borderopacity="0.25"
     inkscape:showpageshadow="2"
     inkscape:pageopacity="0.0"
     inkscape:pagecheckerboard="0"
     inkscape:deskcolor="#d1d1d1"
     inkscape:document-units="mm"
     showgrid="false"
     inkscape:zoom="1.6352936"
     inkscape:cx="117.10436"
     inkscape:cy="27.517995"
     inkscape:window-width="725"
     inkscape:window-height="439"
     inkscape:window-x="858"
     inkscape:window-y="349"
     inkscape:window-maximized="0"
     inkscape:current-layer="layer1" />
  <defs
     id="defs1952" />
  <g
     inkscape:label="Layer 1"
     inkscape:groupmode="layer"
     id="layer1">
    <g
       id="g15742"
       transform="matrix(0.26458333,0,0,0.26458333,-204.61014,-1.8250693)">
      <g
         transform="translate(752.47252,-3.035717)"
         id="g4356">
        <rect
           style="fill:#000000;fill-opacity:1;stroke:none;stroke-width:3;stroke-linecap:butt;stroke-linejoin:round;stroke-miterlimit:4;stroke-dasharray:none;stroke-opacity:1"
           id="rect4358"
           width="90"
           height="135"
           x="20.85714"
           y="9.9336166"
           ry="14.04" />
        <rect
           style="fill:#f2f2f2;fill-opacity:1;stroke:none;stroke-width:3;stroke-linecap:butt;stroke-linejoin:round;stroke-miterlimit:4;stroke-dasharray:none;stroke-opacity:1"
           id="rect4360"
           width="80"
           height="125"
           x="25.85714"
           y="14.933617"
           ry="13" />
      </g>
      <path
         id="text4420"
         d="m 784.3908,93.42218 c -0.0533,-0.799973 -0.10667,-1.573306 -0.16,-2.32 -1e-5,-0.746637 -0.0267,-1.51997 -0.08,-2.32 v -0.16 c 3.46666,-3.519965 7.19999,-6.613296 11.2,-9.28 4.05331,-2.719957 8.15997,-5.199955 12.32,-7.44 l 0.08,0.08 c -0.1067,1.226713 -0.1867,2.480045 -0.24,3.76 -0.0534,1.280043 -0.13336,2.533375 -0.24,3.76 l -0.08,0.24 c -3.94669,1.866705 -7.81336,3.920036 -11.6,6.16 -3.73335,2.186698 -7.36001,4.720029 -10.88,7.6 l -0.32,-0.08 v 0 m -1.28,-28.64 c 4.21332,-0.426611 8.39999,-0.773278 12.56,-1.04 4.21331,-0.266611 8.39997,-0.613277 12.56,-1.04 l 0.08,0.08 c -0.0534,1.226722 -0.13336,2.480054 -0.24,3.76 -0.1067,1.226719 -0.16003,2.453384 -0.16,3.68 -4.21336,2.346714 -8.32002,4.826711 -12.32,7.44 -4.00001,2.613373 -7.78668,5.626703 -11.36,9.04 l -0.16,-0.08 c -0.16001,-3.733297 -0.32001,-7.413293 -0.48,-11.04 -0.16001,-3.626619 -0.34667,-7.226615 -0.56,-10.8 l 0.08,-0.08 v 0.08 m 5.68,55.12 c -0.42668,-4.37333 -0.66668,-8.79999 -0.72,-13.28 -0.0533,-4.47998 -0.24001,-8.933311 -0.56,-13.36 l 0.08,-0.16 c 3.03999,-2.239971 6.18665,-4.319969 9.44,-6.24 3.30664,-1.919965 6.63997,-3.78663 10,-5.6 l -0.24,0.08 c -0.2667,6.400032 -0.61336,12.693359 -1.04,18.88 -0.42669,6.13335 -1.01336,12.34667 -1.76,18.64 l -0.08,0.16 c -2.56002,0.21333 -5.09336,0.42667 -7.6,0.64 -2.45335,0.16 -4.93335,0.32 -7.44,0.48 l -0.08,-0.24 m 43.4775,-31.36 c -0.0534,0.213364 -0.08,0.533364 -0.08,0.96 -3e-5,0.266697 -3e-5,0.56003 0,0.88 0.0533,0.266696 0.08,0.533362 0.08,0.8 -3e-5,0.426695 -0.0267,0.746694 -0.08,0.96 v -0.08 c -3.36002,2.080025 -6.53335,4.400023 -9.52,6.96 -2.98668,2.50668 -5.78668,5.25335 -8.4,8.24 l -0.16,-0.08 c -0.26667,-0.42665 -0.45334,-0.85332 -0.56,-1.28 -0.10667,-0.42665 -0.26667,-0.85332 -0.48,-1.28 h -0.08 c 2.93332,-3.19998 5.99999,-6.133312 9.2,-8.8 3.19998,-2.66664 6.50664,-5.119971 9.92,-7.36 l 0.16,0.08 v 0 m 18.8,-10.32 c 0.15995,0.533374 0.34662,1.066707 0.56,1.6 0.21329,0.480039 0.37329,0.986705 0.48,1.52 l 0.08,-0.08 c -3.41338,1.600037 -6.77337,3.253368 -10.08,4.96 -3.3067,1.653365 -6.48003,3.52003 -9.52,5.6 l -0.16,-0.96 -0.08,-1.68 0.08,-0.88 c 2.9333,-1.866633 5.94663,-3.679965 9.04,-5.44 3.09329,-1.759961 6.26662,-3.333293 9.52,-4.72 l 0.08,0.08 m -19.52,42.56 c -1.86669,0 -3.65336,-0.34667 -5.36,-1.04 -1.70669,-0.64 -3.28002,-1.52 -4.72,-2.64 -1.38668,-1.12 -2.66668,-2.4 -3.84,-3.84 -1.12001,-1.43999 -2.05334,-2.93332 -2.8,-4.48 l -0.08,-0.08 c 2.55999,-2.87999 5.25332,-5.54665 8.08,-8 2.87998,-2.506645 5.94664,-4.77331 9.2,-6.8 h 0.32 c -0.10669,4.533355 -0.24003,9.01335 -0.4,13.44 -0.10669,4.42667 -0.26669,8.88 -0.48,13.36 l 0.08,0.08 m 1.68,-0.16 c -0.10669,-4.53333 -0.21336,-9.03999 -0.32,-13.52 -0.0534,-4.47998 -0.16003,-8.986645 -0.32,-13.52 v -0.16 c 3.2533,-1.973305 6.50663,-3.813303 9.76,-5.52 3.30663,-1.706633 6.66662,-3.386632 10.08,-5.04 l 0.08,0.08 c 0.37329,1.440035 0.63995,2.9067 0.8,4.4 0.15995,1.493364 0.26662,2.986696 0.32,4.48 v 0.88 c -5e-5,3.093357 -0.40005,6.240021 -1.2,9.44 -0.80005,3.20001 -2.02671,6.13334 -3.68,8.8 -1.65337,2.61334 -3.76004,4.82667 -6.32,6.64 -2.5067,1.76 -5.49336,2.8 -8.96,3.12 l -0.08,-0.08 h -0.16 m -22.4,-28.64 c -10e-6,-3.093303 0.45333,-6.346633 1.36,-9.76 0.90666,-3.413293 2.26666,-6.559956 4.08,-9.44 1.81332,-2.87995 4.05332,-5.253281 6.72,-7.12 2.71998,-1.866611 5.89331,-2.799943 9.52,-2.8 2.02664,5.7e-5 3.9733,0.400056 5.84,1.2 1.86663,0.746721 3.5733,1.78672 5.12,3.12 1.54663,1.333384 2.90663,2.853383 4.08,4.56 1.22662,1.706713 2.21329,3.466711 2.96,5.28 l -0.08,0.08 c -3.09338,1.280041 -6.16004,2.72004 -9.2,4.32 -2.9867,1.546703 -5.92003,3.200035 -8.8,4.96 l -0.24,0.08 c -3.57336,2.400031 -7.01335,4.960028 -10.32,7.68 -3.25335,2.720023 -6.29334,5.76002 -9.12,9.12 l -0.16,-0.08 c -0.48001,-1.81332 -0.85334,-3.653313 -1.12,-5.52 -0.26667,-1.919976 -0.40001,-3.813308 -0.4,-5.68 h -0.24"
         style="font-style:normal;font-variant:normal;font-weight:normal;font-stretch:normal;font-size:80px;line-height:125%;font-family:'Airmole Stripe';-inkscape-font-specification:'Airmole Stripe';text-align:start;writing-mode:lr-tb;text-anchor:start;fill:#333333;fill-opacity:1;stroke:none;stroke-width:1px;stroke-linecap:butt;stroke-linejoin:miter;stroke-opacity:1" />
      <path
         sodipodi:nodetypes="ccsscssccc"
         id="path4915"
         d="m 786.23157,39.362194 c 4.5071,-1.001575 4.992,-3.641382 5.33204,-8.496093 -0.78317,1.296981 -2.20704,2.254106 -4.53125,2.246093 -3.8203,-0.01317 -6.37925,-2.234875 -5.46875,-7.03125 0.91796,-4.835737 7.79296,-6.710737 10.91796,-11.71875 3.125,5.008013 10,6.883013 10.91797,11.71875 0.9105,4.796382 -1.54298,7.017718 -5.46875,7.03125 -2.32422,0.008 -3.74808,-0.949112 -4.53125,-2.246093 0.34004,4.854711 0.82494,7.494518 5.33203,8.496093 -3.125,0 -9.375,0 -12.5,0 z"
         style="fill:#000000;fill-opacity:1;stroke:none;stroke-width:0.354331;stroke-linecap:round;stroke-linejoin:round;stroke-miterlimit:4;stroke-dasharray:1.41732, 1.41732;stroke-dashoffset:0;stroke-opacity:1" />
      <path
         sodipodi:nodetypes="ccsscssccc"
         id="path5119"
         d="m 782.55565,68.715747 c 2.70425,-0.60094 2.99519,-2.18483 3.19922,-5.09765 -0.4699,0.77818 -1.32422,1.35246 -2.71875,1.34765 -2.29218,-0.0079 -3.82755,-1.34092 -3.28125,-4.21875 0.55078,-2.90144 4.67578,-4.026438 6.55078,-7.03125 1.875,3.004812 6,4.12981 6.55078,7.03125 0.5463,2.87783 -0.92579,4.21063 -3.28125,4.21875 -1.39453,0.0048 -2.24885,-0.56947 -2.71875,-1.34765 0.20402,2.91282 0.49496,4.49671 3.19922,5.09765 -1.875,0 -5.625,0 -7.5,0 z"
         style="fill:#000000;fill-opacity:1;stroke:none;stroke-width:0.354331;stroke-linecap:round;stroke-linejoin:round;stroke-miterlimit:4;stroke-dasharray:1.41732, 1.41732;stroke-dashoffset:0;stroke-opacity:1" />
      <path
         sodipodi:nodetypes="ccsscssccc"
         id="path5121"
         d="m 803.5054,68.069301 c 2.70425,-0.60094 2.99519,-2.18483 3.19922,-5.09765 -0.4699,0.77818 -1.32422,1.35246 -2.71875,1.34765 -2.29218,-0.0079 -3.82755,-1.34092 -3.28125,-4.21875 0.55078,-2.90144 4.67578,-4.026438 6.55078,-7.03125 1.875,3.004812 6,4.12981 6.55078,7.03125 0.5463,2.87783 -0.92579,4.21063 -3.28125,4.21875 -1.39453,0.0048 -2.24885,-0.56947 -2.71875,-1.34765 0.20402,2.91282 0.49496,4.49671 3.19922,5.09765 -1.875,0 -5.625,0 -7.5,0 z"
         style="fill:#000000;fill-opacity:1;stroke:none;stroke-width:0.354331;stroke-linecap:round;stroke-linejoin:round;stroke-miterlimit:4;stroke-dasharray:1.41732, 1.41732;stroke-dashoffset:0;stroke-opacity:1" />
      <path
         sodipodi:nodetypes="ccsscssccc"
         id="path5123"
         d="m 828.99068,93.878698 c 2.70425,-0.60094 2.99519,-2.18483 3.19922,-5.09765 -0.4699,0.77818 -1.32422,1.35246 -2.71875,1.34765 -2.29218,-0.0079 -3.82755,-1.34092 -3.28125,-4.21875 0.55078,-2.90144 4.67578,-4.026438 6.55078,-7.03125 1.875,3.004812 6,4.12981 6.55078,7.03125 0.5463,2.87783 -0.92579,4.21063 -3.28125,4.21875 -1.39453,0.0048 -2.24885,-0.56947 -2.71875,-1.34765 0.20402,2.91282 0.49496,4.49671 3.19922,5.09765 -1.875,0 -5.625,0 -7.5,0 z"
         style="fill:#000000;fill-opacity:1;stroke:none;stroke-width:0.354331;stroke-linecap:round;stroke-linejoin:round;stroke-miterlimit:4;stroke-dasharray:1.41732, 1.41732;stroke-dashoffset:0;stroke-opacity:1" />
      <path
         sodipodi:nodetypes="ccsscssccc"
         id="path5125"
         d="m 842.15184,74.544175 c 2.70425,-0.60094 2.99519,-2.18483 3.19922,-5.09765 -0.4699,0.77818 -1.32422,1.35246 -2.71875,1.34765 -2.29218,-0.0079 -3.82755,-1.34092 -3.28125,-4.21875 0.55078,-2.90144 4.67578,-4.026438 6.55078,-7.03125 1.875,3.004812 6,4.12981 6.55078,7.03125 0.5463,2.87783 -0.92579,4.21063 -3.28125,4.21875 -1.39453,0.0048 -2.24885,-0.56947 -2.71875,-1.34765 0.20402,2.91282 0.49496,4.49671 3.19922,5.09765 -1.875,0 -5.625,0 -7.5,0 z"
         style="fill:#000000;fill-opacity:1;stroke:none;stroke-width:0.354331;stroke-linecap:round;stroke-linejoin:round;stroke-miterlimit:4;stroke-dasharray:1.41732, 1.41732;stroke-dashoffset:0;stroke-opacity:1" />
      <path
         sodipodi:nodetypes="ccsscssccc"
         id="path5127"
         d="m 847.67697,99.261689 c 2.70425,-0.60094 2.99519,-2.18483 3.19922,-5.09765 -0.4699,0.77818 -1.32422,1.35246 -2.71875,1.34765 -2.29218,-0.0079 -3.82755,-1.34092 -3.28125,-4.21875 0.55078,-2.90144 4.67578,-4.026438 6.55078,-7.03125 1.875,3.004812 6,4.12981 6.55078,7.03125 0.5463,2.87783 -0.92579,4.21063 -3.28125,4.21875 -1.39453,0.0048 -2.24885,-0.56947 -2.71875,-1.34765 0.20402,2.91282 0.49496,4.49671 3.19922,5.09765 -1.875,0 -5.625,0 -7.5,0 z"
         style="fill:#000000;fill-opacity:1;stroke:none;stroke-width:0.354331;stroke-linecap:round;stroke-linejoin:round;stroke-miterlimit:4;stroke-dasharray:1.41732, 1.41732;stroke-dashoffset:0;stroke-opacity:1" />
      <path
         sodipodi:nodetypes="ccsscssccc"
         id="path5129"
         d="m 843.31301,123.90813 c 2.70425,-0.60094 2.99519,-2.18483 3.19922,-5.09765 -0.4699,0.77818 -1.32422,1.35246 -2.71875,1.34765 -2.29218,-0.008 -3.82755,-1.34092 -3.28125,-4.21875 0.55078,-2.90144 4.67578,-4.02643 6.55078,-7.03124 1.875,3.00481 6,4.1298 6.55078,7.03124 0.5463,2.87783 -0.92579,4.21063 -3.28125,4.21875 -1.39453,0.005 -2.24885,-0.56947 -2.71875,-1.34765 0.20402,2.91282 0.49496,4.49671 3.19922,5.09765 -1.875,0 -5.625,0 -7.5,0 z"
         style="fill:#000000;fill-opacity:1;stroke:none;stroke-width:0.354331;stroke-linecap:round;stroke-linejoin:round;stroke-miterlimit:4;stroke-dasharray:1.41732, 1.41732;stroke-dashoffset:0;stroke-opacity:1" />
      <path
         sodipodi:nodetypes="ccsscssccc"
         id="path5131"
         d="m 819.58509,125.30153 c 2.70425,-0.60094 2.99519,-2.18483 3.19922,-5.09765 -0.4699,0.77818 -1.32422,1.35246 -2.71875,1.34765 -2.29218,-0.008 -3.82755,-1.34092 -3.28125,-4.21875 0.55078,-2.90144 4.67578,-4.02643 6.55078,-7.03125 1.875,3.00482 6,4.12981 6.55078,7.03125 0.5463,2.87783 -0.92579,4.21063 -3.28125,4.21875 -1.39453,0.005 -2.24885,-0.56947 -2.71875,-1.34765 0.20402,2.91282 0.49496,4.49671 3.19922,5.09765 -1.875,0 -5.625,0 -7.5,0 z"
         style="fill:#000000;fill-opacity:1;stroke:none;stroke-width:0.354331;stroke-linecap:round;stroke-linejoin:round;stroke-miterlimit:4;stroke-dasharray:1.41732, 1.41732;stroke-dashoffset:0;stroke-opacity:1" />
      <path
         sodipodi:nodetypes="ccsscssccc"
         id="path5133"
         d="m 818.14144,74.329181 c 2.70425,-0.60094 2.99519,-2.18483 3.19922,-5.09765 -0.4699,0.77818 -1.32422,1.35246 -2.71875,1.34765 -2.29218,-0.0079 -3.82755,-1.34092 -3.28125,-4.21875 0.55078,-2.90144 4.67578,-4.02643 6.55078,-7.03125 1.875,3.00482 6,4.12981 6.55078,7.03125 0.5463,2.87783 -0.92579,4.21063 -3.28125,4.21875 -1.39453,0.0048 -2.24885,-0.56947 -2.71875,-1.34765 0.20402,2.91282 0.49496,4.49671 3.19922,5.09765 -1.875,0 -5.625,0 -7.5,0 z"
         style="fill:#000000;fill-opacity:1;stroke:none;stroke-width:0.354331;stroke-linecap:round;stroke-linejoin:round;stroke-miterlimit:4;stroke-dasharray:1.41732, 1.41732;stroke-dashoffset:0;stroke-opacity:1" />
      <path
         sodipodi:nodetypes="ccsscssccc"
         id="path5135"
         d="m 785.71681,126.94798 c 2.70425,-0.60094 2.99519,-2.18483 3.19922,-5.09765 -0.4699,0.77818 -1.32422,1.35246 -2.71875,1.34765 -2.29218,-0.008 -3.82755,-1.34092 -3.28125,-4.21875 0.55078,-2.90144 4.67578,-4.02643 6.55078,-7.03125 1.875,3.00482 6,4.12981 6.55078,7.03125 0.5463,2.87783 -0.92579,4.21063 -3.28125,4.21875 -1.39453,0.005 -2.24885,-0.56947 -2.71875,-1.34765 0.20402,2.91282 0.49496,4.49671 3.19922,5.09765 -1.875,0 -5.625,0 -7.5,0 z"
         style="fill:#000000;fill-opacity:1;stroke:none;stroke-width:0.354331;stroke-linecap:round;stroke-linejoin:round;stroke-miterlimit:4;stroke-dasharray:1.41732, 1.41732;stroke-dashoffset:0;stroke-opacity:1" />
      <path
         sodipodi:nodetypes="ccsscssccc"
         id="path5137"
         d="m 802.78788,125.63605 c 2.70425,-0.60094 2.99519,-2.18483 3.19922,-5.09764 -0.4699,0.77818 -1.32422,1.35246 -2.71875,1.34765 -2.29218,-0.008 -3.82755,-1.34092 -3.28125,-4.21875 0.55078,-2.90144 4.67578,-4.02644 6.55078,-7.03125 1.875,3.00481 6,4.12981 6.55078,7.03125 0.5463,2.87783 -0.92579,4.21063 -3.28125,4.21875 -1.39453,0.005 -2.24885,-0.56947 -2.71875,-1.34765 0.20402,2.91281 0.49496,4.4967 3.19922,5.09764 -1.875,0 -5.625,0 -7.5,0 z"
         style="fill:#000000;fill-opacity:1;stroke:none;stroke-width:0.354331;stroke-linecap:round;stroke-linejoin:round;stroke-miterlimit:4;stroke-dasharray:1.41732, 1.41732;stroke-dashoffset:0;stroke-opacity:1" />
      <path
         id="text5237"
         d="m 807.47125,22.373491 h -5.44 v -2.968889 c 3.91111,1.9e-5 6.23407,-1.357017 6.96889,-4.071111 h 2.95111 v 22.702222 h -4.48 V 22.373491 m 22.10556,15.751111 c -0.92446,0.426666 -1.99705,0.639999 -3.21778,0.64 -1.22075,-10e-7 -2.29334,-0.207408 -3.21778,-0.622222 -0.91259,-0.414815 -1.65926,-0.971851 -2.24,-1.671111 -0.56889,-0.699257 -1.03703,-1.564442 -1.40444,-2.595556 -0.35556,-1.042958 -0.60445,-2.127401 -0.74667,-3.253333 -0.13037,-1.125918 -0.19555,-2.388138 -0.19555,-3.786667 0,-4.337762 0.64,-7.359981 1.92,-9.066666 0.6874,-0.936276 1.53481,-1.653312 2.54222,-2.151112 1.0074,-0.497754 2.12147,-0.746643 3.34222,-0.746666 1.3274,2.3e-5 2.52444,0.290393 3.59111,0.871111 1.07851,0.580762 1.94369,1.410391 2.59556,2.488889 1.0785,1.718536 1.61776,4.628163 1.61778,8.728889 -2e-5,1.362972 -0.0711,2.595564 -0.21334,3.697777 -0.13038,1.102229 -0.37335,2.168895 -0.72889,3.2 -0.35557,1.031115 -0.82371,1.896299 -1.40444,2.595556 -0.5689,0.69926 -1.31557,1.256297 -2.24,1.671111 m 0.10667,-11.271111 c -2e-5,-1.718506 -0.077,-3.140726 -0.23111,-4.266667 -0.14224,-1.125909 -0.36742,-1.979242 -0.67556,-2.56 -0.30816,-0.592574 -0.65186,-0.995536 -1.03111,-1.208889 -0.36742,-0.213313 -0.82964,-0.31998 -1.38667,-0.32 -0.79408,2e-5 -1.42815,0.242983 -1.90222,0.728889 -0.46223,0.485945 -0.81778,1.339277 -1.06667,2.56 -0.23704,1.220756 -0.35556,2.897791 -0.35555,5.031111 -10e-6,1.647417 0.0711,3.016305 0.21333,4.106667 0.14222,1.078525 0.36148,1.908153 0.65778,2.488889 0.30814,0.568893 0.65184,0.96593 1.03111,1.191111 0.3911,0.213337 0.86518,0.320003 1.42222,0.32 1.29184,3e-6 2.20444,-0.693329 2.73778,-2.08 0.16591,-0.438513 0.30221,-1.22666 0.40889,-2.364444 0.11851,-1.149621 0.17776,-2.358509 0.17778,-3.626667"
         style="font-style:normal;font-variant:normal;font-weight:bold;font-stretch:normal;font-size:32px;line-height:125%;font-family:AlMothnna;-inkscape-font-specification:'AlMothnna Bold';text-align:start;writing-mode:lr-tb;text-anchor:start;fill:#000000;fill-opacity:1;stroke:none;stroke-width:1px;stroke-linecap:butt;stroke-linejoin:miter;stroke-opacity:1" />
    </g>
  </g>
</svg>
