<?xml version="1.0" encoding="UTF-8" standalone="no"?>
<!-- Created with Inkscape (http://www.inkscape.org/) -->

<svg
   width="210mm"
   height="297mm"
   viewBox="0 0 210 297"
   version="1.1"
   id="svg1955"
   inkscape:version="1.2.2 (732a01da63, 2022-12-09)"
   sodipodi:docname="1H.svg"
   xmlns:inkscape="http://www.inkscape.org/namespaces/inkscape"
   xmlns:sodipodi="http://sodipodi.sourceforge.net/DTD/sodipodi-0.dtd"
   xmlns="http://www.w3.org/2000/svg"
   xmlns:svg="http://www.w3.org/2000/svg">
  <sodipodi:namedview
     id="namedview1957"
     pagecolor="#ffffff"
     bordercolor="#000000"
     borderopacity="0.25"
     inkscape:showpageshadow="2"
     inkscape:pageopacity="0.0"
     inkscape:pagecheckerboard="0"
     inkscape:deskcolor="#d1d1d1"
     inkscape:document-units="mm"
     showgrid="false"
     inkscape:zoom="1.6352936"
     inkscape:cx="117.10436"
     inkscape:cy="64.820166"
     inkscape:window-width="725"
     inkscape:window-height="439"
     inkscape:window-x="837"
     inkscape:window-y="517"
     inkscape:window-maximized="0"
     inkscape:current-layer="layer1" />
  <defs
     id="defs1952" />
  <g
     inkscape:label="Layer 1"
     inkscape:groupmode="layer"
     id="layer1">
    <g
       id="g15603"
       transform="matrix(0.26458333,0,0,0.26458333,-306.02693,-76.163536)">
      <g
         transform="translate(1135.7801,277.92857)"
         id="g4656">
        <rect
           style="fill:#000000;fill-opacity:1;stroke:none;stroke-width:3;stroke-linecap:butt;stroke-linejoin:round;stroke-miterlimit:4;stroke-dasharray:none;stroke-opacity:1"
           id="rect4658"
           width="90"
           height="135"
           x="20.85714"
           y="9.9336166"
           ry="14.04" />
        <rect
           style="fill:#f2f2f2;fill-opacity:1;stroke:none;stroke-width:3;stroke-linecap:butt;stroke-linejoin:round;stroke-miterlimit:4;stroke-dasharray:none;stroke-opacity:1"
           id="rect4660"
           width="80"
           height="125"
           x="25.85714"
           y="14.933617"
           ry="13" />
      </g>
      <path
         id="text5357"
         d="m 1204.2705,316.94018 h -9.5667 l -1.7111,5.13334 h -5.3472 l 9.0805,-25.53056 h 5.775 l 8.8278,25.53056 h -5.3667 l -1.6916,-5.13334 m -1.4389,-4.39444 -3.3056,-9.975 -3.3444,9.975 h 6.65"
         style="font-style:normal;font-variant:normal;font-weight:bold;font-stretch:normal;font-size:35px;line-height:125%;font-family:AlMothnna;-inkscape-font-specification:'AlMothnna Bold';text-align:start;writing-mode:lr-tb;text-anchor:start;fill:#aa0000;fill-opacity:1;stroke:none;stroke-width:1px;stroke-linecap:butt;stroke-linejoin:miter;stroke-opacity:1" />
      <path
         sodipodi:nodetypes="ccccccc"
         id="path5466"
         d="m 1176.61,305.29639 c 0.6064,-3.125 1.8192,-6.25 6.064,-6.25 4.2448,0 7.58,3.125 6.064,9.375 -1.516,6.25 -8.4896,9.375 -12.128,15.625 -3.6384,-6.25 -10.612,-9.375 -12.128,-15.625 -1.516,-6.25 1.8192,-9.375 6.064,-9.375 4.2448,0 5.4576,3.125 6.064,6.25 z"
         style="fill:#d40000;fill-opacity:1;stroke:none;stroke-width:0.354331;stroke-linecap:round;stroke-linejoin:round;stroke-miterlimit:4;stroke-dasharray:1.41732, 1.41732;stroke-dashoffset:0;stroke-opacity:1" />
      <path
         sodipodi:nodetypes="ccccccc"
         id="path5720"
         d="m 1201.6371,339.86219 c 1.213,-6.25 3.6386,-12.5 12.1283,-12.5 8.4893,0 15.16,6.25 12.128,18.75 -3.032,12.5 -16.9793,18.75 -24.2563,31.25 -7.2767,-12.5 -21.224,-18.75 -24.256,-31.25 -3.032,-12.5 3.6386,-18.75 12.128,-18.75 8.4896,0 10.9153,6.25 12.128,12.5 z"
         style="fill:#d40000;fill-opacity:1;stroke:none;stroke-width:0.354331;stroke-linecap:round;stroke-linejoin:round;stroke-miterlimit:4;stroke-dasharray:1.41732, 1.41732;stroke-dashoffset:0;stroke-opacity:1" />
      <path
         id="text4712"
         d="m 1212.1572,366.54647 c 0.2667,0.85337 0.5867,1.68003 0.96,2.48 0.3733,0.80003 0.72,1.60003 1.04,2.4 l -0.08,0.16 c -4.8533,0.16003 -9.6,0.85336 -14.24,2.08 -4.64,1.17336 -9.0133,3.22669 -13.12,6.16 l -0.16,-0.08 c 0.3734,-0.74664 0.6667,-1.49331 0.88,-2.24 0.2667,-0.74664 0.5334,-1.51997 0.8,-2.32 3.84,-2.02664 7.7333,-3.75997 11.68,-5.2 3.9467,-1.4933 8,-2.66663 12.16,-3.52 l 0.08,0.08 v 0 m -9.92,-22.88 c 1.6,3.68006 3.2,7.25339 4.8,10.72 1.6,3.46671 3.12,7.04004 4.56,10.72 h -0.08 c -3.84,0.7467 -7.6,1.7867 -11.28,3.12 -3.6267,1.33337 -7.2,2.88003 -10.72,4.64 l -0.32,0.08 c 2.24,-4.95996 4.4,-9.86663 6.48,-14.72 2.08,-4.90662 4.24,-9.73328 6.48,-14.48 l 0.08,-0.08 m -24.48,58.96 c 1.3867,-3.36 2.6934,-6.77333 3.92,-10.24 1.28,-3.46665 2.64,-6.90665 4.08,-10.32 1.92,-1.43998 4.0267,-2.71998 6.32,-3.84 2.3467,-1.17331 4.7733,-2.15997 7.28,-2.96 2.5067,-0.79997 5.04,-1.4133 7.6,-1.84 2.6133,-0.42664 5.1733,-0.63997 7.68,-0.64 l -0.08,-0.16 c 2.0267,5.22669 3.8933,10.42669 5.6,15.6 1.76,5.17334 3.5466,10.34667 5.36,15.52 l -0.24,0.16 c -3.4133,0.16 -6.88,0.24 -10.4,0.24 -3.52,0 -7.0933,0.0267 -10.72,0.08 l -0.08,-0.08 c -0.48,-1.70667 -0.9333,-3.41333 -1.36,-5.12 -0.4267,-1.75999 -0.88,-3.49333 -1.36,-5.2 l -2.16,9.12 0.08,-0.16 h -21.52 v -0.16"
         style="font-style:normal;font-variant:normal;font-weight:normal;font-stretch:normal;font-size:80px;line-height:125%;font-family:'Airmole Stripe';-inkscape-font-specification:'Airmole Stripe';text-align:start;writing-mode:lr-tb;text-anchor:start;fill:#800000;fill-opacity:1;stroke:none;stroke-width:1px;stroke-linecap:butt;stroke-linejoin:miter;stroke-opacity:1" />
    </g>
  </g>
</svg>
