<?xml version="1.0" encoding="UTF-8" standalone="no"?>
<!-- Created with Inkscape (http://www.inkscape.org/) -->

<svg
   width="210mm"
   height="297mm"
   viewBox="0 0 210 297"
   version="1.1"
   id="svg1955"
   inkscape:version="1.2.2 (732a01da63, 2022-12-09)"
   sodipodi:docname="1S.svg"
   xmlns:inkscape="http://www.inkscape.org/namespaces/inkscape"
   xmlns:sodipodi="http://sodipodi.sourceforge.net/DTD/sodipodi-0.dtd"
   xmlns="http://www.w3.org/2000/svg"
   xmlns:svg="http://www.w3.org/2000/svg">
  <sodipodi:namedview
     id="namedview1957"
     pagecolor="#ffffff"
     bordercolor="#000000"
     borderopacity="0.25"
     inkscape:showpageshadow="2"
     inkscape:pageopacity="0.0"
     inkscape:pagecheckerboard="0"
     inkscape:deskcolor="#d1d1d1"
     inkscape:document-units="mm"
     showgrid="false"
     inkscape:zoom="1.6352936"
     inkscape:cx="117.10436"
     inkscape:cy="27.517995"
     inkscape:window-width="725"
     inkscape:window-height="439"
     inkscape:window-x="858"
     inkscape:window-y="349"
     inkscape:window-maximized="0"
     inkscape:current-layer="layer1" />
  <defs
     id="defs1952" />
  <g
     inkscape:label="Layer 1"
     inkscape:groupmode="layer"
     id="layer1">
    <g
       id="g15827"
       transform="matrix(0.26458333,0,0,0.26458333,-306.14033,-1.8250693)">
      <g
         transform="translate(1136.2087,-3.035717)"
         id="g4380">
        <rect
           style="fill:#000000;fill-opacity:1;stroke:none;stroke-width:3;stroke-linecap:butt;stroke-linejoin:round;stroke-miterlimit:4;stroke-dasharray:none;stroke-opacity:1"
           id="rect4382"
           width="90"
           height="135"
           x="20.85714"
           y="9.9336166"
           ry="14.04" />
        <rect
           style="fill:#f2f2f2;fill-opacity:1;stroke:none;stroke-width:3;stroke-linecap:butt;stroke-linejoin:round;stroke-miterlimit:4;stroke-dasharray:none;stroke-opacity:1"
           id="rect4384"
           width="80"
           height="125"
           x="25.85714"
           y="14.933617"
           ry="13" />
      </g>
      <path
         sodipodi:nodetypes="ccsscssccc"
         id="path4923"
         d="m 1170.1759,39.362194 c 4.5071,-1.001575 4.992,-3.641382 5.332,-8.496093 -0.7831,1.296981 -2.207,2.254106 -4.5312,2.246093 -3.8203,-0.01317 -6.3792,-2.234875 -5.4688,-7.03125 0.918,-4.835737 7.793,-6.710737 10.918,-11.71875 3.125,5.008013 10,6.883013 10.918,11.71875 0.9105,4.796382 -1.543,7.017718 -5.4688,7.03125 -2.3242,0.008 -3.748,-0.949112 -4.5312,-2.246093 0.34,4.854711 0.8249,7.494518 5.332,8.496093 -3.125,0 -9.375,0 -12.5,0 z"
         style="fill:#000000;fill-opacity:1;stroke:none;stroke-width:0.354331;stroke-linecap:round;stroke-linejoin:round;stroke-miterlimit:4;stroke-dasharray:1.41732, 1.41732;stroke-dashoffset:0;stroke-opacity:1" />
      <path
         sodipodi:nodetypes="ccsscssccc"
         id="path5145"
         d="m 1189.5605,93.56727 c 9.0143,-2.003133 9.984,-7.282769 10.6641,-16.992156 -1.5664,2.593935 -4.4141,4.508195 -9.0624,4.492162 -7.6407,-0.02633 -12.7587,-4.469728 -10.9377,-14.062498 1.836,-9.67147 15.586,-13.421465 21.8361,-23.437508 6.25,10.016043 20,13.766038 21.836,23.437508 1.821,9.59277 -3.086,14.035431 -10.9376,14.062498 -4.6484,0.01603 -7.496,-1.898227 -9.0624,-4.492162 0.68,9.709387 1.6497,14.989023 10.664,16.992156 -6.25,0 -18.7501,0 -25.0001,0 z"
         style="fill:#000000;fill-opacity:1;stroke:none;stroke-width:0.354331;stroke-linecap:round;stroke-linejoin:round;stroke-miterlimit:4;stroke-dasharray:1.41732, 1.41732;stroke-dashoffset:0;stroke-opacity:1" />
      <path
         id="text4436"
         d="m 1212.5858,85.582177 c 0.2666,0.853368 0.5866,1.680034 0.96,2.48 0.3733,0.800032 0.72,1.600031 1.04,2.4 l -0.08,0.16 c -4.8533,0.16003 -9.6,0.853363 -14.24,2.08 -4.64,1.17336 -9.0133,3.226692 -13.12,6.16 l -0.16,-0.08 c 0.3733,-0.746644 0.6667,-1.49331 0.88,-2.24 0.2667,-0.746642 0.5333,-1.519974 0.8,-2.32 3.84,-2.026638 7.7333,-3.75997 11.68,-5.2 3.9467,-1.4933 8,-2.666632 12.16,-3.52 l 0.08,0.08 v 0 m -9.92,-22.88 c 1.6,3.680054 3.2,7.253384 4.8,10.72 1.6,3.466711 3.12,7.04004 4.56,10.72 h -0.08 c -3.84,0.746703 -7.6,1.786702 -11.28,3.12 -3.6267,1.333366 -7.2,2.880031 -10.72,4.64 l -0.32,0.08 c 2.24,-4.959966 4.4,-9.866628 6.48,-14.72 2.08,-4.906618 4.24,-9.73328 6.48,-14.48 l 0.08,-0.08 m -24.48,58.960003 c 1.3867,-3.36 2.6933,-6.77333 3.92,-10.24 1.28,-3.46666 2.64,-6.90665 4.08,-10.32 1.92,-1.439982 4.0267,-2.719981 6.32,-3.840003 2.3467,-1.173309 4.7733,-2.159974 7.28,-2.96 2.5067,-0.799973 5.04,-1.413305 7.6,-1.84 2.6133,-0.426638 5.1733,-0.639971 7.68,-0.64 l -0.08,-0.16 c 2.0266,5.226691 3.8933,10.426683 5.6,15.600003 1.76,5.17334 3.5466,10.34667 5.36,15.52 l -0.24,0.16 c -3.4134,0.15999 -6.88,0.23999 -10.4,0.24 -3.52,-1e-5 -7.0933,0.0267 -10.72,0.08 l -0.08,-0.08 c -0.48,-1.70667 -0.9333,-3.41334 -1.36,-5.12 -0.4267,-1.76 -0.88,-3.49333 -1.36,-5.2 l -2.16,9.12 0.08,-0.16 h -21.52 v -0.16"
         style="font-style:normal;font-variant:normal;font-weight:normal;font-stretch:normal;font-size:80px;line-height:125%;font-family:'Airmole Stripe';-inkscape-font-specification:'Airmole Stripe';text-align:start;writing-mode:lr-tb;text-anchor:start;fill:#333333;fill-opacity:1;stroke:none;stroke-width:1px;stroke-linecap:butt;stroke-linejoin:miter;stroke-opacity:1" />
      <path
         id="text5253"
         d="m 1202.4385,33.81349 h -9.5666 l -1.7111,5.133333 h -5.3473 l 9.0806,-25.530555 h 5.775 l 8.8278,25.530555 h -5.3667 l -1.6917,-5.133333 m -1.4388,-4.394445 -3.3056,-9.975 -3.3444,9.975 h 6.65"
         style="font-style:normal;font-variant:normal;font-weight:bold;font-stretch:normal;font-size:35px;line-height:125%;font-family:AlMothnna;-inkscape-font-specification:'AlMothnna Bold';text-align:start;writing-mode:lr-tb;text-anchor:start;fill:#000000;fill-opacity:1;stroke:none;stroke-width:1px;stroke-linecap:butt;stroke-linejoin:miter;stroke-opacity:1" />
    </g>
  </g>
</svg>
