<?xml version="1.0" encoding="UTF-8" standalone="no"?>
<!-- Created with Inkscape (http://www.inkscape.org/) -->

<svg
   width="210mm"
   height="297mm"
   viewBox="0 0 210 297"
   version="1.1"
   id="svg1955"
   inkscape:version="1.2.2 (732a01da63, 2022-12-09)"
   sodipodi:docname="2C.svg"
   xmlns:inkscape="http://www.inkscape.org/namespaces/inkscape"
   xmlns:sodipodi="http://sodipodi.sourceforge.net/DTD/sodipodi-0.dtd"
   xmlns="http://www.w3.org/2000/svg"
   xmlns:svg="http://www.w3.org/2000/svg">
  <sodipodi:namedview
     id="namedview1957"
     pagecolor="#ffffff"
     bordercolor="#000000"
     borderopacity="0.25"
     inkscape:showpageshadow="2"
     inkscape:pageopacity="0.0"
     inkscape:pagecheckerboard="0"
     inkscape:deskcolor="#d1d1d1"
     inkscape:document-units="mm"
     showgrid="false"
     inkscape:zoom="1.6352936"
     inkscape:cx="117.10436"
     inkscape:cy="64.820166"
     inkscape:window-width="725"
     inkscape:window-height="439"
     inkscape:window-x="858"
     inkscape:window-y="349"
     inkscape:window-maximized="0"
     inkscape:current-layer="layer1" />
  <defs
     id="defs1952" />
  <g
     inkscape:label="Layer 1"
     inkscape:groupmode="layer"
     id="layer1">
    <g
       id="g13957"
       transform="matrix(0.26458333,0,0,0.26458333,-1.7008871,-38.857286)">
      <g
         transform="translate(-14.42859,136.92857)"
         id="g4448">
        <rect
           style="fill:#000000;fill-opacity:1;stroke:none;stroke-width:3;stroke-linecap:butt;stroke-linejoin:round;stroke-miterlimit:4;stroke-dasharray:none;stroke-opacity:1"
           id="rect4450"
           width="90"
           height="135"
           x="20.85714"
           y="9.9336166"
           ry="14.04" />
        <rect
           style="fill:#f2f2f2;fill-opacity:1;stroke:none;stroke-width:3;stroke-linecap:butt;stroke-linejoin:round;stroke-miterlimit:4;stroke-dasharray:none;stroke-opacity:1"
           id="rect4452"
           width="80"
           height="125"
           x="25.85714"
           y="14.933617"
           ry="13" />
      </g>
      <path
         id="text4532"
         d="m 39.188577,233.54646 c -0.21334,-0.47997 -0.37334,-0.95997 -0.48,-1.44 -0.05334,-0.47997 -0.160007,-0.95997 -0.32,-1.44 v -0.32 c 3.893323,-4.10663 8.053319,-7.83996 12.48,-11.2 4.426643,-3.41329 9.173305,-6.45329 14.24,-9.12 h 0.08 c 0.693299,0.90671 1.253299,1.86671 1.68,2.88 0.479965,0.96004 0.933297,1.97338 1.36,3.04 h 0.08 c -4.000032,2.40004 -7.920028,4.85337 -11.76,7.36 -3.840021,2.5067 -7.546684,5.25336 -11.12,8.24 l -1.04,-0.08 c -0.960012,3e-5 -1.893344,0.18669 -2.8,0.56 -0.853342,0.32003 -1.600008,0.85336 -2.24,1.6 l -0.16,-0.08 v 0 m -6.4,-22.96 c 2.399997,-2.34662 5.039994,-4.23995 7.92,-5.68 2.933322,-1.49328 6.079985,-2.23994 9.44,-2.24 2.773312,6e-5 5.33331,0.53339 7.68,1.6 2.346638,1.06672 4.47997,2.58672 6.4,4.56 -3.2e-5,0.0534 -0.0267,0.08 -0.08,0.08 -3.2e-5,5e-5 -3.2e-5,0.0267 0,0.08 -5.013361,2.45338 -9.733356,5.36004 -14.16,8.72 -4.373347,3.36004 -8.373343,7.09337 -12,11.2 l -0.16,-0.16 c -0.906672,-3.03997 -1.733338,-6.02663 -2.48,-8.96 -0.746669,-2.98662 -1.573335,-5.99996 -2.48,-9.04 l -0.08,-0.16 m 18.48,25.36 v -0.16 c -1.9e-5,-1.01331 -0.400019,-1.83998 -1.2,-2.48 -0.746684,-0.63997 -1.57335,-1.09331 -2.48,-1.36 v -0.16 c 3.359981,-2.6133 6.799978,-5.14663 10.32,-7.6 3.573304,-2.4533 7.119967,-4.79996 10.64,-7.04 l 0.16,0.08 c 0.426629,1.28004 0.746629,2.64004 0.96,4.08 0.266629,1.44004 0.399962,2.80003 0.4,4.08 v 0.16 c -3.8e-5,2.3467 -0.400038,4.6667 -1.2,6.96 -0.746703,2.24002 -1.813368,4.32002 -3.2,6.24 -1.386699,1.92002 -3.040031,3.62668 -4.96,5.12 -1.920027,1.44001 -4.026691,2.50668 -6.32,3.2 -0.640022,0.21334 -1.360021,0.42668 -2.16,0.64 -0.746686,0.16001 -1.493352,0.40001 -2.24,0.72 -0.693351,0.32001 -1.306683,0.74668 -1.84,1.28 -0.480016,0.48001 -0.746682,1.14667 -0.8,2 -1.5e-5,0.16001 -1.5e-5,0.32001 0,0.48 0.05332,0.16001 0.07998,0.29334 0.08,0.4 2.879982,-0.21333 5.759979,-0.47999 8.64,-0.8 2.879973,-0.37333 5.75997,-0.85333 8.64,-1.44 l 0.08,0.08 c -0.106699,1.38667 -0.160033,2.80001 -0.16,4.24 -3.3e-5,1.38667 -0.0267,2.77333 -0.08,4.16 l -0.08,0.16 c -4.533361,-0.21333 -9.06669,-0.32 -13.6,-0.32 -4.480014,0 -9.013343,-0.0533 -13.6,-0.16 l -0.08,-0.08 c -0.05334,-0.16 -0.08,-0.45333 -0.08,-0.88 -5e-6,-0.37333 0.02666,-0.66666 0.08,-0.88 -5e-6,-0.21333 -0.02667,-0.4 -0.08,-0.56 -5e-6,-0.16 -5e-6,-0.34666 0,-0.56 -5e-6,-1.49333 0.213328,-2.95999 0.64,-4.4 0.42666,-1.49332 1.039993,-2.85332 1.84,-4.08 0.853325,-1.27999 1.83999,-2.39999 2.96,-3.36 1.173322,-0.95998 2.479987,-1.73332 3.92,-2.32 0.906651,-0.53332 1.86665,-1.11998 2.88,-1.76 1.066648,-0.69331 1.679981,-1.65331 1.84,-2.88 l 0.08,-0.8"
         style="font-style:normal;font-variant:normal;font-weight:normal;font-stretch:normal;font-size:80px;line-height:125%;font-family:'Airmole Stripe';-inkscape-font-specification:'Airmole Stripe';text-align:start;writing-mode:lr-tb;text-anchor:start;fill:#333333;fill-opacity:1;stroke:none;stroke-width:1px;stroke-linecap:butt;stroke-linejoin:miter;stroke-opacity:1" />
      <path
         id="text5257"
         d="m 53.920732,161.77685 c -1.8e-5,1.01113 -0.155573,1.95094 -0.466667,2.81944 -0.311128,0.86854 -0.732424,1.62039 -1.263889,2.25556 -0.531497,0.6352 -1.121311,1.23149 -1.769444,1.78889 -0.648162,0.54445 -1.328717,1.06297 -2.041667,1.55555 -0.712974,0.47964 -1.387048,0.94631 -2.022222,1.4 -0.635195,0.45372 -1.231491,0.96575 -1.788889,1.53612 -0.544452,0.55741 -0.952785,1.12778 -1.225,1.71111 h 10.5 v 4.39444 H 36.965176 c 0.129629,-2.28148 0.596295,-4.09629 1.4,-5.44444 0.803701,-1.36111 2.24907,-2.76759 4.336112,-4.21945 1.892583,-1.32221 3.266656,-2.37221 4.122222,-3.15 0.855544,-0.77776 1.432395,-1.49072 1.730555,-2.13889 0.311098,-0.64813 0.466654,-1.45183 0.466667,-2.41111 -1.3e-5,-1.24442 -0.311124,-2.21665 -0.933333,-2.91666 -0.622234,-0.71295 -1.477789,-1.06943 -2.566667,-1.06945 -1.114823,2e-5 -1.983341,0.38243 -2.605556,1.14722 -0.609265,0.76484 -0.913895,1.83428 -0.913888,3.20834 v 0.81666 h -4.686112 c -0.02593,-0.25924 -0.03889,-0.54442 -0.03889,-0.85555 -2e-6,-2.63146 0.719442,-4.67313 2.158333,-6.125 1.438884,-1.45183 3.44166,-2.17775 6.008333,-2.17778 2.605544,3e-5 4.666653,0.71299 6.183334,2.13889 1.529612,1.41298 2.294426,3.32502 2.294444,5.73611"
         style="font-style:normal;font-variant:normal;font-weight:bold;font-stretch:normal;font-size:35px;line-height:125%;font-family:AlMothnna;-inkscape-font-specification:'AlMothnna Bold';text-align:start;writing-mode:lr-tb;text-anchor:start;fill:#000000;fill-opacity:1;stroke:none;stroke-width:1px;stroke-linecap:butt;stroke-linejoin:miter;stroke-opacity:1" />
      <path
         sodipodi:nodetypes="ccccsccccccscccc"
         id="path5416"
         d="m 25.401296,154.79661 c -2.957142,0 -5.357143,2.52 -5.357143,5.625 0.02583,1.95404 1.034054,3.60527 2.083333,5.17578 -1.169571,-0.88503 -2.469383,-1.42026 -3.869048,-1.42578 -2.957142,0 -5.357143,2.52 -5.357143,5.625 0,3.105 2.400001,5.625 5.357143,5.625 2.39553,-0.0401 4.311459,-1.71621 6.194197,-3.125 -0.336899,4.20822 -1.022184,6.57097 -5.00372,7.5 2.976191,0 8.928571,0 11.904762,0 -3.981536,-0.92903 -4.666821,-3.29178 -5.00372,-7.5 1.860928,1.59506 3.812572,2.94817 6.194196,3.125 2.957143,0 5.357143,-2.52 5.357143,-5.625 0,-3.105 -2.4,-5.625 -5.357143,-5.625 -1.435571,-1.5e-4 -2.675542,0.66045 -3.869047,1.42578 1.187601,-1.55433 1.969333,-3.23152 2.083333,-5.17578 0,-3.105 -2.4,-5.625 -5.357143,-5.625 z"
         style="fill:#000000;fill-opacity:1;stroke:none;stroke-width:0.354331;stroke-linecap:round;stroke-linejoin:round;stroke-miterlimit:4;stroke-dasharray:1.41732, 1.41732;stroke-dashoffset:0;stroke-opacity:1" />
      <path
         sodipodi:nodetypes="ccccsccccccscccc"
         id="path5494"
         d="m 35.127034,202.22302 c -1.774285,0 -3.214286,1.512 -3.214286,3.375 0.0155,1.17242 0.620433,2.16316 1.25,3.10547 -0.701743,-0.53102 -1.48163,-0.85216 -2.321429,-0.85547 -1.774285,0 -3.214285,1.512 -3.214285,3.375 0,1.863 1.44,3.375 3.214285,3.375 1.437318,-0.024 2.586876,-1.02973 3.716518,-1.875 -0.202139,2.52493 -0.61331,3.94258 -3.002232,4.5 1.785715,0 5.357143,0 7.142858,0 -2.388922,-0.55742 -2.800093,-1.97507 -3.002232,-4.5 1.116556,0.95704 2.287543,1.7689 3.716517,1.875 1.774286,0 3.214286,-1.512 3.214286,-3.375 0,-1.863 -1.44,-3.375 -3.214286,-3.375 -0.861342,-9e-5 -1.605325,0.39627 -2.321428,0.85547 0.712561,-0.9326 1.1816,-1.93891 1.25,-3.10547 0,-1.863 -1.44,-3.375 -3.214286,-3.375 z"
         style="fill:#000000;fill-opacity:1;stroke:none;stroke-width:0.354331;stroke-linecap:round;stroke-linejoin:round;stroke-miterlimit:4;stroke-dasharray:1.41732, 1.41732;stroke-dashoffset:0;stroke-opacity:1" />
      <path
         sodipodi:nodetypes="ccccsccccccscccc"
         id="path5496"
         d="m 69.06816,248.89206 c -1.774285,0 -3.214286,1.512 -3.214286,3.375 0.0155,1.17242 0.620433,2.16316 1.25,3.10547 -0.701743,-0.53102 -1.48163,-0.85216 -2.321429,-0.85547 -1.774285,0 -3.214285,1.512 -3.214285,3.375 0,1.863 1.44,3.375 3.214285,3.375 1.437318,-0.024 2.586876,-1.02973 3.716518,-1.875 -0.202139,2.52493 -0.61331,3.94258 -3.002232,4.5 1.785715,0 5.357143,0 7.142858,0 -2.388922,-0.55742 -2.800093,-1.97507 -3.002232,-4.5 1.116556,0.95704 2.287543,1.7689 3.716517,1.875 1.774286,0 3.214286,-1.512 3.214286,-3.375 0,-1.863 -1.44,-3.375 -3.214286,-3.375 -0.861342,-9e-5 -1.605325,0.39627 -2.321428,0.85547 0.712561,-0.9326 1.1816,-1.93891 1.25,-3.10547 0,-1.863 -1.44,-3.375 -3.214286,-3.375 z"
         style="fill:#000000;fill-opacity:1;stroke:none;stroke-width:0.354331;stroke-linecap:round;stroke-linejoin:round;stroke-miterlimit:4;stroke-dasharray:1.41732, 1.41732;stroke-dashoffset:0;stroke-opacity:1" />
    </g>
  </g>
</svg>
