<?xml version="1.0" encoding="UTF-8" standalone="no"?>
<!-- Created with Inkscape (http://www.inkscape.org/) -->

<svg
   width="210mm"
   height="297mm"
   viewBox="0 0 210 297"
   version="1.1"
   id="svg1955"
   inkscape:version="1.2.2 (732a01da63, 2022-12-09)"
   sodipodi:docname="2H.svg"
   xmlns:inkscape="http://www.inkscape.org/namespaces/inkscape"
   xmlns:sodipodi="http://sodipodi.sourceforge.net/DTD/sodipodi-0.dtd"
   xmlns="http://www.w3.org/2000/svg"
   xmlns:svg="http://www.w3.org/2000/svg">
  <sodipodi:namedview
     id="namedview1957"
     pagecolor="#ffffff"
     bordercolor="#000000"
     borderopacity="0.25"
     inkscape:showpageshadow="2"
     inkscape:pageopacity="0.0"
     inkscape:pagecheckerboard="0"
     inkscape:deskcolor="#d1d1d1"
     inkscape:document-units="mm"
     showgrid="false"
     inkscape:zoom="1.6352936"
     inkscape:cx="117.10436"
     inkscape:cy="64.820166"
     inkscape:window-width="725"
     inkscape:window-height="439"
     inkscape:window-x="866"
     inkscape:window-y="423"
     inkscape:window-maximized="0"
     inkscape:current-layer="layer1" />
  <defs
     id="defs1952" />
  <g
     inkscape:label="Layer 1"
     inkscape:groupmode="layer"
     id="layer1">
    <g
       id="g14225"
       transform="matrix(0.26458333,0,0,0.26458333,-1.4363037,-76.163536)">
      <g
         transform="translate(-15.42859,277.92857)"
         id="g4584">
        <rect
           style="fill:#000000;fill-opacity:1;stroke:none;stroke-width:3;stroke-linecap:butt;stroke-linejoin:round;stroke-miterlimit:4;stroke-dasharray:none;stroke-opacity:1"
           id="rect4586"
           width="90"
           height="135"
           x="20.85714"
           y="9.9336166"
           ry="14.04" />
        <rect
           style="fill:#f2f2f2;fill-opacity:1;stroke:none;stroke-width:3;stroke-linecap:butt;stroke-linejoin:round;stroke-miterlimit:4;stroke-dasharray:none;stroke-opacity:1"
           id="rect4588"
           width="80"
           height="125"
           x="25.85714"
           y="14.933617"
           ry="13" />
      </g>
      <path
         id="text4668"
         d="m 38.188546,374.54646 c -0.21334,-0.47997 -0.37334,-0.95997 -0.48,-1.44 -0.05334,-0.47997 -0.160006,-0.95997 -0.32,-1.44 v -0.32 c 3.893323,-4.10663 8.053319,-7.83996 12.48,-11.2 4.426644,-3.41329 9.173306,-6.45329 14.24,-9.12 h 0.08 c 0.6933,0.90671 1.253299,1.86671 1.68,2.88 0.479965,0.96004 0.933298,1.97338 1.36,3.04 h 0.08 c -4.000032,2.40004 -7.920028,4.85337 -11.76,7.36 -3.84002,2.5067 -7.546683,5.25336 -11.12,8.24 l -1.04,-0.08 c -0.960011,3e-5 -1.893343,0.18669 -2.8,0.56 -0.853342,0.32003 -1.600008,0.85336 -2.24,1.6 l -0.16,-0.08 v 0 m -6.4,-22.96 c 2.399997,-2.34662 5.039995,-4.23995 7.92,-5.68 2.933322,-1.49328 6.079986,-2.23994 9.44,-2.24 2.773313,6e-5 5.33331,0.53339 7.68,1.6 2.346639,1.06672 4.47997,2.58672 6.4,4.56 -3.2e-5,0.0534 -0.0267,0.0801 -0.08,0.08 -3.2e-5,5e-5 -3.2e-5,0.0267 0,0.08 -5.01336,2.45338 -9.733355,5.36004 -14.16,8.72 -4.373347,3.36004 -8.373343,7.09337 -12,11.2 l -0.16,-0.16 c -0.906671,-3.03997 -1.733337,-6.02663 -2.48,-8.96 -0.746669,-2.98662 -1.573335,-5.99996 -2.48,-9.04 l -0.08,-0.16 m 18.48,25.36 v -0.16 c -1.9e-5,-1.01331 -0.400018,-1.83998 -1.2,-2.48 -0.746684,-0.63997 -1.573349,-1.09331 -2.48,-1.36 v -0.16 c 3.359981,-2.6133 6.799978,-5.14663 10.32,-7.6 3.573304,-2.4533 7.119967,-4.79996 10.64,-7.04 l 0.16,0.08 c 0.42663,1.28004 0.74663,2.64004 0.96,4.08 0.266629,1.44004 0.399962,2.80003 0.4,4.08 v 0.16 c -3.8e-5,2.3467 -0.400037,4.6667 -1.2,6.96 -0.746702,2.24002 -1.813368,4.32002 -3.2,6.24 -1.386699,1.92002 -3.04003,3.62668 -4.96,5.12 -1.920026,1.44001 -4.026691,2.50668 -6.32,3.2 -0.640021,0.21334 -1.360021,0.42668 -2.16,0.64 -0.746686,0.16001 -1.493352,0.40001 -2.24,0.72 -0.69335,0.32001 -1.306683,0.74668 -1.84,1.28 -0.480015,0.48001 -0.746682,1.14667 -0.8,2 -1.5e-5,0.16001 -1.5e-5,0.32001 0,0.48 0.05332,0.16001 0.07999,0.29334 0.08,0.4 2.879982,-0.21333 5.759979,-0.47999 8.64,-0.8 2.879973,-0.37333 5.759971,-0.85333 8.64,-1.44 l 0.08,0.08 c -0.106699,1.38667 -0.160032,2.80001 -0.16,4.24 -3.2e-5,1.38667 -0.0267,2.77333 -0.08,4.16 l -0.08,0.16 c -4.533361,-0.21333 -9.06669,-0.32 -13.6,-0.32 -4.480014,0 -9.013343,-0.0533 -13.6,-0.16 l -0.08,-0.08 c -0.05334,-0.16 -0.08,-0.45333 -0.08,-0.88 -5e-6,-0.37333 0.02666,-0.66666 0.08,-0.88 -5e-6,-0.21333 -0.02667,-0.4 -0.08,-0.56 -5e-6,-0.16 -5e-6,-0.34666 0,-0.56 -5e-6,-1.49333 0.213328,-2.95999 0.64,-4.4 0.426661,-1.49332 1.039994,-2.85332 1.84,-4.08 0.853325,-1.27999 1.839991,-2.39999 2.96,-3.36 1.173322,-0.95998 2.479987,-1.73332 3.92,-2.32 0.906652,-0.53332 1.866651,-1.11998 2.88,-1.76 1.066649,-0.69331 1.679981,-1.65331 1.84,-2.88 l 0.08,-0.8"
         style="font-style:normal;font-variant:normal;font-weight:normal;font-stretch:normal;font-size:80px;line-height:125%;font-family:'Airmole Stripe';-inkscape-font-specification:'Airmole Stripe';text-align:start;writing-mode:lr-tb;text-anchor:start;fill:#800000;fill-opacity:1;stroke:none;stroke-width:1px;stroke-linecap:butt;stroke-linejoin:miter;stroke-opacity:1" />
      <path
         id="text5309"
         d="m 55.334951,304.61241 c -1.8e-5,1.01112 -0.155574,1.95094 -0.466667,2.81944 -0.311128,0.86853 -0.732424,1.62038 -1.263889,2.25556 -0.531497,0.63519 -1.121311,1.23149 -1.769444,1.78888 -0.648162,0.54446 -1.328717,1.06298 -2.041667,1.55556 -0.712975,0.47964 -1.387048,0.9463 -2.022222,1.4 -0.635195,0.45371 -1.231491,0.96575 -1.788889,1.53611 -0.544452,0.55741 -0.952785,1.12778 -1.225,1.71111 h 10.5 v 4.39445 H 38.379395 c 0.129629,-2.28148 0.596295,-4.0963 1.4,-5.44445 0.803701,-1.3611 2.24907,-2.76758 4.336111,-4.21944 1.892584,-1.32221 3.266657,-2.37221 4.122223,-3.15 0.855543,-0.77777 1.432395,-1.49073 1.730555,-2.13889 0.311098,-0.64813 0.466654,-1.45184 0.466667,-2.41111 -1.3e-5,-1.24443 -0.311124,-2.21665 -0.933333,-2.91667 -0.622234,-0.71294 -1.477789,-1.06942 -2.566667,-1.06944 -1.114823,2e-5 -1.983341,0.38243 -2.605556,1.14722 -0.609265,0.76483 -0.913895,1.83428 -0.913889,3.20833 v 0.81667 h -4.686111 c -0.02593,-0.25924 -0.03889,-0.54443 -0.03889,-0.85556 -1e-6,-2.63146 0.719443,-4.67312 2.158334,-6.125 1.438884,-1.45182 3.441659,-2.17775 6.008333,-2.17777 2.605543,2e-5 4.666653,0.71298 6.183333,2.13888 1.529613,1.41299 2.294427,3.32502 2.294445,5.73612"
         style="font-style:normal;font-variant:normal;font-weight:bold;font-stretch:normal;font-size:35px;line-height:125%;font-family:AlMothnna;-inkscape-font-specification:'AlMothnna Bold';text-align:start;writing-mode:lr-tb;text-anchor:start;fill:#aa0000;fill-opacity:1;stroke:none;stroke-width:1px;stroke-linecap:butt;stroke-linejoin:miter;stroke-opacity:1" />
      <path
         sodipodi:nodetypes="ccccccc"
         id="path5442"
         d="m 25.401295,305.29639 c 0.606401,-3.125 1.819201,-6.25 6.064003,-6.25 4.244801,0 7.580004,3.125 6.064003,9.375 -1.516001,6.25 -8.489604,9.375 -12.128006,15.625 -3.638402,-6.25 -10.612005,-9.375 -12.128006,-15.625 -1.516,-6.25 1.819201,-9.375 6.064003,-9.375 4.244802,0 5.457602,3.125 6.064003,6.25 z"
         style="fill:#d40000;fill-opacity:1;stroke:none;stroke-width:0.354331;stroke-linecap:round;stroke-linejoin:round;stroke-miterlimit:4;stroke-dasharray:1.41732, 1.41732;stroke-dashoffset:0;stroke-opacity:1" />
      <path
         sodipodi:nodetypes="ccccccc"
         id="path5608"
         d="m 32.42855,346.11219 c 0.363841,-1.875 1.091521,-3.75 3.638402,-3.75 2.54688,0 4.548002,1.875 3.638402,5.625 -0.909601,3.75 -5.093763,5.625 -7.276804,9.375 -2.183041,-3.75 -6.367203,-5.625 -7.276804,-9.375 -0.9096,-3.75 1.091521,-5.625 3.638402,-5.625 2.546881,0 3.274561,1.875 3.638402,3.75 z"
         style="fill:#d40000;fill-opacity:1;stroke:none;stroke-width:0.354331;stroke-linecap:round;stroke-linejoin:round;stroke-miterlimit:4;stroke-dasharray:1.41732, 1.41732;stroke-dashoffset:0;stroke-opacity:1" />
      <path
         sodipodi:nodetypes="ccccccc"
         id="path5610"
         d="m 66.42855,396.11219 c 0.363841,-1.875 1.091521,-3.75 3.638402,-3.75 2.54688,0 4.548002,1.875 3.638402,5.625 -0.909601,3.75 -5.093763,5.625 -7.276804,9.375 -2.183041,-3.75 -6.367203,-5.625 -7.276804,-9.375 -0.9096,-3.75 1.091521,-5.625 3.638402,-5.625 2.546881,0 3.274561,1.875 3.638402,3.75 z"
         style="fill:#d40000;fill-opacity:1;stroke:none;stroke-width:0.354331;stroke-linecap:round;stroke-linejoin:round;stroke-miterlimit:4;stroke-dasharray:1.41732, 1.41732;stroke-dashoffset:0;stroke-opacity:1" />
    </g>
  </g>
</svg>
