<?xml version="1.0" encoding="UTF-8" standalone="no"?>
<!-- Created with Inkscape (http://www.inkscape.org/) -->

<svg
   width="210mm"
   height="297mm"
   viewBox="0 0 210 297"
   version="1.1"
   id="svg1955"
   inkscape:version="1.2.2 (732a01da63, 2022-12-09)"
   sodipodi:docname="2S.svg"
   xmlns:inkscape="http://www.inkscape.org/namespaces/inkscape"
   xmlns:sodipodi="http://sodipodi.sourceforge.net/DTD/sodipodi-0.dtd"
   xmlns="http://www.w3.org/2000/svg"
   xmlns:svg="http://www.w3.org/2000/svg">
  <sodipodi:namedview
     id="namedview1957"
     pagecolor="#ffffff"
     bordercolor="#000000"
     borderopacity="0.25"
     inkscape:showpageshadow="2"
     inkscape:pageopacity="0.0"
     inkscape:pagecheckerboard="0"
     inkscape:deskcolor="#d1d1d1"
     inkscape:document-units="mm"
     showgrid="false"
     inkscape:zoom="1.6352936"
     inkscape:cx="121.99645"
     inkscape:cy="70.935276"
     inkscape:window-width="693"
     inkscape:window-height="439"
     inkscape:window-x="858"
     inkscape:window-y="349"
     inkscape:window-maximized="0"
     inkscape:current-layer="layer1" />
  <defs
     id="defs1952" />
  <g
     inkscape:label="Layer 1"
     inkscape:groupmode="layer"
     id="layer1">
    <text
       xml:space="preserve"
       style="font-style:normal;font-weight:normal;font-size:3.175px;line-height:0%;font-family:'Bitstream Vera Sans';fill:#000000;fill-opacity:1;stroke:none;stroke-width:0.264583px;stroke-linecap:butt;stroke-linejoin:miter;stroke-opacity:1"
       x="3.6140723"
       y="5.2737899"
       id="text4856"><tspan
         sodipodi:role="line"
         id="tspan4858"
         x="3.6140723"
         y="5.2737899"
         style="font-size:10.5833px;line-height:1.25;stroke-width:0.264583px"> </tspan></text>
    <g
       id="g13667"
       transform="matrix(0.26458333,0,0,0.26458333,-1.2618153,-1.5689138)">
      <path
         id="rect4233"
         d="m 19.89714,6.8978996 h 61.92 c 7.77816,0 14.04,6.2618404 14.04,14.0400004 v 106.92 c 0,7.77816 -6.26184,14.04 -14.04,14.04 h -61.92 c -7.77816,0 -14.0400004,-6.26184 -14.0400004,-14.04 v -106.92 c 0,-7.77816 6.2618404,-14.0400004 14.0400004,-14.0400004 z"
         style="fill:#000000;fill-opacity:1;stroke:none;stroke-width:3;stroke-linecap:butt;stroke-linejoin:round;stroke-miterlimit:4;stroke-opacity:1" />
      <path
         id="rect4248"
         d="m 23.85714,11.8979 h 54 c 7.202,0 13,5.798 13,13 v 99 c 0,7.202 -5.798,13 -13,13 h -54 c -7.202,0 -13,-5.798 -13,-13 v -99 c 0,-7.202 5.798,-13 13,-13 z"
         style="fill:#f2f2f2;fill-opacity:1;stroke:none;stroke-width:3;stroke-linecap:butt;stroke-linejoin:round;stroke-miterlimit:4;stroke-opacity:1" />
      <path
         id="text4392"
         d="m 38.617139,93.582173 c -0.21334,-0.479974 -0.37334,-0.959974 -0.48,-1.44 -0.05334,-0.479973 -0.160006,-0.959972 -0.32,-1.44 v -0.32 c 3.893323,-4.106634 8.053319,-7.839964 12.48,-11.2 4.426643,-3.41329 9.173305,-6.453287 14.24,-9.12 h 0.08 c 0.6933,0.906715 1.253299,1.866714 1.68,2.88 0.479965,0.960045 0.933298,1.973377 1.36,3.04 h 0.08 c -4.000032,2.400041 -7.920028,4.853371 -11.76,7.36 -3.840021,2.5067 -7.546684,5.253364 -11.12,8.24 l -1.04,-0.08 c -0.960011,2.7e-5 -1.893344,0.186694 -2.8,0.56 -0.853342,0.320027 -1.600008,0.853359 -2.24,1.6 l -0.16,-0.08 v 0 m -6.4,-22.96 c 2.399997,-2.346616 5.039994,-4.239947 7.92,-5.68 2.933322,-1.493278 6.079985,-2.239944 9.44,-2.24 2.773312,5.6e-5 5.33331,0.533389 7.68,1.6 2.346639,1.06672 4.47997,2.586719 6.4,4.56 -3.2e-5,0.05338 -0.0267,0.08005 -0.08,0.08 -3.2e-5,5e-5 -3.2e-5,0.02672 0,0.08 -5.01336,2.453381 -9.733356,5.360045 -14.16,8.72 -4.373347,3.360038 -8.373343,7.093367 -12,11.2 l -0.16,-0.16 c -0.906672,-3.039967 -1.733337,-6.02663 -2.48,-8.96 -0.746669,-2.986625 -1.573335,-5.999955 -2.48,-9.04 l -0.08,-0.16 m 18.48,25.36 v -0.16 c -1.9e-5,-1.013309 -0.400019,-1.839975 -1.2,-2.48 -0.746684,-0.639974 -1.57335,-1.093307 -2.48,-1.36 v -0.16 c 3.359981,-2.613304 6.799978,-5.146634 10.32,-7.6 3.573304,-2.453296 7.119967,-4.79996 10.64,-7.04 l 0.16,0.08 c 0.42663,1.28004 0.746629,2.640039 0.96,4.08 0.266629,1.440036 0.399962,2.800035 0.4,4.08 v 0.16 c -3.8e-5,2.346698 -0.400038,4.666695 -1.2,6.96 -0.746703,2.240024 -1.813368,4.320022 -3.2,6.24 -1.386699,1.920017 -3.040031,3.626687 -4.96,5.119997 -1.920027,1.44002 -4.026691,2.50668 -6.32,3.2 -0.640022,0.21335 -1.360021,0.42668 -2.16,0.64 -0.746686,0.16001 -1.493352,0.40001 -2.24,0.72 -0.693351,0.32001 -1.306683,0.74668 -1.84,1.28 -0.480016,0.48001 -0.746682,1.14668 -0.8,2 -1.5e-5,0.16001 -1.5e-5,0.32001 0,0.48 0.05332,0.16001 0.07999,0.29334 0.08,0.4 2.879982,-0.21332 5.759979,-0.47999 8.64,-0.8 2.879973,-0.37332 5.75997,-0.85332 8.64,-1.44 l 0.08,0.08 c -0.106699,1.38668 -0.160033,2.80001 -0.16,4.24 -3.3e-5,1.38667 -0.0267,2.77334 -0.08,4.16 l -0.08,0.16 c -4.533361,-0.21333 -9.06669,-0.32 -13.6,-0.32 -4.480014,0 -9.013343,-0.0533 -13.6,-0.16 l -0.08,-0.08 c -0.05334,-0.16 -0.08,-0.45333 -0.08,-0.88 -5e-6,-0.37333 0.02666,-0.66666 0.08,-0.88 -5e-6,-0.21333 -0.02667,-0.39999 -0.08,-0.56 -5e-6,-0.15999 -5e-6,-0.34666 0,-0.56 -5e-6,-1.49333 0.213328,-2.95999 0.64,-4.4 0.426661,-1.49332 1.039993,-2.85332 1.84,-4.08 0.853325,-1.27998 1.839991,-2.39998 2.96,-3.36 1.173322,-0.95998 2.479987,-1.73331 3.92,-2.32 0.906651,-0.53331 1.86665,-1.11998 2.88,-1.759997 1.066648,-0.693313 1.679981,-1.653312 1.84,-2.88 l 0.08,-0.8"
         style="font-style:normal;font-variant:normal;font-weight:normal;font-stretch:normal;font-size:80px;line-height:125%;font-family:'Airmole Stripe';-inkscape-font-specification:'Airmole Stripe';text-align:start;writing-mode:lr-tb;text-anchor:start;fill:#333333;fill-opacity:1;stroke:none;stroke-width:1px;stroke-linecap:butt;stroke-linejoin:miter;stroke-opacity:1" />
      <path
         sodipodi:nodetypes="ccsscssccc"
         id="path3295"
         d="m 18.342976,39.362194 c 4.507094,-1.001575 4.991994,-3.641382 5.332032,-8.496093 -0.783163,1.296981 -2.207032,2.254106 -4.53125,2.246093 -3.820295,-0.01317 -6.379245,-2.234875 -5.46875,-7.03125 0.917968,-4.835737 7.792968,-6.710737 10.917968,-11.71875 3.125,5.008013 10,6.883013 10.917969,11.71875 0.9105,4.796382 -1.542982,7.017718 -5.46875,7.03125 -2.324219,0.008 -3.748082,-0.949112 -4.53125,-2.246093 0.340038,4.854711 0.824938,7.494518 5.332031,8.496093 -3.125,0 -9.375,0 -12.5,0 z"
         style="fill:#000000;fill-opacity:1;stroke:none;stroke-width:0.354331;stroke-linecap:round;stroke-linejoin:round;stroke-miterlimit:4;stroke-dasharray:1.41732, 1.41732;stroke-dashoffset:0;stroke-opacity:1" />
      <path
         sodipodi:nodetypes="ccsscssccc"
         id="path4925"
         d="m 28.234913,79.36219 c 2.704256,-0.60094 2.995196,-2.18483 3.199219,-5.09765 -0.469898,0.77818 -1.324219,1.35246 -2.71875,1.34765 -2.292177,-0.0079 -3.827547,-1.34092 -3.28125,-4.21875 0.550781,-2.90144 4.675781,-4.026438 6.550781,-7.03125 1.875,3.004812 6,4.12981 6.550781,7.03125 0.5463,2.87783 -0.925789,4.21063 -3.28125,4.21875 -1.394531,0.0048 -2.248849,-0.56947 -2.71875,-1.34765 0.204023,2.91282 0.494963,4.49671 3.199219,5.09765 -1.875,0 -5.625,0 -7.5,0 z"
         style="fill:#000000;fill-opacity:1;stroke:none;stroke-width:0.354331;stroke-linecap:round;stroke-linejoin:round;stroke-miterlimit:4;stroke-dasharray:1.41732, 1.41732;stroke-dashoffset:0;stroke-opacity:1" />
      <path
         sodipodi:nodetypes="ccsscssccc"
         id="path5033"
         d="m 61.676969,126.36219 c 2.704256,-0.60094 2.995196,-2.18483 3.199219,-5.09765 -0.469898,0.77818 -1.324219,1.35246 -2.71875,1.34765 -2.292177,-0.008 -3.827547,-1.34092 -3.28125,-4.21875 0.550781,-2.90144 4.675781,-4.02643 6.550781,-7.03125 1.875,3.00482 6,4.12981 6.550781,7.03125 0.5463,2.87783 -0.925789,4.21063 -3.28125,4.21875 -1.394531,0.005 -2.248849,-0.56947 -2.71875,-1.34765 0.204023,2.91282 0.494963,4.49671 3.199219,5.09765 -1.875,0 -5.625,0 -7.5,0 z"
         style="fill:#000000;fill-opacity:1;stroke:none;stroke-width:0.354331;stroke-linecap:round;stroke-linejoin:round;stroke-miterlimit:4;stroke-dasharray:1.41732, 1.41732;stroke-dashoffset:0;stroke-opacity:1" />
      <path
         id="text5205"
         d="m 53.503042,21.485712 c -1.8e-5,1.011128 -0.155574,1.950941 -0.466667,2.819444 -0.311128,0.868533 -0.732424,1.620384 -1.263889,2.255556 -0.531497,0.635197 -1.121311,1.231493 -1.769444,1.788889 -0.648162,0.544454 -1.328717,1.062972 -2.041667,1.555555 -0.712975,0.479639 -1.387048,0.946305 -2.022222,1.4 -0.635195,0.453711 -1.231491,0.965748 -1.788889,1.536112 -0.544453,0.557413 -0.952786,1.127782 -1.225,1.711111 h 10.5 v 4.394444 H 36.547486 c 0.129629,-2.281479 0.596295,-4.096292 1.4,-5.444444 0.803701,-1.361105 2.249069,-2.767585 4.336111,-4.219445 1.892584,-1.322211 3.266657,-2.37221 4.122222,-3.15 0.855544,-0.777764 1.432396,-1.490726 1.730556,-2.138889 0.311098,-0.648132 0.466654,-1.451835 0.466667,-2.411111 -1.3e-5,-1.244426 -0.311124,-2.216647 -0.933334,-2.916666 -0.622233,-0.712942 -1.477788,-1.069424 -2.566666,-1.069445 -1.114824,2.1e-5 -1.983341,0.382428 -2.605556,1.147222 -0.609266,0.764835 -0.913895,1.834278 -0.913889,3.208334 v 0.816666 h -4.686111 c -0.02593,-0.259242 -0.03889,-0.544427 -0.03889,-0.855555 -10e-7,-2.631462 0.719443,-4.673127 2.158334,-6.125 1.438883,-1.451827 3.441659,-2.177753 6.008333,-2.177778 2.605543,2.5e-5 4.666652,0.712988 6.183333,2.138889 1.529613,1.412985 2.294427,3.32502 2.294445,5.736111"
         style="font-style:normal;font-variant:normal;font-weight:bold;font-stretch:normal;font-size:35px;line-height:125%;font-family:AlMothnna;-inkscape-font-specification:'AlMothnna Bold';text-align:start;writing-mode:lr-tb;text-anchor:start;fill:#000000;fill-opacity:1;stroke:none;stroke-width:1px;stroke-linecap:butt;stroke-linejoin:miter;stroke-opacity:1" />
    </g>
  </g>
</svg>
