<?xml version="1.0" encoding="UTF-8" standalone="no"?>
<!-- Created with Inkscape (http://www.inkscape.org/) -->

<svg
   width="210mm"
   height="297mm"
   viewBox="0 0 210 297"
   version="1.1"
   id="svg1955"
   inkscape:version="1.2.2 (732a01da63, 2022-12-09)"
   sodipodi:docname="3C.svg"
   xmlns:inkscape="http://www.inkscape.org/namespaces/inkscape"
   xmlns:sodipodi="http://sodipodi.sourceforge.net/DTD/sodipodi-0.dtd"
   xmlns="http://www.w3.org/2000/svg"
   xmlns:svg="http://www.w3.org/2000/svg">
  <sodipodi:namedview
     id="namedview1957"
     pagecolor="#ffffff"
     bordercolor="#000000"
     borderopacity="0.25"
     inkscape:showpageshadow="2"
     inkscape:pageopacity="0.0"
     inkscape:pagecheckerboard="0"
     inkscape:deskcolor="#d1d1d1"
     inkscape:document-units="mm"
     showgrid="false"
     inkscape:zoom="1.6352936"
     inkscape:cx="117.10436"
     inkscape:cy="64.820166"
     inkscape:window-width="725"
     inkscape:window-height="439"
     inkscape:window-x="858"
     inkscape:window-y="349"
     inkscape:window-maximized="0"
     inkscape:current-layer="layer1" />
  <defs
     id="defs1952" />
  <g
     inkscape:label="Layer 1"
     inkscape:groupmode="layer"
     id="layer1">
    <g
       id="g13980"
       transform="matrix(0.26458333,0,0,0.26458333,-27.083437,-38.857286)">
      <g
         transform="translate(81.50546,136.92857)"
         id="g4454">
        <rect
           style="fill:#000000;fill-opacity:1;stroke:none;stroke-width:3;stroke-linecap:butt;stroke-linejoin:round;stroke-miterlimit:4;stroke-dasharray:none;stroke-opacity:1"
           id="rect4456"
           width="90"
           height="135"
           x="20.85714"
           y="9.9336166"
           ry="14.04" />
        <rect
           style="fill:#f2f2f2;fill-opacity:1;stroke:none;stroke-width:3;stroke-linecap:butt;stroke-linejoin:round;stroke-miterlimit:4;stroke-dasharray:none;stroke-opacity:1"
           id="rect4458"
           width="80"
           height="125"
           x="25.85714"
           y="14.933617"
           ry="13" />
      </g>
      <path
         id="text4536"
         d="m 162.3226,211.22645 c 0.42663,0.74672 0.79996,1.49338 1.12,2.24 0.31996,0.74672 0.6133,1.49338 0.88,2.24 l -0.16,-0.08 c -4.96003,2.45338 -9.81336,5.14671 -14.56,8.08 -4.74669,2.88004 -9.17335,6.2667 -13.28,10.16 l -0.4,0.08 -1.76,0.4 c -0.10667,-0.58664 -0.24001,-1.11997 -0.4,-1.6 -0.16001,-0.47997 -0.29334,-1.0133 -0.4,-1.6 h -0.08 c 4.15999,-4.31996 8.69332,-8.13329 13.6,-11.44 4.90664,-3.30662 10.02664,-6.15995 15.36,-8.56 l 0.08,0.08 m -2.08,-3.04 c 0.10663,0.26672 0.2933,0.56005 0.56,0.88 0.26663,0.26672 0.50663,0.50672 0.72,0.72 l 0.16,0.16 c -5.49336,2.40005 -10.66669,5.17338 -15.52,8.32 -4.80002,3.09337 -9.14668,6.8267 -13.04,11.2 h -0.08 c -0.74667,-3.0933 -1.46667,-6.15996 -2.16,-9.2 -0.69334,-3.03995 -1.41334,-6.07995 -2.16,-9.12 v -0.08 c 1.86666,-2.77328 4.34666,-4.85328 7.44,-6.24 3.14665,-1.43994 6.34665,-2.15994 9.6,-2.16 h 0.24 c 2.55998,0.0534 5.09331,0.50673 7.6,1.36 2.55997,0.85339 4.7733,2.21339 6.64,4.08 v 0.08 m -23.92,36.8 c -0.0533,-0.85331 -0.10668,-1.67998 -0.16,-2.48 -0.0533,-0.79998 -0.10668,-1.62664 -0.16,-2.48 l 0.08,-0.08 c 0.63999,0.10669 1.27999,0.16002 1.92,0.16 0.63999,2e-5 1.27999,0.0267 1.92,0.08 0.53332,2e-5 1.11998,-0.0266 1.76,-0.08 0.63998,-0.0533 1.25332,-0.15998 1.84,-0.32 0.58665,-0.15998 1.11998,-0.39998 1.6,-0.72 0.47998,-0.37331 0.79998,-0.87998 0.96,-1.52 -0.16002,-0.79997 -0.50669,-1.43997 -1.04,-1.92 -0.53335,-0.47997 -1.14668,-0.85331 -1.84,-1.12 -0.64002,-0.31997 -1.36002,-0.5333 -2.16,-0.64 -0.74668,-0.15997 -1.46668,-0.23997 -2.16,-0.24 l -0.24,-0.16 c 3.99998,-3.62663 8.18665,-6.6933 12.56,-9.2 4.3733,-2.50663 8.90663,-4.90662 13.6,-7.2 l 0.08,0.08 c 0.42663,1.22671 0.71996,2.50671 0.88,3.84 0.15996,1.28004 0.23996,2.58671 0.24,3.92 -0.0534,2.13337 -0.34671,4.21337 -0.88,6.24 -0.48004,2.0267 -1.2267,3.89336 -2.24,5.6 -1.01337,1.65336 -2.29337,3.09336 -3.84,4.32 -1.49337,1.17335 -3.28003,2.02669 -5.36,2.56 1.06664,0.74669 1.94664,1.68002 2.64,2.8 0.6933,1.06668 1.03997,2.24001 1.04,3.52 -0.1067,1.60001 -0.56003,3.04001 -1.36,4.32 -0.7467,1.28001 -1.73336,2.37334 -2.96,3.28 -1.22669,0.85334 -2.58669,1.49334 -4.08,1.92 -1.44002,0.48 -2.88002,0.72 -4.32,0.72 h -0.16 c -3.46668,-0.10666 -6.66668,-1.04 -9.6,-2.8 l -0.08,-0.08 c 0.26666,-1.22666 0.47999,-2.42666 0.64,-3.6 0.15999,-1.17332 0.37332,-2.37332 0.64,-3.6 l 0.08,-0.08 c 0.74666,0.16001 1.46665,0.29335 2.16,0.4 0.74665,0.10668 1.49332,0.16001 2.24,0.16 0.90665,10e-6 1.89332,-0.10665 2.96,-0.32 1.06665,-0.26665 1.75998,-0.90665 2.08,-1.92 -0.37335,-0.79998 -0.93335,-1.38665 -1.68,-1.76 -0.69335,-0.42665 -1.46668,-0.74665 -2.32,-0.96 -0.85335,-0.21332 -1.73335,-0.31998 -2.64,-0.32 -0.90668,-0.0533 -1.76001,-0.13332 -2.56,-0.24 l -0.08,-0.08 v 0"
         style="font-style:normal;font-variant:normal;font-weight:normal;font-stretch:normal;font-size:80px;line-height:125%;font-family:'Airmole Stripe';-inkscape-font-specification:'Airmole Stripe';text-align:start;writing-mode:lr-tb;text-anchor:start;fill:#333333;fill-opacity:1;stroke:none;stroke-width:1px;stroke-linecap:butt;stroke-linejoin:miter;stroke-opacity:1" />
      <path
         id="text5261"
         d="m 133.5418,160.90462 c -1e-5,-1.28331 0.18148,-2.41109 0.54444,-3.38333 0.36296,-0.98517 0.81666,-1.75646 1.36111,-2.31389 0.54444,-0.55738 1.19259,-1.01109 1.94445,-1.36111 0.76481,-0.34998 1.47777,-0.57683 2.13889,-0.68056 0.6611,-0.11664 1.34813,-0.17497 2.06111,-0.175 2.4111,3e-5 4.32961,0.60929 5.75555,1.82778 1.42591,1.21854 2.13887,2.86484 2.13889,4.93889 -2e-5,1.12779 -0.25928,2.11298 -0.77778,2.95555 -0.50557,0.82965 -1.3352,1.60094 -2.48889,2.31389 1.39999,0.68705 2.42406,1.52316 3.07223,2.50834 0.66109,0.98519 0.99164,2.20371 0.99166,3.65555 -2e-5,2.41112 -0.79076,4.33612 -2.37222,5.775 -1.56853,1.43889 -3.67501,2.15833 -6.31944,2.15834 -2.54075,-1e-5 -4.56297,-0.72593 -6.06667,-2.17778 -1.50371,-1.45185 -2.26204,-3.41574 -2.275,-5.89167 h 4.76389 c 0.14259,2.57964 1.36758,3.86945 3.675,3.86945 1.07591,0 1.95739,-0.35 2.64444,-1.05 0.69999,-0.71296 1.04999,-1.60741 1.05,-2.68334 -1e-5,-0.9074 -0.24631,-1.69814 -0.73889,-2.37222 -0.47964,-0.67406 -1.13427,-1.12129 -1.96388,-1.34167 -0.67409,-0.1685 -1.62687,-0.25276 -2.85834,-0.25277 v -3.26667 h 0.42778 c 2.89073,1e-5 4.3361,-1.25091 4.33611,-3.75278 -1e-5,-1.03702 -0.27223,-1.83424 -0.81667,-2.39167 -0.53149,-0.57034 -1.28334,-0.85553 -2.25555,-0.85555 -1.29631,2e-5 -2.18427,0.3565 -2.66389,1.06944 -0.46667,0.71299 -0.71945,1.80836 -0.75833,3.28611 h -4.55 v -0.40833"
         style="font-style:normal;font-variant:normal;font-weight:bold;font-stretch:normal;font-size:35px;line-height:125%;font-family:AlMothnna;-inkscape-font-specification:'AlMothnna Bold';text-align:start;writing-mode:lr-tb;text-anchor:start;fill:#000000;fill-opacity:1;stroke:none;stroke-width:1px;stroke-linecap:butt;stroke-linejoin:miter;stroke-opacity:1" />
      <path
         sodipodi:nodetypes="ccccsccccccscccc"
         id="path5418"
         d="m 121.33535,154.79661 c -2.95714,0 -5.35714,2.52 -5.35714,5.625 0.0258,1.95404 1.03405,3.60527 2.08333,5.17578 -1.16957,-0.88503 -2.46938,-1.42026 -3.86905,-1.42578 -2.95714,0 -5.35714,2.52 -5.35714,5.625 0,3.105 2.4,5.625 5.35714,5.625 2.39553,-0.0401 4.31146,-1.71621 6.1942,-3.125 -0.3369,4.20822 -1.02218,6.57097 -5.00372,7.5 2.97619,0 8.92857,0 11.90476,0 -3.98153,-0.92903 -4.66682,-3.29178 -5.00372,-7.5 1.86093,1.59506 3.81257,2.94817 6.1942,3.125 2.95714,0 5.35714,-2.52 5.35714,-5.625 0,-3.105 -2.4,-5.625 -5.35714,-5.625 -1.43557,-1.5e-4 -2.67554,0.66045 -3.86905,1.42578 1.1876,-1.55433 1.96933,-3.23152 2.08333,-5.17578 0,-3.105 -2.4,-5.625 -5.35714,-5.625 z"
         style="fill:#000000;fill-opacity:1;stroke:none;stroke-width:0.354331;stroke-linecap:round;stroke-linejoin:round;stroke-miterlimit:4;stroke-dasharray:1.41732, 1.41732;stroke-dashoffset:0;stroke-opacity:1" />
      <path
         sodipodi:nodetypes="ccccsccccccscccc"
         id="path5498"
         d="m 132.42855,201.36219 c -1.77429,0 -3.21429,1.512 -3.21429,3.375 0.0155,1.17242 0.62044,2.16316 1.25,3.10547 -0.70174,-0.53102 -1.48163,-0.85216 -2.32143,-0.85547 -1.77428,0 -3.21428,1.512 -3.21428,3.375 0,1.863 1.44,3.375 3.21428,3.375 1.43732,-0.024 2.58688,-1.02973 3.71652,-1.875 -0.20214,2.52493 -0.61331,3.94258 -3.00223,4.5 1.78572,0 5.35714,0 7.14286,0 -2.38892,-0.55742 -2.80009,-1.97507 -3.00223,-4.5 1.11655,0.95704 2.28754,1.7689 3.71651,1.875 1.77429,0 3.21429,-1.512 3.21429,-3.375 0,-1.863 -1.44,-3.375 -3.21429,-3.375 -0.86134,-9e-5 -1.60532,0.39627 -2.32142,0.85547 0.71256,-0.9326 1.1816,-1.93891 1.25,-3.10547 0,-1.863 -1.44,-3.375 -3.21429,-3.375 z"
         style="fill:#000000;fill-opacity:1;stroke:none;stroke-width:0.354331;stroke-linecap:round;stroke-linejoin:round;stroke-miterlimit:4;stroke-dasharray:1.41732, 1.41732;stroke-dashoffset:0;stroke-opacity:1" />
      <path
         sodipodi:nodetypes="ccccsccccccscccc"
         id="path5500"
         d="m 165.42855,227.36219 c -1.77429,0 -3.21429,1.512 -3.21429,3.375 0.0155,1.17242 0.62044,2.16316 1.25,3.10547 -0.70174,-0.53102 -1.48163,-0.85216 -2.32143,-0.85547 -1.77428,0 -3.21428,1.512 -3.21428,3.375 0,1.863 1.44,3.375 3.21428,3.375 1.43732,-0.024 2.58688,-1.02973 3.71652,-1.875 -0.20214,2.52493 -0.61331,3.94258 -3.00223,4.5 1.78572,0 5.35714,0 7.14286,0 -2.38892,-0.55742 -2.80009,-1.97507 -3.00223,-4.5 1.11655,0.95704 2.28754,1.7689 3.71651,1.875 1.77429,0 3.21429,-1.512 3.21429,-3.375 0,-1.863 -1.44,-3.375 -3.21429,-3.375 -0.86134,-9e-5 -1.60532,0.39627 -2.32142,0.85547 0.71256,-0.9326 1.1816,-1.93891 1.25,-3.10547 0,-1.863 -1.44,-3.375 -3.21429,-3.375 z"
         style="fill:#000000;fill-opacity:1;stroke:none;stroke-width:0.354331;stroke-linecap:round;stroke-linejoin:round;stroke-miterlimit:4;stroke-dasharray:1.41732, 1.41732;stroke-dashoffset:0;stroke-opacity:1" />
      <path
         sodipodi:nodetypes="ccccsccccccscccc"
         id="path5502"
         d="m 136.42855,248.36219 c -1.77429,0 -3.21429,1.512 -3.21429,3.375 0.0155,1.17242 0.62044,2.16316 1.25,3.10547 -0.70174,-0.53102 -1.48163,-0.85216 -2.32143,-0.85547 -1.77428,0 -3.21428,1.512 -3.21428,3.375 0,1.863 1.44,3.375 3.21428,3.375 1.43732,-0.024 2.58688,-1.02973 3.71652,-1.875 -0.20214,2.52493 -0.61331,3.94258 -3.00223,4.5 1.78572,0 5.35714,0 7.14286,0 -2.38892,-0.55742 -2.80009,-1.97507 -3.00223,-4.5 1.11655,0.95704 2.28754,1.7689 3.71651,1.875 1.77429,0 3.21429,-1.512 3.21429,-3.375 0,-1.863 -1.44,-3.375 -3.21429,-3.375 -0.86134,-9e-5 -1.60532,0.39627 -2.32142,0.85547 0.71256,-0.9326 1.1816,-1.93891 1.25,-3.10547 0,-1.863 -1.44,-3.375 -3.21429,-3.375 z"
         style="fill:#000000;fill-opacity:1;stroke:none;stroke-width:0.354331;stroke-linecap:round;stroke-linejoin:round;stroke-miterlimit:4;stroke-dasharray:1.41732, 1.41732;stroke-dashoffset:0;stroke-opacity:1" />
    </g>
  </g>
</svg>
