<?xml version="1.0" encoding="UTF-8" standalone="no"?>
<!-- Created with Inkscape (http://www.inkscape.org/) -->

<svg
   width="210mm"
   height="297mm"
   viewBox="0 0 210 297"
   version="1.1"
   id="svg1955"
   inkscape:version="1.2.2 (732a01da63, 2022-12-09)"
   sodipodi:docname="3S.svg"
   xmlns:inkscape="http://www.inkscape.org/namespaces/inkscape"
   xmlns:sodipodi="http://sodipodi.sourceforge.net/DTD/sodipodi-0.dtd"
   xmlns="http://www.w3.org/2000/svg"
   xmlns:svg="http://www.w3.org/2000/svg">
  <sodipodi:namedview
     id="namedview1957"
     pagecolor="#ffffff"
     bordercolor="#000000"
     borderopacity="0.25"
     inkscape:showpageshadow="2"
     inkscape:pageopacity="0.0"
     inkscape:pagecheckerboard="0"
     inkscape:deskcolor="#d1d1d1"
     inkscape:document-units="mm"
     showgrid="false"
     inkscape:zoom="1.6352936"
     inkscape:cx="122.3022"
     inkscape:cy="70.935276"
     inkscape:window-width="724"
     inkscape:window-height="439"
     inkscape:window-x="858"
     inkscape:window-y="349"
     inkscape:window-maximized="0"
     inkscape:current-layer="layer1" />
  <defs
     id="defs1952" />
  <g
     inkscape:label="Layer 1"
     inkscape:groupmode="layer"
     id="layer1">
    <g
       id="g13689"
       transform="matrix(0.26458333,0,0,0.26458333,-26.703831,-1.5633345)">
      <g
         transform="translate(80.934052,-3.035717)"
         id="g4314">
        <rect
           style="fill:#000000;fill-opacity:1;stroke:none;stroke-width:3;stroke-linecap:butt;stroke-linejoin:round;stroke-miterlimit:4;stroke-dasharray:none;stroke-opacity:1"
           id="rect4316"
           width="90"
           height="135"
           x="20.85714"
           y="9.9336166"
           ry="14.04" />
        <rect
           style="fill:#f2f2f2;fill-opacity:1;stroke:none;stroke-width:3;stroke-linecap:butt;stroke-linejoin:round;stroke-miterlimit:4;stroke-dasharray:none;stroke-opacity:1"
           id="rect4318"
           width="80"
           height="125"
           x="25.85714"
           y="14.933617"
           ry="13" />
      </g>
      <path
         id="text4396"
         d="m 161.7512,71.262167 c 0.42663,0.746714 0.79997,1.49338 1.12,2.24 0.31997,0.746712 0.6133,1.493378 0.88,2.24 l -0.16,-0.08 c -4.96003,2.453374 -9.81336,5.146705 -14.56,8.08 -4.74668,2.880033 -9.17334,6.266696 -13.28,10.16 l -0.4,0.08 -1.76,0.4 c -0.10667,-0.586641 -0.24,-1.119974 -0.4,-1.6 -0.16,-0.479973 -0.29334,-1.013306 -0.4,-1.6 h -0.08 c 4.15999,-4.319968 8.69332,-8.133297 13.6,-11.44 4.90664,-3.306624 10.02664,-6.159954 15.36,-8.56 l 0.08,0.08 m -2.08,-3.04 c 0.10664,0.266717 0.2933,0.56005 0.56,0.88 0.26664,0.266717 0.50664,0.506716 0.72,0.72 l 0.16,0.16 c -5.49336,2.400047 -10.66669,5.173377 -15.52,8.32 -4.80001,3.093371 -9.14667,6.826701 -13.04,11.2 h -0.08 c -0.74667,-3.093301 -1.46667,-6.159964 -2.16,-9.2 -0.69333,-3.039958 -1.41333,-6.079955 -2.16,-9.12 v -0.08 c 1.86667,-2.773282 4.34666,-4.85328 7.44,-6.24 3.14666,-1.439944 6.34665,-2.159943 9.6,-2.16 h 0.24 c 2.55998,0.05339 5.09331,0.506723 7.6,1.36 2.55997,0.853388 4.7733,2.213386 6.64,4.08 v 0.08 m -23.92,36.800003 c -0.0533,-0.85332 -0.10667,-1.67999 -0.16,-2.48 -0.0533,-0.79999 -0.10667,-1.62665 -0.16,-2.48 l 0.08,-0.08 c 0.63999,0.10668 1.27999,0.16002 1.92,0.16 0.63999,2e-5 1.27999,0.0267 1.92,0.08 0.53332,2e-5 1.11999,-0.0267 1.76,-0.08 0.63999,-0.0533 1.25332,-0.159981 1.84,-0.32 0.58665,-0.15998 1.11999,-0.39998 1.6,-0.72 0.47998,-0.373313 0.79998,-0.879979 0.96,-1.52 -0.16002,-0.799978 -0.50668,-1.439977 -1.04,-1.92 -0.53335,-0.479976 -1.14668,-0.853309 -1.84,-1.12 -0.64001,-0.319975 -1.36001,-0.533308 -2.16,-0.64 -0.74668,-0.159975 -1.46668,-0.239974 -2.16,-0.24 l -0.24,-0.16 c 3.99999,-3.626637 8.18665,-6.693301 12.56,-9.2 4.37331,-2.506629 8.90664,-4.906627 13.6,-7.2 l 0.08,0.08 c 0.42663,1.226707 0.71996,2.506706 0.88,3.84 0.15996,1.280037 0.23996,2.586702 0.24,3.92 -0.0534,2.133365 -0.3467,4.213363 -0.88,6.24 -0.48003,2.026693 -1.2267,3.893357 -2.24,5.6 -1.01337,1.653354 -2.29336,3.093353 -3.84,4.32 -1.49336,1.17335 -3.28003,2.02668 -5.36,2.56 1.06664,0.74668 1.94664,1.68001 2.64,2.8 0.69331,1.06668 1.03997,2.24001 1.04,3.52 -0.10669,1.6 -0.56003,3.04 -1.36,4.32 -0.74669,1.28 -1.73336,2.37333 -2.96,3.28 -1.22669,0.85333 -2.58669,1.49333 -4.08,1.92 -1.44002,0.48 -2.88002,0.72 -4.32,0.72 h -0.16 c -3.46668,-0.10667 -6.66667,-1.04 -9.6,-2.8 l -0.08,-0.08 c 0.26666,-1.22667 0.47999,-2.42667 0.64,-3.6 0.15999,-1.17333 0.37333,-2.37333 0.64,-3.6 l 0.08,-0.08 c 0.74666,0.16001 1.46666,0.29334 2.16,0.4 0.74666,0.10667 1.49332,0.16001 2.24,0.16 0.90666,1e-5 1.89332,-0.10666 2.96,-0.32 1.06665,-0.26666 1.75998,-0.90666 2.08,-1.92 -0.37335,-0.79999 -0.93335,-1.38666 -1.68,-1.76 -0.69335,-0.42666 -1.46668,-0.74666 -2.32,-0.96 -0.85334,-0.21332 -1.73334,-0.31999 -2.64,-0.32 -0.90667,-0.0533 -1.76001,-0.13332 -2.56,-0.24 l -0.08,-0.08 v 0"
         style="font-style:normal;font-variant:normal;font-weight:normal;font-stretch:normal;font-size:80px;line-height:125%;font-family:'Airmole Stripe';-inkscape-font-specification:'Airmole Stripe';text-align:start;writing-mode:lr-tb;text-anchor:start;fill:#333333;fill-opacity:1;stroke:none;stroke-width:1px;stroke-linecap:butt;stroke-linejoin:miter;stroke-opacity:1" />
      <path
         sodipodi:nodetypes="ccsscssccc"
         id="path4901"
         d="m 114.32905,39.362194 c 4.5071,-1.001575 4.992,-3.641382 5.33204,-8.496093 -0.78317,1.296981 -2.20704,2.254106 -4.53125,2.246093 -3.8203,-0.01317 -6.37925,-2.234875 -5.46875,-7.03125 0.91796,-4.835737 7.79296,-6.710737 10.91796,-11.71875 3.125,5.008013 10,6.883013 10.91797,11.71875 0.9105,4.796382 -1.54298,7.017718 -5.46875,7.03125 -2.32422,0.008 -3.74808,-0.949112 -4.53125,-2.246093 0.34004,4.854711 0.82494,7.494518 5.33203,8.496093 -3.125,0 -9.375,0 -12.5,0 z"
         style="fill:#000000;fill-opacity:1;stroke:none;stroke-width:0.354331;stroke-linecap:round;stroke-linejoin:round;stroke-miterlimit:4;stroke-dasharray:1.41732, 1.41732;stroke-dashoffset:0;stroke-opacity:1" />
      <path
         sodipodi:nodetypes="ccsscssccc"
         id="path5035"
         d="m 123.67697,75.362194 c 2.70425,-0.60094 2.99519,-2.18483 3.19922,-5.09765 -0.4699,0.77818 -1.32422,1.35246 -2.71875,1.34765 -2.29218,-0.0079 -3.82755,-1.34092 -3.28125,-4.21875 0.55078,-2.90144 4.67578,-4.026438 6.55078,-7.03125 1.875,3.004812 6,4.12981 6.55078,7.03125 0.5463,2.87783 -0.92579,4.21063 -3.28125,4.21875 -1.39453,0.0048 -2.24885,-0.56947 -2.71875,-1.34765 0.20402,2.91282 0.49496,4.49671 3.19922,5.09765 -1.875,0 -5.625,0 -7.5,0 z"
         style="fill:#000000;fill-opacity:1;stroke:none;stroke-width:0.354331;stroke-linecap:round;stroke-linejoin:round;stroke-miterlimit:4;stroke-dasharray:1.41732, 1.41732;stroke-dashoffset:0;stroke-opacity:1" />
      <path
         sodipodi:nodetypes="ccsscssccc"
         id="path5037"
         d="m 160.67697,101.36219 c 2.70425,-0.60094 2.99519,-2.184826 3.19922,-5.097646 -0.4699,0.77818 -1.32422,1.35246 -2.71875,1.34765 -2.29218,-0.0079 -3.82755,-1.34092 -3.28125,-4.21875 0.55078,-2.90144 4.67578,-4.026438 6.55078,-7.03125 1.875,3.004812 6,4.12981 6.55078,7.03125 0.5463,2.87783 -0.92579,4.21063 -3.28125,4.21875 -1.39453,0.0048 -2.24885,-0.56947 -2.71875,-1.34765 0.20402,2.91282 0.49496,4.496706 3.19922,5.097646 -1.875,0 -5.625,0 -7.5,0 z"
         style="fill:#000000;fill-opacity:1;stroke:none;stroke-width:0.354331;stroke-linecap:round;stroke-linejoin:round;stroke-miterlimit:4;stroke-dasharray:1.41732, 1.41732;stroke-dashoffset:0;stroke-opacity:1" />
      <path
         sodipodi:nodetypes="ccsscssccc"
         id="path5039"
         d="m 130.67697,124.36219 c 2.70425,-0.60094 2.99519,-2.18483 3.19922,-5.09765 -0.4699,0.77818 -1.32422,1.35246 -2.71875,1.34765 -2.29218,-0.008 -3.82755,-1.34092 -3.28125,-4.21875 0.55078,-2.90144 4.67578,-4.02643 6.55078,-7.03125 1.875,3.00482 6,4.12981 6.55078,7.03125 0.5463,2.87783 -0.92579,4.21063 -3.28125,4.21875 -1.39453,0.005 -2.24885,-0.56947 -2.71875,-1.34765 0.20402,2.91282 0.49496,4.49671 3.19922,5.09765 -1.875,0 -5.625,0 -7.5,0 z"
         style="fill:#000000;fill-opacity:1;stroke:none;stroke-width:0.354331;stroke-linecap:round;stroke-linejoin:round;stroke-miterlimit:4;stroke-dasharray:1.41732, 1.41732;stroke-dashoffset:0;stroke-opacity:1" />
      <path
         id="text5209"
         d="m 133.1241,20.613491 c 0,-1.283315 0.18148,-2.411091 0.54445,-3.383333 0.36296,-0.985164 0.81666,-1.756459 1.36111,-2.313889 0.54444,-0.557384 1.19259,-1.011087 1.94444,-1.361111 0.76481,-0.349976 1.47777,-0.576827 2.13889,-0.680556 0.6611,-0.116641 1.34814,-0.174975 2.06111,-0.175 2.4111,2.5e-5 4.32962,0.609284 5.75556,1.827778 1.42591,1.218541 2.13887,2.864835 2.13889,4.938889 -2e-5,1.127795 -0.25928,2.112979 -0.77778,2.955555 -0.50557,0.829645 -1.3352,1.60094 -2.48889,2.313889 1.39998,0.68705 2.42406,1.52316 3.07222,2.508334 0.6611,0.985195 0.99165,2.203712 0.99167,3.655555 -2e-5,2.411116 -0.79076,4.336114 -2.37222,5.775 -1.56854,1.438889 -3.67502,2.158333 -6.31945,2.158333 -2.54075,0 -4.56297,-0.725926 -6.06666,-2.177777 -1.50371,-1.451849 -2.26204,-3.415736 -2.275,-5.891667 h 4.76388 c 0.14259,2.579634 1.36759,3.869448 3.675,3.869444 1.07592,4e-6 1.9574,-0.349996 2.64445,-1.05 0.69999,-0.712957 1.04999,-1.607401 1.05,-2.683333 -1e-5,-0.907399 -0.24631,-1.698139 -0.73889,-2.372222 -0.47964,-0.674064 -1.13427,-1.121286 -1.96389,-1.341667 -0.67408,-0.168507 -1.62686,-0.252766 -2.85833,-0.252778 v -3.266666 h 0.42778 c 2.89073,1.4e-5 4.33609,-1.250911 4.33611,-3.752778 -2e-5,-1.037018 -0.27224,-1.834239 -0.81667,-2.391667 -0.53149,-0.570349 -1.28334,-0.855534 -2.25556,-0.855555 -1.2963,2.1e-5 -2.18426,0.356502 -2.66388,1.069444 -0.46668,0.712983 -0.71945,1.808352 -0.75834,3.286111 h -4.55 v -0.408333"
         style="font-style:normal;font-variant:normal;font-weight:bold;font-stretch:normal;font-size:35px;line-height:125%;font-family:AlMothnna;-inkscape-font-specification:'AlMothnna Bold';text-align:start;writing-mode:lr-tb;text-anchor:start;fill:#000000;fill-opacity:1;stroke:none;stroke-width:1px;stroke-linecap:butt;stroke-linejoin:miter;stroke-opacity:1" />
    </g>
  </g>
</svg>
