<?xml version="1.0" encoding="UTF-8" standalone="no"?>
<!-- Created with Inkscape (http://www.inkscape.org/) -->

<svg
   width="210mm"
   height="297mm"
   viewBox="0 0 210 297"
   version="1.1"
   id="svg1955"
   inkscape:version="1.2.2 (732a01da63, 2022-12-09)"
   sodipodi:docname="4S.svg"
   xmlns:inkscape="http://www.inkscape.org/namespaces/inkscape"
   xmlns:sodipodi="http://sodipodi.sourceforge.net/DTD/sodipodi-0.dtd"
   xmlns="http://www.w3.org/2000/svg"
   xmlns:svg="http://www.w3.org/2000/svg">
  <sodipodi:namedview
     id="namedview1957"
     pagecolor="#ffffff"
     bordercolor="#000000"
     borderopacity="0.25"
     inkscape:showpageshadow="2"
     inkscape:pageopacity="0.0"
     inkscape:pagecheckerboard="0"
     inkscape:deskcolor="#d1d1d1"
     inkscape:document-units="mm"
     showgrid="false"
     inkscape:zoom="1.6352936"
     inkscape:cx="122.3022"
     inkscape:cy="70.935276"
     inkscape:window-width="724"
     inkscape:window-height="439"
     inkscape:window-x="858"
     inkscape:window-y="349"
     inkscape:window-maximized="0"
     inkscape:current-layer="layer1" />
  <defs
     id="defs1952" />
  <g
     inkscape:label="Layer 1"
     inkscape:groupmode="layer"
     id="layer1">
    <g
       id="g13714"
       transform="matrix(0.26458333,0,0,0.26458333,-52.086389,-1.5633346)">
      <g
         transform="translate(176.86813,-3.035717)"
         id="g4320">
        <rect
           style="fill:#000000;fill-opacity:1;stroke:none;stroke-width:3;stroke-linecap:butt;stroke-linejoin:round;stroke-miterlimit:4;stroke-dasharray:none;stroke-opacity:1"
           id="rect4322"
           width="90"
           height="135"
           x="20.85714"
           y="9.9336166"
           ry="14.04" />
        <rect
           style="fill:#f2f2f2;fill-opacity:1;stroke:none;stroke-width:3;stroke-linecap:butt;stroke-linejoin:round;stroke-miterlimit:4;stroke-dasharray:none;stroke-opacity:1"
           id="rect4324"
           width="80"
           height="125"
           x="25.85714"
           y="14.933617"
           ry="13" />
      </g>
      <path
         id="text4400"
         d="m 223.36526,97.982173 c 2.71999,-2.29331 5.51999,-4.426641 8.4,-6.4 2.93331,-2.026637 6.02664,-3.893302 9.28,-5.6 l 0.08,0.08 c -3e-5,0.640032 0.0266,1.306698 0.08,2 0.10664,0.64003 0.18664,1.28003 0.24,1.92 l -0.16,0.08 c -3.14669,1.546694 -6.13335,3.253359 -8.96,5.12 -2.82668,1.813355 -5.60001,3.92002 -8.32,6.319997 l -0.16,-0.08 c -0.10668,-0.58665 -0.21334,-1.14665 -0.32,-1.679997 -0.10668,-0.533314 -0.21334,-1.093313 -0.32,-1.68 l 0.16,-0.08 m 40.32,-22.48 c -0.16005,0.853376 -0.29338,1.706708 -0.4,2.56 -0.0534,0.853373 -0.13338,1.706706 -0.24,2.56 h -0.16 c -3.41338,1.546703 -6.85337,3.040035 -10.32,4.48 -3.4667,1.440032 -6.96003,2.986698 -10.48,4.64 l -0.08,-0.08 0.08,-4.32 c 3.51997,-1.866631 7.06663,-3.626629 10.64,-5.28 3.57329,-1.653293 7.19995,-3.199958 10.88,-4.64 l 0.08,0.08 m 0.48,-4.24 c -5e-5,0.426714 -0.0534,0.85338 -0.16,1.28 -0.10672,0.426713 -0.16005,0.853379 -0.16,1.28 l -0.08,-0.08 c -3.68005,1.38671 -7.33338,2.933376 -10.96,4.64 -3.57337,1.653372 -7.1467,3.386704 -10.72,5.2 l -0.08,-1.84 c -3e-5,-1.386628 -3e-5,-2.746627 0,-4.08 0.0533,-1.386624 0.08,-2.773289 0.08,-4.16 v -1.76 c 3.35997,-0.159953 6.6933,-0.293286 10,-0.4 3.30663,-0.106619 6.55996,-0.159952 9.76,-0.16 l 2.32,0.08 v 0 m -45.84,-7.76 c 3.51999,-0.159944 6.95999,-0.293278 10.32,-0.4 3.41332,-0.106611 6.87998,-0.213277 10.4,-0.32 l 0.24,-0.08 c 0.26664,3.626719 0.50664,7.200049 0.72,10.72 0.26664,3.466709 0.58664,7.040038 0.96,10.72 l -0.08,-0.08 c -3.20002,1.813366 -6.29335,3.733364 -9.28,5.76 -2.93335,2.026694 -5.76001,4.186692 -8.48,6.48 l -0.16,-0.08 c -1.01334,-5.493305 -1.92001,-10.906633 -2.72,-16.24 -0.74667,-5.333289 -1.41334,-10.826617 -2,-16.48 l 0.08,-0.08 v 0.08 m 6.72,43.199997 c -0.16001,-0.58665 -0.29334,-1.14665 -0.4,-1.68 -0.0533,-0.58665 -0.18668,-1.17332 -0.4,-1.76 l -0.08,-0.08 c 2.61332,-2.34665 5.35999,-4.479977 8.24,-6.399997 2.93331,-1.919976 5.97331,-3.653308 9.12,-5.2 l 0.08,0.08 c 0.0533,0.746693 0.10664,1.493359 0.16,2.24 0.0533,0.693358 0.13331,1.413357 0.24,2.16 l 0.08,-4.8 c 3.35997,-1.653304 6.74663,-3.173302 10.16,-4.56 3.46663,-1.386633 6.95996,-2.853298 10.48,-4.4 l 0.08,0.08 c -0.32005,1.866701 -0.58671,3.760033 -0.8,5.68 -0.21338,1.920029 -0.48005,3.81336 -0.8,5.68 1.01329,-0.05331 1.99995,-0.106641 2.96,-0.16 0.95995,-0.106641 1.94662,-0.186641 2.96,-0.24 l 0.08,0.08 -0.08,11.119997 c -1.17338,0.0533 -2.32005,0.10668 -3.44,0.16 -1.12005,0.0534 -2.26671,0.08 -3.44,0.08 -0.32005,2.24001 -0.58671,4.42668 -0.8,6.56 -0.21338,2.13334 -0.45338,4.32001 -0.72,6.56 -2.56004,0.26667 -5.09337,0.48 -7.6,0.64 -2.45337,0.16 -4.96003,0.34667 -7.52,0.56 l -0.16,-0.08 c -0.21336,-2.18666 -0.45336,-4.34666 -0.72,-6.48 -0.26669,-2.18666 -0.56003,-4.37332 -0.88,-6.56 -2.72002,0.10668 -5.49336,0.24002 -8.32,0.4 -2.77335,0.16002 -5.57335,0.29335 -8.4,0.4 l -0.08,-0.08 v 0"
         style="font-style:normal;font-variant:normal;font-weight:normal;font-stretch:normal;font-size:80px;line-height:125%;font-family:'Airmole Stripe';-inkscape-font-specification:'Airmole Stripe';text-align:start;writing-mode:lr-tb;text-anchor:start;fill:#333333;fill-opacity:1;stroke:none;stroke-width:1px;stroke-linecap:butt;stroke-linejoin:miter;stroke-opacity:1" />
      <path
         sodipodi:nodetypes="ccsscssccc"
         id="path4903"
         d="m 210.31513,39.362194 c 4.5071,-1.001575 4.992,-3.641382 5.33204,-8.496093 -0.78317,1.296981 -2.20704,2.254106 -4.53125,2.246093 -3.8203,-0.01317 -6.37925,-2.234875 -5.46875,-7.03125 0.91796,-4.835737 7.79296,-6.710737 10.91796,-11.71875 3.125,5.008013 10,6.883013 10.91797,11.71875 0.9105,4.796382 -1.54298,7.017718 -5.46875,7.03125 -2.32422,0.008 -3.74808,-0.949112 -4.53125,-2.246093 0.34004,4.854711 0.82494,7.494518 5.33203,8.496093 -3.125,0 -9.375,0 -12.5,0 z"
         style="fill:#000000;fill-opacity:1;stroke:none;stroke-width:0.354331;stroke-linecap:round;stroke-linejoin:round;stroke-miterlimit:4;stroke-dasharray:1.41732, 1.41732;stroke-dashoffset:0;stroke-opacity:1" />
      <path
         sodipodi:nodetypes="ccsscssccc"
         id="path5041"
         d="m 214.67697,69.362194 c 2.70425,-0.60094 2.99519,-2.18483 3.19922,-5.09765 -0.4699,0.77818 -1.32422,1.35246 -2.71875,1.34765 -2.29218,-0.0079 -3.82755,-1.34092 -3.28125,-4.21875 0.55078,-2.90144 4.67578,-4.026438 6.55078,-7.03125 1.875,3.004812 6,4.12981 6.55078,7.03125 0.5463,2.87783 -0.92579,4.21063 -3.28125,4.21875 -1.39453,0.0048 -2.24885,-0.56947 -2.71875,-1.34765 0.20402,2.91282 0.49496,4.49671 3.19922,5.09765 -1.875,0 -5.625,0 -7.5,0 z"
         style="fill:#000000;fill-opacity:1;stroke:none;stroke-width:0.354331;stroke-linecap:round;stroke-linejoin:round;stroke-miterlimit:4;stroke-dasharray:1.41732, 1.41732;stroke-dashoffset:0;stroke-opacity:1" />
      <path
         sodipodi:nodetypes="ccsscssccc"
         id="path5043"
         d="m 261.67697,77.362194 c 2.70425,-0.60094 2.99519,-2.18483 3.19922,-5.09765 -0.4699,0.77818 -1.32422,1.35246 -2.71875,1.34765 -2.29218,-0.0079 -3.82755,-1.34092 -3.28125,-4.21875 0.55078,-2.90144 4.67578,-4.026438 6.55078,-7.03125 1.875,3.004812 6,4.12981 6.55078,7.03125 0.5463,2.87783 -0.92579,4.21063 -3.28125,4.21875 -1.39453,0.0048 -2.24885,-0.56947 -2.71875,-1.34765 0.20402,2.91282 0.49496,4.49671 3.19922,5.09765 -1.875,0 -5.625,0 -7.5,0 z"
         style="fill:#000000;fill-opacity:1;stroke:none;stroke-width:0.354331;stroke-linecap:round;stroke-linejoin:round;stroke-miterlimit:4;stroke-dasharray:1.41732, 1.41732;stroke-dashoffset:0;stroke-opacity:1" />
      <path
         sodipodi:nodetypes="ccsscssccc"
         id="path5045"
         d="m 254.67697,124.36219 c 2.70425,-0.60094 2.99519,-2.18483 3.19922,-5.09765 -0.4699,0.77818 -1.32422,1.35246 -2.71875,1.34765 -2.29218,-0.008 -3.82755,-1.34092 -3.28125,-4.21875 0.55078,-2.90144 4.67578,-4.02643 6.55078,-7.03125 1.875,3.00482 6,4.12981 6.55078,7.03125 0.5463,2.87783 -0.92579,4.21063 -3.28125,4.21875 -1.39453,0.005 -2.24885,-0.56947 -2.71875,-1.34765 0.20402,2.91282 0.49496,4.49671 3.19922,5.09765 -1.875,0 -5.625,0 -7.5,0 z"
         style="fill:#000000;fill-opacity:1;stroke:none;stroke-width:0.354331;stroke-linecap:round;stroke-linejoin:round;stroke-miterlimit:4;stroke-dasharray:1.41732, 1.41732;stroke-dashoffset:0;stroke-opacity:1" />
      <path
         sodipodi:nodetypes="ccsscssccc"
         id="path5047"
         d="m 221.67697,111.36219 c 2.70425,-0.60094 2.99519,-2.18483 3.19922,-5.09765 -0.4699,0.77818 -1.32422,1.35246 -2.71875,1.34765 -2.29218,-0.008 -3.82755,-1.34092 -3.28125,-4.21875 0.55078,-2.90144 4.67578,-4.026434 6.55078,-7.031246 1.875,3.004812 6,4.129806 6.55078,7.031246 0.5463,2.87783 -0.92579,4.21063 -3.28125,4.21875 -1.39453,0.005 -2.24885,-0.56947 -2.71875,-1.34765 0.20402,2.91282 0.49496,4.49671 3.19922,5.09765 -1.875,0 -5.625,0 -7.5,0 z"
         style="fill:#000000;fill-opacity:1;stroke:none;stroke-width:0.354331;stroke-linecap:round;stroke-linejoin:round;stroke-miterlimit:4;stroke-dasharray:1.41732, 1.41732;stroke-dashoffset:0;stroke-opacity:1" />
      <path
         id="text5213"
         d="m 246.39515,29.380156 v 4.063889 h -2.60556 v 5.502778 h -4.9 v -5.502778 h -9.93611 v -4.102777 l 9.06111,-15.225 h 5.775 v 15.263888 h 2.60556 m -7.50556,0 V 18.782934 l -6.475,10.597222 h 6.475"
         style="font-style:normal;font-variant:normal;font-weight:bold;font-stretch:normal;font-size:35px;line-height:125%;font-family:AlMothnna;-inkscape-font-specification:'AlMothnna Bold';text-align:start;writing-mode:lr-tb;text-anchor:start;fill:#000000;fill-opacity:1;stroke:none;stroke-width:1px;stroke-linecap:butt;stroke-linejoin:miter;stroke-opacity:1" />
    </g>
  </g>
</svg>
