<?xml version="1.0" encoding="UTF-8" standalone="no"?>
<!-- Created with Inkscape (http://www.inkscape.org/) -->

<svg
   width="210mm"
   height="297mm"
   viewBox="0 0 210 297"
   version="1.1"
   id="svg1955"
   inkscape:version="1.2.2 (732a01da63, 2022-12-09)"
   sodipodi:docname="5D.svg"
   xmlns:inkscape="http://www.inkscape.org/namespaces/inkscape"
   xmlns:sodipodi="http://sodipodi.sourceforge.net/DTD/sodipodi-0.dtd"
   xmlns="http://www.w3.org/2000/svg"
   xmlns:svg="http://www.w3.org/2000/svg">
  <sodipodi:namedview
     id="namedview1957"
     pagecolor="#ffffff"
     bordercolor="#000000"
     borderopacity="0.25"
     inkscape:showpageshadow="2"
     inkscape:pageopacity="0.0"
     inkscape:pagecheckerboard="0"
     inkscape:deskcolor="#d1d1d1"
     inkscape:document-units="mm"
     showgrid="false"
     inkscape:zoom="1.6352936"
     inkscape:cx="117.10436"
     inkscape:cy="64.820166"
     inkscape:window-width="725"
     inkscape:window-height="439"
     inkscape:window-x="837"
     inkscape:window-y="517"
     inkscape:window-maximized="0"
     inkscape:current-layer="layer1" />
  <defs
     id="defs1952" />
  <g
     inkscape:label="Layer 1"
     inkscape:groupmode="layer"
     id="layer1">
    <g
       id="g14598"
       transform="matrix(0.26458333,0,0,0.26458333,-77.583968,-112.94062)">
      <g
         transform="translate(272.37361,416.92857)"
         id="g4738">
        <rect
           style="fill:#000000;fill-opacity:1;stroke:none;stroke-width:3;stroke-linecap:butt;stroke-linejoin:round;stroke-miterlimit:4;stroke-dasharray:none;stroke-opacity:1"
           id="rect4740"
           width="90"
           height="135"
           x="20.85714"
           y="9.9336166"
           ry="14.04" />
        <rect
           style="fill:#f2f2f2;fill-opacity:1;stroke:none;stroke-width:3;stroke-linecap:butt;stroke-linejoin:round;stroke-miterlimit:4;stroke-dasharray:none;stroke-opacity:1"
           id="rect4742"
           width="80"
           height="125"
           x="25.85714"
           y="14.933617"
           ry="13" />
      </g>
      <path
         id="text4816"
         d="m 359.99072,492.50642 -0.08,0.48 c -0.10671,0.58671 -0.18671,1.20004 -0.24,1.84 -4e-5,0.64004 -0.0267,1.28004 -0.08,1.92 l -0.16,0.16 c -3.46671,1.33337 -6.96004,2.69337 -10.48,4.08 -3.4667,1.3867 -6.90669,2.88003 -10.32,4.48 -3.36002,1.60003 -6.69335,3.36003 -10,5.28 -3.25334,1.92002 -6.34667,4.08002 -9.28,6.48 l -0.16,-0.08 c -0.21334,-0.69331 -0.37334,-1.46665 -0.48,-2.32 -0.10667,-0.90665 -0.16,-1.73331 -0.16,-2.48 l -0.32,-0.32 c 6.18666,-4.90664 12.85332,-8.95997 20,-12.16 7.14664,-3.2533 14.3733,-5.73329 21.68,-7.44 l 0.08,0.08 m -43.84,-8.72 c 6.61333,0.10672 13.25332,-0.0533 19.92,-0.48 6.71997,-0.42661 13.4933,-0.58661 20.32,-0.48 l 4.16,0.08 c -0.10671,1.33338 -0.18671,2.66672 -0.24,4 -4e-5,1.28005 -0.0534,2.58671 -0.16,3.92 l 0.16,0.48 c -7.7867,1.70671 -15.17336,4.16004 -22.16,7.36 -6.98668,3.20003 -13.54667,7.17336 -19.68,11.92 l -0.08,-0.08 c -0.58667,-4.5333 -1.06667,-8.98663 -1.44,-13.36 -0.37333,-4.37329 -0.72,-8.74662 -1.04,-13.12 l 0.08,-0.08 0.16,-0.16 m 4.48,41.36 c -0.21334,-1.06666 -0.4,-2.07999 -0.56,-3.04 -0.10667,-0.95999 -0.29334,-1.97332 -0.56,-3.04 l 0.4,-0.16 c 5.59999,-4.74665 11.81332,-8.77331 18.64,-12.08 6.82664,-3.35997 13.75996,-6.2133 20.8,-8.56 l 0.08,0.08 c -0.26671,2.45337 -0.58671,4.88003 -0.96,7.28 -0.32004,2.40003 -0.64004,4.80002 -0.96,7.2 h 0.08 c -3.52004,-0.21331 -7.04003,-0.45331 -10.56,-0.72 -3.52003,-0.31998 -7.04002,-0.61331 -10.56,-0.88 v 0.64 c -2e-5,0.53336 -0.0267,1.04002 -0.08,1.52 -2e-5,0.48002 -2e-5,0.98669 0,1.52 v 0.64 c 0.42665,-0.10665 0.82665,-0.18665 1.2,-0.24 0.37331,-0.10665 0.77331,-0.15998 1.2,-0.16 1.75998,2e-5 3.65331,0.24002 5.68,0.72 2.02664,0.48002 3.8933,1.22668 5.6,2.24 1.75996,1.01335 3.19996,2.32001 4.32,3.92 1.17329,1.54668 1.75996,3.38668 1.76,5.52 -4e-5,2.50667 -0.56004,4.61334 -1.68,6.32 -1.0667,1.65333 -2.45337,2.98666 -4.16,4 -1.65337,1.01333 -3.52003,1.73333 -5.6,2.16 -2.02669,0.47999 -4.00002,0.71999 -5.92,0.72 -3.04002,-10e-6 -6.02668,-0.40001 -8.96,-1.2 -2.88001,-0.74667 -5.57334,-1.97334 -8.08,-3.68 v -0.08 c 0.42666,-1.17333 0.87999,-2.32 1.36,-3.44 0.47999,-1.12 0.93333,-2.26666 1.36,-3.44 l 0.08,-0.08 c 1.86666,0.74667 3.78666,1.44 5.76,2.08 2.02665,0.64 4.05332,0.98667 6.08,1.04 h 0.4 c 1.17331,0 2.29331,-0.32 3.36,-0.96 1.06664,-0.64 1.62664,-1.62666 1.68,-2.96 v -0.32 c -0.26669,-1.01333 -0.74669,-1.75999 -1.44,-2.24 -0.69336,-0.53332 -1.49336,-0.90666 -2.4,-1.12 -0.90669,-0.21332 -1.86669,-0.31999 -2.88,-0.32 -0.96002,-0.0533 -1.84002,-0.10666 -2.64,-0.16 -3.89335,1e-5 -7.81334,0.45334 -11.76,1.36 l -0.08,-0.08"
         style="font-style:normal;font-variant:normal;font-weight:normal;font-stretch:normal;font-size:80px;line-height:125%;font-family:'Airmole Stripe';-inkscape-font-specification:'Airmole Stripe';text-align:start;writing-mode:lr-tb;text-anchor:start;fill:#800000;fill-opacity:1;stroke:none;stroke-width:1px;stroke-linecap:butt;stroke-linejoin:miter;stroke-opacity:1" />
      <path
         id="text5373"
         d="m 340.62247,434.92479 v 4.39444 H 330.3558 l -0.79722,5.17222 c 1.32221,-0.99813 2.75462,-1.4972 4.29722,-1.49722 2.28147,2e-5 4.14165,0.79724 5.58056,2.39167 1.43887,1.58149 2.15831,3.6426 2.15833,6.18333 -2e-5,2.67038 -0.82965,4.83519 -2.48889,6.49444 -1.64631,1.65926 -3.80464,2.48889 -6.475,2.48889 -2.41112,0 -4.36852,-0.66759 -5.87222,-2.00277 -1.50371,-1.34815 -2.28148,-3.11111 -2.33333,-5.28889 h 4.86111 c 0.0389,1.01111 0.34999,1.78241 0.93333,2.31389 0.58333,0.51852 1.40647,0.77778 2.46945,0.77777 1.23147,1e-5 2.20369,-0.41481 2.91666,-1.24444 0.72591,-0.82963 1.08888,-1.97037 1.08889,-3.42222 -10e-6,-1.51666 -0.35649,-2.69629 -1.06944,-3.53889 -0.71298,-0.84258 -1.69168,-1.26388 -2.93611,-1.26389 -1.58149,10e-6 -2.62501,0.62871 -3.13056,1.88611 h -4.43333 l 2.21666,-13.84444 h 13.28056"
         style="font-style:normal;font-variant:normal;font-weight:bold;font-stretch:normal;font-size:35px;line-height:125%;font-family:AlMothnna;-inkscape-font-specification:'AlMothnna Bold';text-align:start;writing-mode:lr-tb;text-anchor:start;fill:#aa0000;fill-opacity:1;stroke:none;stroke-width:1px;stroke-linecap:butt;stroke-linejoin:miter;stroke-opacity:1" />
      <path
         sodipodi:nodetypes="ccccc"
         id="path5474"
         d="m 311.78922,434.8109 c 2.5,6.875 5.625,10 12.5,12.5 -6.875,2.5 -10,5.625 -12.5,12.5 -2.5,-6.875 -5.625,-10 -12.5,-12.5 6.875,-2.5 10,-5.625 12.5,-12.5 z"
         style="fill:#d40000;fill-opacity:1;stroke:none;stroke-width:0.354331;stroke-linecap:round;stroke-linejoin:round;stroke-miterlimit:4;stroke-dasharray:1.41732, 1.41732;stroke-dashoffset:0;stroke-opacity:1" />
      <path
         sodipodi:nodetypes="ccccc"
         id="path5744"
         d="m 317.42855,475.36219 c 1.5,4.125 3.375,6 7.5,7.5 -4.125,1.5 -6,3.375 -7.5,7.5 -1.5,-4.125 -3.375,-6 -7.5,-7.5 4.125,-1.5 6,-3.375 7.5,-7.5 z"
         style="fill:#d40000;fill-opacity:1;stroke:none;stroke-width:0.354331;stroke-linecap:round;stroke-linejoin:round;stroke-miterlimit:4;stroke-dasharray:1.41732, 1.41732;stroke-dashoffset:0;stroke-opacity:1" />
      <path
         sodipodi:nodetypes="ccccc"
         id="path5746"
         d="m 363.42855,475.36219 c 1.5,4.125 3.375,6 7.5,7.5 -4.125,1.5 -6,3.375 -7.5,7.5 -1.5,-4.125 -3.375,-6 -7.5,-7.5 4.125,-1.5 6,-3.375 7.5,-7.5 z"
         style="fill:#d40000;fill-opacity:1;stroke:none;stroke-width:0.354331;stroke-linecap:round;stroke-linejoin:round;stroke-miterlimit:4;stroke-dasharray:1.41732, 1.41732;stroke-dashoffset:0;stroke-opacity:1" />
      <path
         sodipodi:nodetypes="ccccc"
         id="path5748"
         d="m 358.42855,501.36219 c 1.5,4.125 3.375,6 7.5,7.5 -4.125,1.5 -6,3.375 -7.5,7.5 -1.5,-4.125 -3.375,-6 -7.5,-7.5 4.125,-1.5 6,-3.375 7.5,-7.5 z"
         style="fill:#d40000;fill-opacity:1;stroke:none;stroke-width:0.354331;stroke-linecap:round;stroke-linejoin:round;stroke-miterlimit:4;stroke-dasharray:1.41732, 1.41732;stroke-dashoffset:0;stroke-opacity:1" />
      <path
         sodipodi:nodetypes="ccccc"
         id="path5750"
         d="m 348.42855,532.36219 c 1.5,4.125 3.375,6 7.5,7.5 -4.125,1.5 -6,3.375 -7.5,7.5 -1.5,-4.125 -3.375,-6 -7.5,-7.5 4.125,-1.5 6,-3.375 7.5,-7.5 z"
         style="fill:#d40000;fill-opacity:1;stroke:none;stroke-width:0.354331;stroke-linecap:round;stroke-linejoin:round;stroke-miterlimit:4;stroke-dasharray:1.41732, 1.41732;stroke-dashoffset:0;stroke-opacity:1" />
      <path
         sodipodi:nodetypes="ccccc"
         id="path5752"
         d="m 321.42855,511.36219 c 1.5,4.125 3.375,6 7.5,7.5 -4.125,1.5 -6,3.375 -7.5,7.5 -1.5,-4.125 -3.375,-6 -7.5,-7.5 4.125,-1.5 6,-3.375 7.5,-7.5 z"
         style="fill:#d40000;fill-opacity:1;stroke:none;stroke-width:0.354331;stroke-linecap:round;stroke-linejoin:round;stroke-miterlimit:4;stroke-dasharray:1.41732, 1.41732;stroke-dashoffset:0;stroke-opacity:1" />
    </g>
  </g>
</svg>
