<?xml version="1.0" encoding="UTF-8" standalone="no"?>
<!-- Created with Inkscape (http://www.inkscape.org/) -->

<svg
   width="210mm"
   height="297mm"
   viewBox="0 0 210 297"
   version="1.1"
   id="svg1955"
   inkscape:version="1.2.2 (732a01da63, 2022-12-09)"
   sodipodi:docname="5S.svg"
   xmlns:inkscape="http://www.inkscape.org/namespaces/inkscape"
   xmlns:sodipodi="http://sodipodi.sourceforge.net/DTD/sodipodi-0.dtd"
   xmlns="http://www.w3.org/2000/svg"
   xmlns:svg="http://www.w3.org/2000/svg">
  <sodipodi:namedview
     id="namedview1957"
     pagecolor="#ffffff"
     bordercolor="#000000"
     borderopacity="0.25"
     inkscape:showpageshadow="2"
     inkscape:pageopacity="0.0"
     inkscape:pagecheckerboard="0"
     inkscape:deskcolor="#d1d1d1"
     inkscape:document-units="mm"
     showgrid="false"
     inkscape:zoom="1.6352936"
     inkscape:cx="122.3022"
     inkscape:cy="70.935276"
     inkscape:window-width="724"
     inkscape:window-height="439"
     inkscape:window-x="858"
     inkscape:window-y="349"
     inkscape:window-maximized="0"
     inkscape:current-layer="layer1" />
  <defs
     id="defs1952" />
  <g
     inkscape:label="Layer 1"
     inkscape:groupmode="layer"
     id="layer1">
    <g
       id="g13741"
       transform="matrix(0.26458333,0,0,0.26458333,-77.468942,-1.5633346)">
      <g
         transform="translate(272.80219,-3.035717)"
         id="g4326">
        <rect
           style="fill:#000000;fill-opacity:1;stroke:none;stroke-width:3;stroke-linecap:butt;stroke-linejoin:round;stroke-miterlimit:4;stroke-dasharray:none;stroke-opacity:1"
           id="rect4328"
           width="90"
           height="135"
           x="20.85714"
           y="9.9336166"
           ry="14.04" />
        <rect
           style="fill:#f2f2f2;fill-opacity:1;stroke:none;stroke-width:3;stroke-linecap:butt;stroke-linejoin:round;stroke-miterlimit:4;stroke-dasharray:none;stroke-opacity:1"
           id="rect4330"
           width="80"
           height="125"
           x="25.85714"
           y="14.933617"
           ry="13" />
      </g>
      <path
         id="text4404"
         d="m 360.41931,72.542167 -0.08,0.48 c -0.10671,0.586712 -0.18671,1.200045 -0.24,1.84 -4e-5,0.640044 -0.0267,1.280043 -0.08,1.92 l -0.16,0.16 c -3.46671,1.333374 -6.96004,2.693373 -10.48,4.08 -3.4667,1.386703 -6.90669,2.880035 -10.32,4.48 -3.36002,1.600032 -6.69335,3.36003 -10,5.28 -3.25334,1.920027 -6.34667,4.080024 -9.28,6.48 l -0.16,-0.08 c -0.21334,-0.693311 -0.37334,-1.466643 -0.48,-2.32 -0.10667,-0.906641 -0.16,-1.733307 -0.16,-2.48 l -0.32,-0.32 c 6.18666,-4.906635 12.85332,-8.959964 20,-12.16 7.14664,-3.253291 14.3733,-5.733288 21.68,-7.44 l 0.08,0.08 m -43.84,-8.72 c 6.61333,0.106722 13.25332,-0.05328 19.92,-0.48 6.71997,-0.42661 13.4933,-0.58661 20.32,-0.48 l 4.16,0.08 c -0.10671,1.333388 -0.18671,2.66672 -0.24,4 -4e-5,1.280051 -0.0534,2.586716 -0.16,3.92 l 0.16,0.48 c -7.7867,1.706713 -15.17336,4.160044 -22.16,7.36 -6.98668,3.200037 -13.54668,7.173367 -19.68,11.92 l -0.08,-0.08 c -0.58667,-4.5333 -1.06667,-8.986629 -1.44,-13.36 -0.37333,-4.373287 -0.72,-8.746616 -1.04,-13.12 l 0.08,-0.08 0.16,-0.16 m 4.48,41.360003 c -0.21334,-1.06665 -0.4,-2.07999 -0.56,-3.04 -0.10667,-0.95998 -0.29334,-1.97332 -0.56,-3.040003 l 0.4,-0.16 c 5.59999,-4.746642 11.81332,-8.773304 18.64,-12.08 6.82664,-3.359964 13.75996,-6.213295 20.8,-8.56 l 0.08,0.08 c -0.26671,2.453372 -0.58671,4.880036 -0.96,7.28 -0.32004,2.400031 -0.64004,4.800029 -0.96,7.2 h 0.08 c -3.52004,-0.213307 -7.04003,-0.453307 -10.56,-0.72 -3.52003,-0.319973 -7.04002,-0.613306 -10.56,-0.88 v 0.64 c -2e-5,0.53336 -0.0267,1.040026 -0.08,1.52 -2e-5,0.480025 -2e-5,0.986691 0,1.52 v 0.64 c 0.42665,-0.106643 0.82665,-0.186643 1.2,-0.24 0.37331,-0.106643 0.77331,-0.159976 1.2,-0.16 1.75998,2.4e-5 3.65331,0.240024 5.68,0.72 2.02664,0.480023 3.8933,1.226689 5.6,2.24 1.75996,1.013353 3.19996,2.320023 4.32,3.920003 1.17329,1.54668 1.75996,3.38668 1.76,5.52 -4e-5,2.50667 -0.56004,4.61334 -1.68,6.32 -1.0667,1.65333 -2.45337,2.98667 -4.16,4 -1.65337,1.01333 -3.52003,1.73333 -5.6,2.16 -2.02669,0.48 -4.00003,0.72 -5.92,0.72 -3.04002,0 -6.02668,-0.4 -8.96,-1.2 -2.88001,-0.74667 -5.57334,-1.97333 -8.08,-3.68 v -0.08 c 0.42666,-1.17333 0.87999,-2.32 1.36,-3.44 0.47999,-1.12 0.93332,-2.26666 1.36,-3.44 l 0.08,-0.08 c 1.86666,0.74667 3.78665,1.44001 5.76,2.08 2.02665,0.64 4.05331,0.98667 6.08,1.04 h 0.4 c 1.17331,0 2.29331,-0.32 3.36,-0.96 1.06664,-0.63999 1.62664,-1.62666 1.68,-2.96 v -0.32 c -0.26669,-1.01332 -0.74669,-1.75999 -1.44,-2.24 -0.69336,-0.53332 -1.49336,-0.90666 -2.4,-1.12 -0.90669,-0.21332 -1.86669,-0.31999 -2.88,-0.32 -0.96002,-0.0533 -1.84002,-0.10665 -2.64,-0.16 -3.89335,1e-5 -7.81334,0.45335 -11.76,1.36 l -0.08,-0.08"
         style="font-style:normal;font-variant:normal;font-weight:normal;font-stretch:normal;font-size:80px;line-height:125%;font-family:'Airmole Stripe';-inkscape-font-specification:'Airmole Stripe';text-align:start;writing-mode:lr-tb;text-anchor:start;fill:#333333;fill-opacity:1;stroke:none;stroke-width:1px;stroke-linecap:butt;stroke-linejoin:miter;stroke-opacity:1" />
      <path
         sodipodi:nodetypes="ccsscssccc"
         id="path4905"
         d="m 306.30118,39.362194 c 4.5071,-1.001575 4.992,-3.641382 5.33204,-8.496093 -0.78317,1.296981 -2.20704,2.254106 -4.53125,2.246093 -3.8203,-0.01317 -6.37925,-2.234875 -5.46875,-7.03125 0.91796,-4.835737 7.79296,-6.710737 10.91796,-11.71875 3.125,5.008013 10,6.883013 10.91797,11.71875 0.9105,4.796382 -1.54298,7.017718 -5.46875,7.03125 -2.32422,0.008 -3.74808,-0.949112 -4.53125,-2.246093 0.34004,4.854711 0.82494,7.494518 5.33203,8.496093 -3.125,0 -9.375,0 -12.5,0 z"
         style="fill:#000000;fill-opacity:1;stroke:none;stroke-width:0.354331;stroke-linecap:round;stroke-linejoin:round;stroke-miterlimit:4;stroke-dasharray:1.41732, 1.41732;stroke-dashoffset:0;stroke-opacity:1" />
      <path
         sodipodi:nodetypes="ccsscssccc"
         id="path5049"
         d="m 314.67697,69.362194 c 2.70425,-0.60094 2.99519,-2.18483 3.19922,-5.09765 -0.4699,0.77818 -1.32422,1.35246 -2.71875,1.34765 -2.29218,-0.0079 -3.82755,-1.34092 -3.28125,-4.21875 0.55078,-2.90144 4.67578,-4.026438 6.55078,-7.03125 1.875,3.004812 6,4.12981 6.55078,7.03125 0.5463,2.87783 -0.92579,4.21063 -3.28125,4.21875 -1.39453,0.0048 -2.24885,-0.56947 -2.71875,-1.34765 0.20402,2.91282 0.49496,4.49671 3.19922,5.09765 -1.875,0 -5.625,0 -7.5,0 z"
         style="fill:#000000;fill-opacity:1;stroke:none;stroke-width:0.354331;stroke-linecap:round;stroke-linejoin:round;stroke-miterlimit:4;stroke-dasharray:1.41732, 1.41732;stroke-dashoffset:0;stroke-opacity:1" />
      <path
         sodipodi:nodetypes="ccsscssccc"
         id="path5051"
         d="m 359.67697,69.362194 c 2.70425,-0.60094 2.99519,-2.18483 3.19922,-5.09765 -0.4699,0.77818 -1.32422,1.35246 -2.71875,1.34765 -2.29218,-0.0079 -3.82755,-1.34092 -3.28125,-4.21875 0.55078,-2.90144 4.67578,-4.026438 6.55078,-7.03125 1.875,3.004812 6,4.12981 6.55078,7.03125 0.5463,2.87783 -0.92579,4.21063 -3.28125,4.21875 -1.39453,0.0048 -2.24885,-0.56947 -2.71875,-1.34765 0.20402,2.91282 0.49496,4.49671 3.19922,5.09765 -1.875,0 -5.625,0 -7.5,0 z"
         style="fill:#000000;fill-opacity:1;stroke:none;stroke-width:0.354331;stroke-linecap:round;stroke-linejoin:round;stroke-miterlimit:4;stroke-dasharray:1.41732, 1.41732;stroke-dashoffset:0;stroke-opacity:1" />
      <path
         sodipodi:nodetypes="ccsscssccc"
         id="path5053"
         d="m 354.67697,97.362194 c 2.70425,-0.60094 2.99519,-2.18483 3.19922,-5.09765 -0.4699,0.77818 -1.32422,1.35246 -2.71875,1.34765 -2.29218,-0.0079 -3.82755,-1.34092 -3.28125,-4.21875 0.55078,-2.90144 4.67578,-4.026438 6.55078,-7.03125 1.875,3.004812 6,4.12981 6.55078,7.03125 0.5463,2.87783 -0.92579,4.21063 -3.28125,4.21875 -1.39453,0.0048 -2.24885,-0.56947 -2.71875,-1.34765 0.20402,2.91282 0.49496,4.49671 3.19922,5.09765 -1.875,0 -5.625,0 -7.5,0 z"
         style="fill:#000000;fill-opacity:1;stroke:none;stroke-width:0.354331;stroke-linecap:round;stroke-linejoin:round;stroke-miterlimit:4;stroke-dasharray:1.41732, 1.41732;stroke-dashoffset:0;stroke-opacity:1" />
      <path
         sodipodi:nodetypes="ccsscssccc"
         id="path5055"
         d="m 317.67697,108.36219 c 2.70425,-0.60094 2.99519,-2.18483 3.19922,-5.09765 -0.4699,0.77818 -1.32422,1.35246 -2.71875,1.34765 -2.29218,-0.008 -3.82755,-1.34092 -3.28125,-4.21875 0.55078,-2.901436 4.67578,-4.026434 6.55078,-7.031246 1.875,3.004812 6,4.12981 6.55078,7.031246 0.5463,2.87783 -0.92579,4.21063 -3.28125,4.21875 -1.39453,0.005 -2.24885,-0.56947 -2.71875,-1.34765 0.20402,2.91282 0.49496,4.49671 3.19922,5.09765 -1.875,0 -5.625,0 -7.5,0 z"
         style="fill:#000000;fill-opacity:1;stroke:none;stroke-width:0.354331;stroke-linecap:round;stroke-linejoin:round;stroke-miterlimit:4;stroke-dasharray:1.41732, 1.41732;stroke-dashoffset:0;stroke-opacity:1" />
      <path
         sodipodi:nodetypes="ccsscssccc"
         id="path5057"
         d="m 347.67697,123.36219 c 2.70425,-0.60094 2.99519,-2.18483 3.19922,-5.09765 -0.4699,0.77818 -1.32422,1.35246 -2.71875,1.34765 -2.29218,-0.008 -3.82755,-1.34092 -3.28125,-4.21875 0.55078,-2.90144 4.67578,-4.02643 6.55078,-7.03125 1.875,3.00482 6,4.12981 6.55078,7.03125 0.5463,2.87783 -0.92579,4.21063 -3.28125,4.21875 -1.39453,0.005 -2.24885,-0.56947 -2.71875,-1.34765 0.20402,2.91282 0.49496,4.49671 3.19922,5.09765 -1.875,0 -5.625,0 -7.5,0 z"
         style="fill:#000000;fill-opacity:1;stroke:none;stroke-width:0.354331;stroke-linecap:round;stroke-linejoin:round;stroke-miterlimit:4;stroke-dasharray:1.41732, 1.41732;stroke-dashoffset:0;stroke-opacity:1" />
      <path
         id="text5217"
         d="m 341.61899,13.205158 v 4.394444 h -10.26667 l -0.79722,5.172222 c 1.32222,-0.998132 2.75462,-1.497205 4.29722,-1.497222 2.28147,1.7e-5 4.14165,0.797238 5.58056,2.391667 1.43887,1.581494 2.15831,3.642603 2.15833,6.183333 -2e-5,2.670376 -0.82965,4.835189 -2.48889,6.494445 -1.64631,1.659259 -3.80464,2.488888 -6.475,2.488888 -2.41112,0 -4.36852,-0.667592 -5.87222,-2.002777 -1.5037,-1.348146 -2.28148,-3.111107 -2.33333,-5.288889 h 4.86111 c 0.0389,1.011116 0.34999,1.782412 0.93333,2.313889 0.58333,0.518522 1.40647,0.777781 2.46945,0.777777 1.23147,4e-6 2.20369,-0.414811 2.91666,-1.244444 0.72592,-0.829624 1.08888,-1.970364 1.08889,-3.422222 -1e-5,-1.516657 -0.35649,-2.696286 -1.06944,-3.538889 -0.71298,-0.84258 -1.69168,-1.263876 -2.93611,-1.263889 -1.58149,1.3e-5 -2.62501,0.628716 -3.13056,1.886111 h -4.43333 l 2.21666,-13.844444 h 13.28056"
         style="font-style:normal;font-variant:normal;font-weight:bold;font-stretch:normal;font-size:35px;line-height:125%;font-family:AlMothnna;-inkscape-font-specification:'AlMothnna Bold';text-align:start;writing-mode:lr-tb;text-anchor:start;fill:#000000;fill-opacity:1;stroke:none;stroke-width:1px;stroke-linecap:butt;stroke-linejoin:miter;stroke-opacity:1" />
    </g>
  </g>
</svg>
