<?xml version="1.0" encoding="UTF-8" standalone="no"?>
<!-- Created with Inkscape (http://www.inkscape.org/) -->

<svg
   width="210mm"
   height="297mm"
   viewBox="0 0 210 297"
   version="1.1"
   id="svg1955"
   inkscape:version="1.2.2 (732a01da63, 2022-12-09)"
   sodipodi:docname="6H.svg"
   xmlns:inkscape="http://www.inkscape.org/namespaces/inkscape"
   xmlns:sodipodi="http://sodipodi.sourceforge.net/DTD/sodipodi-0.dtd"
   xmlns="http://www.w3.org/2000/svg"
   xmlns:svg="http://www.w3.org/2000/svg">
  <sodipodi:namedview
     id="namedview1957"
     pagecolor="#ffffff"
     bordercolor="#000000"
     borderopacity="0.25"
     inkscape:showpageshadow="2"
     inkscape:pageopacity="0.0"
     inkscape:pagecheckerboard="0"
     inkscape:deskcolor="#d1d1d1"
     inkscape:document-units="mm"
     showgrid="false"
     inkscape:zoom="1.6352936"
     inkscape:cx="117.10436"
     inkscape:cy="64.820166"
     inkscape:window-width="725"
     inkscape:window-height="439"
     inkscape:window-x="866"
     inkscape:window-y="423"
     inkscape:window-maximized="0"
     inkscape:current-layer="layer1" />
  <defs
     id="defs1952" />
  <g
     inkscape:label="Layer 1"
     inkscape:groupmode="layer"
     id="layer1">
    <g
       id="g14357"
       transform="matrix(0.26458333,0,0,0.26458333,-102.96652,-76.163536)">
      <g
         transform="translate(368.30768,277.92857)"
         id="g4608">
        <rect
           style="fill:#000000;fill-opacity:1;stroke:none;stroke-width:3;stroke-linecap:butt;stroke-linejoin:round;stroke-miterlimit:4;stroke-dasharray:none;stroke-opacity:1"
           id="rect4610"
           width="90"
           height="135"
           x="20.85714"
           y="9.9336166"
           ry="14.04" />
        <rect
           style="fill:#f2f2f2;fill-opacity:1;stroke:none;stroke-width:3;stroke-linecap:butt;stroke-linejoin:round;stroke-miterlimit:4;stroke-dasharray:none;stroke-opacity:1"
           id="rect4612"
           width="80"
           height="125"
           x="25.85714"
           y="14.933617"
           ry="13" />
      </g>
      <path
         id="text4716"
         d="m 449.84476,369.98645 c 0.10663,0.2667 0.23996,0.48004 0.4,0.64 0.15996,0.16004 0.34663,0.3467 0.56,0.56 v 0.16 c -3.09337,1.33337 -6.16003,2.7467 -9.2,4.24 -2.98669,1.49336 -5.89336,3.12003 -8.72,4.88 -2.82669,1.70669 -5.57335,3.60002 -8.24,5.68 -2.61334,2.02668 -5.09334,4.26668 -7.44,6.72 l -0.16,-0.08 c -0.26667,-0.53332 -0.50667,-1.06665 -0.72,-1.6 -0.16001,-0.58665 -0.37334,-1.14665 -0.64,-1.68 l 0.32,-0.08 c 2.18666,-2.29331 4.58666,-4.42665 7.2,-6.4 2.66665,-1.97331 5.43998,-3.75997 8.32,-5.36 2.87998,-1.59997 5.83997,-3.03997 8.88,-4.32 3.0933,-1.27997 6.2133,-2.39996 9.36,-3.36 h 0.08 v 0 m -3.6,-2.96 c 0.42663,0.26671 0.82663,0.53337 1.2,0.8 0.3733,0.2667 0.74663,0.56004 1.12,0.88 l -0.16,0.4 c -5.8667,1.8667 -11.68003,4.32003 -17.44,7.36 -5.70668,2.98669 -10.90668,6.74669 -15.6,11.28 l -0.16,-0.08 c -0.37334,-1.11998 -0.64,-2.34665 -0.8,-3.68 -0.10667,-1.33331 -0.16,-2.58664 -0.16,-3.76 v -0.8 c 0,-3.46664 0.48,-6.8533 1.44,-10.16 1.01333,-3.35996 2.34666,-6.55996 4,-9.6 1.70666,-3.03995 3.62665,-5.89328 5.76,-8.56 2.18665,-2.71994 4.47998,-5.19994 6.88,-7.44 l 0.16,0.08 c 1.70664,2.08006 3.57331,4.02672 5.6,5.84 2.02664,1.76005 4.0533,3.49339 6.08,5.2 -3e-5,0.0534 -0.0267,0.10672 -0.08,0.16 -3e-5,5e-5 -3e-5,0.0534 0,0.16 -2.1867,0.96005 -4.3467,2.16005 -6.48,3.6 -2.08002,1.44005 -4.02669,3.09338 -5.84,4.96 -1.76002,1.81337 -3.28002,3.84004 -4.56,6.08 -1.22668,2.1867 -2.02668,4.53337 -2.4,7.04 0.47999,-1.38664 1.01332,-2.79997 1.6,-4.24 0.58665,-1.43997 1.33332,-2.74663 2.24,-3.92 0.95998,-1.17329 2.07998,-2.13329 3.36,-2.88 1.33331,-0.74663 2.95998,-1.11996 4.88,-1.12 h 0.48 c 3.19997,0.10671 6.15997,0.90671 8.88,2.4 m -11.52,36.56 c -3.41335,-0.0533 -6.61335,-0.85333 -9.6,-2.4 -2.98668,-1.59999 -5.41334,-3.91999 -7.28,-6.96 v -0.16 c 4.85332,-4.85332 10.15998,-8.95998 15.92,-12.32 5.75997,-3.35997 11.7333,-6.42664 17.92,-9.2 l 0.08,0.24 v -0.08 c 0.79996,1.33337 1.38662,2.77336 1.76,4.32 0.37329,1.54669 0.55996,3.14669 0.56,4.8 v 0.88 c -4e-5,2.56002 -0.48004,5.09335 -1.44,7.6 -0.90671,2.50668 -2.18671,4.74668 -3.84,6.72 -1.60004,1.97334 -3.5467,3.57334 -5.84,4.8 -2.24003,1.17334 -4.69336,1.76 -7.36,1.76 h -0.8 -0.08"
         style="font-style:normal;font-variant:normal;font-weight:normal;font-stretch:normal;font-size:80px;line-height:125%;font-family:'Airmole Stripe';-inkscape-font-specification:'Airmole Stripe';text-align:start;writing-mode:lr-tb;text-anchor:start;fill:#800000;fill-opacity:1;stroke:none;stroke-width:1px;stroke-linecap:butt;stroke-linejoin:miter;stroke-opacity:1" />
      <path
         id="text5325"
         d="m 423.63028,309.35964 c 0,-9.0222 3.05277,-13.53331 9.15833,-13.53334 0.28518,3e-5 0.56388,0.013 0.83611,0.0389 0.28518,0.013 0.6611,0.0648 1.12778,0.15556 0.47962,0.0908 0.92036,0.21391 1.32222,0.36944 0.41481,0.15558 0.85555,0.38892 1.32223,0.7 0.47961,0.31114 0.89443,0.68058 1.24444,1.10834 0.34998,0.41483 0.67406,0.9528 0.97222,1.61388 0.29813,0.64817 0.50554,1.3741 0.62223,2.17778 h -4.53056 c -0.32409,-0.79072 -0.71946,-1.35461 -1.18611,-1.69166 -0.46668,-0.33702 -1.0889,-0.50554 -1.86667,-0.50556 -0.98519,2e-5 -1.81482,0.31113 -2.48889,0.93333 -0.66111,0.62225 -1.10185,1.49076 -1.32222,2.60556 -0.11667,0.5315 -0.18797,0.95279 -0.21389,1.26389 -0.0259,0.31113 -0.0583,1.12131 -0.0972,2.43055 0.76481,-0.80369 1.51666,-1.36757 2.25556,-1.69166 0.75184,-0.33702 1.64628,-0.50554 2.68333,-0.50556 2.12591,2e-5 3.85647,0.74539 5.19167,2.23611 1.33516,1.49076 2.00276,3.42224 2.00277,5.79445 -1e-5,2.6963 -0.76483,4.88704 -2.29444,6.57222 -1.52964,1.68518 -3.52594,2.52778 -5.98889,2.52778 -1.47779,0 -2.83241,-0.32408 -4.06389,-0.97223 -1.23148,-0.64814 -2.20371,-1.54907 -2.91667,-2.70277 -0.62222,-0.98518 -1.07592,-2.17778 -1.36111,-3.57778 -0.27222,-1.39999 -0.40833,-3.1824 -0.40833,-5.34722 m 8.63333,-0.7 c -1.12778,10e-6 -2.04815,0.42779 -2.76111,1.28333 -0.7,0.85557 -1.05,1.9639 -1.05,3.325 0,1.32223 0.35,2.40464 1.05,3.24722 0.69999,0.82964 1.6074,1.24445 2.72222,1.24445 1.08888,0 1.98981,-0.42778 2.70278,-1.28334 0.72592,-0.86851 1.08888,-1.96388 1.08889,-3.28611 -1e-5,-1.37406 -0.34353,-2.46943 -1.03055,-3.28611 -0.67409,-0.82962 -1.5815,-1.24443 -2.72223,-1.24444"
         style="font-style:normal;font-variant:normal;font-weight:bold;font-stretch:normal;font-size:35px;line-height:125%;font-family:AlMothnna;-inkscape-font-specification:'AlMothnna Bold';text-align:start;writing-mode:lr-tb;text-anchor:start;fill:#aa0000;fill-opacity:1;stroke:none;stroke-width:1px;stroke-linecap:butt;stroke-linejoin:miter;stroke-opacity:1" />
      <path
         sodipodi:nodetypes="ccccccc"
         id="path5450"
         d="m 409.1375,305.29639 c 0.6064,-3.125 1.8192,-6.25 6.064,-6.25 4.2448,0 7.58,3.125 6.064,9.375 -1.516,6.25 -8.4896,9.375 -12.128,15.625 -3.63841,-6.25 -10.61201,-9.375 -12.12801,-15.625 -1.516,-6.25 1.8192,-9.375 6.064,-9.375 4.24481,0 5.45761,3.125 6.06401,6.25 z"
         style="fill:#d40000;fill-opacity:1;stroke:none;stroke-width:0.354331;stroke-linecap:round;stroke-linejoin:round;stroke-miterlimit:4;stroke-dasharray:1.41732, 1.41732;stroke-dashoffset:0;stroke-opacity:1" />
      <path
         sodipodi:nodetypes="ccccccc"
         id="path5638"
         d="m 436.42855,379.11219 c 0.36384,-1.875 1.09152,-3.75 3.6384,-3.75 2.54688,0 4.548,1.875 3.6384,5.625 -0.9096,3.75 -5.09376,5.625 -7.2768,9.375 -2.18304,-3.75 -6.3672,-5.625 -7.2768,-9.375 -0.9096,-3.75 1.09152,-5.625 3.6384,-5.625 2.54688,0 3.27456,1.875 3.6384,3.75 z"
         style="fill:#d40000;fill-opacity:1;stroke:none;stroke-width:0.354331;stroke-linecap:round;stroke-linejoin:round;stroke-miterlimit:4;stroke-dasharray:1.41732, 1.41732;stroke-dashoffset:0;stroke-opacity:1" />
      <path
         sodipodi:nodetypes="ccccccc"
         id="path5646"
         d="m 430.42855,339.11219 c 0.36384,-1.875 1.09152,-3.75 3.6384,-3.75 2.54688,0 4.548,1.875 3.6384,5.625 -0.9096,3.75 -5.09376,5.625 -7.2768,9.375 -2.18304,-3.75 -6.3672,-5.625 -7.2768,-9.375 -0.9096,-3.75 1.09152,-5.625 3.6384,-5.625 2.54688,0 3.27456,1.875 3.6384,3.75 z"
         style="fill:#d40000;fill-opacity:1;stroke:none;stroke-width:0.354331;stroke-linecap:round;stroke-linejoin:round;stroke-miterlimit:4;stroke-dasharray:1.41732, 1.41732;stroke-dashoffset:0;stroke-opacity:1" />
      <path
         sodipodi:nodetypes="ccccccc"
         id="path5648"
         d="m 414.42855,379.11219 c 0.36384,-1.875 1.09152,-3.75 3.6384,-3.75 2.54688,0 4.548,1.875 3.6384,5.625 -0.9096,3.75 -5.09376,5.625 -7.2768,9.375 -2.18304,-3.75 -6.3672,-5.625 -7.2768,-9.375 -0.9096,-3.75 1.09152,-5.625 3.6384,-5.625 2.54688,0 3.27456,1.875 3.6384,3.75 z"
         style="fill:#d40000;fill-opacity:1;stroke:none;stroke-width:0.354331;stroke-linecap:round;stroke-linejoin:round;stroke-miterlimit:4;stroke-dasharray:1.41732, 1.41732;stroke-dashoffset:0;stroke-opacity:1" />
      <path
         sodipodi:nodetypes="ccccccc"
         id="path5650"
         d="m 435.42855,399.11219 c 0.36384,-1.875 1.09152,-3.75 3.6384,-3.75 2.54688,0 4.548,1.875 3.6384,5.625 -0.9096,3.75 -5.09376,5.625 -7.2768,9.375 -2.18304,-3.75 -6.3672,-5.625 -7.2768,-9.375 -0.9096,-3.75 1.09152,-5.625 3.6384,-5.625 2.54688,0 3.27456,1.875 3.6384,3.75 z"
         style="fill:#d40000;fill-opacity:1;stroke:none;stroke-width:0.354331;stroke-linecap:round;stroke-linejoin:round;stroke-miterlimit:4;stroke-dasharray:1.41732, 1.41732;stroke-dashoffset:0;stroke-opacity:1" />
      <path
         sodipodi:nodetypes="ccccccc"
         id="path5652"
         d="m 456.42855,384.11219 c 0.36384,-1.875 1.09152,-3.75 3.6384,-3.75 2.54688,0 4.548,1.875 3.6384,5.625 -0.9096,3.75 -5.09376,5.625 -7.2768,9.375 -2.18304,-3.75 -6.3672,-5.625 -7.2768,-9.375 -0.9096,-3.75 1.09152,-5.625 3.6384,-5.625 2.54688,0 3.27456,1.875 3.6384,3.75 z"
         style="fill:#d40000;fill-opacity:1;stroke:none;stroke-width:0.354331;stroke-linecap:round;stroke-linejoin:round;stroke-miterlimit:4;stroke-dasharray:1.41732, 1.41732;stroke-dashoffset:0;stroke-opacity:1" />
      <path
         sodipodi:nodetypes="ccccccc"
         id="path5654"
         d="m 448.42855,360.11219 c 0.36384,-1.875 1.09152,-3.75 3.6384,-3.75 2.54688,0 4.548,1.875 3.6384,5.625 -0.9096,3.75 -5.09376,5.625 -7.2768,9.375 -2.18304,-3.75 -6.3672,-5.625 -7.2768,-9.375 -0.9096,-3.75 1.09152,-5.625 3.6384,-5.625 2.54688,0 3.27456,1.875 3.6384,3.75 z"
         style="fill:#d40000;fill-opacity:1;stroke:none;stroke-width:0.354331;stroke-linecap:round;stroke-linejoin:round;stroke-miterlimit:4;stroke-dasharray:1.41732, 1.41732;stroke-dashoffset:0;stroke-opacity:1" />
    </g>
  </g>
</svg>
