<?xml version="1.0" encoding="UTF-8" standalone="no"?>
<!-- Created with Inkscape (http://www.inkscape.org/) -->

<svg
   width="210mm"
   height="297mm"
   viewBox="0 0 210 297"
   version="1.1"
   id="svg1955"
   inkscape:version="1.2.2 (732a01da63, 2022-12-09)"
   sodipodi:docname="6S.svg"
   xmlns:inkscape="http://www.inkscape.org/namespaces/inkscape"
   xmlns:sodipodi="http://sodipodi.sourceforge.net/DTD/sodipodi-0.dtd"
   xmlns="http://www.w3.org/2000/svg"
   xmlns:svg="http://www.w3.org/2000/svg">
  <sodipodi:namedview
     id="namedview1957"
     pagecolor="#ffffff"
     bordercolor="#000000"
     borderopacity="0.25"
     inkscape:showpageshadow="2"
     inkscape:pageopacity="0.0"
     inkscape:pagecheckerboard="0"
     inkscape:deskcolor="#d1d1d1"
     inkscape:document-units="mm"
     showgrid="false"
     inkscape:zoom="1.6352936"
     inkscape:cx="122.3022"
     inkscape:cy="70.935276"
     inkscape:window-width="724"
     inkscape:window-height="439"
     inkscape:window-x="858"
     inkscape:window-y="349"
     inkscape:window-maximized="0"
     inkscape:current-layer="layer1" />
  <defs
     id="defs1952" />
  <g
     inkscape:label="Layer 1"
     inkscape:groupmode="layer"
     id="layer1">
    <g
       id="g13772"
       transform="matrix(0.26458333,0,0,0.26458333,-102.8515,-1.5633343)">
      <rect
         ry="14.04"
         y="6.8978996"
         x="389.59341"
         height="135"
         width="90"
         id="rect4334"
         style="fill:#000000;fill-opacity:1;stroke:none;stroke-width:3;stroke-linecap:butt;stroke-linejoin:round;stroke-miterlimit:4;stroke-dasharray:none;stroke-opacity:1" />
      <rect
         ry="13"
         y="11.8979"
         x="394.59341"
         height="125"
         width="80"
         id="rect4336"
         style="fill:#f2f2f2;fill-opacity:1;stroke:none;stroke-width:3;stroke-linecap:butt;stroke-linejoin:round;stroke-miterlimit:4;stroke-dasharray:none;stroke-opacity:1" />
      <path
         id="text4444"
         d="m 450.27335,89.022167 c 0.10663,0.266699 0.23996,0.480032 0.4,0.64 0.15996,0.160031 0.34663,0.346698 0.56,0.56 v 0.16 c -3.09337,1.333363 -6.16003,2.746695 -9.2,4.24 -2.9867,1.493358 -5.89336,3.120023 -8.72,4.88 -2.82669,1.706683 -5.57335,3.600023 -8.24,5.680003 -2.61335,2.02668 -5.09334,4.26668 -7.44,6.72 l -0.16,-0.08 c -0.26667,-0.53333 -0.50667,-1.06666 -0.72,-1.6 -0.16001,-0.58666 -0.37334,-1.14666 -0.64,-1.68 l 0.32,-0.08 c 2.18666,-2.29332 4.58666,-4.42665 7.2,-6.4 2.66665,-1.97332 5.43998,-3.75998 8.32,-5.360003 2.87998,-1.599974 5.83997,-3.039972 8.88,-4.32 3.0933,-1.27997 6.2133,-2.399969 9.36,-3.36 h 0.08 v 0 m -3.6,-2.96 c 0.42663,0.266702 0.82663,0.533368 1.2,0.8 0.3733,0.266701 0.74663,0.560034 1.12,0.88 l -0.16,0.4 c -5.8667,1.866698 -11.68003,4.320029 -17.44,7.36 -5.70668,2.986689 -10.90668,6.746683 -15.6,11.280003 l -0.16,-0.08 c -0.37334,-1.11999 -0.64,-2.34665 -0.8,-3.68 -0.10667,-1.33332 -0.16,-2.58665 -0.16,-3.760003 v -0.8 c 0,-3.46664 0.48,-6.853304 1.44,-10.16 1.01333,-3.359964 2.34666,-6.559961 4,-9.6 1.70666,-3.039954 3.62665,-5.893285 5.76,-8.56 2.18665,-2.719946 4.47998,-5.199944 6.88,-7.44 l 0.16,0.08 c 1.70664,2.080056 3.57331,4.026721 5.6,5.84 2.02664,1.760051 4.0533,3.493382 6.08,5.2 -3e-5,0.05338 -0.0267,0.106714 -0.08,0.16 -3e-5,4.7e-5 -3e-5,0.05338 0,0.16 -2.1867,0.960046 -4.3467,2.160045 -6.48,3.6 -2.08003,1.440042 -4.02669,3.093374 -5.84,4.96 -1.76002,1.81337 -3.28002,3.840035 -4.56,6.08 -1.22668,2.186697 -2.02668,4.533361 -2.4,7.04 0.47998,-1.38664 1.01332,-2.799972 1.6,-4.24 0.58665,-1.439969 1.33332,-2.746634 2.24,-3.92 0.95998,-1.173299 2.07998,-2.133298 3.36,-2.88 1.33331,-0.746629 2.95997,-1.119962 4.88,-1.12 h 0.48 c 3.19997,0.106704 6.15997,0.906703 8.88,2.4 m -11.52,36.560003 c -3.41335,-0.0533 -6.61335,-0.85334 -9.6,-2.4 -2.98668,-1.6 -5.41334,-3.92 -7.28,-6.96 v -0.16 c 4.85332,-4.85332 10.15998,-8.95999 15.92,-12.32 5.75997,-3.359979 11.7333,-6.426643 17.92,-9.200003 l 0.08,0.24 v -0.08 c 0.79996,1.333361 1.38662,2.77336 1.76,4.32 0.37329,1.54669 0.55996,3.146689 0.56,4.800003 v 0.88 c -4e-5,2.56001 -0.48004,5.09334 -1.44,7.6 -0.90671,2.50667 -2.18671,4.74667 -3.84,6.72 -1.60004,1.97333 -3.5467,3.57333 -5.84,4.8 -2.24003,1.17333 -4.69336,1.76 -7.36,1.76 h -0.8 -0.08"
         style="font-style:normal;font-variant:normal;font-weight:normal;font-stretch:normal;font-size:80px;line-height:125%;font-family:'Airmole Stripe';-inkscape-font-specification:'Airmole Stripe';text-align:start;writing-mode:lr-tb;text-anchor:start;fill:#333333;fill-opacity:1;stroke:none;stroke-width:1px;stroke-linecap:butt;stroke-linejoin:miter;stroke-opacity:1" />
      <path
         sodipodi:nodetypes="ccsscssccc"
         id="path4907"
         d="m 402.28727,39.362194 c 4.5071,-1.001575 4.992,-3.641382 5.33204,-8.496093 -0.78317,1.296981 -2.20704,2.254106 -4.53125,2.246093 -3.8203,-0.01317 -6.37925,-2.234875 -5.46875,-7.03125 0.91796,-4.835737 7.79296,-6.710737 10.91796,-11.71875 3.125,5.008013 10,6.883013 10.91797,11.71875 0.9105,4.796382 -1.54298,7.017718 -5.46875,7.03125 -2.32422,0.008 -3.74808,-0.949112 -4.53125,-2.246093 0.34004,4.854711 0.82494,7.494518 5.33203,8.496093 -3.125,0 -9.375,0 -12.5,0 z"
         style="fill:#000000;fill-opacity:1;stroke:none;stroke-width:0.354331;stroke-linecap:round;stroke-linejoin:round;stroke-miterlimit:4;stroke-dasharray:1.41732, 1.41732;stroke-dashoffset:0;stroke-opacity:1" />
      <path
         sodipodi:nodetypes="ccsscssccc"
         id="path5059"
         d="m 427.67697,68.362194 c 2.70425,-0.60094 2.99519,-2.18483 3.19922,-5.09765 -0.4699,0.77818 -1.32422,1.35246 -2.71875,1.34765 -2.29218,-0.0079 -3.82755,-1.34092 -3.28125,-4.21875 0.55078,-2.90144 4.67578,-4.026438 6.55078,-7.03125 1.875,3.004812 6,4.12981 6.55078,7.03125 0.5463,2.87783 -0.92579,4.21063 -3.28125,4.21875 -1.39453,0.0048 -2.24885,-0.56947 -2.71875,-1.34765 0.20402,2.91282 0.49496,4.49671 3.19922,5.09765 -1.875,0 -5.625,0 -7.5,0 z"
         style="fill:#000000;fill-opacity:1;stroke:none;stroke-width:0.354331;stroke-linecap:round;stroke-linejoin:round;stroke-miterlimit:4;stroke-dasharray:1.41732, 1.41732;stroke-dashoffset:0;stroke-opacity:1" />
      <path
         sodipodi:nodetypes="ccsscssccc"
         id="path5061"
         d="m 410.67697,116.36219 c 2.70425,-0.60094 2.99519,-2.18483 3.19922,-5.09765 -0.4699,0.77818 -1.32422,1.35246 -2.71875,1.34765 -2.29218,-0.008 -3.82755,-1.34092 -3.28125,-4.21875 0.55078,-2.90144 4.67578,-4.02643 6.55078,-7.03125 1.875,3.00482 6,4.12981 6.55078,7.03125 0.5463,2.87783 -0.92579,4.21063 -3.28125,4.21875 -1.39453,0.005 -2.24885,-0.56947 -2.71875,-1.34765 0.20402,2.91282 0.49496,4.49671 3.19922,5.09765 -1.875,0 -5.625,0 -7.5,0 z"
         style="fill:#000000;fill-opacity:1;stroke:none;stroke-width:0.354331;stroke-linecap:round;stroke-linejoin:round;stroke-miterlimit:4;stroke-dasharray:1.41732, 1.41732;stroke-dashoffset:0;stroke-opacity:1" />
      <path
         sodipodi:nodetypes="ccsscssccc"
         id="path5063"
         d="m 449.67697,124.36219 c 2.70425,-0.60094 2.99519,-2.18483 3.19922,-5.09765 -0.4699,0.77818 -1.32422,1.35246 -2.71875,1.34765 -2.29218,-0.008 -3.82755,-1.34092 -3.28125,-4.21875 0.55078,-2.90144 4.67578,-4.02643 6.55078,-7.03125 1.875,3.00482 6,4.12981 6.55078,7.03125 0.5463,2.87783 -0.92579,4.21063 -3.28125,4.21875 -1.39453,0.005 -2.24885,-0.56947 -2.71875,-1.34765 0.20402,2.91282 0.49496,4.49671 3.19922,5.09765 -1.875,0 -5.625,0 -7.5,0 z"
         style="fill:#000000;fill-opacity:1;stroke:none;stroke-width:0.354331;stroke-linecap:round;stroke-linejoin:round;stroke-miterlimit:4;stroke-dasharray:1.41732, 1.41732;stroke-dashoffset:0;stroke-opacity:1" />
      <path
         sodipodi:nodetypes="ccsscssccc"
         id="path5065"
         d="m 446.67697,96.36219 c 2.70425,-0.60094 2.99519,-2.18483 3.19922,-5.09765 -0.4699,0.77818 -1.32422,1.35246 -2.71875,1.34765 -2.29218,-0.0079 -3.82755,-1.34092 -3.28125,-4.21875 0.55078,-2.90144 4.67578,-4.02643 6.55078,-7.03125 1.875,3.00482 6,4.12981 6.55078,7.03125 0.5463,2.87783 -0.92579,4.21063 -3.28125,4.21875 -1.39453,0.0048 -2.24885,-0.56947 -2.71875,-1.34765 0.20402,2.91282 0.49496,4.49671 3.19922,5.09765 -1.875,0 -5.625,0 -7.5,0 z"
         style="fill:#000000;fill-opacity:1;stroke:none;stroke-width:0.354331;stroke-linecap:round;stroke-linejoin:round;stroke-miterlimit:4;stroke-dasharray:1.41732, 1.41732;stroke-dashoffset:0;stroke-opacity:1" />
      <path
         sodipodi:nodetypes="ccsscssccc"
         id="path5067"
         d="m 431.67697,116.36219 c 2.70425,-0.60094 2.99519,-2.18483 3.19922,-5.09765 -0.4699,0.77818 -1.32422,1.35246 -2.71875,1.34765 -2.29218,-0.008 -3.82755,-1.34092 -3.28125,-4.21875 0.55078,-2.90144 4.67578,-4.02643 6.55078,-7.03125 1.875,3.00482 6,4.12981 6.55078,7.03125 0.5463,2.87783 -0.92579,4.21063 -3.28125,4.21875 -1.39453,0.005 -2.24885,-0.56947 -2.71875,-1.34765 0.20402,2.91282 0.49496,4.49671 3.19922,5.09765 -1.875,0 -5.625,0 -7.5,0 z"
         style="fill:#000000;fill-opacity:1;stroke:none;stroke-width:0.354331;stroke-linecap:round;stroke-linejoin:round;stroke-miterlimit:4;stroke-dasharray:1.41732, 1.41732;stroke-dashoffset:0;stroke-opacity:1" />
      <path
         sodipodi:nodetypes="ccsscssccc"
         id="path5069"
         d="m 412.67697,90.362194 c 2.70425,-0.60094 2.99519,-2.18483 3.19922,-5.09765 -0.4699,0.77818 -1.32422,1.35246 -2.71875,1.34765 -2.29218,-0.0079 -3.82755,-1.34092 -3.28125,-4.21875 0.55078,-2.90144 4.67578,-4.026438 6.55078,-7.03125 1.875,3.004812 6,4.12981 6.55078,7.03125 0.5463,2.87783 -0.92579,4.21063 -3.28125,4.21875 -1.39453,0.0048 -2.24885,-0.56947 -2.71875,-1.34765 0.20402,2.91282 0.49496,4.49671 3.19922,5.09765 -1.875,0 -5.625,0 -7.5,0 z"
         style="fill:#000000;fill-opacity:1;stroke:none;stroke-width:0.354331;stroke-linecap:round;stroke-linejoin:round;stroke-miterlimit:4;stroke-dasharray:1.41732, 1.41732;stroke-dashoffset:0;stroke-opacity:1" />
      <path
         id="text5221"
         d="m 421.79837,26.232935 c 0,-9.022201 3.05277,-13.533308 9.15833,-13.533333 0.28518,2.5e-5 0.56388,0.01299 0.83612,0.03889 0.28517,0.01299 0.66109,0.06484 1.12777,0.155556 0.47962,0.09076 0.92036,0.213913 1.32223,0.369444 0.4148,0.15558 0.85554,0.388913 1.32222,0.7 0.47961,0.311135 0.89443,0.680579 1.24444,1.108333 0.34999,0.414838 0.67406,0.9528 0.97222,1.613889 0.29814,0.648169 0.50554,1.374094 0.62223,2.177778 h -4.53056 c -0.32409,-0.790721 -0.71946,-1.354609 -1.18611,-1.691667 -0.46668,-0.337016 -1.0889,-0.505534 -1.86667,-0.505555 -0.98519,2.1e-5 -1.81482,0.311132 -2.48889,0.933333 -0.66111,0.622242 -1.10185,1.49076 -1.32222,2.605556 -0.11667,0.531498 -0.18797,0.952794 -0.21389,1.263889 -0.0259,0.311127 -0.0583,1.121311 -0.0972,2.430555 0.76481,-0.803689 1.51666,-1.367577 2.25556,-1.691667 0.75184,-0.33702 1.64628,-0.505539 2.68333,-0.505555 2.12591,1.6e-5 3.85647,0.745386 5.19167,2.236111 1.33516,1.490753 2.00276,3.422233 2.00277,5.794444 -1e-5,2.696302 -0.76483,4.887041 -2.29444,6.572223 -1.52964,1.685185 -3.52594,2.527777 -5.98889,2.527777 -1.47779,0 -2.83241,-0.324074 -4.06389,-0.972222 -1.23148,-0.648147 -2.20371,-1.549072 -2.91666,-2.702778 -0.62223,-0.985181 -1.07593,-2.177772 -1.36112,-3.577777 -0.27222,-1.399993 -0.40833,-3.182398 -0.40833,-5.347223 m 8.63333,-0.7 c -1.12778,1.3e-5 -2.04815,0.42779 -2.76111,1.283334 -0.7,0.855566 -1.05,1.963898 -1.05,3.325 0,1.322229 0.35,2.404635 1.05,3.247222 0.7,0.829633 1.6074,1.244448 2.72223,1.244444 1.08887,4e-6 1.9898,-0.427774 2.70277,-1.283333 0.72592,-0.868513 1.08888,-1.963882 1.08889,-3.286111 -1e-5,-1.374065 -0.34353,-2.469434 -1.03055,-3.286111 -0.67409,-0.829618 -1.5815,-1.244432 -2.72223,-1.244445"
         style="font-style:normal;font-variant:normal;font-weight:bold;font-stretch:normal;font-size:35px;line-height:125%;font-family:AlMothnna;-inkscape-font-specification:'AlMothnna Bold';text-align:start;writing-mode:lr-tb;text-anchor:start;fill:#000000;fill-opacity:1;stroke:none;stroke-width:1px;stroke-linecap:butt;stroke-linejoin:miter;stroke-opacity:1" />
    </g>
  </g>
</svg>
