<?xml version="1.0" encoding="UTF-8" standalone="no"?>
<!-- Created with Inkscape (http://www.inkscape.org/) -->

<svg
   width="210mm"
   height="297mm"
   viewBox="0 0 210 297"
   version="1.1"
   id="svg1955"
   inkscape:version="1.2.2 (732a01da63, 2022-12-09)"
   sodipodi:docname="7C.svg"
   xmlns:inkscape="http://www.inkscape.org/namespaces/inkscape"
   xmlns:sodipodi="http://sodipodi.sourceforge.net/DTD/sodipodi-0.dtd"
   xmlns="http://www.w3.org/2000/svg"
   xmlns:svg="http://www.w3.org/2000/svg">
  <sodipodi:namedview
     id="namedview1957"
     pagecolor="#ffffff"
     bordercolor="#000000"
     borderopacity="0.25"
     inkscape:showpageshadow="2"
     inkscape:pageopacity="0.0"
     inkscape:pagecheckerboard="0"
     inkscape:deskcolor="#d1d1d1"
     inkscape:document-units="mm"
     showgrid="false"
     inkscape:zoom="1.6352936"
     inkscape:cx="117.10436"
     inkscape:cy="64.820166"
     inkscape:window-width="725"
     inkscape:window-height="439"
     inkscape:window-x="858"
     inkscape:window-y="349"
     inkscape:window-maximized="0"
     inkscape:current-layer="layer1" />
  <defs
     id="defs1952" />
  <g
     inkscape:label="Layer 1"
     inkscape:groupmode="layer"
     id="layer1">
    <g
       id="g14092"
       transform="matrix(0.26458333,0,0,0.26458333,-128.61366,-38.857286)">
      <g
         transform="translate(465.24174,136.92857)"
         id="g4478">
        <rect
           style="fill:#000000;fill-opacity:1;stroke:none;stroke-width:3;stroke-linecap:butt;stroke-linejoin:round;stroke-miterlimit:4;stroke-dasharray:none;stroke-opacity:1"
           id="rect4480"
           width="90"
           height="135"
           x="20.85714"
           y="9.9336166"
           ry="14.04" />
        <rect
           style="fill:#f2f2f2;fill-opacity:1;stroke:none;stroke-width:3;stroke-linecap:butt;stroke-linejoin:round;stroke-miterlimit:4;stroke-dasharray:none;stroke-opacity:1"
           id="rect4482"
           width="80"
           height="125"
           x="25.85714"
           y="14.933617"
           ry="13" />
      </g>
      <path
         id="text4548"
         d="m 548.77881,217.30646 c -0.2667,0.74671 -0.5067,1.52004 -0.72,2.32 -0.16004,0.74671 -0.37337,1.49337 -0.64,2.24 h 0.16 c -4.53337,1.86671 -8.98669,3.7867 -13.36,5.76 -4.37335,1.92003 -8.56001,4.2667 -12.56,7.04 -1.38668,0.0534 -2.74667,0.10669 -4.08,0.16 -1.33334,0.0534 -2.69334,0.10669 -4.08,0.16 l 0.16,-0.16 c 2.55999,-2.02664 5.25333,-3.86664 8.08,-5.52 2.87999,-1.6533 5.81332,-3.1733 8.8,-4.56 2.98664,-1.43996 5.99997,-2.77329 9.04,-4 3.03997,-1.22662 6.07997,-2.39996 9.12,-3.52 l 0.08,0.08 m -30.4,41.2 c 0.47999,-3.83999 1.09332,-7.67999 1.84,-11.52 0.74666,-3.89331 1.73332,-7.67998 2.96,-11.36 3.51998,-2.55997 7.27998,-4.74664 11.28,-6.56 4.05331,-1.86663 8.15997,-3.6533 12.32,-5.36 v 0.08 c -1.8667,5.97337 -3.81337,11.94669 -5.84,17.92 -2.02669,5.92001 -4.24003,11.70668 -6.64,17.36 v 0.08 c -2.72002,-0.21333 -5.36002,-0.32 -7.92,-0.32 -2.56001,0 -5.20001,-0.10666 -7.92,-0.32 h -0.08 m -8.96,-55.04 c 7.14666,-0.10661 14.34665,-0.26661 21.6,-0.48 7.30664,-0.21327 14.6133,-0.31994 21.92,-0.32 l 0.08,0.08 c -0.64004,2.18672 -1.25337,4.34672 -1.84,6.48 -0.58671,2.13338 -1.20004,4.29338 -1.84,6.48 h -0.24 c -3.36003,1.22671 -6.72003,2.48004 -10.08,3.76 -3.36002,1.22671 -6.66669,2.61337 -9.92,4.16 -3.20001,1.49337 -6.34668,3.20004 -9.44,5.12 -3.09334,1.8667 -6.02667,4.00003 -8.8,6.4 h -0.4 l -1.2,0.16 c 0.0533,-1.38664 0.08,-2.74664 0.08,-4.08 0,-1.3333 0,-2.66663 0,-4 0,-3.51996 -0.0267,-6.98662 -0.08,-10.4 -0.0533,-3.46662 -0.08,-6.95995 -0.08,-10.48 l 0.08,-2.56 0.16,-0.32"
         style="font-style:normal;font-variant:normal;font-weight:normal;font-stretch:normal;font-size:80px;line-height:125%;font-family:'Airmole Stripe';-inkscape-font-specification:'Airmole Stripe';text-align:start;writing-mode:lr-tb;text-anchor:start;fill:#333333;fill-opacity:1;stroke:none;stroke-width:1px;stroke-linecap:butt;stroke-linejoin:miter;stroke-opacity:1" />
      <path
         id="text5277"
         d="m 535.76495,154.40741 v 3.86944 c -2.94261,3.55187 -5.10742,6.95464 -6.49445,10.20833 -1.37408,3.25371 -2.1713,6.83797 -2.39166,10.75278 h -4.91945 c 0.32407,-2.63148 0.7324,-4.86111 1.225,-6.68889 0.49259,-1.82777 1.16666,-3.64258 2.02222,-5.44444 0.47962,-1.08888 1.31574,-2.54073 2.50834,-4.35556 1.20554,-1.81479 2.19072,-3.13053 2.95555,-3.94722 h -12.34722 v -4.39444 h 17.44167"
         style="font-style:normal;font-variant:normal;font-weight:bold;font-stretch:normal;font-size:35px;line-height:125%;font-family:AlMothnna;-inkscape-font-specification:'AlMothnna Bold';text-align:start;writing-mode:lr-tb;text-anchor:start;fill:#000000;fill-opacity:1;stroke:none;stroke-width:1px;stroke-linecap:butt;stroke-linejoin:miter;stroke-opacity:1" />
      <path
         sodipodi:nodetypes="ccccsccccccscccc"
         id="path5426"
         d="m 505.07161,154.79661 c -2.95715,0 -5.35715,2.52 -5.35715,5.625 0.0258,1.95404 1.03406,3.60527 2.08334,5.17578 -1.16957,-0.88503 -2.46939,-1.42026 -3.86905,-1.42578 -2.95714,0 -5.35714,2.52 -5.35714,5.625 0,3.105 2.4,5.625 5.35714,5.625 2.39553,-0.0401 4.31146,-1.71621 6.1942,-3.125 -0.3369,4.20822 -1.02219,6.57097 -5.00372,7.5 2.97619,0 8.92857,0 11.90476,0 -3.98154,-0.92903 -4.66682,-3.29178 -5.00372,-7.5 1.86093,1.59506 3.81257,2.94817 6.19419,3.125 2.95715,0 5.35715,-2.52 5.35715,-5.625 0,-3.105 -2.4,-5.625 -5.35715,-5.625 -1.43557,-1.5e-4 -2.67554,0.66045 -3.86904,1.42578 1.1876,-1.55433 1.96933,-3.23152 2.08333,-5.17578 0,-3.105 -2.4,-5.625 -5.35714,-5.625 z"
         style="fill:#000000;fill-opacity:1;stroke:none;stroke-width:0.354331;stroke-linecap:round;stroke-linejoin:round;stroke-miterlimit:4;stroke-dasharray:1.41732, 1.41732;stroke-dashoffset:0;stroke-opacity:1" />
      <path
         sodipodi:nodetypes="ccccsccccccscccc"
         id="path5534"
         d="m 510.42855,195.36219 c -1.77429,0 -3.21429,1.512 -3.21429,3.375 0.0155,1.17242 0.62044,2.16316 1.25,3.10547 -0.70174,-0.53102 -1.48163,-0.85216 -2.32143,-0.85547 -1.77428,0 -3.21428,1.512 -3.21428,3.375 0,1.863 1.44,3.375 3.21428,3.375 1.43732,-0.024 2.58688,-1.02973 3.71652,-1.875 -0.20214,2.52493 -0.61331,3.94258 -3.00223,4.5 1.78572,0 5.35714,0 7.14286,0 -2.38892,-0.55742 -2.80009,-1.97507 -3.00223,-4.5 1.11655,0.95704 2.28754,1.7689 3.71651,1.875 1.77429,0 3.21429,-1.512 3.21429,-3.375 0,-1.863 -1.44,-3.375 -3.21429,-3.375 -0.86134,-9e-5 -1.60532,0.39627 -2.32142,0.85547 0.71256,-0.9326 1.1816,-1.93891 1.25,-3.10547 0,-1.863 -1.44,-3.375 -3.21429,-3.375 z"
         style="fill:#000000;fill-opacity:1;stroke:none;stroke-width:0.354331;stroke-linecap:round;stroke-linejoin:round;stroke-miterlimit:4;stroke-dasharray:1.41732, 1.41732;stroke-dashoffset:0;stroke-opacity:1" />
      <path
         sodipodi:nodetypes="ccccsccccccscccc"
         id="path5536"
         d="m 531.42855,188.36219 c -1.77429,0 -3.21429,1.512 -3.21429,3.375 0.0155,1.17242 0.62044,2.16316 1.25,3.10547 -0.70174,-0.53102 -1.48163,-0.85216 -2.32143,-0.85547 -1.77428,0 -3.21428,1.512 -3.21428,3.375 0,1.863 1.44,3.375 3.21428,3.375 1.43732,-0.024 2.58688,-1.02973 3.71652,-1.875 -0.20214,2.52493 -0.61331,3.94258 -3.00223,4.5 1.78572,0 5.35714,0 7.14286,0 -2.38892,-0.55742 -2.80009,-1.97507 -3.00223,-4.5 1.11655,0.95704 2.28754,1.7689 3.71651,1.875 1.77429,0 3.21429,-1.512 3.21429,-3.375 0,-1.863 -1.44,-3.375 -3.21429,-3.375 -0.86134,-9e-5 -1.60532,0.39627 -2.32142,0.85547 0.71256,-0.9326 1.1816,-1.93891 1.25,-3.10547 0,-1.863 -1.44,-3.375 -3.21429,-3.375 z"
         style="fill:#000000;fill-opacity:1;stroke:none;stroke-width:0.354331;stroke-linecap:round;stroke-linejoin:round;stroke-miterlimit:4;stroke-dasharray:1.41732, 1.41732;stroke-dashoffset:0;stroke-opacity:1" />
      <path
         sodipodi:nodetypes="ccccsccccccscccc"
         id="path5538"
         d="m 551.42855,196.36219 c -1.77429,0 -3.21429,1.512 -3.21429,3.375 0.0155,1.17242 0.62044,2.16316 1.25,3.10547 -0.70174,-0.53102 -1.48163,-0.85216 -2.32143,-0.85547 -1.77428,0 -3.21428,1.512 -3.21428,3.375 0,1.863 1.44,3.375 3.21428,3.375 1.43732,-0.024 2.58688,-1.02973 3.71652,-1.875 -0.20214,2.52493 -0.61331,3.94258 -3.00223,4.5 1.78572,0 5.35714,0 7.14286,0 -2.38892,-0.55742 -2.80009,-1.97507 -3.00223,-4.5 1.11655,0.95704 2.28754,1.7689 3.71651,1.875 1.77429,0 3.21429,-1.512 3.21429,-3.375 0,-1.863 -1.44,-3.375 -3.21429,-3.375 -0.86134,-9e-5 -1.60532,0.39627 -2.32142,0.85547 0.71256,-0.9326 1.1816,-1.93891 1.25,-3.10547 0,-1.863 -1.44,-3.375 -3.21429,-3.375 z"
         style="fill:#000000;fill-opacity:1;stroke:none;stroke-width:0.354331;stroke-linecap:round;stroke-linejoin:round;stroke-miterlimit:4;stroke-dasharray:1.41732, 1.41732;stroke-dashoffset:0;stroke-opacity:1" />
      <path
         sodipodi:nodetypes="ccccsccccccscccc"
         id="path5540"
         d="m 545.42855,224.36219 c -1.77429,0 -3.21429,1.512 -3.21429,3.375 0.0155,1.17242 0.62044,2.16316 1.25,3.10547 -0.70174,-0.53102 -1.48163,-0.85216 -2.32143,-0.85547 -1.77428,0 -3.21428,1.512 -3.21428,3.375 0,1.863 1.44,3.375 3.21428,3.375 1.43732,-0.024 2.58688,-1.02973 3.71652,-1.875 -0.20214,2.52493 -0.61331,3.94258 -3.00223,4.5 1.78572,0 5.35714,0 7.14286,0 -2.38892,-0.55742 -2.80009,-1.97507 -3.00223,-4.5 1.11655,0.95704 2.28754,1.7689 3.71651,1.875 1.77429,0 3.21429,-1.512 3.21429,-3.375 0,-1.863 -1.44,-3.375 -3.21429,-3.375 -0.86134,-9e-5 -1.60532,0.39627 -2.32142,0.85547 0.71256,-0.9326 1.1816,-1.93891 1.25,-3.10547 0,-1.863 -1.44,-3.375 -3.21429,-3.375 z"
         style="fill:#000000;fill-opacity:1;stroke:none;stroke-width:0.354331;stroke-linecap:round;stroke-linejoin:round;stroke-miterlimit:4;stroke-dasharray:1.41732, 1.41732;stroke-dashoffset:0;stroke-opacity:1" />
      <path
         sodipodi:nodetypes="ccccsccccccscccc"
         id="path5542"
         d="m 537.42855,249.36219 c -1.77429,0 -3.21429,1.512 -3.21429,3.375 0.0155,1.17242 0.62044,2.16316 1.25,3.10547 -0.70174,-0.53102 -1.48163,-0.85216 -2.32143,-0.85547 -1.77428,0 -3.21428,1.512 -3.21428,3.375 0,1.863 1.44,3.375 3.21428,3.375 1.43732,-0.024 2.58688,-1.02973 3.71652,-1.875 -0.20214,2.52493 -0.61331,3.94258 -3.00223,4.5 1.78572,0 5.35714,0 7.14286,0 -2.38892,-0.55742 -2.80009,-1.97507 -3.00223,-4.5 1.11655,0.95704 2.28754,1.7689 3.71651,1.875 1.77429,0 3.21429,-1.512 3.21429,-3.375 0,-1.863 -1.44,-3.375 -3.21429,-3.375 -0.86134,-9e-5 -1.60532,0.39627 -2.32142,0.85547 0.71256,-0.9326 1.1816,-1.93891 1.25,-3.10547 0,-1.863 -1.44,-3.375 -3.21429,-3.375 z"
         style="fill:#000000;fill-opacity:1;stroke:none;stroke-width:0.354331;stroke-linecap:round;stroke-linejoin:round;stroke-miterlimit:4;stroke-dasharray:1.41732, 1.41732;stroke-dashoffset:0;stroke-opacity:1" />
      <path
         sodipodi:nodetypes="ccccsccccccscccc"
         id="path5544"
         d="m 515.42855,251.36219 c -1.77429,0 -3.21429,1.512 -3.21429,3.375 0.0155,1.17242 0.62044,2.16316 1.25,3.10547 -0.70174,-0.53102 -1.48163,-0.85216 -2.32143,-0.85547 -1.77428,0 -3.21428,1.512 -3.21428,3.375 0,1.863 1.44,3.375 3.21428,3.375 1.43732,-0.024 2.58688,-1.02973 3.71652,-1.875 -0.20214,2.52493 -0.61331,3.94258 -3.00223,4.5 1.78572,0 5.35714,0 7.14286,0 -2.38892,-0.55742 -2.80009,-1.97507 -3.00223,-4.5 1.11655,0.95704 2.28754,1.7689 3.71651,1.875 1.77429,0 3.21429,-1.512 3.21429,-3.375 0,-1.863 -1.44,-3.375 -3.21429,-3.375 -0.86134,-9e-5 -1.60532,0.39627 -2.32142,0.85547 0.71256,-0.9326 1.1816,-1.93891 1.25,-3.10547 0,-1.863 -1.44,-3.375 -3.21429,-3.375 z"
         style="fill:#000000;fill-opacity:1;stroke:none;stroke-width:0.354331;stroke-linecap:round;stroke-linejoin:round;stroke-miterlimit:4;stroke-dasharray:1.41732, 1.41732;stroke-dashoffset:0;stroke-opacity:1" />
      <path
         sodipodi:nodetypes="ccccsccccccscccc"
         id="path5546"
         d="m 510.42855,225.36219 c -1.77429,0 -3.21429,1.512 -3.21429,3.375 0.0155,1.17242 0.62044,2.16316 1.25,3.10547 -0.70174,-0.53102 -1.48163,-0.85216 -2.32143,-0.85547 -1.77428,0 -3.21428,1.512 -3.21428,3.375 0,1.863 1.44,3.375 3.21428,3.375 1.43732,-0.024 2.58688,-1.02973 3.71652,-1.875 -0.20214,2.52493 -0.61331,3.94258 -3.00223,4.5 1.78572,0 5.35714,0 7.14286,0 -2.38892,-0.55742 -2.80009,-1.97507 -3.00223,-4.5 1.11655,0.95704 2.28754,1.7689 3.71651,1.875 1.77429,0 3.21429,-1.512 3.21429,-3.375 0,-1.863 -1.44,-3.375 -3.21429,-3.375 -0.86134,-9e-5 -1.60532,0.39627 -2.32142,0.85547 0.71256,-0.9326 1.1816,-1.93891 1.25,-3.10547 0,-1.863 -1.44,-3.375 -3.21429,-3.375 z"
         style="fill:#000000;fill-opacity:1;stroke:none;stroke-width:0.354331;stroke-linecap:round;stroke-linejoin:round;stroke-miterlimit:4;stroke-dasharray:1.41732, 1.41732;stroke-dashoffset:0;stroke-opacity:1" />
    </g>
  </g>
</svg>
