<?xml version="1.0" encoding="UTF-8" standalone="no"?>
<!-- Created with Inkscape (http://www.inkscape.org/) -->

<svg
   width="210mm"
   height="297mm"
   viewBox="0 0 210 297"
   version="1.1"
   id="svg1955"
   inkscape:version="1.2.2 (732a01da63, 2022-12-09)"
   sodipodi:docname="7H.svg"
   xmlns:inkscape="http://www.inkscape.org/namespaces/inkscape"
   xmlns:sodipodi="http://sodipodi.sourceforge.net/DTD/sodipodi-0.dtd"
   xmlns="http://www.w3.org/2000/svg"
   xmlns:svg="http://www.w3.org/2000/svg">
  <sodipodi:namedview
     id="namedview1957"
     pagecolor="#ffffff"
     bordercolor="#000000"
     borderopacity="0.25"
     inkscape:showpageshadow="2"
     inkscape:pageopacity="0.0"
     inkscape:pagecheckerboard="0"
     inkscape:deskcolor="#d1d1d1"
     inkscape:document-units="mm"
     showgrid="false"
     inkscape:zoom="1.6352936"
     inkscape:cx="117.10436"
     inkscape:cy="64.820166"
     inkscape:window-width="725"
     inkscape:window-height="439"
     inkscape:window-x="866"
     inkscape:window-y="423"
     inkscape:window-maximized="0"
     inkscape:current-layer="layer1" />
  <defs
     id="defs1952" />
  <g
     inkscape:label="Layer 1"
     inkscape:groupmode="layer"
     id="layer1">
    <g
       id="g14388"
       transform="matrix(0.26458333,0,0,0.26458333,-128.34908,-76.163536)">
      <g
         transform="translate(464.24174,277.92857)"
         id="g4614">
        <rect
           style="fill:#000000;fill-opacity:1;stroke:none;stroke-width:3;stroke-linecap:butt;stroke-linejoin:round;stroke-miterlimit:4;stroke-dasharray:none;stroke-opacity:1"
           id="rect4616"
           width="90"
           height="135"
           x="20.85714"
           y="9.9336166"
           ry="14.04" />
        <rect
           style="fill:#f2f2f2;fill-opacity:1;stroke:none;stroke-width:3;stroke-linecap:butt;stroke-linejoin:round;stroke-miterlimit:4;stroke-dasharray:none;stroke-opacity:1"
           id="rect4618"
           width="80"
           height="125"
           x="25.85714"
           y="14.933617"
           ry="13" />
      </g>
      <path
         id="text4684"
         d="m 547.77881,358.30646 c -0.2667,0.74671 -0.5067,1.52004 -0.72,2.32 -0.16004,0.74671 -0.37337,1.49337 -0.64,2.24 h 0.16 c -4.53337,1.86671 -8.98669,3.7867 -13.36,5.76 -4.37335,1.92003 -8.56001,4.2667 -12.56,7.04 -1.38668,0.0534 -2.74667,0.10669 -4.08,0.16 -1.33334,0.0534 -2.69334,0.10669 -4.08,0.16 l 0.16,-0.16 c 2.55999,-2.02664 5.25333,-3.86664 8.08,-5.52 2.87999,-1.6533 5.81332,-3.1733 8.8,-4.56 2.98664,-1.43996 5.99997,-2.77329 9.04,-4 3.03997,-1.22662 6.07997,-2.39996 9.12,-3.52 l 0.08,0.08 m -30.4,41.2 c 0.47999,-3.83999 1.09332,-7.67999 1.84,-11.52 0.74666,-3.89331 1.73332,-7.67998 2.96,-11.36 3.51998,-2.55997 7.27998,-4.74664 11.28,-6.56 4.05331,-1.86663 8.15997,-3.6533 12.32,-5.36 v 0.08 c -1.8667,5.97337 -3.81337,11.94669 -5.84,17.92 -2.02669,5.92001 -4.24003,11.70668 -6.64,17.36 v 0.08 c -2.72002,-0.21333 -5.36002,-0.32 -7.92,-0.32 -2.56001,0 -5.20001,-0.10666 -7.92,-0.32 h -0.08 m -8.96,-55.04 c 7.14666,-0.10661 14.34665,-0.26661 21.6,-0.48 7.30664,-0.21327 14.6133,-0.31994 21.92,-0.32 l 0.08,0.08 c -0.64004,2.18672 -1.25337,4.34672 -1.84,6.48 -0.58671,2.13338 -1.20004,4.29338 -1.84,6.48 h -0.24 c -3.36003,1.22671 -6.72003,2.48004 -10.08,3.76 -3.36002,1.22671 -6.66669,2.61337 -9.92,4.16 -3.20001,1.49337 -6.34668,3.20004 -9.44,5.12 -3.09334,1.8667 -6.02667,4.00003 -8.8,6.4 h -0.4 l -1.2,0.16 c 0.0533,-1.38664 0.08,-2.74664 0.08,-4.08 0,-1.3333 0,-2.66663 0,-4 0,-3.51996 -0.0267,-6.98662 -0.08,-10.4 -0.0533,-3.46662 -0.08,-6.95995 -0.08,-10.48 l 0.08,-2.56 0.16,-0.32"
         style="font-style:normal;font-variant:normal;font-weight:normal;font-stretch:normal;font-size:80px;line-height:125%;font-family:'Airmole Stripe';-inkscape-font-specification:'Airmole Stripe';text-align:start;writing-mode:lr-tb;text-anchor:start;fill:#800000;fill-opacity:1;stroke:none;stroke-width:1px;stroke-linecap:butt;stroke-linejoin:miter;stroke-opacity:1" />
      <path
         id="text5329"
         d="m 537.17907,297.24296 v 3.86945 c -2.94261,3.55186 -5.10742,6.95464 -6.49444,10.20833 -1.37409,3.25371 -2.17131,6.83797 -2.39167,10.75278 h -4.91945 c 0.32407,-2.63148 0.73241,-4.86111 1.225,-6.68889 0.49259,-1.82777 1.16666,-3.64258 2.02223,-5.44445 0.47962,-1.08887 1.31573,-2.54072 2.50833,-4.35555 1.20554,-1.8148 2.19073,-3.13054 2.95556,-3.94722 H 519.7374 v -4.39445 h 17.44167"
         style="font-style:normal;font-variant:normal;font-weight:bold;font-stretch:normal;font-size:35px;line-height:125%;font-family:AlMothnna;-inkscape-font-specification:'AlMothnna Bold';text-align:start;writing-mode:lr-tb;text-anchor:start;fill:#aa0000;fill-opacity:1;stroke:none;stroke-width:1px;stroke-linecap:butt;stroke-linejoin:miter;stroke-opacity:1" />
      <path
         sodipodi:nodetypes="ccccccc"
         id="path5452"
         d="m 505.07156,305.29639 c 0.6064,-3.125 1.8192,-6.25 6.064,-6.25 4.2448,0 7.58,3.125 6.064,9.375 -1.516,6.25 -8.4896,9.375 -12.128,15.625 -3.63841,-6.25 -10.61201,-9.375 -12.12801,-15.625 -1.516,-6.25 1.8192,-9.375 6.064,-9.375 4.2448,0 5.4576,3.125 6.06401,6.25 z"
         style="fill:#d40000;fill-opacity:1;stroke:none;stroke-width:0.354331;stroke-linecap:round;stroke-linejoin:round;stroke-miterlimit:4;stroke-dasharray:1.41732, 1.41732;stroke-dashoffset:0;stroke-opacity:1" />
      <path
         sodipodi:nodetypes="ccccccc"
         id="path5656"
         d="m 512.42855,339.11219 c 0.36384,-1.875 1.09152,-3.75 3.6384,-3.75 2.54688,0 4.548,1.875 3.6384,5.625 -0.9096,3.75 -5.09376,5.625 -7.2768,9.375 -2.18304,-3.75 -6.3672,-5.625 -7.2768,-9.375 -0.9096,-3.75 1.09152,-5.625 3.6384,-5.625 2.54688,0 3.27456,1.875 3.6384,3.75 z"
         style="fill:#d40000;fill-opacity:1;stroke:none;stroke-width:0.354331;stroke-linecap:round;stroke-linejoin:round;stroke-miterlimit:4;stroke-dasharray:1.41732, 1.41732;stroke-dashoffset:0;stroke-opacity:1" />
      <path
         sodipodi:nodetypes="ccccccc"
         id="path5658"
         d="m 511.42855,370.11219 c 0.36384,-1.875 1.09152,-3.75 3.6384,-3.75 2.54688,0 4.548,1.875 3.6384,5.625 -0.9096,3.75 -5.09376,5.625 -7.2768,9.375 -2.18304,-3.75 -6.3672,-5.625 -7.2768,-9.375 -0.9096,-3.75 1.09152,-5.625 3.6384,-5.625 2.54688,0 3.27456,1.875 3.6384,3.75 z"
         style="fill:#d40000;fill-opacity:1;stroke:none;stroke-width:0.354331;stroke-linecap:round;stroke-linejoin:round;stroke-miterlimit:4;stroke-dasharray:1.41732, 1.41732;stroke-dashoffset:0;stroke-opacity:1" />
      <path
         sodipodi:nodetypes="ccccccc"
         id="path5660"
         d="m 517.42855,393.11219 c 0.36384,-1.875 1.09152,-3.75 3.6384,-3.75 2.54688,0 4.548,1.875 3.6384,5.625 -0.9096,3.75 -5.09376,5.625 -7.2768,9.375 -2.18304,-3.75 -6.3672,-5.625 -7.2768,-9.375 -0.9096,-3.75 1.09152,-5.625 3.6384,-5.625 2.54688,0 3.27456,1.875 3.6384,3.75 z"
         style="fill:#d40000;fill-opacity:1;stroke:none;stroke-width:0.354331;stroke-linecap:round;stroke-linejoin:round;stroke-miterlimit:4;stroke-dasharray:1.41732, 1.41732;stroke-dashoffset:0;stroke-opacity:1" />
      <path
         sodipodi:nodetypes="ccccccc"
         id="path5662"
         d="m 540.42855,394.11219 c 0.36384,-1.875 1.09152,-3.75 3.6384,-3.75 2.54688,0 4.548,1.875 3.6384,5.625 -0.9096,3.75 -5.09376,5.625 -7.2768,9.375 -2.18304,-3.75 -6.3672,-5.625 -7.2768,-9.375 -0.9096,-3.75 1.09152,-5.625 3.6384,-5.625 2.54688,0 3.27456,1.875 3.6384,3.75 z"
         style="fill:#d40000;fill-opacity:1;stroke:none;stroke-width:0.354331;stroke-linecap:round;stroke-linejoin:round;stroke-miterlimit:4;stroke-dasharray:1.41732, 1.41732;stroke-dashoffset:0;stroke-opacity:1" />
      <path
         sodipodi:nodetypes="ccccccc"
         id="path5664"
         d="m 546.42855,371.11219 c 0.36384,-1.875 1.09152,-3.75 3.6384,-3.75 2.54688,0 4.548,1.875 3.6384,5.625 -0.9096,3.75 -5.09376,5.625 -7.2768,9.375 -2.18304,-3.75 -6.3672,-5.625 -7.2768,-9.375 -0.9096,-3.75 1.09152,-5.625 3.6384,-5.625 2.54688,0 3.27456,1.875 3.6384,3.75 z"
         style="fill:#d40000;fill-opacity:1;stroke:none;stroke-width:0.354331;stroke-linecap:round;stroke-linejoin:round;stroke-miterlimit:4;stroke-dasharray:1.41732, 1.41732;stroke-dashoffset:0;stroke-opacity:1" />
      <path
         sodipodi:nodetypes="ccccccc"
         id="path5666"
         d="m 554.42855,341.11219 c 0.36384,-1.875 1.09152,-3.75 3.6384,-3.75 2.54688,0 4.548,1.875 3.6384,5.625 -0.9096,3.75 -5.09376,5.625 -7.2768,9.375 -2.18304,-3.75 -6.3672,-5.625 -7.2768,-9.375 -0.9096,-3.75 1.09152,-5.625 3.6384,-5.625 2.54688,0 3.27456,1.875 3.6384,3.75 z"
         style="fill:#d40000;fill-opacity:1;stroke:none;stroke-width:0.354331;stroke-linecap:round;stroke-linejoin:round;stroke-miterlimit:4;stroke-dasharray:1.41732, 1.41732;stroke-dashoffset:0;stroke-opacity:1" />
      <path
         sodipodi:nodetypes="ccccccc"
         id="path5668"
         d="m 533.42855,331.11219 c 0.36384,-1.875 1.09152,-3.75 3.6384,-3.75 2.54688,0 4.548,1.875 3.6384,5.625 -0.9096,3.75 -5.09376,5.625 -7.2768,9.375 -2.18304,-3.75 -6.3672,-5.625 -7.2768,-9.375 -0.9096,-3.75 1.09152,-5.625 3.6384,-5.625 2.54688,0 3.27456,1.875 3.6384,3.75 z"
         style="fill:#d40000;fill-opacity:1;stroke:none;stroke-width:0.354331;stroke-linecap:round;stroke-linejoin:round;stroke-miterlimit:4;stroke-dasharray:1.41732, 1.41732;stroke-dashoffset:0;stroke-opacity:1" />
    </g>
  </g>
</svg>
