<?xml version="1.0" encoding="UTF-8" standalone="no"?>
<!-- Created with Inkscape (http://www.inkscape.org/) -->

<svg
   width="210mm"
   height="297mm"
   viewBox="0 0 210 297"
   version="1.1"
   id="svg1955"
   inkscape:version="1.2.2 (732a01da63, 2022-12-09)"
   sodipodi:docname="7S.svg"
   xmlns:inkscape="http://www.inkscape.org/namespaces/inkscape"
   xmlns:sodipodi="http://sodipodi.sourceforge.net/DTD/sodipodi-0.dtd"
   xmlns="http://www.w3.org/2000/svg"
   xmlns:svg="http://www.w3.org/2000/svg">
  <sodipodi:namedview
     id="namedview1957"
     pagecolor="#ffffff"
     bordercolor="#000000"
     borderopacity="0.25"
     inkscape:showpageshadow="2"
     inkscape:pageopacity="0.0"
     inkscape:pagecheckerboard="0"
     inkscape:deskcolor="#d1d1d1"
     inkscape:document-units="mm"
     showgrid="false"
     inkscape:zoom="1.6352936"
     inkscape:cx="122.3022"
     inkscape:cy="70.935276"
     inkscape:window-width="724"
     inkscape:window-height="439"
     inkscape:window-x="858"
     inkscape:window-y="349"
     inkscape:window-maximized="0"
     inkscape:current-layer="layer1" />
  <defs
     id="defs1952" />
  <g
     inkscape:label="Layer 1"
     inkscape:groupmode="layer"
     id="layer1">
    <g
       id="g13802"
       transform="matrix(0.26458333,0,0,0.26458333,-128.23405,-1.5633347)">
      <g
         transform="translate(464.67033,-3.035717)"
         id="g4338">
        <rect
           style="fill:#000000;fill-opacity:1;stroke:none;stroke-width:3;stroke-linecap:butt;stroke-linejoin:round;stroke-miterlimit:4;stroke-dasharray:none;stroke-opacity:1"
           id="rect4340"
           width="90"
           height="135"
           x="20.85714"
           y="9.9336166"
           ry="14.04" />
        <rect
           style="fill:#f2f2f2;fill-opacity:1;stroke:none;stroke-width:3;stroke-linecap:butt;stroke-linejoin:round;stroke-miterlimit:4;stroke-dasharray:none;stroke-opacity:1"
           id="rect4342"
           width="80"
           height="125"
           x="25.85714"
           y="14.933617"
           ry="13" />
      </g>
      <path
         id="text4408"
         d="m 548.2074,77.342177 c -0.26671,0.746707 -0.5067,1.52004 -0.72,2.32 -0.16004,0.746705 -0.37337,1.493371 -0.64,2.24 h 0.16 c -4.53337,1.866702 -8.9867,3.7867 -13.36,5.76 -4.37335,1.920029 -8.56002,4.266693 -12.56,7.04 -1.38668,0.05336 -2.74668,0.106691 -4.08,0.16 -1.33334,0.05336 -2.69334,0.10669 -4.08,0.16 l 0.16,-0.16 c 2.55999,-2.026641 5.25332,-3.866639 8.08,-5.52 2.87999,-1.653302 5.81332,-3.173301 8.8,-4.56 2.98664,-1.439965 5.99997,-2.773297 9.04,-4 3.03997,-1.226627 6.07996,-2.39996 9.12,-3.52 l 0.08,0.08 m -30.4,41.200003 c 0.47999,-3.84 1.09332,-7.68 1.84,-11.52 0.74666,-3.89332 1.73332,-7.679984 2.96,-11.360003 3.51998,-2.559974 7.27998,-4.746639 11.28,-6.56 4.0533,-1.866635 8.15997,-3.6533 12.32,-5.36 v 0.08 c -1.8667,5.973362 -3.81337,11.94669 -5.84,17.920003 -2.0267,5.92001 -4.24003,11.70667 -6.64,17.36 v 0.08 c -2.72002,-0.21334 -5.36002,-0.32 -7.92,-0.32 -2.56001,0 -5.20001,-0.10667 -7.92,-0.32 h -0.08 m -8.96,-55.040003 c 7.14666,-0.106611 14.34665,-0.266611 21.6,-0.48 7.30664,-0.213277 14.6133,-0.319944 21.92,-0.32 l 0.08,0.08 c -0.64004,2.18672 -1.25338,4.346718 -1.84,6.48 -0.58671,2.133381 -1.20004,4.293379 -1.84,6.48 h -0.24 c -3.36004,1.226708 -6.72003,2.480041 -10.08,3.76 -3.36003,1.226705 -6.66669,2.61337 -9.92,4.16 -3.20002,1.493367 -6.34668,3.200032 -9.44,5.12 -3.09334,1.866695 -6.02667,4.000026 -8.8,6.4 h -0.4 l -1.2,0.16 c 0.0533,-1.386642 0.08,-2.746641 0.08,-4.08 0,-1.333305 0,-2.666637 0,-4 0,-3.519965 -0.0267,-6.986628 -0.08,-10.4 -0.0533,-3.466621 -0.08,-6.959951 -0.08,-10.48 l 0.08,-2.56 0.16,-0.32"
         style="font-style:normal;font-variant:normal;font-weight:normal;font-stretch:normal;font-size:80px;line-height:125%;font-family:'Airmole Stripe';-inkscape-font-specification:'Airmole Stripe';text-align:start;writing-mode:lr-tb;text-anchor:start;fill:#333333;fill-opacity:1;stroke:none;stroke-width:1px;stroke-linecap:butt;stroke-linejoin:miter;stroke-opacity:1" />
      <path
         sodipodi:nodetypes="ccsscssccc"
         id="path4909"
         d="m 498.27335,39.362194 c 4.5071,-1.001575 4.992,-3.641382 5.33204,-8.496093 -0.78317,1.296981 -2.20704,2.254106 -4.53125,2.246093 -3.8203,-0.01317 -6.37925,-2.234875 -5.46875,-7.03125 0.91796,-4.835737 7.79296,-6.710737 10.91796,-11.71875 3.125,5.008013 10,6.883013 10.91797,11.71875 0.9105,4.796382 -1.54298,7.017718 -5.46875,7.03125 -2.32422,0.008 -3.74808,-0.949112 -4.53125,-2.246093 0.34004,4.854711 0.82494,7.494518 5.33203,8.496093 -3.125,0 -9.375,0 -12.5,0 z"
         style="fill:#000000;fill-opacity:1;stroke:none;stroke-width:0.354331;stroke-linecap:round;stroke-linejoin:round;stroke-miterlimit:4;stroke-dasharray:1.41732, 1.41732;stroke-dashoffset:0;stroke-opacity:1" />
      <path
         sodipodi:nodetypes="ccsscssccc"
         id="path5071"
         d="m 506.67697,71.362194 c 2.70425,-0.60094 2.99519,-2.18483 3.19922,-5.09765 -0.4699,0.77818 -1.32422,1.35246 -2.71875,1.34765 -2.29218,-0.0079 -3.82755,-1.34092 -3.28125,-4.21875 0.55078,-2.90144 4.67578,-4.026438 6.55078,-7.03125 1.875,3.004812 6,4.12981 6.55078,7.03125 0.5463,2.87783 -0.92579,4.21063 -3.28125,4.21875 -1.39453,0.0048 -2.24885,-0.56947 -2.71875,-1.34765 0.20402,2.91282 0.49496,4.49671 3.19922,5.09765 -1.875,0 -5.625,0 -7.5,0 z"
         style="fill:#000000;fill-opacity:1;stroke:none;stroke-width:0.354331;stroke-linecap:round;stroke-linejoin:round;stroke-miterlimit:4;stroke-dasharray:1.41732, 1.41732;stroke-dashoffset:0;stroke-opacity:1" />
      <path
         sodipodi:nodetypes="ccsscssccc"
         id="path5073"
         d="m 551.67697,70.362194 c 2.70425,-0.60094 2.99519,-2.18483 3.19922,-5.09765 -0.4699,0.77818 -1.32422,1.35246 -2.71875,1.34765 -2.29218,-0.0079 -3.82755,-1.34092 -3.28125,-4.21875 0.55078,-2.90144 4.67578,-4.026438 6.55078,-7.03125 1.875,3.004812 6,4.12981 6.55078,7.03125 0.5463,2.87783 -0.92579,4.21063 -3.28125,4.21875 -1.39453,0.0048 -2.24885,-0.56947 -2.71875,-1.34765 0.20402,2.91282 0.49496,4.49671 3.19922,5.09765 -1.875,0 -5.625,0 -7.5,0 z"
         style="fill:#000000;fill-opacity:1;stroke:none;stroke-width:0.354331;stroke-linecap:round;stroke-linejoin:round;stroke-miterlimit:4;stroke-dasharray:1.41732, 1.41732;stroke-dashoffset:0;stroke-opacity:1" />
      <path
         sodipodi:nodetypes="ccsscssccc"
         id="path5075"
         d="m 534.67697,126.36219 c 2.70425,-0.60094 2.99519,-2.18483 3.19922,-5.09765 -0.4699,0.77818 -1.32422,1.35246 -2.71875,1.34765 -2.29218,-0.008 -3.82755,-1.34092 -3.28125,-4.21875 0.55078,-2.90144 4.67578,-4.02643 6.55078,-7.03125 1.875,3.00482 6,4.12981 6.55078,7.03125 0.5463,2.87783 -0.92579,4.21063 -3.28125,4.21875 -1.39453,0.005 -2.24885,-0.56947 -2.71875,-1.34765 0.20402,2.91282 0.49496,4.49671 3.19922,5.09765 -1.875,0 -5.625,0 -7.5,0 z"
         style="fill:#000000;fill-opacity:1;stroke:none;stroke-width:0.354331;stroke-linecap:round;stroke-linejoin:round;stroke-miterlimit:4;stroke-dasharray:1.41732, 1.41732;stroke-dashoffset:0;stroke-opacity:1" />
      <path
         sodipodi:nodetypes="ccsscssccc"
         id="path5077"
         d="m 513.67697,127.36219 c 2.70425,-0.60094 2.99519,-2.18483 3.19922,-5.09765 -0.4699,0.77818 -1.32422,1.35246 -2.71875,1.34765 -2.29218,-0.008 -3.82755,-1.34092 -3.28125,-4.21875 0.55078,-2.90144 4.67578,-4.02643 6.55078,-7.03125 1.875,3.00482 6,4.12981 6.55078,7.03125 0.5463,2.87783 -0.92579,4.21063 -3.28125,4.21875 -1.39453,0.005 -2.24885,-0.56947 -2.71875,-1.34765 0.20402,2.91282 0.49496,4.49671 3.19922,5.09765 -1.875,0 -5.625,0 -7.5,0 z"
         style="fill:#000000;fill-opacity:1;stroke:none;stroke-width:0.354331;stroke-linecap:round;stroke-linejoin:round;stroke-miterlimit:4;stroke-dasharray:1.41732, 1.41732;stroke-dashoffset:0;stroke-opacity:1" />
      <path
         sodipodi:nodetypes="ccsscssccc"
         id="path5079"
         d="m 542.67697,98.362194 c 2.70425,-0.60094 2.99519,-2.18483 3.19922,-5.09765 -0.4699,0.77818 -1.32422,1.35246 -2.71875,1.34765 -2.29218,-0.0079 -3.82755,-1.34092 -3.28125,-4.21875 0.55078,-2.90144 4.67578,-4.026438 6.55078,-7.03125 1.875,3.004812 6,4.12981 6.55078,7.03125 0.5463,2.87783 -0.92579,4.21063 -3.28125,4.21875 -1.39453,0.0048 -2.24885,-0.56947 -2.71875,-1.34765 0.20402,2.91282 0.49496,4.49671 3.19922,5.09765 -1.875,0 -5.625,0 -7.5,0 z"
         style="fill:#000000;fill-opacity:1;stroke:none;stroke-width:0.354331;stroke-linecap:round;stroke-linejoin:round;stroke-miterlimit:4;stroke-dasharray:1.41732, 1.41732;stroke-dashoffset:0;stroke-opacity:1" />
      <path
         sodipodi:nodetypes="ccsscssccc"
         id="path5081"
         d="m 527.67697,66.36219 c 2.70425,-0.60094 2.99519,-2.18483 3.19922,-5.097646 -0.4699,0.77818 -1.32422,1.35246 -2.71875,1.34765 -2.29218,-0.0079 -3.82755,-1.34092 -3.28125,-4.21875 0.55078,-2.90144 4.67578,-4.026438 6.55078,-7.03125 1.875,3.004812 6,4.12981 6.55078,7.03125 0.5463,2.87783 -0.92579,4.21063 -3.28125,4.21875 -1.39453,0.0048 -2.24885,-0.56947 -2.71875,-1.34765 0.20402,2.912816 0.49496,4.496706 3.19922,5.097646 -1.875,0 -5.625,0 -7.5,0 z"
         style="fill:#000000;fill-opacity:1;stroke:none;stroke-width:0.354331;stroke-linecap:round;stroke-linejoin:round;stroke-miterlimit:4;stroke-dasharray:1.41732, 1.41732;stroke-dashoffset:0;stroke-opacity:1" />
      <path
         sodipodi:nodetypes="ccsscssccc"
         id="path5083"
         d="m 501.67697,100.36219 c 2.70425,-0.600936 2.99519,-2.184826 3.19922,-5.097646 -0.4699,0.77818 -1.32422,1.35246 -2.71875,1.34765 -2.29218,-0.0079 -3.82755,-1.34092 -3.28125,-4.21875 0.55078,-2.90144 4.67578,-4.026438 6.55078,-7.03125 1.875,3.004812 6,4.12981 6.55078,7.03125 0.5463,2.87783 -0.92579,4.21063 -3.28125,4.21875 -1.39453,0.0048 -2.24885,-0.56947 -2.71875,-1.34765 0.20402,2.91282 0.49496,4.49671 3.19922,5.097646 -1.875,0 -5.625,0 -7.5,0 z"
         style="fill:#000000;fill-opacity:1;stroke:none;stroke-width:0.354331;stroke-linecap:round;stroke-linejoin:round;stroke-miterlimit:4;stroke-dasharray:1.41732, 1.41732;stroke-dashoffset:0;stroke-opacity:1" />
      <path
         id="text5225"
         d="m 535.34722,14.116268 v 3.869444 c -2.94261,3.551869 -5.10742,6.954644 -6.49444,10.208333 -1.37409,3.253712 -2.17131,6.837967 -2.39167,10.752778 h -4.91944 c 0.32407,-2.631479 0.7324,-4.861106 1.225,-6.688889 0.49258,-1.827769 1.16666,-3.642582 2.02222,-5.444444 0.47962,-1.088876 1.31573,-2.540726 2.50833,-4.355556 1.20555,-1.814796 2.19073,-3.130536 2.95556,-3.947222 h -12.34722 v -4.394444 h 17.44166"
         style="font-style:normal;font-variant:normal;font-weight:bold;font-stretch:normal;font-size:35px;line-height:125%;font-family:AlMothnna;-inkscape-font-specification:'AlMothnna Bold';text-align:start;writing-mode:lr-tb;text-anchor:start;fill:#000000;fill-opacity:1;stroke:none;stroke-width:1px;stroke-linecap:butt;stroke-linejoin:miter;stroke-opacity:1" />
    </g>
  </g>
</svg>
