<?xml version="1.0" encoding="UTF-8" standalone="no"?>
<!-- Created with Inkscape (http://www.inkscape.org/) -->

<svg
   width="210mm"
   height="297mm"
   viewBox="0 0 210 297"
   version="1.1"
   id="svg1955"
   inkscape:version="1.2.2 (732a01da63, 2022-12-09)"
   sodipodi:docname="8H.svg"
   xmlns:inkscape="http://www.inkscape.org/namespaces/inkscape"
   xmlns:sodipodi="http://sodipodi.sourceforge.net/DTD/sodipodi-0.dtd"
   xmlns="http://www.w3.org/2000/svg"
   xmlns:svg="http://www.w3.org/2000/svg">
  <sodipodi:namedview
     id="namedview1957"
     pagecolor="#ffffff"
     bordercolor="#000000"
     borderopacity="0.25"
     inkscape:showpageshadow="2"
     inkscape:pageopacity="0.0"
     inkscape:pagecheckerboard="0"
     inkscape:deskcolor="#d1d1d1"
     inkscape:document-units="mm"
     showgrid="false"
     inkscape:zoom="1.6352936"
     inkscape:cx="117.10436"
     inkscape:cy="64.820166"
     inkscape:window-width="725"
     inkscape:window-height="439"
     inkscape:window-x="866"
     inkscape:window-y="423"
     inkscape:window-maximized="0"
     inkscape:current-layer="layer1" />
  <defs
     id="defs1952" />
  <g
     inkscape:label="Layer 1"
     inkscape:groupmode="layer"
     id="layer1">
    <g
       id="g14421"
       transform="matrix(0.26458333,0,0,0.26458333,-153.73162,-76.163536)">
      <g
         transform="translate(560.17576,277.92857)"
         id="g4620">
        <rect
           style="fill:#000000;fill-opacity:1;stroke:none;stroke-width:3;stroke-linecap:butt;stroke-linejoin:round;stroke-miterlimit:4;stroke-dasharray:none;stroke-opacity:1"
           id="rect4622"
           width="90"
           height="135"
           x="20.85714"
           y="9.9336166"
           ry="14.04" />
        <rect
           style="fill:#f2f2f2;fill-opacity:1;stroke:none;stroke-width:3;stroke-linecap:butt;stroke-linejoin:round;stroke-miterlimit:4;stroke-dasharray:none;stroke-opacity:1"
           id="rect4624"
           width="80"
           height="125"
           x="25.85714"
           y="14.933617"
           ry="13" />
      </g>
      <path
         id="text4688"
         d="m 648.59284,357.82644 0.88,2.48 c -4.00005,1.8667 -7.94671,3.60003 -11.84,5.2 -3.84004,1.5467 -7.65337,3.28003 -11.44,5.2 l -0.08,-0.08 c -3e-5,-0.47997 -0.0267,-0.95997 -0.08,-1.44 -3e-5,-0.47997 -3e-5,-0.95997 0,-1.44 l 0.08,-0.8 c 3.7333,-1.75997 7.38663,-3.43996 10.96,-5.04 3.62662,-1.65329 7.43995,-3.03996 11.44,-4.16 l 0.08,0.08 m -22.64,9.36 c -0.1067,0.5867 -0.13336,1.20003 -0.08,1.84 0.0533,0.64003 0.0266,1.25336 -0.08,1.84 l -0.08,-0.08 c -6.40002,3.30669 -12.10668,7.52002 -17.12,12.64 h -0.16 c -0.58668,-0.53332 -1.14668,-1.09332 -1.68,-1.68 -0.48001,-0.63998 -0.93334,-1.27998 -1.36,-1.92 l -0.08,-0.08 c 3.19999,-2.71998 6.58665,-5.03998 10.16,-6.96 3.57331,-1.91997 7.03997,-3.8133 10.4,-5.68 l 0.08,0.08 v 0 m -13.84,25.84 c -2e-5,-1.06666 0.21332,-2.05333 0.64,-2.96 0.47998,-0.95999 1.09332,-1.78666 1.84,-2.48 -1.81335,-0.79999 -3.46668,-1.83999 -4.96,-3.12 v -0.16 c 2.34665,-2.45332 4.87998,-4.61331 7.6,-6.48 2.71998,-1.91998 5.54664,-3.67998 8.48,-5.28 l 0.24,-0.16 c -0.2667,5.06669 -0.45336,10.08002 -0.56,15.04 -0.1067,4.96001 -0.26669,9.86667 -0.48,14.72 l -0.08,0.08 c -1.33336,-0.0533 -2.72003,-0.29334 -4.16,-0.72 -1.44002,-0.37334 -2.77335,-0.93334 -4,-1.68 -1.22669,-0.74667 -2.26668,-1.68 -3.12,-2.8 -0.85335,-1.12 -1.33335,-2.45333 -1.44,-4 m 15.12,9.12 c -0.16003,-5.01333 -0.3467,-9.97333 -0.56,-14.88 -0.21336,-4.95998 -0.37336,-9.94665 -0.48,-14.96 l 0.08,0.08 c 3.83997,-2.07997 7.8133,-4.0533 11.92,-5.92 4.10662,-1.91997 8.02662,-3.4933 11.76,-4.72 l 0.08,0.08 c 0.15995,0.7467 0.29328,1.49337 0.4,2.24 0.10661,0.7467 0.15995,1.49337 0.16,2.24 v 1.28 c -5e-5,2.1867 -0.34672,4.29336 -1.04,6.32 -0.64005,1.97336 -1.54672,3.84002 -2.72,5.6 -1.12005,1.76002 -2.50671,3.33335 -4.16,4.72 -1.60004,1.38668 -3.36004,2.53335 -5.28,3.44 0.74663,0.69334 1.35996,1.49334 1.84,2.4 0.53329,0.90667 0.79996,1.86667 0.8,2.88 -0.10671,1.54667 -0.58671,2.90667 -1.44,4.08 -0.80004,1.12 -1.84004,2.05333 -3.12,2.8 -1.2267,0.74666 -2.56004,1.30666 -4,1.68 -1.44003,0.42666 -2.8267,0.66666 -4.16,0.72 l -0.08,-0.08 v 0 m -1.28,-37.12 c -3.84003,1.8667 -7.52002,3.92003 -11.04,6.16 -3.46668,2.24003 -6.74668,4.80002 -9.84,7.68 h -0.16 c -2.29334,-3.67998 -3.44,-7.65331 -3.44,-11.92 v -0.24 c 0,-3.14663 0.66666,-6.10663 2,-8.88 1.38666,-2.82662 3.17332,-5.27995 5.36,-7.36 2.23999,-2.07995 4.77332,-3.73328 7.6,-4.96 2.87998,-1.22661 5.81331,-1.83994 8.8,-1.84 h 0.64 c 2.23997,0.0534 4.47997,0.37339 6.72,0.96 2.23996,0.58672 4.31996,1.44005 6.24,2.56 1.97329,1.06672 3.73329,2.40005 5.28,4 1.59995,1.60005 2.87995,3.44004 3.84,5.52 l -0.08,0.16 c -3.78671,1.06671 -7.52004,2.29337 -11.2,3.68 -3.6267,1.3867 -7.17337,2.88004 -10.64,4.48 h -0.08"
         style="font-style:normal;font-variant:normal;font-weight:normal;font-stretch:normal;font-size:80px;line-height:125%;font-family:'Airmole Stripe';-inkscape-font-specification:'Airmole Stripe';text-align:start;writing-mode:lr-tb;text-anchor:start;fill:#800000;fill-opacity:1;stroke:none;stroke-width:1px;stroke-linecap:butt;stroke-linejoin:miter;stroke-opacity:1" />
      <path
         id="text5333"
         d="m 632.76124,302.53464 c -2e-5,0.90742 -0.16205,1.71112 -0.48611,2.41111 -0.31113,0.68705 -0.68705,1.22501 -1.12778,1.61389 -0.42779,0.37594 -0.95927,0.7389 -1.59444,1.08889 1.42591,0.76482 2.45646,1.65279 3.09166,2.66388 0.64813,1.01113 0.97221,2.24909 0.97223,3.71389 -2e-5,2.3463 -0.82317,4.25834 -2.46945,5.73611 -1.63335,1.46482 -3.74631,2.19723 -6.33889,2.19723 -2.5926,0 -4.71204,-0.73241 -6.35833,-2.19723 -1.63334,-1.47777 -2.45,-3.38981 -2.45,-5.73611 0,-1.47777 0.31759,-2.71573 0.95278,-3.71389 0.63518,-1.01109 1.66573,-1.89906 3.09166,-2.66388 -1.12778,-0.59629 -1.94444,-1.2898 -2.45,-2.08056 -0.50555,-0.80369 -0.75833,-1.79535 -0.75833,-2.975 0,-1.95739 0.75185,-3.57127 2.25556,-4.84167 1.50369,-1.28331 3.40925,-1.92497 5.71666,-1.925 2.3074,3e-5 4.20647,0.63521 5.69722,1.90556 1.50369,1.27039 2.25554,2.87132 2.25556,4.80278 m -7.93333,-2.74167 c -1.0889,2e-5 -1.97686,0.29817 -2.66389,0.89444 -0.67408,0.59632 -1.01112,1.36762 -1.01111,2.31389 -10e-6,0.95928 0.34351,1.74354 1.03055,2.35278 0.68703,0.60928 1.56851,0.91391 2.64445,0.91389 1.07591,2e-5 1.95739,-0.29813 2.64444,-0.89444 0.69999,-0.60925 1.04999,-1.38702 1.05,-2.33334 -10e-6,-0.9722 -0.34353,-1.75646 -1.03055,-2.35278 -0.67409,-0.59627 -1.56205,-0.89442 -2.66389,-0.89444 m -0.0389,9.81944 c -1.17964,2e-5 -2.12594,0.37594 -2.83889,1.12778 -0.70001,0.7389 -1.05001,1.73705 -1.05,2.99445 -10e-6,1.23148 0.34999,2.21019 1.05,2.93611 0.71295,0.72593 1.65925,1.08889 2.83889,1.08889 1.17962,0 2.12591,-0.35648 2.83889,-1.06945 0.72591,-0.72592 1.08887,-1.68518 1.08889,-2.87778 -2e-5,-1.29628 -0.3565,-2.32036 -1.06945,-3.07222 -0.70001,-0.75184 -1.65279,-1.12776 -2.85833,-1.12778"
         style="font-style:normal;font-variant:normal;font-weight:bold;font-stretch:normal;font-size:35px;line-height:125%;font-family:AlMothnna;-inkscape-font-specification:'AlMothnna Bold';text-align:start;writing-mode:lr-tb;text-anchor:start;fill:#aa0000;fill-opacity:1;stroke:none;stroke-width:1px;stroke-linecap:butt;stroke-linejoin:miter;stroke-opacity:1" />
      <path
         sodipodi:nodetypes="ccccccc"
         id="path5454"
         d="m 601.0056,305.29639 c 0.6064,-3.125 1.8192,-6.25 6.06401,-6.25 4.2448,0 7.58,3.125 6.064,9.375 -1.516,6.25 -8.4896,9.375 -12.12801,15.625 -3.6384,-6.25 -10.612,-9.375 -12.128,-15.625 -1.516,-6.25 1.8192,-9.375 6.064,-9.375 4.2448,0 5.4576,3.125 6.064,6.25 z"
         style="fill:#d40000;fill-opacity:1;stroke:none;stroke-width:0.354331;stroke-linecap:round;stroke-linejoin:round;stroke-miterlimit:4;stroke-dasharray:1.41732, 1.41732;stroke-dashoffset:0;stroke-opacity:1" />
      <path
         sodipodi:nodetypes="ccccccc"
         id="path5640"
         d="m 628.42855,364.11219 c 0.36384,-1.875 1.09152,-3.75 3.6384,-3.75 2.54688,0 4.548,1.875 3.6384,5.625 -0.9096,3.75 -5.09376,5.625 -7.2768,9.375 -2.18304,-3.75 -6.3672,-5.625 -7.2768,-9.375 -0.9096,-3.75 1.09152,-5.625 3.6384,-5.625 2.54688,0 3.27456,1.875 3.6384,3.75 z"
         style="fill:#d40000;fill-opacity:1;stroke:none;stroke-width:0.354331;stroke-linecap:round;stroke-linejoin:round;stroke-miterlimit:4;stroke-dasharray:1.41732, 1.41732;stroke-dashoffset:0;stroke-opacity:1" />
      <path
         sodipodi:nodetypes="ccccccc"
         id="path5670"
         d="m 626.42855,337.11219 c 0.36384,-1.875 1.09152,-3.75 3.6384,-3.75 2.54688,0 4.548,1.875 3.6384,5.625 -0.9096,3.75 -5.09376,5.625 -7.2768,9.375 -2.18304,-3.75 -6.3672,-5.625 -7.2768,-9.375 -0.9096,-3.75 1.09152,-5.625 3.6384,-5.625 2.54688,0 3.27456,1.875 3.6384,3.75 z"
         style="fill:#d40000;fill-opacity:1;stroke:none;stroke-width:0.354331;stroke-linecap:round;stroke-linejoin:round;stroke-miterlimit:4;stroke-dasharray:1.41732, 1.41732;stroke-dashoffset:0;stroke-opacity:1" />
      <path
         sodipodi:nodetypes="ccccccc"
         id="path5672"
         d="m 607.42855,347.11219 c 0.36384,-1.875 1.09152,-3.75 3.6384,-3.75 2.54688,0 4.548,1.875 3.6384,5.625 -0.9096,3.75 -5.09376,5.625 -7.2768,9.375 -2.18304,-3.75 -6.3672,-5.625 -7.2768,-9.375 -0.9096,-3.75 1.09152,-5.625 3.6384,-5.625 2.54688,0 3.27456,1.875 3.6384,3.75 z"
         style="fill:#d40000;fill-opacity:1;stroke:none;stroke-width:0.354331;stroke-linecap:round;stroke-linejoin:round;stroke-miterlimit:4;stroke-dasharray:1.41732, 1.41732;stroke-dashoffset:0;stroke-opacity:1" />
      <path
         sodipodi:nodetypes="ccccccc"
         id="path5674"
         d="m 601.42855,367.11219 c 0.36384,-1.875 1.09152,-3.75 3.6384,-3.75 2.54688,0 4.548,1.875 3.6384,5.625 -0.9096,3.75 -5.09376,5.625 -7.2768,9.375 -2.18304,-3.75 -6.3672,-5.625 -7.2768,-9.375 -0.9096,-3.75 1.09152,-5.625 3.6384,-5.625 2.54688,0 3.27456,1.875 3.6384,3.75 z"
         style="fill:#d40000;fill-opacity:1;stroke:none;stroke-width:0.354331;stroke-linecap:round;stroke-linejoin:round;stroke-miterlimit:4;stroke-dasharray:1.41732, 1.41732;stroke-dashoffset:0;stroke-opacity:1" />
      <path
         sodipodi:nodetypes="ccccccc"
         id="path5676"
         d="m 615.42855,392.11219 c 0.36384,-1.875 1.09152,-3.75 3.6384,-3.75 2.54688,0 4.548,1.875 3.6384,5.625 -0.9096,3.75 -5.09376,5.625 -7.2768,9.375 -2.18304,-3.75 -6.3672,-5.625 -7.2768,-9.375 -0.9096,-3.75 1.09152,-5.625 3.6384,-5.625 2.54688,0 3.27456,1.875 3.6384,3.75 z"
         style="fill:#d40000;fill-opacity:1;stroke:none;stroke-width:0.354331;stroke-linecap:round;stroke-linejoin:round;stroke-miterlimit:4;stroke-dasharray:1.41732, 1.41732;stroke-dashoffset:0;stroke-opacity:1" />
      <path
         sodipodi:nodetypes="ccccccc"
         id="path5678"
         d="m 642.42855,393.11219 c 0.36384,-1.875 1.09152,-3.75 3.6384,-3.75 2.54688,0 4.548,1.875 3.6384,5.625 -0.9096,3.75 -5.09376,5.625 -7.2768,9.375 -2.18304,-3.75 -6.3672,-5.625 -7.2768,-9.375 -0.9096,-3.75 1.09152,-5.625 3.6384,-5.625 2.54688,0 3.27456,1.875 3.6384,3.75 z"
         style="fill:#d40000;fill-opacity:1;stroke:none;stroke-width:0.354331;stroke-linecap:round;stroke-linejoin:round;stroke-miterlimit:4;stroke-dasharray:1.41732, 1.41732;stroke-dashoffset:0;stroke-opacity:1" />
      <path
         sodipodi:nodetypes="ccccccc"
         id="path5680"
         d="m 648.42855,372.11219 c 0.36384,-1.875 1.09152,-3.75 3.6384,-3.75 2.54688,0 4.548,1.875 3.6384,5.625 -0.9096,3.75 -5.09376,5.625 -7.2768,9.375 -2.18304,-3.75 -6.3672,-5.625 -7.2768,-9.375 -0.9096,-3.75 1.09152,-5.625 3.6384,-5.625 2.54688,0 3.27456,1.875 3.6384,3.75 z"
         style="fill:#d40000;fill-opacity:1;stroke:none;stroke-width:0.354331;stroke-linecap:round;stroke-linejoin:round;stroke-miterlimit:4;stroke-dasharray:1.41732, 1.41732;stroke-dashoffset:0;stroke-opacity:1" />
      <path
         sodipodi:nodetypes="ccccccc"
         id="path5682"
         d="m 647.42855,346.11219 c 0.36384,-1.875 1.09152,-3.75 3.6384,-3.75 2.54688,0 4.548,1.875 3.6384,5.625 -0.9096,3.75 -5.09376,5.625 -7.2768,9.375 -2.18304,-3.75 -6.3672,-5.625 -7.2768,-9.375 -0.9096,-3.75 1.09152,-5.625 3.6384,-5.625 2.54688,0 3.27456,1.875 3.6384,3.75 z"
         style="fill:#d40000;fill-opacity:1;stroke:none;stroke-width:0.354331;stroke-linecap:round;stroke-linejoin:round;stroke-miterlimit:4;stroke-dasharray:1.41732, 1.41732;stroke-dashoffset:0;stroke-opacity:1" />
    </g>
  </g>
</svg>
