<?xml version="1.0" encoding="UTF-8" standalone="no"?>
<!-- Created with Inkscape (http://www.inkscape.org/) -->

<svg
   width="210mm"
   height="297mm"
   viewBox="0 0 210 297"
   version="1.1"
   id="svg1955"
   inkscape:version="1.2.2 (732a01da63, 2022-12-09)"
   sodipodi:docname="8S.svg"
   xmlns:inkscape="http://www.inkscape.org/namespaces/inkscape"
   xmlns:sodipodi="http://sodipodi.sourceforge.net/DTD/sodipodi-0.dtd"
   xmlns="http://www.w3.org/2000/svg"
   xmlns:svg="http://www.w3.org/2000/svg">
  <sodipodi:namedview
     id="namedview1957"
     pagecolor="#ffffff"
     bordercolor="#000000"
     borderopacity="0.25"
     inkscape:showpageshadow="2"
     inkscape:pageopacity="0.0"
     inkscape:pagecheckerboard="0"
     inkscape:deskcolor="#d1d1d1"
     inkscape:document-units="mm"
     showgrid="false"
     inkscape:zoom="1.6352936"
     inkscape:cx="117.10436"
     inkscape:cy="55.647501"
     inkscape:window-width="725"
     inkscape:window-height="439"
     inkscape:window-x="858"
     inkscape:window-y="349"
     inkscape:window-maximized="0"
     inkscape:current-layer="layer1" />
  <defs
     id="defs1952" />
  <g
     inkscape:label="Layer 1"
     inkscape:groupmode="layer"
     id="layer1">
    <g
       id="g13835"
       transform="matrix(0.26458333,0,0,0.26458333,-153.6166,-1.5633349)">
      <g
         transform="translate(560.60435,-3.035717)"
         id="g4344">
        <rect
           style="fill:#000000;fill-opacity:1;stroke:none;stroke-width:3;stroke-linecap:butt;stroke-linejoin:round;stroke-miterlimit:4;stroke-dasharray:none;stroke-opacity:1"
           id="rect4346"
           width="90"
           height="135"
           x="20.85714"
           y="9.9336166"
           ry="14.04" />
        <rect
           style="fill:#f2f2f2;fill-opacity:1;stroke:none;stroke-width:3;stroke-linecap:butt;stroke-linejoin:round;stroke-miterlimit:4;stroke-dasharray:none;stroke-opacity:1"
           id="rect4348"
           width="80"
           height="125"
           x="25.85714"
           y="14.933617"
           ry="13" />
      </g>
      <path
         id="text4412"
         d="m 649.02143,76.862166 0.88,2.48 c -4.00005,1.866706 -7.94671,3.600037 -11.84,5.2 -3.84004,1.546701 -7.65337,3.280032 -11.44,5.2 l -0.08,-0.08 c -3e-5,-0.479969 -0.0267,-0.959968 -0.08,-1.44 -3e-5,-0.479967 -3e-5,-0.959967 0,-1.44 l 0.08,-0.8 c 3.7333,-1.759964 7.38663,-3.439962 10.96,-5.04 3.62662,-1.653292 7.43995,-3.039958 11.44,-4.16 l 0.08,0.08 m -22.64,9.36 c -0.1067,0.5867 -0.13336,1.200033 -0.08,1.84 0.0533,0.640032 0.0266,1.253364 -0.08,1.84 l -0.08,-0.08 c -6.40002,3.306694 -12.10668,7.520023 -17.12,12.640004 h -0.16 c -0.58668,-0.53332 -1.14668,-1.09332 -1.68,-1.68 -0.48001,-0.63998 -0.93334,-1.279983 -1.36,-1.920004 l -0.08,-0.08 c 3.19999,-2.719976 6.58665,-5.039973 10.16,-6.96 3.57331,-1.91997 7.03997,-3.813301 10.4,-5.68 l 0.08,0.08 v 0 m -13.84,25.840004 c -2e-5,-1.06666 0.21332,-2.05333 0.64,-2.96 0.47998,-0.95999 1.09332,-1.78666 1.84,-2.48 -1.81335,-0.79999 -3.46668,-1.83999 -4.96,-3.12 v -0.16 c 2.34665,-2.45332 4.87998,-4.613316 7.6,-6.480004 2.71998,-1.919975 5.54664,-3.679973 8.48,-5.28 l 0.24,-0.16 c -0.2667,5.06669 -0.45336,10.080014 -0.56,15.040004 -0.1067,4.96 -0.2667,9.86667 -0.48,14.72 l -0.08,0.08 c -1.33336,-0.0533 -2.72003,-0.29334 -4.16,-0.72 -1.44002,-0.37334 -2.77336,-0.93334 -4,-1.68 -1.22669,-0.74667 -2.26669,-1.68 -3.12,-2.8 -0.85335,-1.12 -1.33335,-2.45333 -1.44,-4 m 15.12,9.12 c -0.16003,-5.01333 -0.3467,-9.97333 -0.56,-14.88 -0.21336,-4.95999 -0.37336,-9.946647 -0.48,-14.960004 l 0.08,0.08 c 3.83997,-2.079969 7.8133,-4.0533 11.92,-5.92 4.10662,-1.919963 8.02662,-3.493295 11.76,-4.72 l 0.08,0.08 c 0.15995,0.746705 0.29328,1.493371 0.4,2.24 0.10661,0.746703 0.15995,1.493369 0.16,2.24 v 1.28 c -5e-5,2.186698 -0.34672,4.293363 -1.04,6.32 -0.64005,1.973359 -1.54672,3.840023 -2.72,5.6 -1.12005,1.760024 -2.50672,3.333354 -4.16,4.720004 -1.60005,1.38668 -3.36004,2.53334 -5.28,3.44 0.74662,0.69334 1.35996,1.49334 1.84,2.4 0.53329,0.90667 0.79996,1.86667 0.8,2.88 -0.10671,1.54667 -0.58671,2.90667 -1.44,4.08 -0.80004,1.12 -1.84004,2.05333 -3.12,2.8 -1.22671,0.74666 -2.56004,1.30666 -4,1.68 -1.44003,0.42666 -2.8267,0.66666 -4.16,0.72 l -0.08,-0.08 v 0 m -1.28,-37.120004 c -3.84003,1.866701 -7.52002,3.920032 -11.04,6.16 -3.46668,2.240028 -6.74668,4.800025 -9.84,7.68 h -0.16 c -2.29334,-3.679974 -3.44001,-7.653303 -3.44,-11.92 v -0.24 c -10e-6,-3.146629 0.66666,-6.106626 2,-8.88 1.38666,-2.82662 3.17332,-5.279951 5.36,-7.36 2.23998,-2.079947 4.77332,-3.733279 7.6,-4.96 2.87998,-1.22661 5.81331,-1.839942 8.8,-1.84 h 0.64 c 2.23997,0.05339 4.47997,0.373391 6.72,0.96 2.23996,0.586723 4.31996,1.440055 6.24,2.56 1.97329,1.06672 3.73329,2.400052 5.28,4 1.59995,1.600048 2.87995,3.440047 3.84,5.52 l -0.08,0.16 c -3.78671,1.06671 -7.52004,2.293375 -11.2,3.68 -3.6267,1.386706 -7.17337,2.880038 -10.64,4.48 h -0.08"
         style="font-style:normal;font-variant:normal;font-weight:normal;font-stretch:normal;font-size:80px;line-height:125%;font-family:'Airmole Stripe';-inkscape-font-specification:'Airmole Stripe';text-align:start;writing-mode:lr-tb;text-anchor:start;fill:#333333;fill-opacity:1;stroke:none;stroke-width:1px;stroke-linecap:butt;stroke-linejoin:miter;stroke-opacity:1" />
      <path
         sodipodi:nodetypes="ccsscssccc"
         id="path4911"
         d="m 594.25941,39.362194 c 4.5071,-1.001575 4.992,-3.641382 5.33204,-8.496093 -0.78317,1.296981 -2.20704,2.254106 -4.53125,2.246093 -3.8203,-0.01317 -6.37925,-2.234875 -5.46875,-7.03125 0.91796,-4.835737 7.79296,-6.710737 10.91796,-11.71875 3.125,5.008013 10,6.883013 10.91797,11.71875 0.9105,4.796382 -1.54298,7.017718 -5.46875,7.03125 -2.32422,0.008 -3.74808,-0.949112 -4.53125,-2.246093 0.34004,4.854711 0.82494,7.494518 5.33203,8.496093 -3.125,0 -9.375,0 -12.5,0 z"
         style="fill:#000000;fill-opacity:1;stroke:none;stroke-width:0.354331;stroke-linecap:round;stroke-linejoin:round;stroke-miterlimit:4;stroke-dasharray:1.41732, 1.41732;stroke-dashoffset:0;stroke-opacity:1" />
      <path
         sodipodi:nodetypes="ccsscssccc"
         id="path5085"
         d="m 621.67697,68.362194 c 2.70425,-0.60094 2.99519,-2.18483 3.19922,-5.09765 -0.4699,0.77818 -1.32422,1.35246 -2.71875,1.34765 -2.29218,-0.0079 -3.82755,-1.34092 -3.28125,-4.21875 0.55078,-2.90144 4.67578,-4.026438 6.55078,-7.03125 1.875,3.004812 6,4.12981 6.55078,7.03125 0.5463,2.87783 -0.92579,4.21063 -3.28125,4.21875 -1.39453,0.0048 -2.24885,-0.56947 -2.71875,-1.34765 0.20402,2.91282 0.49496,4.49671 3.19922,5.09765 -1.875,0 -5.625,0 -7.5,0 z"
         style="fill:#000000;fill-opacity:1;stroke:none;stroke-width:0.354331;stroke-linecap:round;stroke-linejoin:round;stroke-miterlimit:4;stroke-dasharray:1.41732, 1.41732;stroke-dashoffset:0;stroke-opacity:1" />
      <path
         sodipodi:nodetypes="ccsscssccc"
         id="path5087"
         d="m 601.67697,79.362194 c 2.70425,-0.60094 2.99519,-2.18483 3.19922,-5.09765 -0.4699,0.77818 -1.32422,1.35246 -2.71875,1.34765 -2.29218,-0.0079 -3.82755,-1.34092 -3.28125,-4.21875 0.55078,-2.90144 4.67578,-4.026438 6.55078,-7.03125 1.875,3.004812 6,4.12981 6.55078,7.03125 0.5463,2.87783 -0.92579,4.21063 -3.28125,4.21875 -1.39453,0.0048 -2.24885,-0.56947 -2.71875,-1.34765 0.20402,2.91282 0.49496,4.49671 3.19922,5.09765 -1.875,0 -5.625,0 -7.5,0 z"
         style="fill:#000000;fill-opacity:1;stroke:none;stroke-width:0.354331;stroke-linecap:round;stroke-linejoin:round;stroke-miterlimit:4;stroke-dasharray:1.41732, 1.41732;stroke-dashoffset:0;stroke-opacity:1" />
      <path
         sodipodi:nodetypes="ccsscssccc"
         id="path5089"
         d="m 598.67697,99.362194 c 2.70425,-0.60094 2.99519,-2.18483 3.19922,-5.09765 -0.4699,0.77818 -1.32422,1.35246 -2.71875,1.34765 -2.29218,-0.0079 -3.82755,-1.34092 -3.28125,-4.21875 0.55078,-2.90144 4.67578,-4.026438 6.55078,-7.03125 1.875,3.004812 6,4.12981 6.55078,7.03125 0.5463,2.87783 -0.92579,4.21063 -3.28125,4.21875 -1.39453,0.0048 -2.24885,-0.56947 -2.71875,-1.34765 0.20402,2.91282 0.49496,4.49671 3.19922,5.09765 -1.875,0 -5.625,0 -7.5,0 z"
         style="fill:#000000;fill-opacity:1;stroke:none;stroke-width:0.354331;stroke-linecap:round;stroke-linejoin:round;stroke-miterlimit:4;stroke-dasharray:1.41732, 1.41732;stroke-dashoffset:0;stroke-opacity:1" />
      <path
         sodipodi:nodetypes="ccsscssccc"
         id="path5091"
         d="m 610.67697,126.36219 c 2.70425,-0.60094 2.99519,-2.18483 3.19922,-5.09765 -0.4699,0.77818 -1.32422,1.35246 -2.71875,1.34765 -2.29218,-0.008 -3.82755,-1.34092 -3.28125,-4.21875 0.55078,-2.90144 4.67578,-4.02643 6.55078,-7.03125 1.875,3.00482 6,4.12981 6.55078,7.03125 0.5463,2.87783 -0.92579,4.21063 -3.28125,4.21875 -1.39453,0.005 -2.24885,-0.56947 -2.71875,-1.34765 0.20402,2.91282 0.49496,4.49671 3.19922,5.09765 -1.875,0 -5.625,0 -7.5,0 z"
         style="fill:#000000;fill-opacity:1;stroke:none;stroke-width:0.354331;stroke-linecap:round;stroke-linejoin:round;stroke-miterlimit:4;stroke-dasharray:1.41732, 1.41732;stroke-dashoffset:0;stroke-opacity:1" />
      <path
         sodipodi:nodetypes="ccsscssccc"
         id="path5093"
         d="m 641.67697,76.362194 c 2.70425,-0.60094 2.99519,-2.18483 3.19922,-5.09765 -0.4699,0.77818 -1.32422,1.35246 -2.71875,1.34765 -2.29218,-0.0079 -3.82755,-1.34092 -3.28125,-4.21875 0.55078,-2.90144 4.67578,-4.026438 6.55078,-7.03125 1.875,3.004812 6,4.12981 6.55078,7.03125 0.5463,2.87783 -0.92579,4.21063 -3.28125,4.21875 -1.39453,0.0048 -2.24885,-0.56947 -2.71875,-1.34765 0.20402,2.91282 0.49496,4.49671 3.19922,5.09765 -1.875,0 -5.625,0 -7.5,0 z"
         style="fill:#000000;fill-opacity:1;stroke:none;stroke-width:0.354331;stroke-linecap:round;stroke-linejoin:round;stroke-miterlimit:4;stroke-dasharray:1.41732, 1.41732;stroke-dashoffset:0;stroke-opacity:1" />
      <path
         sodipodi:nodetypes="ccsscssccc"
         id="path5095"
         d="m 646.67697,97.362194 c 2.70425,-0.60094 2.99519,-2.18483 3.19922,-5.09765 -0.4699,0.77818 -1.32422,1.35246 -2.71875,1.34765 -2.29218,-0.0079 -3.82755,-1.34092 -3.28125,-4.21875 0.55078,-2.90144 4.67578,-4.026438 6.55078,-7.03125 1.875,3.004812 6,4.12981 6.55078,7.03125 0.5463,2.87783 -0.92579,4.21063 -3.28125,4.21875 -1.39453,0.0048 -2.24885,-0.56947 -2.71875,-1.34765 0.20402,2.91282 0.49496,4.49671 3.19922,5.09765 -1.875,0 -5.625,0 -7.5,0 z"
         style="fill:#000000;fill-opacity:1;stroke:none;stroke-width:0.354331;stroke-linecap:round;stroke-linejoin:round;stroke-miterlimit:4;stroke-dasharray:1.41732, 1.41732;stroke-dashoffset:0;stroke-opacity:1" />
      <path
         sodipodi:nodetypes="ccsscssccc"
         id="path5097"
         d="m 622.67697,96.36219 c 2.70425,-0.60094 2.99519,-2.18483 3.19922,-5.09765 -0.4699,0.77818 -1.32422,1.35246 -2.71875,1.34765 -2.29218,-0.0079 -3.82755,-1.34092 -3.28125,-4.21875 0.55078,-2.901436 4.67578,-4.026434 6.55078,-7.031246 1.875,3.004812 6,4.12981 6.55078,7.031246 0.5463,2.87783 -0.92579,4.21063 -3.28125,4.21875 -1.39453,0.0048 -2.24885,-0.56947 -2.71875,-1.34765 0.20402,2.91282 0.49496,4.49671 3.19922,5.09765 -1.875,0 -5.625,0 -7.5,0 z"
         style="fill:#000000;fill-opacity:1;stroke:none;stroke-width:0.354331;stroke-linecap:round;stroke-linejoin:round;stroke-miterlimit:4;stroke-dasharray:1.41732, 1.41732;stroke-dashoffset:0;stroke-opacity:1" />
      <path
         sodipodi:nodetypes="ccsscssccc"
         id="path5099"
         d="m 635.67697,126.36219 c 2.70425,-0.60094 2.99519,-2.18483 3.19922,-5.09765 -0.4699,0.77818 -1.32422,1.35246 -2.71875,1.34765 -2.29218,-0.008 -3.82755,-1.34092 -3.28125,-4.21875 0.55078,-2.90144 4.67578,-4.02643 6.55078,-7.03125 1.875,3.00482 6,4.12981 6.55078,7.03125 0.5463,2.87783 -0.92579,4.21063 -3.28125,4.21875 -1.39453,0.005 -2.24885,-0.56947 -2.71875,-1.34765 0.20402,2.91282 0.49496,4.49671 3.19922,5.09765 -1.875,0 -5.625,0 -7.5,0 z"
         style="fill:#000000;fill-opacity:1;stroke:none;stroke-width:0.354331;stroke-linecap:round;stroke-linejoin:round;stroke-miterlimit:4;stroke-dasharray:1.41732, 1.41732;stroke-dashoffset:0;stroke-opacity:1" />
      <path
         id="text5229"
         d="m 630.92939,19.407935 c -2e-5,0.907426 -0.16205,1.711128 -0.48611,2.411112 -0.31113,0.687052 -0.68705,1.225015 -1.12778,1.613888 -0.42779,0.375941 -0.95927,0.738903 -1.59444,1.088889 1.42591,0.764828 2.45646,1.65279 3.09167,2.663889 0.64813,1.011121 0.9722,2.249083 0.97222,3.713889 -2e-5,2.346301 -0.82317,4.258336 -2.46945,5.736111 -1.63334,1.464815 -3.74631,2.197222 -6.33889,2.197222 -2.5926,0 -4.71204,-0.732407 -6.35833,-2.197222 -1.63333,-1.477775 -2.45,-3.38981 -2.45,-5.736111 0,-1.477769 0.31759,-2.715731 0.95278,-3.713889 0.63518,-1.011099 1.66574,-1.899061 3.09167,-2.663889 -1.12779,-0.596282 -1.94445,-1.2898 -2.45,-2.080555 -0.50556,-0.803688 -0.75834,-1.795353 -0.75834,-2.975 0,-1.957387 0.75185,-3.571274 2.25556,-4.841667 1.5037,-1.283309 3.40925,-1.924975 5.71666,-1.925 2.3074,2.5e-5 4.20647,0.63521 5.69723,1.905556 1.50368,1.270392 2.25553,2.871316 2.25555,4.802777 m -7.93333,-2.741666 c -1.0889,2.1e-5 -1.97686,0.298169 -2.66389,0.894444 -0.67408,0.596316 -1.01112,1.367612 -1.01111,2.313889 -10e-6,0.959277 0.34351,1.743535 1.03055,2.352778 0.68703,0.609274 1.56851,0.913904 2.64445,0.913889 1.07591,1.5e-5 1.95739,-0.298133 2.64444,-0.894445 0.69999,-0.609243 1.04999,-1.38702 1.05,-2.333333 -1e-5,-0.972203 -0.34353,-1.756462 -1.03055,-2.352778 -0.67409,-0.596275 -1.56205,-0.894423 -2.66389,-0.894444 m -0.0389,9.819444 c -1.17964,1.2e-5 -2.12593,0.375937 -2.83889,1.127778 -0.70001,0.738899 -1.05,1.737046 -1.05,2.994444 0,1.231488 0.34999,2.210191 1.05,2.936112 0.71296,0.725929 1.65925,1.088892 2.83889,1.088888 1.17962,4e-6 2.12591,-0.356477 2.83889,-1.069444 0.72591,-0.725921 1.08887,-1.685179 1.08889,-2.877778 -2e-5,-1.296287 -0.3565,-2.320361 -1.06945,-3.072222 -0.70001,-0.751841 -1.65279,-1.127766 -2.85833,-1.127778"
         style="font-style:normal;font-variant:normal;font-weight:bold;font-stretch:normal;font-size:35px;line-height:125%;font-family:AlMothnna;-inkscape-font-specification:'AlMothnna Bold';text-align:start;writing-mode:lr-tb;text-anchor:start;fill:#000000;fill-opacity:1;stroke:none;stroke-width:1px;stroke-linecap:butt;stroke-linejoin:miter;stroke-opacity:1" />
    </g>
  </g>
</svg>
