<?xml version="1.0" encoding="UTF-8" standalone="no"?>
<!-- Created with Inkscape (http://www.inkscape.org/) -->

<svg
   width="210mm"
   height="297mm"
   viewBox="0 0 210 297"
   version="1.1"
   id="svg1955"
   inkscape:version="1.2.2 (732a01da63, 2022-12-09)"
   sodipodi:docname="9C.svg"
   xmlns:inkscape="http://www.inkscape.org/namespaces/inkscape"
   xmlns:sodipodi="http://sodipodi.sourceforge.net/DTD/sodipodi-0.dtd"
   xmlns="http://www.w3.org/2000/svg"
   xmlns:svg="http://www.w3.org/2000/svg">
  <sodipodi:namedview
     id="namedview1957"
     pagecolor="#ffffff"
     bordercolor="#000000"
     borderopacity="0.25"
     inkscape:showpageshadow="2"
     inkscape:pageopacity="0.0"
     inkscape:pagecheckerboard="0"
     inkscape:deskcolor="#d1d1d1"
     inkscape:document-units="mm"
     showgrid="false"
     inkscape:zoom="1.6352936"
     inkscape:cx="117.10436"
     inkscape:cy="64.820166"
     inkscape:window-width="725"
     inkscape:window-height="439"
     inkscape:window-x="858"
     inkscape:window-y="349"
     inkscape:window-maximized="0"
     inkscape:current-layer="layer1" />
  <defs
     id="defs1952" />
  <g
     inkscape:label="Layer 1"
     inkscape:groupmode="layer"
     id="layer1">
    <g
       id="g14159"
       transform="matrix(0.26458333,0,0,0.26458333,-179.37876,-38.857286)">
      <g
         transform="translate(657.10984,136.92857)"
         id="g4490">
        <rect
           style="fill:#000000;fill-opacity:1;stroke:none;stroke-width:3;stroke-linecap:butt;stroke-linejoin:round;stroke-miterlimit:4;stroke-dasharray:none;stroke-opacity:1"
           id="rect4492"
           width="90"
           height="135"
           x="20.85714"
           y="9.9336166"
           ry="14.04" />
        <rect
           style="fill:#f2f2f2;fill-opacity:1;stroke:none;stroke-width:3;stroke-linecap:butt;stroke-linejoin:round;stroke-miterlimit:4;stroke-dasharray:none;stroke-opacity:1"
           id="rect4494"
           width="80"
           height="125"
           x="25.85714"
           y="14.933617"
           ry="13" />
      </g>
      <path
         id="text4556"
         d="m 741.32687,215.46645 0.32,0.96 c 0.0533,0.32004 0.18662,0.66671 0.4,1.04 l 0.08,0.4 c -3.25337,1.28004 -6.48004,2.64004 -9.68,4.08 -3.1467,1.3867 -6.24003,2.9067 -9.28,4.56 -3.04002,1.65337 -5.97335,3.4667 -8.8,5.44 -2.82668,1.97336 -5.49334,4.16003 -8,6.56 h -0.16 c -0.37334,-0.42664 -0.69334,-0.87998 -0.96,-1.36 -0.21334,-0.47998 -0.45334,-0.95998 -0.72,-1.44 l 0.32,0.16 c 5.11999,-4.6933 10.79998,-8.7733 17.04,-12.24 6.23997,-3.46663 12.6933,-6.21329 19.36,-8.24 l 0.08,0.08 m -18.56,-12.72 c 1.81331,0.10672 3.62664,0.42672 5.44,0.96 1.86664,0.48006 3.59997,1.20006 5.2,2.16 1.59996,0.90672 3.0133,2.05339 4.24,3.44 1.27996,1.38672 2.29329,2.96005 3.04,4.72 h 0.24 c -6.77337,2.40004 -13.30669,5.20004 -19.6,8.4 -6.24002,3.1467 -12.02668,7.09336 -17.36,11.84 -0.26667,3e-5 -0.48,-0.29331 -0.64,-0.88 -0.16,-0.63997 -0.29334,-1.3333 -0.4,-2.08 -0.10667,-0.79997 -0.18667,-1.54664 -0.24,-2.24 -0.0533,-0.74663 -0.08,-1.22663 -0.08,-1.44 v -1.6 c 0,-2.82663 0.45333,-5.62663 1.36,-8.4 0.95999,-2.82662 2.29333,-5.33328 4,-7.52 1.70666,-2.23995 3.75999,-4.02661 6.16,-5.36 2.39998,-1.38661 5.06665,-2.07994 8,-2.08 h 0.56 l 0.08,0.08 m 3.36,41.52 c -0.90669,0.32002 -1.84002,0.61335 -2.8,0.88 -0.90669,0.21335 -1.84002,0.32002 -2.8,0.32 h -0.4 c -2.45335,-0.0533 -4.85335,-0.55998 -7.2,-1.52 -2.29334,-1.01332 -4.26668,-2.47998 -5.92,-4.4 l -0.24,-0.4 c 5.38665,-4.26664 11.06665,-8.02664 17.04,-11.28 5.9733,-3.30663 12.15996,-6.31996 18.56,-9.04 l 0.08,0.08 c 0.15996,1.28004 0.31996,2.53337 0.48,3.76 0.15996,1.2267 0.29329,2.5067 0.4,3.84 -0.10671,3.52003 -0.64004,6.93336 -1.6,10.24 -0.96004,3.25335 -2.24004,6.40002 -3.84,9.44 -1.60004,3.04001 -3.49337,5.94668 -5.68,8.72 -2.13336,2.72 -4.45336,5.28 -6.96,7.68 h -0.16 c -1.06669,-0.96 -2.08002,-2 -3.04,-3.12 -0.90669,-1.12 -1.94669,-2.13333 -3.12,-3.04 l 0.16,-0.16 c 3.35998,-3.83999 6.18664,-7.99999 8.48,-12.48 2.2933,-4.53331 3.99997,-9.30664 5.12,-14.32 -0.7467,2.61336 -1.7067,5.14669 -2.88,7.6 -1.12003,2.45335 -2.32003,4.85335 -3.6,7.2 h -0.08"
         style="font-style:normal;font-variant:normal;font-weight:normal;font-stretch:normal;font-size:80px;line-height:125%;font-family:'Airmole Stripe';-inkscape-font-specification:'Airmole Stripe';text-align:start;writing-mode:lr-tb;text-anchor:start;fill:#333333;fill-opacity:1;stroke:none;stroke-width:1px;stroke-linecap:butt;stroke-linejoin:miter;stroke-opacity:1" />
      <path
         id="text5285"
         d="m 728.27647,165.33239 c -10e-6,1.63335 -0.10372,3.12409 -0.31111,4.47223 -0.20742,1.33519 -0.47964,2.46945 -0.81666,3.40277 -0.33706,0.93334 -0.75187,1.76297 -1.24445,2.48889 -0.49261,0.71297 -1.00464,1.28334 -1.53611,1.71111 -0.51853,0.41482 -1.09538,0.75186 -1.73055,1.01112 -0.62224,0.27222 -1.21205,0.4537 -1.76945,0.54444 -0.55742,0.1037 -1.14075,0.15555 -1.75,0.15556 -1.40001,-10e-6 -2.67038,-0.28519 -3.81111,-0.85556 -1.14074,-0.57037 -2.04815,-1.36111 -2.72222,-2.37222 -0.66112,-1.01111 -1.01111,-2.14537 -1.05,-3.40278 h 4.74444 c 0.0518,0.73889 0.35,1.32871 0.89445,1.76944 0.54443,0.44075 1.24443,0.66112 2.1,0.66112 2.73517,0 4.10276,-2.35278 4.10277,-7.05834 -0.013,0.013 -0.12964,0.14909 -0.35,0.40834 -0.22038,0.2463 -0.3889,0.42778 -0.50555,0.54444 -0.10372,0.10371 -0.30464,0.27223 -0.60278,0.50556 -0.29816,0.23334 -0.58982,0.40834 -0.875,0.525 -0.27223,0.10371 -0.62871,0.20741 -1.06944,0.31111 -0.42779,0.10371 -0.88149,0.15556 -1.36111,0.15555 -2.20371,1e-5 -3.9926,-0.79721 -5.36667,-2.39166 -1.37408,-1.59444 -2.06111,-3.66851 -2.06111,-6.22223 0,-2.59257 0.77129,-4.69905 2.31389,-6.31944 1.55555,-1.62035 3.57129,-2.43053 6.04722,-2.43056 0.54443,3e-5 1.07591,0.0454 1.59444,0.13611 0.51851,0.0778 1.06944,0.23984 1.65278,0.48612 0.59628,0.24632 1.14721,0.56391 1.65278,0.95277 0.5185,0.37595 1.01758,0.88799 1.49722,1.53611 0.47961,0.63521 0.88795,1.3741 1.225,2.21667 0.33702,0.84261 0.60276,1.86669 0.79722,3.07222 0.20739,1.20557 0.3111,2.53428 0.31111,3.98611 m -8.86666,-8.4 c -1.07594,3e-5 -1.93797,0.4278 -2.58611,1.28334 -0.64816,0.84261 -0.97223,1.97687 -0.97223,3.40278 0,1.42594 0.32407,2.55371 0.97223,3.38333 0.6611,0.82964 1.55554,1.24446 2.68333,1.24444 1.1148,2e-5 2.02221,-0.4148 2.72222,-1.24444 0.69999,-0.84258 1.04999,-1.94443 1.05,-3.30556 -1e-5,-1.46479 -0.35001,-2.62498 -1.05,-3.48055 -0.70001,-0.85554 -1.63982,-1.28331 -2.81944,-1.28334"
         style="font-style:normal;font-variant:normal;font-weight:bold;font-stretch:normal;font-size:35px;line-height:125%;font-family:AlMothnna;-inkscape-font-specification:'AlMothnna Bold';text-align:start;writing-mode:lr-tb;text-anchor:start;fill:#000000;fill-opacity:1;stroke:none;stroke-width:1px;stroke-linecap:butt;stroke-linejoin:miter;stroke-opacity:1" />
      <path
         sodipodi:nodetypes="ccccsccccccscccc"
         id="path5430"
         d="m 696.93965,154.79661 c -2.95714,0 -5.35714,2.52 -5.35714,5.625 0.0258,1.95404 1.03405,3.60527 2.08333,5.17578 -1.16957,-0.88503 -2.46938,-1.42026 -3.86905,-1.42578 -2.95714,0 -5.35714,2.52 -5.35714,5.625 0,3.105 2.4,5.625 5.35714,5.625 2.39553,-0.0401 4.31146,-1.71621 6.1942,-3.125 -0.3369,4.20822 -1.02218,6.57097 -5.00372,7.5 2.97619,0 8.92857,0 11.90476,0 -3.98153,-0.92903 -4.66682,-3.29178 -5.00372,-7.5 1.86093,1.59506 3.81257,2.94817 6.1942,3.125 2.95714,0 5.35714,-2.52 5.35714,-5.625 0,-3.105 -2.4,-5.625 -5.35714,-5.625 -1.43557,-1.5e-4 -2.67554,0.66045 -3.86905,1.42578 1.1876,-1.55433 1.96933,-3.23152 2.08333,-5.17578 0,-3.105 -2.4,-5.625 -5.35714,-5.625 z"
         style="fill:#000000;fill-opacity:1;stroke:none;stroke-width:0.354331;stroke-linecap:round;stroke-linejoin:round;stroke-miterlimit:4;stroke-dasharray:1.41732, 1.41732;stroke-dashoffset:0;stroke-opacity:1" />
      <path
         sodipodi:nodetypes="ccccsccccccscccc"
         id="path5564"
         d="m 724.42855,213.36219 c -1.77429,0 -3.21429,1.512 -3.21429,3.375 0.0155,1.17242 0.62044,2.16316 1.25,3.10547 -0.70174,-0.53102 -1.48163,-0.85216 -2.32143,-0.85547 -1.77428,0 -3.21428,1.512 -3.21428,3.375 0,1.863 1.44,3.375 3.21428,3.375 1.43732,-0.024 2.58688,-1.02973 3.71652,-1.875 -0.20214,2.52493 -0.61331,3.94258 -3.00223,4.5 1.78572,0 5.35714,0 7.14286,0 -2.38892,-0.55742 -2.80009,-1.97507 -3.00223,-4.5 1.11655,0.95704 2.28754,1.7689 3.71651,1.875 1.77429,0 3.21429,-1.512 3.21429,-3.375 0,-1.863 -1.44,-3.375 -3.21429,-3.375 -0.86134,-9e-5 -1.60532,0.39627 -2.32142,0.85547 0.71256,-0.9326 1.1816,-1.93891 1.25,-3.10547 0,-1.863 -1.44,-3.375 -3.21429,-3.375 z"
         style="fill:#000000;fill-opacity:1;stroke:none;stroke-width:0.354331;stroke-linecap:round;stroke-linejoin:round;stroke-miterlimit:4;stroke-dasharray:1.41732, 1.41732;stroke-dashoffset:0;stroke-opacity:1" />
      <path
         sodipodi:nodetypes="ccccsccccccscccc"
         id="path5566"
         d="m 723.42855,192.36219 c -1.77429,0 -3.21429,1.512 -3.21429,3.375 0.0155,1.17242 0.62044,2.16316 1.25,3.10547 -0.70174,-0.53102 -1.48163,-0.85216 -2.32143,-0.85547 -1.77428,0 -3.21428,1.512 -3.21428,3.375 0,1.863 1.44,3.375 3.21428,3.375 1.43732,-0.024 2.58688,-1.02973 3.71652,-1.875 -0.20214,2.52493 -0.61331,3.94258 -3.00223,4.5 1.78572,0 5.35714,0 7.14286,0 -2.38892,-0.55742 -2.80009,-1.97507 -3.00223,-4.5 1.11655,0.95704 2.28754,1.7689 3.71651,1.875 1.77429,0 3.21429,-1.512 3.21429,-3.375 0,-1.863 -1.44,-3.375 -3.21429,-3.375 -0.86134,-9e-5 -1.60532,0.39627 -2.32142,0.85547 0.71256,-0.9326 1.1816,-1.93891 1.25,-3.10547 0,-1.863 -1.44,-3.375 -3.21429,-3.375 z"
         style="fill:#000000;fill-opacity:1;stroke:none;stroke-width:0.354331;stroke-linecap:round;stroke-linejoin:round;stroke-miterlimit:4;stroke-dasharray:1.41732, 1.41732;stroke-dashoffset:0;stroke-opacity:1" />
      <path
         sodipodi:nodetypes="ccccsccccccscccc"
         id="path5568"
         d="m 704.42855,206.36219 c -1.77429,0 -3.21429,1.512 -3.21429,3.375 0.0155,1.17242 0.62044,2.16316 1.25,3.10547 -0.70174,-0.53102 -1.48163,-0.85216 -2.32143,-0.85547 -1.77428,0 -3.21428,1.512 -3.21428,3.375 0,1.863 1.44,3.375 3.21428,3.375 1.43732,-0.024 2.58688,-1.02973 3.71652,-1.875 -0.20214,2.52493 -0.61331,3.94258 -3.00223,4.5 1.78572,0 5.35714,0 7.14286,0 -2.38892,-0.55742 -2.80009,-1.97507 -3.00223,-4.5 1.11655,0.95704 2.28754,1.7689 3.71651,1.875 1.77429,0 3.21429,-1.512 3.21429,-3.375 0,-1.863 -1.44,-3.375 -3.21429,-3.375 -0.86134,-9e-5 -1.60532,0.39627 -2.32142,0.85547 0.71256,-0.9326 1.1816,-1.93891 1.25,-3.10547 0,-1.863 -1.44,-3.375 -3.21429,-3.375 z"
         style="fill:#000000;fill-opacity:1;stroke:none;stroke-width:0.354331;stroke-linecap:round;stroke-linejoin:round;stroke-miterlimit:4;stroke-dasharray:1.41732, 1.41732;stroke-dashoffset:0;stroke-opacity:1" />
      <path
         sodipodi:nodetypes="ccccsccccccscccc"
         id="path5570"
         d="m 715.42855,235.36219 c -1.77429,0 -3.21429,1.512 -3.21429,3.375 0.0155,1.17242 0.62044,2.16316 1.25,3.10547 -0.70174,-0.53102 -1.48163,-0.85216 -2.32143,-0.85547 -1.77428,0 -3.21428,1.512 -3.21428,3.375 0,1.863 1.44,3.375 3.21428,3.375 1.43732,-0.024 2.58688,-1.02973 3.71652,-1.875 -0.20214,2.52493 -0.61331,3.94258 -3.00223,4.5 1.78572,0 5.35714,0 7.14286,0 -2.38892,-0.55742 -2.80009,-1.97507 -3.00223,-4.5 1.11655,0.95704 2.28754,1.7689 3.71651,1.875 1.77429,0 3.21429,-1.512 3.21429,-3.375 0,-1.863 -1.44,-3.375 -3.21429,-3.375 -0.86134,-9e-5 -1.60532,0.39627 -2.32142,0.85547 0.71256,-0.9326 1.1816,-1.93891 1.25,-3.10547 0,-1.863 -1.44,-3.375 -3.21429,-3.375 z"
         style="fill:#000000;fill-opacity:1;stroke:none;stroke-width:0.354331;stroke-linecap:round;stroke-linejoin:round;stroke-miterlimit:4;stroke-dasharray:1.41732, 1.41732;stroke-dashoffset:0;stroke-opacity:1" />
      <path
         sodipodi:nodetypes="ccccsccccccscccc"
         id="path5572"
         d="m 723.42855,252.36219 c -1.77429,0 -3.21429,1.512 -3.21429,3.375 0.0155,1.17242 0.62044,2.16316 1.25,3.10547 -0.70174,-0.53102 -1.48163,-0.85216 -2.32143,-0.85547 -1.77428,0 -3.21428,1.512 -3.21428,3.375 0,1.863 1.44,3.375 3.21428,3.375 1.43732,-0.024 2.58688,-1.02973 3.71652,-1.875 -0.20214,2.52493 -0.61331,3.94258 -3.00223,4.5 1.78572,0 5.35714,0 7.14286,0 -2.38892,-0.55742 -2.80009,-1.97507 -3.00223,-4.5 1.11655,0.95704 2.28754,1.7689 3.71651,1.875 1.77429,0 3.21429,-1.512 3.21429,-3.375 0,-1.863 -1.44,-3.375 -3.21429,-3.375 -0.86134,-9e-5 -1.60532,0.39627 -2.32142,0.85547 0.71256,-0.9326 1.1816,-1.93891 1.25,-3.10547 0,-1.863 -1.44,-3.375 -3.21429,-3.375 z"
         style="fill:#000000;fill-opacity:1;stroke:none;stroke-width:0.354331;stroke-linecap:round;stroke-linejoin:round;stroke-miterlimit:4;stroke-dasharray:1.41732, 1.41732;stroke-dashoffset:0;stroke-opacity:1" />
      <path
         sodipodi:nodetypes="ccccsccccccscccc"
         id="path5574"
         d="m 738.42855,236.36219 c -1.77429,0 -3.21429,1.512 -3.21429,3.375 0.0155,1.17242 0.62044,2.16316 1.25,3.10547 -0.70174,-0.53102 -1.48163,-0.85216 -2.32143,-0.85547 -1.77428,0 -3.21428,1.512 -3.21428,3.375 0,1.863 1.44,3.375 3.21428,3.375 1.43732,-0.024 2.58688,-1.02973 3.71652,-1.875 -0.20214,2.52493 -0.61331,3.94258 -3.00223,4.5 1.78572,0 5.35714,0 7.14286,0 -2.38892,-0.55742 -2.80009,-1.97507 -3.00223,-4.5 1.11655,0.95704 2.28754,1.7689 3.71651,1.875 1.77429,0 3.21429,-1.512 3.21429,-3.375 0,-1.863 -1.44,-3.375 -3.21429,-3.375 -0.86134,-9e-5 -1.60532,0.39627 -2.32142,0.85547 0.71256,-0.9326 1.1816,-1.93891 1.25,-3.10547 0,-1.863 -1.44,-3.375 -3.21429,-3.375 z"
         style="fill:#000000;fill-opacity:1;stroke:none;stroke-width:0.354331;stroke-linecap:round;stroke-linejoin:round;stroke-miterlimit:4;stroke-dasharray:1.41732, 1.41732;stroke-dashoffset:0;stroke-opacity:1" />
      <path
         sodipodi:nodetypes="ccccsccccccscccc"
         id="path5576"
         d="m 746.42855,215.36219 c -1.77429,0 -3.21429,1.512 -3.21429,3.375 0.0155,1.17242 0.62044,2.16316 1.25,3.10547 -0.70174,-0.53102 -1.48163,-0.85216 -2.32143,-0.85547 -1.77428,0 -3.21428,1.512 -3.21428,3.375 0,1.863 1.44,3.375 3.21428,3.375 1.43732,-0.024 2.58688,-1.02973 3.71652,-1.875 -0.20214,2.52493 -0.61331,3.94258 -3.00223,4.5 1.78572,0 5.35714,0 7.14286,0 -2.38892,-0.55742 -2.80009,-1.97507 -3.00223,-4.5 1.11655,0.95704 2.28754,1.7689 3.71651,1.875 1.77429,0 3.21429,-1.512 3.21429,-3.375 0,-1.863 -1.44,-3.375 -3.21429,-3.375 -0.86134,-9e-5 -1.60532,0.39627 -2.32142,0.85547 0.71256,-0.9326 1.1816,-1.93891 1.25,-3.10547 0,-1.863 -1.44,-3.375 -3.21429,-3.375 z"
         style="fill:#000000;fill-opacity:1;stroke:none;stroke-width:0.354331;stroke-linecap:round;stroke-linejoin:round;stroke-miterlimit:4;stroke-dasharray:1.41732, 1.41732;stroke-dashoffset:0;stroke-opacity:1" />
      <path
         sodipodi:nodetypes="ccccsccccccscccc"
         id="path5578"
         d="m 739.42855,201.36219 c -1.77429,0 -3.21429,1.512 -3.21429,3.375 0.0155,1.17242 0.62044,2.16316 1.25,3.10547 -0.70174,-0.53102 -1.48163,-0.85216 -2.32143,-0.85547 -1.77428,0 -3.21428,1.512 -3.21428,3.375 0,1.863 1.44,3.375 3.21428,3.375 1.43732,-0.024 2.58688,-1.02973 3.71652,-1.875 -0.20214,2.52493 -0.61331,3.94258 -3.00223,4.5 1.78572,0 5.35714,0 7.14286,0 -2.38892,-0.55742 -2.80009,-1.97507 -3.00223,-4.5 1.11655,0.95704 2.28754,1.7689 3.71651,1.875 1.77429,0 3.21429,-1.512 3.21429,-3.375 0,-1.863 -1.44,-3.375 -3.21429,-3.375 -0.86134,-9e-5 -1.60532,0.39627 -2.32142,0.85547 0.71256,-0.9326 1.1816,-1.93891 1.25,-3.10547 0,-1.863 -1.44,-3.375 -3.21429,-3.375 z"
         style="fill:#000000;fill-opacity:1;stroke:none;stroke-width:0.354331;stroke-linecap:round;stroke-linejoin:round;stroke-miterlimit:4;stroke-dasharray:1.41732, 1.41732;stroke-dashoffset:0;stroke-opacity:1" />
    </g>
  </g>
</svg>
