<?xml version="1.0" encoding="UTF-8" standalone="no"?>
<!-- Created with Inkscape (http://www.inkscape.org/) -->

<svg
   width="210mm"
   height="297mm"
   viewBox="0 0 210 297"
   version="1.1"
   id="svg1955"
   inkscape:version="1.2.2 (732a01da63, 2022-12-09)"
   sodipodi:docname="9H.svg"
   xmlns:inkscape="http://www.inkscape.org/namespaces/inkscape"
   xmlns:sodipodi="http://sodipodi.sourceforge.net/DTD/sodipodi-0.dtd"
   xmlns="http://www.w3.org/2000/svg"
   xmlns:svg="http://www.w3.org/2000/svg">
  <sodipodi:namedview
     id="namedview1957"
     pagecolor="#ffffff"
     bordercolor="#000000"
     borderopacity="0.25"
     inkscape:showpageshadow="2"
     inkscape:pageopacity="0.0"
     inkscape:pagecheckerboard="0"
     inkscape:deskcolor="#d1d1d1"
     inkscape:document-units="mm"
     showgrid="false"
     inkscape:zoom="1.6352936"
     inkscape:cx="117.10436"
     inkscape:cy="64.820166"
     inkscape:window-width="725"
     inkscape:window-height="439"
     inkscape:window-x="866"
     inkscape:window-y="423"
     inkscape:window-maximized="0"
     inkscape:current-layer="layer1" />
  <defs
     id="defs1952" />
  <g
     inkscape:label="Layer 1"
     inkscape:groupmode="layer"
     id="layer1">
    <g
       id="g14456"
       transform="matrix(0.26458333,0,0,0.26458333,-179.11418,-76.163536)">
      <g
         transform="translate(656.10984,277.92857)"
         id="g4626">
        <rect
           style="fill:#000000;fill-opacity:1;stroke:none;stroke-width:3;stroke-linecap:butt;stroke-linejoin:round;stroke-miterlimit:4;stroke-dasharray:none;stroke-opacity:1"
           id="rect4628"
           width="90"
           height="135"
           x="20.85714"
           y="9.9336166"
           ry="14.04" />
        <rect
           style="fill:#f2f2f2;fill-opacity:1;stroke:none;stroke-width:3;stroke-linecap:butt;stroke-linejoin:round;stroke-miterlimit:4;stroke-dasharray:none;stroke-opacity:1"
           id="rect4630"
           width="80"
           height="125"
           x="25.85714"
           y="14.933617"
           ry="13" />
      </g>
      <path
         id="text4692"
         d="m 740.32687,356.46645 0.32,0.96 c 0.0533,0.32004 0.18662,0.66671 0.4,1.04 l 0.08,0.4 c -3.25337,1.28004 -6.48004,2.64004 -9.68,4.08 -3.1467,1.3867 -6.24003,2.9067 -9.28,4.56 -3.04002,1.65337 -5.97335,3.4667 -8.8,5.44 -2.82668,1.97336 -5.49334,4.16003 -8,6.56 h -0.16 c -0.37334,-0.42664 -0.69334,-0.87998 -0.96,-1.36 -0.21334,-0.47998 -0.45334,-0.95998 -0.72,-1.44 l 0.32,0.16 c 5.11999,-4.6933 10.79998,-8.7733 17.04,-12.24 6.23997,-3.46663 12.6933,-6.21329 19.36,-8.24 l 0.08,0.08 m -18.56,-12.72 c 1.81331,0.10672 3.62664,0.42672 5.44,0.96 1.86664,0.48006 3.59997,1.20006 5.2,2.16 1.59996,0.90672 3.0133,2.05339 4.24,3.44 1.27996,1.38672 2.29329,2.96005 3.04,4.72 h 0.24 c -6.77337,2.40004 -13.30669,5.20004 -19.6,8.4 -6.24002,3.1467 -12.02668,7.09336 -17.36,11.84 -0.26667,3e-5 -0.48,-0.29331 -0.64,-0.88 -0.16,-0.63997 -0.29334,-1.3333 -0.4,-2.08 -0.10667,-0.79997 -0.18667,-1.54664 -0.24,-2.24 -0.0533,-0.74663 -0.08,-1.22663 -0.08,-1.44 v -1.6 c 0,-2.82663 0.45333,-5.62663 1.36,-8.4 0.95999,-2.82662 2.29333,-5.33328 4,-7.52 1.70666,-2.23995 3.75999,-4.02661 6.16,-5.36 2.39998,-1.38661 5.06665,-2.07994 8,-2.08 h 0.56 l 0.08,0.08 m 3.36,41.52 c -0.90669,0.32002 -1.84002,0.61335 -2.8,0.88 -0.90669,0.21335 -1.84002,0.32002 -2.8,0.32 h -0.4 c -2.45335,-0.0533 -4.85335,-0.55998 -7.2,-1.52 -2.29334,-1.01332 -4.26668,-2.47998 -5.92,-4.4 l -0.24,-0.4 c 5.38665,-4.26664 11.06665,-8.02664 17.04,-11.28 5.9733,-3.30663 12.15996,-6.31996 18.56,-9.04 l 0.08,0.08 c 0.15996,1.28004 0.31996,2.53337 0.48,3.76 0.15996,1.2267 0.29329,2.5067 0.4,3.84 -0.10671,3.52003 -0.64004,6.93336 -1.6,10.24 -0.96004,3.25335 -2.24004,6.40002 -3.84,9.44 -1.60004,3.04001 -3.49337,5.94668 -5.68,8.72 -2.13336,2.72 -4.45336,5.28 -6.96,7.68 h -0.16 c -1.06669,-0.96 -2.08002,-2 -3.04,-3.12 -0.90669,-1.12 -1.94669,-2.13333 -3.12,-3.04 l 0.16,-0.16 c 3.35998,-3.83999 6.18664,-7.99999 8.48,-12.48 2.2933,-4.53331 3.99997,-9.30664 5.12,-14.32 -0.7467,2.61336 -1.7067,5.14669 -2.88,7.6 -1.12003,2.45335 -2.32003,4.85335 -3.6,7.2 h -0.08"
         style="font-style:normal;font-variant:normal;font-weight:normal;font-stretch:normal;font-size:80px;line-height:125%;font-family:'Airmole Stripe';-inkscape-font-specification:'Airmole Stripe';text-align:start;writing-mode:lr-tb;text-anchor:start;fill:#800000;fill-opacity:1;stroke:none;stroke-width:1px;stroke-linecap:butt;stroke-linejoin:miter;stroke-opacity:1" />
      <path
         id="text5337"
         d="m 729.6906,308.16798 c -2e-5,1.63335 -0.10372,3.12408 -0.31111,4.47222 -0.20743,1.3352 -0.47965,2.46945 -0.81667,3.40278 -0.33705,0.93334 -0.75187,1.76297 -1.24444,2.48889 -0.49261,0.71296 -1.00465,1.28333 -1.53612,1.71111 -0.51853,0.41482 -1.09538,0.75185 -1.73055,1.01111 -0.62224,0.27222 -1.21205,0.45371 -1.76945,0.54445 -0.55741,0.1037 -1.14075,0.15555 -1.75,0.15555 -1.4,0 -2.67037,-0.28518 -3.81111,-0.85555 -1.14074,-0.57037 -2.04815,-1.36111 -2.72222,-2.37223 -0.66111,-1.0111 -1.01111,-2.14536 -1.05,-3.40277 h 4.74445 c 0.0518,0.73889 0.34999,1.3287 0.89444,1.76944 0.54444,0.44075 1.24444,0.66112 2.1,0.66111 2.73517,10e-6 4.10276,-2.35277 4.10278,-7.05833 -0.013,0.013 -0.12964,0.14908 -0.35,0.40833 -0.22039,0.24631 -0.3889,0.42779 -0.50556,0.54445 -0.10371,0.10371 -0.30464,0.27223 -0.60278,0.50555 -0.29816,0.23334 -0.58982,0.40834 -0.875,0.525 -0.27223,0.10371 -0.62871,0.20742 -1.06944,0.31111 -0.42779,0.10371 -0.88149,0.15557 -1.36111,0.15556 -2.20371,1e-5 -3.9926,-0.79721 -5.36667,-2.39167 -1.37407,-1.59443 -2.06111,-3.6685 -2.06111,-6.22222 0,-2.59257 0.7713,-4.69905 2.31389,-6.31944 1.55555,-1.62035 3.57129,-2.43053 6.04722,-2.43056 0.54444,3e-5 1.07592,0.0454 1.59445,0.13611 0.5185,0.0778 1.06943,0.23984 1.65277,0.48611 0.59629,0.24632 1.14721,0.56392 1.65278,0.95278 0.51851,0.37595 1.01758,0.88799 1.49722,1.53611 0.47962,0.63521 0.88795,1.3741 1.225,2.21667 0.33702,0.84261 0.60276,1.86668 0.79723,3.07222 0.20739,1.20557 0.31109,2.53427 0.31111,3.98611 m -8.86667,-8.4 c -1.07593,2e-5 -1.93797,0.4278 -2.58611,1.28333 -0.64815,0.84262 -0.97223,1.97687 -0.97222,3.40278 -10e-6,1.42594 0.32407,2.55372 0.97222,3.38334 0.6611,0.82964 1.55555,1.24445 2.68333,1.24444 1.11481,1e-5 2.02221,-0.4148 2.72223,-1.24444 0.69998,-0.84258 1.04998,-1.94443 1.05,-3.30556 -2e-5,-1.4648 -0.35002,-2.62498 -1.05,-3.48056 -0.70002,-0.85553 -1.63983,-1.28331 -2.81945,-1.28333"
         style="font-style:normal;font-variant:normal;font-weight:bold;font-stretch:normal;font-size:35px;line-height:125%;font-family:AlMothnna;-inkscape-font-specification:'AlMothnna Bold';text-align:start;writing-mode:lr-tb;text-anchor:start;fill:#aa0000;fill-opacity:1;stroke:none;stroke-width:1px;stroke-linecap:butt;stroke-linejoin:miter;stroke-opacity:1" />
      <path
         sodipodi:nodetypes="ccccccc"
         id="path5456"
         d="m 696.93962,305.29639 c 0.6064,-3.125 1.8192,-6.25 6.064,-6.25 4.24481,0 7.58001,3.125 6.06401,9.375 -1.516,6.25 -8.48961,9.375 -12.12801,15.625 -3.6384,-6.25 -10.612,-9.375 -12.128,-15.625 -1.516,-6.25 1.8192,-9.375 6.064,-9.375 4.2448,0 5.4576,3.125 6.064,6.25 z"
         style="fill:#d40000;fill-opacity:1;stroke:none;stroke-width:0.354331;stroke-linecap:round;stroke-linejoin:round;stroke-miterlimit:4;stroke-dasharray:1.41732, 1.41732;stroke-dashoffset:0;stroke-opacity:1" />
      <path
         sodipodi:nodetypes="ccccccc"
         id="path5642"
         d="m 721.42855,358.11219 c 0.36384,-1.875 1.09152,-3.75 3.6384,-3.75 2.54688,0 4.548,1.875 3.6384,5.625 -0.9096,3.75 -5.09376,5.625 -7.2768,9.375 -2.18304,-3.75 -6.3672,-5.625 -7.2768,-9.375 -0.9096,-3.75 1.09152,-5.625 3.6384,-5.625 2.54688,0 3.27456,1.875 3.6384,3.75 z"
         style="fill:#d40000;fill-opacity:1;stroke:none;stroke-width:0.354331;stroke-linecap:round;stroke-linejoin:round;stroke-miterlimit:4;stroke-dasharray:1.41732, 1.41732;stroke-dashoffset:0;stroke-opacity:1" />
      <path
         sodipodi:nodetypes="ccccccc"
         id="path5684"
         d="m 723.42855,336.11219 c 0.36384,-1.875 1.09152,-3.75 3.6384,-3.75 2.54688,0 4.548,1.875 3.6384,5.625 -0.9096,3.75 -5.09376,5.625 -7.2768,9.375 -2.18304,-3.75 -6.3672,-5.625 -7.2768,-9.375 -0.9096,-3.75 1.09152,-5.625 3.6384,-5.625 2.54688,0 3.27456,1.875 3.6384,3.75 z"
         style="fill:#d40000;fill-opacity:1;stroke:none;stroke-width:0.354331;stroke-linecap:round;stroke-linejoin:round;stroke-miterlimit:4;stroke-dasharray:1.41732, 1.41732;stroke-dashoffset:0;stroke-opacity:1" />
      <path
         sodipodi:nodetypes="ccccccc"
         id="path5686"
         d="m 703.42855,348.11219 c 0.36384,-1.875 1.09152,-3.75 3.6384,-3.75 2.54688,0 4.548,1.875 3.6384,5.625 -0.9096,3.75 -5.09376,5.625 -7.2768,9.375 -2.18304,-3.75 -6.3672,-5.625 -7.2768,-9.375 -0.9096,-3.75 1.09152,-5.625 3.6384,-5.625 2.54688,0 3.27456,1.875 3.6384,3.75 z"
         style="fill:#d40000;fill-opacity:1;stroke:none;stroke-width:0.354331;stroke-linecap:round;stroke-linejoin:round;stroke-miterlimit:4;stroke-dasharray:1.41732, 1.41732;stroke-dashoffset:0;stroke-opacity:1" />
      <path
         sodipodi:nodetypes="ccccccc"
         id="path5688"
         d="m 703.42855,369.11219 c 0.36384,-1.875 1.09152,-3.75 3.6384,-3.75 2.54688,0 4.548,1.875 3.6384,5.625 -0.9096,3.75 -5.09376,5.625 -7.2768,9.375 -2.18304,-3.75 -6.3672,-5.625 -7.2768,-9.375 -0.9096,-3.75 1.09152,-5.625 3.6384,-5.625 2.54688,0 3.27456,1.875 3.6384,3.75 z"
         style="fill:#d40000;fill-opacity:1;stroke:none;stroke-width:0.354331;stroke-linecap:round;stroke-linejoin:round;stroke-miterlimit:4;stroke-dasharray:1.41732, 1.41732;stroke-dashoffset:0;stroke-opacity:1" />
      <path
         sodipodi:nodetypes="ccccccc"
         id="path5690"
         d="m 718.42855,381.11219 c 0.36384,-1.875 1.09152,-3.75 3.6384,-3.75 2.54688,0 4.548,1.875 3.6384,5.625 -0.9096,3.75 -5.09376,5.625 -7.2768,9.375 -2.18304,-3.75 -6.3672,-5.625 -7.2768,-9.375 -0.9096,-3.75 1.09152,-5.625 3.6384,-5.625 2.54688,0 3.27456,1.875 3.6384,3.75 z"
         style="fill:#d40000;fill-opacity:1;stroke:none;stroke-width:0.354331;stroke-linecap:round;stroke-linejoin:round;stroke-miterlimit:4;stroke-dasharray:1.41732, 1.41732;stroke-dashoffset:0;stroke-opacity:1" />
      <path
         sodipodi:nodetypes="ccccccc"
         id="path5692"
         d="m 724.42855,396.11219 c 0.36384,-1.875 1.09152,-3.75 3.6384,-3.75 2.54688,0 4.548,1.875 3.6384,5.625 -0.9096,3.75 -5.09376,5.625 -7.2768,9.375 -2.18304,-3.75 -6.3672,-5.625 -7.2768,-9.375 -0.9096,-3.75 1.09152,-5.625 3.6384,-5.625 2.54688,0 3.27456,1.875 3.6384,3.75 z"
         style="fill:#d40000;fill-opacity:1;stroke:none;stroke-width:0.354331;stroke-linecap:round;stroke-linejoin:round;stroke-miterlimit:4;stroke-dasharray:1.41732, 1.41732;stroke-dashoffset:0;stroke-opacity:1" />
      <path
         sodipodi:nodetypes="ccccccc"
         id="path5694"
         d="m 740.42855,381.11219 c 0.36384,-1.875 1.09152,-3.75 3.6384,-3.75 2.54688,0 4.548,1.875 3.6384,5.625 -0.9096,3.75 -5.09376,5.625 -7.2768,9.375 -2.18304,-3.75 -6.3672,-5.625 -7.2768,-9.375 -0.9096,-3.75 1.09152,-5.625 3.6384,-5.625 2.54688,0 3.27456,1.875 3.6384,3.75 z"
         style="fill:#d40000;fill-opacity:1;stroke:none;stroke-width:0.354331;stroke-linecap:round;stroke-linejoin:round;stroke-miterlimit:4;stroke-dasharray:1.41732, 1.41732;stroke-dashoffset:0;stroke-opacity:1" />
      <path
         sodipodi:nodetypes="ccccccc"
         id="path5696"
         d="m 741.42855,360.11219 c 0.36384,-1.875 1.09152,-3.75 3.6384,-3.75 2.54688,0 4.548,1.875 3.6384,5.625 -0.9096,3.75 -5.09376,5.625 -7.2768,9.375 -2.18304,-3.75 -6.3672,-5.625 -7.2768,-9.375 -0.9096,-3.75 1.09152,-5.625 3.6384,-5.625 2.54688,0 3.27456,1.875 3.6384,3.75 z"
         style="fill:#d40000;fill-opacity:1;stroke:none;stroke-width:0.354331;stroke-linecap:round;stroke-linejoin:round;stroke-miterlimit:4;stroke-dasharray:1.41732, 1.41732;stroke-dashoffset:0;stroke-opacity:1" />
      <path
         sodipodi:nodetypes="ccccccc"
         id="path5698"
         d="m 737.42855,342.11219 c 0.36384,-1.875 1.09152,-3.75 3.6384,-3.75 2.54688,0 4.548,1.875 3.6384,5.625 -0.9096,3.75 -5.09376,5.625 -7.2768,9.375 -2.18304,-3.75 -6.3672,-5.625 -7.2768,-9.375 -0.9096,-3.75 1.09152,-5.625 3.6384,-5.625 2.54688,0 3.27456,1.875 3.6384,3.75 z"
         style="fill:#d40000;fill-opacity:1;stroke:none;stroke-width:0.354331;stroke-linecap:round;stroke-linejoin:round;stroke-miterlimit:4;stroke-dasharray:1.41732, 1.41732;stroke-dashoffset:0;stroke-opacity:1" />
    </g>
  </g>
</svg>
