<?xml version="1.0" encoding="UTF-8" standalone="no"?>
<!-- Created with Inkscape (http://www.inkscape.org/) -->

<svg
   width="210mm"
   height="297mm"
   viewBox="0 0 210 297"
   version="1.1"
   id="svg1955"
   inkscape:version="1.2.2 (732a01da63, 2022-12-09)"
   sodipodi:docname="9S.svg"
   xmlns:inkscape="http://www.inkscape.org/namespaces/inkscape"
   xmlns:sodipodi="http://sodipodi.sourceforge.net/DTD/sodipodi-0.dtd"
   xmlns="http://www.w3.org/2000/svg"
   xmlns:svg="http://www.w3.org/2000/svg">
  <sodipodi:namedview
     id="namedview1957"
     pagecolor="#ffffff"
     bordercolor="#000000"
     borderopacity="0.25"
     inkscape:showpageshadow="2"
     inkscape:pageopacity="0.0"
     inkscape:pagecheckerboard="0"
     inkscape:deskcolor="#d1d1d1"
     inkscape:document-units="mm"
     showgrid="false"
     inkscape:zoom="1.6352936"
     inkscape:cx="117.10436"
     inkscape:cy="55.647501"
     inkscape:window-width="725"
     inkscape:window-height="439"
     inkscape:window-x="858"
     inkscape:window-y="349"
     inkscape:window-maximized="0"
     inkscape:current-layer="layer1" />
  <defs
     id="defs1952" />
  <g
     inkscape:label="Layer 1"
     inkscape:groupmode="layer"
     id="layer1">
    <g
       id="g13870"
       transform="matrix(0.26458333,0,0,0.26458333,-179.22758,-1.8250693)">
      <g
         transform="translate(656.53843,-3.035717)"
         id="g4350">
        <rect
           style="fill:#000000;fill-opacity:1;stroke:none;stroke-width:3;stroke-linecap:butt;stroke-linejoin:round;stroke-miterlimit:4;stroke-dasharray:none;stroke-opacity:1"
           id="rect4352"
           width="90"
           height="135"
           x="20.85714"
           y="9.9336166"
           ry="14.04" />
        <rect
           style="fill:#f2f2f2;fill-opacity:1;stroke:none;stroke-width:3;stroke-linecap:butt;stroke-linejoin:round;stroke-miterlimit:4;stroke-dasharray:none;stroke-opacity:1"
           id="rect4354"
           width="80"
           height="125"
           x="25.85714"
           y="14.933617"
           ry="13" />
      </g>
      <path
         id="text4416"
         d="m 740.75546,75.502179 0.32,0.96 c 0.0533,0.320044 0.18662,0.66671 0.4,1.04 l 0.08,0.4 c -3.25337,1.280041 -6.48004,2.64004 -9.68,4.08 -3.1467,1.386704 -6.24003,2.906702 -9.28,4.56 -3.04002,1.653366 -5.97335,3.466697 -8.8,5.44 -2.82668,1.97336 -5.49334,4.160025 -8,6.56 h -0.16 c -0.37334,-0.426644 -0.69334,-0.879977 -0.96,-1.36 -0.21334,-0.479976 -0.45334,-0.959976 -0.72,-1.44 l 0.32,0.16 c 5.11999,-4.693304 10.79998,-8.7733 17.04,-12.24 6.23997,-3.466626 12.6933,-6.21329 19.36,-8.24 l 0.08,0.08 m -18.56,-12.72 c 1.81331,0.106724 3.62664,0.426724 5.44,0.96 1.86663,0.480056 3.59997,1.200056 5.2,2.16 1.59996,0.906721 3.0133,2.053386 4.24,3.44 1.27996,1.386717 2.29329,2.960048 3.04,4.72 h 0.24 c -6.77337,2.400044 -13.3067,5.200041 -19.6,8.4 -6.24002,3.146702 -12.02668,7.093364 -17.36,11.84 -0.26667,2.6e-5 -0.48001,-0.293307 -0.64,-0.88 -0.16,-0.639972 -0.29334,-1.333305 -0.4,-2.08 -0.10667,-0.79997 -0.18667,-1.546636 -0.24,-2.24 -0.0533,-0.746634 -0.08,-1.226634 -0.08,-1.44 v -1.6 c 0,-2.826629 0.45333,-5.626626 1.36,-8.4 0.95999,-2.826621 2.29333,-5.333285 4,-7.52 1.70666,-2.239947 3.75999,-4.026612 6.16,-5.36 2.39998,-1.386609 5.06665,-2.079942 8,-2.08 h 0.56 l 0.08,0.08 m 3.36,41.520001 c -0.90669,0.32002 -1.84003,0.61335 -2.8,0.88 -0.90669,0.21335 -1.84002,0.32001 -2.8,0.32 h -0.4 c -2.45335,-0.0533 -4.85335,-0.55999 -7.2,-1.52 -2.29335,-1.01332 -4.26668,-2.47998 -5.92,-4.400001 l -0.24,-0.4 c 5.38665,-4.266641 11.06665,-8.026637 17.04,-11.28 5.9733,-3.306631 12.15996,-6.319961 18.56,-9.04 l 0.08,0.08 c 0.15996,1.28004 0.31996,2.533373 0.48,3.76 0.15996,1.226703 0.29329,2.506702 0.4,3.84 -0.10671,3.520031 -0.64004,6.933361 -1.6,10.24 -0.96004,3.253351 -2.24004,6.400021 -3.84,9.440001 -1.60004,3.04001 -3.49337,5.94667 -5.68,8.72 -2.13337,2.72 -4.45336,5.28 -6.96,7.68 h -0.16 c -1.06669,-0.96 -2.08002,-2 -3.04,-3.12 -0.90669,-1.12 -1.94669,-2.13333 -3.12,-3.04 l 0.16,-0.16 c 3.35998,-3.83999 6.18664,-7.99999 8.48,-12.48 2.2933,-4.533313 3.99997,-9.306642 5.12,-14.320001 -0.7467,2.613362 -1.7067,5.146693 -2.88,7.6 -1.12003,2.453354 -2.32003,4.853351 -3.6,7.200001 h -0.08"
         style="font-style:normal;font-variant:normal;font-weight:normal;font-stretch:normal;font-size:80px;line-height:125%;font-family:'Airmole Stripe';-inkscape-font-specification:'Airmole Stripe';text-align:start;writing-mode:lr-tb;text-anchor:start;fill:#333333;fill-opacity:1;stroke:none;stroke-width:1px;stroke-linecap:butt;stroke-linejoin:miter;stroke-opacity:1" />
      <path
         sodipodi:nodetypes="ccsscssccc"
         id="path4913"
         d="m 690.24549,39.362194 c 4.5071,-1.001575 4.992,-3.641382 5.33204,-8.496093 -0.78317,1.296981 -2.20704,2.254106 -4.53125,2.246093 -3.8203,-0.01317 -6.37925,-2.234875 -5.46875,-7.03125 0.91796,-4.835737 7.79296,-6.710737 10.91796,-11.71875 3.125,5.008013 10,6.883013 10.91797,11.71875 0.9105,4.796382 -1.54298,7.017718 -5.46875,7.03125 -2.32422,0.008 -3.74808,-0.949112 -4.53125,-2.246093 0.34004,4.854711 0.82494,7.494518 5.33203,8.496093 -3.125,0 -9.375,0 -12.5,0 z"
         style="fill:#000000;fill-opacity:1;stroke:none;stroke-width:0.354331;stroke-linecap:round;stroke-linejoin:round;stroke-miterlimit:4;stroke-dasharray:1.41732, 1.41732;stroke-dashoffset:0;stroke-opacity:1" />
      <path
         sodipodi:nodetypes="ccsscssccc"
         id="path5101"
         d="m 723.5054,68.008641 c 2.70425,-0.60094 2.99519,-2.18483 3.19922,-5.09765 -0.4699,0.77818 -1.32422,1.35246 -2.71875,1.34765 -2.29218,-0.0079 -3.82755,-1.34092 -3.28125,-4.21875 0.55078,-2.90144 4.67578,-4.026438 6.55078,-7.03125 1.875,3.004812 6,4.12981 6.55078,7.03125 0.5463,2.87783 -0.92579,4.21063 -3.28125,4.21875 -1.39453,0.0048 -2.24885,-0.56947 -2.71875,-1.34765 0.20402,2.91282 0.49496,4.49671 3.19922,5.09765 -1.875,0 -5.625,0 -7.5,0 z"
         style="fill:#000000;fill-opacity:1;stroke:none;stroke-width:0.354331;stroke-linecap:round;stroke-linejoin:round;stroke-miterlimit:4;stroke-dasharray:1.41732, 1.41732;stroke-dashoffset:0;stroke-opacity:1" />
      <path
         sodipodi:nodetypes="ccsscssccc"
         id="path5103"
         d="m 704.73763,73.594427 c 2.70425,-0.60094 2.99519,-2.18483 3.19922,-5.09765 -0.4699,0.77818 -1.32422,1.35246 -2.71875,1.34765 -2.29218,-0.0079 -3.82755,-1.34092 -3.28125,-4.21875 0.55078,-2.90144 4.67578,-4.026438 6.55078,-7.03125 1.875,3.004812 6,4.12981 6.55078,7.03125 0.5463,2.87783 -0.92579,4.21063 -3.28125,4.21875 -1.39453,0.0048 -2.24885,-0.56947 -2.71875,-1.34765 0.20402,2.91282 0.49496,4.49671 3.19922,5.09765 -1.875,0 -5.625,0 -7.5,0 z"
         style="fill:#000000;fill-opacity:1;stroke:none;stroke-width:0.354331;stroke-linecap:round;stroke-linejoin:round;stroke-miterlimit:4;stroke-dasharray:1.41732, 1.41732;stroke-dashoffset:0;stroke-opacity:1" />
      <path
         sodipodi:nodetypes="ccsscssccc"
         id="path5105"
         d="m 696.55565,92.422854 c 2.70425,-0.60094 2.99519,-2.18483 3.19922,-5.09765 -0.4699,0.77818 -1.32422,1.35246 -2.71875,1.34765 -2.29218,-0.0079 -3.82755,-1.34092 -3.28125,-4.21875 0.55078,-2.90144 4.67578,-4.026438 6.55078,-7.03125 1.875,3.004812 6,4.12981 6.55078,7.03125 0.5463,2.87783 -0.92579,4.21063 -3.28125,4.21875 -1.39453,0.0048 -2.24885,-0.56947 -2.71875,-1.34765 0.20402,2.91282 0.49496,4.49671 3.19922,5.09765 -1.875,0 -5.625,0 -7.5,0 z"
         style="fill:#000000;fill-opacity:1;stroke:none;stroke-width:0.354331;stroke-linecap:round;stroke-linejoin:round;stroke-miterlimit:4;stroke-dasharray:1.41732, 1.41732;stroke-dashoffset:0;stroke-opacity:1" />
      <path
         sodipodi:nodetypes="ccsscssccc"
         id="path5107"
         d="m 716.67697,92.36219 c 2.70425,-0.60094 2.99519,-2.18483 3.19922,-5.09765 -0.4699,0.77818 -1.32422,1.35246 -2.71875,1.34765 -2.29218,-0.0079 -3.82755,-1.34092 -3.28125,-4.218746 0.55078,-2.90144 4.67578,-4.026438 6.55078,-7.03125 1.875,3.004812 6,4.12981 6.55078,7.03125 0.5463,2.877826 -0.92579,4.210626 -3.28125,4.218746 -1.39453,0.0048 -2.24885,-0.56947 -2.71875,-1.34765 0.20402,2.91282 0.49496,4.49671 3.19922,5.09765 -1.875,0 -5.625,0 -7.5,0 z"
         style="fill:#000000;fill-opacity:1;stroke:none;stroke-width:0.354331;stroke-linecap:round;stroke-linejoin:round;stroke-miterlimit:4;stroke-dasharray:1.41732, 1.41732;stroke-dashoffset:0;stroke-opacity:1" />
      <path
         sodipodi:nodetypes="ccsscssccc"
         id="path5109"
         d="m 716.44474,127.60483 c 2.70425,-0.60094 2.99519,-2.18483 3.19922,-5.09765 -0.4699,0.77818 -1.32422,1.35246 -2.71875,1.34765 -2.29218,-0.008 -3.82755,-1.34092 -3.28125,-4.21875 0.55078,-2.90144 4.67578,-4.02643 6.55078,-7.03125 1.875,3.00482 6,4.12981 6.55078,7.03125 0.5463,2.87783 -0.92579,4.21063 -3.28125,4.21875 -1.39453,0.005 -2.24885,-0.56947 -2.71875,-1.34765 0.20402,2.91282 0.49496,4.49671 3.19922,5.09765 -1.875,0 -5.625,0 -7.5,0 z"
         style="fill:#000000;fill-opacity:1;stroke:none;stroke-width:0.354331;stroke-linecap:round;stroke-linejoin:round;stroke-miterlimit:4;stroke-dasharray:1.41732, 1.41732;stroke-dashoffset:0;stroke-opacity:1" />
      <path
         sodipodi:nodetypes="ccsscssccc"
         id="path5111"
         d="m 709.16047,110.29113 c 2.70425,-0.60094 2.99519,-2.18483 3.19922,-5.09765 -0.4699,0.77818 -1.32422,1.35246 -2.71875,1.34765 -2.29218,-0.008 -3.82755,-1.34092 -3.28125,-4.21875 0.55078,-2.901448 4.67578,-4.026438 6.55078,-7.031258 1.875,3.00482 6,4.12981 6.55078,7.031258 0.5463,2.87783 -0.92579,4.21063 -3.28125,4.21875 -1.39453,0.005 -2.24885,-0.56947 -2.71875,-1.34765 0.20402,2.91282 0.49496,4.49671 3.19922,5.09765 -1.875,0 -5.625,0 -7.5,0 z"
         style="fill:#000000;fill-opacity:1;stroke:none;stroke-width:0.354331;stroke-linecap:round;stroke-linejoin:round;stroke-miterlimit:4;stroke-dasharray:1.41732, 1.41732;stroke-dashoffset:0;stroke-opacity:1" />
      <path
         sodipodi:nodetypes="ccsscssccc"
         id="path5113"
         d="m 740.9092,98.544175 c 2.70425,-0.60094 2.99519,-2.18483 3.19922,-5.09765 -0.4699,0.77818 -1.32422,1.35246 -2.71875,1.34765 -2.29218,-0.0079 -3.82755,-1.34092 -3.28125,-4.21875 0.55078,-2.90144 4.67578,-4.026438 6.55078,-7.03125 1.875,3.004812 6,4.12981 6.55078,7.03125 0.5463,2.87783 -0.92579,4.21063 -3.28125,4.21875 -1.39453,0.0048 -2.24885,-0.56947 -2.71875,-1.34765 0.20402,2.91282 0.49496,4.49671 3.19922,5.09765 -1.875,0 -5.625,0 -7.5,0 z"
         style="fill:#000000;fill-opacity:1;stroke:none;stroke-width:0.354331;stroke-linecap:round;stroke-linejoin:round;stroke-miterlimit:4;stroke-dasharray:1.41732, 1.41732;stroke-dashoffset:0;stroke-opacity:1" />
      <path
         sodipodi:nodetypes="ccsscssccc"
         id="path5115"
         d="m 738.2125,79.483514 c 2.70425,-0.60094 2.99519,-2.18483 3.19922,-5.09765 -0.4699,0.77818 -1.32422,1.35246 -2.71875,1.34765 -2.29218,-0.0079 -3.82755,-1.34092 -3.28125,-4.21875 0.55078,-2.90144 4.67578,-4.026438 6.55078,-7.03125 1.875,3.004812 6,4.12981 6.55078,7.03125 0.5463,2.87783 -0.92579,4.21063 -3.28125,4.21875 -1.39453,0.0048 -2.24885,-0.56947 -2.71875,-1.34765 0.20402,2.91282 0.49496,4.49671 3.19922,5.09765 -1.875,0 -5.625,0 -7.5,0 z"
         style="fill:#000000;fill-opacity:1;stroke:none;stroke-width:0.354331;stroke-linecap:round;stroke-linejoin:round;stroke-miterlimit:4;stroke-dasharray:1.41732, 1.41732;stroke-dashoffset:0;stroke-opacity:1" />
      <path
         sodipodi:nodetypes="ccsscssccc"
         id="path5117"
         d="m 733.5054,117.52335 c 2.70425,-0.60094 2.99519,-2.18483 3.19922,-5.09765 -0.4699,0.77818 -1.32422,1.35246 -2.71875,1.34765 -2.29218,-0.008 -3.82755,-1.34092 -3.28125,-4.21875 0.55078,-2.90144 4.67578,-4.02643 6.55078,-7.03125 1.875,3.00482 6,4.12981 6.55078,7.03125 0.5463,2.87783 -0.92579,4.21063 -3.28125,4.21875 -1.39453,0.005 -2.24885,-0.56947 -2.71875,-1.34765 0.20402,2.91282 0.49496,4.49671 3.19922,5.09765 -1.875,0 -5.625,0 -7.5,0 z"
         style="fill:#000000;fill-opacity:1;stroke:none;stroke-width:0.354331;stroke-linecap:round;stroke-linejoin:round;stroke-miterlimit:4;stroke-dasharray:1.41732, 1.41732;stroke-dashoffset:0;stroke-opacity:1" />
      <path
         id="text5233"
         d="m 727.85875,25.041268 c -2e-5,1.633345 -0.10372,3.124084 -0.31111,4.472222 -0.20743,1.335193 -0.47965,2.469451 -0.81667,3.402778 -0.33705,0.933338 -0.75187,1.762966 -1.24444,2.488889 -0.49261,0.712965 -1.00465,1.283335 -1.53611,1.711111 -0.51854,0.414815 -1.09539,0.751852 -1.73056,1.011111 -0.62223,0.272222 -1.21205,0.453703 -1.76944,0.544445 -0.55742,0.103703 -1.14075,0.155554 -1.75,0.155555 -1.40001,-10e-7 -2.67038,-0.285185 -3.81111,-0.855555 -1.14075,-0.57037 -2.04816,-1.36111 -2.72223,-2.372223 -0.66111,-1.011107 -1.01111,-2.145365 -1.05,-3.402777 h 4.74445 c 0.0518,0.738894 0.34999,1.328708 0.89444,1.769444 0.54444,0.440744 1.24444,0.661115 2.1,0.661111 2.73518,4e-6 4.10277,-2.352772 4.10278,-7.058333 -0.013,0.01297 -0.12964,0.149084 -0.35,0.408333 -0.22038,0.246306 -0.3889,0.427788 -0.50556,0.544445 -0.10371,0.103713 -0.30464,0.272231 -0.60277,0.505555 -0.29816,0.233342 -0.58983,0.408342 -0.875,0.525 -0.27224,0.103712 -0.62872,0.207416 -1.06945,0.311111 -0.42779,0.103712 -0.88149,0.155564 -1.36111,0.155556 -2.20371,8e-6 -3.9926,-0.797214 -5.36667,-2.391667 -1.37407,-1.594432 -2.06111,-3.668504 -2.06111,-6.222222 0,-2.592573 0.7713,-4.699053 2.31389,-6.319444 1.55555,-1.620346 3.57129,-2.430531 6.04722,-2.430556 0.54444,2.5e-5 1.07592,0.0454 1.59445,0.136111 0.51851,0.0778 1.06943,0.23984 1.65278,0.486111 0.59628,0.246321 1.1472,0.563913 1.65277,0.952778 0.51851,0.375949 1.01758,0.887986 1.49723,1.536111 0.47961,0.635207 0.88794,1.374095 1.225,2.216667 0.33702,0.842612 0.60276,1.866685 0.79722,3.072222 0.20739,1.205571 0.31109,2.534274 0.31111,3.986111 m -8.86667,-8.4 c -1.07593,2.2e-5 -1.93797,0.427799 -2.58611,1.283333 -0.64815,0.842612 -0.97223,1.97687 -0.97222,3.402778 -1e-5,1.425941 0.32407,2.553718 0.97222,3.383334 0.66111,0.829642 1.55555,1.244456 2.68334,1.244444 1.1148,1.2e-5 2.02221,-0.414802 2.72222,-1.244444 0.69998,-0.842579 1.04998,-1.94443 1.05,-3.305556 -2e-5,-1.464797 -0.35002,-2.624981 -1.05,-3.480556 -0.70001,-0.855534 -1.63983,-1.283311 -2.81945,-1.283333"
         style="font-style:normal;font-variant:normal;font-weight:bold;font-stretch:normal;font-size:35px;line-height:125%;font-family:AlMothnna;-inkscape-font-specification:'AlMothnna Bold';text-align:start;writing-mode:lr-tb;text-anchor:start;fill:#000000;fill-opacity:1;stroke:none;stroke-width:1px;stroke-linecap:butt;stroke-linejoin:miter;stroke-opacity:1" />
    </g>
  </g>
</svg>
