<?xml version="1.0" encoding="UTF-8" standalone="no"?>
<!-- Created with Inkscape (http://www.inkscape.org/) -->

<svg
   width="210mm"
   height="297mm"
   viewBox="0 0 210 297"
   version="1.1"
   id="svg1955"
   inkscape:version="1.2.2 (732a01da63, 2022-12-09)"
   sodipodi:docname="KC.svg"
   xmlns:inkscape="http://www.inkscape.org/namespaces/inkscape"
   xmlns:sodipodi="http://sodipodi.sourceforge.net/DTD/sodipodi-0.dtd"
   xmlns="http://www.w3.org/2000/svg"
   xmlns:svg="http://www.w3.org/2000/svg">
  <sodipodi:namedview
     id="namedview1957"
     pagecolor="#ffffff"
     bordercolor="#000000"
     borderopacity="0.25"
     inkscape:showpageshadow="2"
     inkscape:pageopacity="0.0"
     inkscape:pagecheckerboard="0"
     inkscape:deskcolor="#d1d1d1"
     inkscape:document-units="mm"
     showgrid="false"
     inkscape:zoom="1.6352936"
     inkscape:cx="117.10436"
     inkscape:cy="64.820166"
     inkscape:window-width="725"
     inkscape:window-height="439"
     inkscape:window-x="849"
     inkscape:window-y="396"
     inkscape:window-maximized="0"
     inkscape:current-layer="layer1" />
  <defs
     id="defs1952" />
  <g
     inkscape:label="Layer 1"
     inkscape:groupmode="layer"
     id="layer1">
    <g
       id="g15643"
       transform="matrix(0.26458333,0,0,0.26458333,-280.90901,-38.857286)">
      <g
         transform="translate(1040.8462,136.92857)"
         id="g4514">
        <rect
           style="fill:#000000;fill-opacity:1;stroke:none;stroke-width:3;stroke-linecap:butt;stroke-linejoin:round;stroke-miterlimit:4;stroke-dasharray:none;stroke-opacity:1"
           id="rect4516"
           width="90"
           height="135"
           x="20.85714"
           y="9.9336166"
           ry="14.04" />
        <rect
           style="fill:#f2f2f2;fill-opacity:1;stroke:none;stroke-width:3;stroke-linecap:butt;stroke-linejoin:round;stroke-miterlimit:4;stroke-dasharray:none;stroke-opacity:1"
           id="rect4518"
           width="80"
           height="125"
           x="25.85714"
           y="14.933617"
           ry="13" />
      </g>
      <path
         id="text5301"
         d="m 1098.4107,170.70185 v 8.53611 h -5.25 v -25.53055 h 5.25 v 11.2 l 9.9944,-11.2 h 6.1834 l -10.2084,11.025 11.2973,14.50555 h -6.2806 l -8.3611,-11.27778 -2.625,2.74167"
         style="font-style:normal;font-variant:normal;font-weight:bold;font-stretch:normal;font-size:35px;line-height:125%;font-family:AlMothnna;-inkscape-font-specification:'AlMothnna Bold';text-align:start;writing-mode:lr-tb;text-anchor:start;fill:#000000;fill-opacity:1;stroke:none;stroke-width:1px;stroke-linecap:butt;stroke-linejoin:miter;stroke-opacity:1" />
      <path
         sodipodi:nodetypes="ccccsccccccscccc"
         id="path5438"
         d="m 1080.6758,154.79661 c -2.9572,0 -5.3572,2.52 -5.3572,5.625 0.026,1.95404 1.0341,3.60527 2.0834,5.17578 -1.1696,-0.88503 -2.4694,-1.42026 -3.8691,-1.42578 -2.9571,0 -5.3571,2.52 -5.3571,5.625 0,3.105 2.4,5.625 5.3571,5.625 2.3956,-0.0401 4.3115,-1.71621 6.1942,-3.125 -0.3369,4.20822 -1.0222,6.57097 -5.0037,7.5 2.9762,0 8.9286,0 11.9048,0 -3.9816,-0.92903 -4.6669,-3.29178 -5.0038,-7.5 1.861,1.59506 3.8126,2.94817 6.1942,3.125 2.9572,0 5.3572,-2.52 5.3572,-5.625 0,-3.105 -2.4,-5.625 -5.3572,-5.625 -1.4355,-1.5e-4 -2.6755,0.66045 -3.869,1.42578 1.1876,-1.55433 1.9693,-3.23152 2.0833,-5.17578 0,-3.105 -2.4,-5.625 -5.3571,-5.625 z"
         style="fill:#000000;fill-opacity:1;stroke:none;stroke-width:0.354331;stroke-linecap:round;stroke-linejoin:round;stroke-miterlimit:4;stroke-dasharray:1.41732, 1.41732;stroke-dashoffset:0;stroke-opacity:1" />
      <path
         sodipodi:nodetypes="ccccsccccccscccc"
         id="path5604"
         d="m 1107.7032,181.36219 c -5.914,0 -10.714,5.04 -10.714,11.25 0.052,3.90807 2.068,7.21053 4.1667,10.35157 -2.3394,-1.77007 -4.939,-2.84054 -7.7384,-2.85157 -5.9143,0 -10.7143,5.04 -10.7143,11.25 0,6.21 4.8,11.25 10.7143,11.25 4.7914,-0.0802 8.623,-3.43243 12.3887,-6.25 -0.674,8.41643 -2.0447,13.14193 -10.0077,15 5.9524,0 17.8574,0 23.8097,0 -7.963,-1.85807 -9.3337,-6.58357 -10.0077,-15 3.722,3.19013 7.6254,5.89633 12.3887,6.25 5.914,0 10.714,-5.04 10.714,-11.25 0,-6.21 -4.8,-11.25 -10.714,-11.25 -2.8713,-3e-4 -5.3513,1.3209 -7.7383,2.85157 2.3753,-3.10867 3.9386,-6.46304 4.1666,-10.35157 0,-6.21 -4.8,-11.25 -10.7143,-11.25 z"
         style="fill:#000000;fill-opacity:1;stroke:none;stroke-width:0.354331;stroke-linecap:round;stroke-linejoin:round;stroke-miterlimit:4;stroke-dasharray:1.41732, 1.41732;stroke-dashoffset:0;stroke-opacity:1" />
      <path
         id="text4572"
         d="m 1116.5031,219.94646 c 0.053,0.26671 0.08,0.53337 0.08,0.8 0.053,0.21337 0.1066,0.45337 0.16,0.72 l 0.08,-0.16 c -5.44,2.0267 -10.8,4.08004 -16.08,6.16 -5.2267,2.08003 -10.2134,4.64003 -14.96,7.68 l -0.16,-0.08 c -0.1067,-0.63997 -0.1334,-1.27997 -0.08,-1.92 0.053,-0.63997 0.027,-1.27997 -0.08,-1.92 v -0.08 c 5.0133,-2.9333 10.2133,-5.7333 15.6,-8.4 5.44,-2.71996 11.04,-5.01329 16.8,-6.88 -10e-5,0.0534 -10e-5,0.08 0,0.08 0.053,4e-5 0.08,0.0267 0.08,0.08 -0.2667,0.42671 -0.5601,0.85338 -0.88,1.28 -0.2667,0.37338 -0.5334,0.77338 -0.8,1.2 l 0.24,1.44 m -32.4,-16.08 c 3.68,-0.0533 7.3866,-0.21328 11.12,-0.48 3.7333,-0.26661 7.4666,-0.47994 11.2,-0.64 h 0.16 c -0.2667,2.45339 -0.48,4.85339 -0.64,7.2 -0.16,2.29338 -0.3734,4.64005 -0.64,7.04 0.64,-2.39995 1.3066,-4.77328 2,-7.12 0.7466,-2.34661 1.4133,-4.71994 2,-7.12 l 0.08,-0.08 c 2.7733,0.10672 5.5199,0.26672 8.24,0.48 2.7199,0.21339 5.4399,0.42672 8.16,0.64 -1.0667,1.76006 -2.1601,3.49339 -3.28,5.2 -1.1201,1.65338 -2.1334,3.36005 -3.04,5.12 -5.9734,1.65338 -11.8134,3.78671 -17.52,6.4 -5.7067,2.56004 -11.1734,5.68003 -16.4,9.36 l -0.4,-0.16 v -1.6 c 0,-3.94663 -0.1067,-7.91996 -0.32,-11.92 -0.16,-3.99995 -0.3734,-8.02661 -0.64,-12.08 l 0.08,-0.08 -0.16,-0.16 m 2.96,55.68 c -0.3734,-3.73333 -0.6134,-7.46666 -0.72,-11.2 -0.053,-3.78665 -0.2667,-7.59998 -0.64,-11.44 l -0.16,-0.24 c 2.4,-1.54664 4.88,-2.95997 7.44,-4.24 2.56,-1.27997 5.1466,-2.4533 7.76,-3.52 2.6666,-1.06663 5.36,-2.07997 8.08,-3.04 2.72,-1.0133 5.4399,-1.99996 8.16,-2.96 l 0.08,0.08 c 1.2799,5.8667 2.9599,11.54669 5.04,17.04 2.0799,5.44002 4.4799,10.72001 7.2,15.84 l -0.16,0.08 c -3.2001,0.74667 -6.4267,1.46667 -9.68,2.16 -3.2001,0.64 -6.4267,1.33333 -9.68,2.08 -1.76,-2.13333 -3.1467,-4.42666 -4.16,-6.88 -1.0134,-2.50666 -1.8667,-5.06665 -2.56,-7.68 -0.16,2.18668 -0.3467,4.34668 -0.56,6.48 -0.16,2.13334 -0.2934,4.29334 -0.4,6.48 l -0.08,0.16 c -2.5067,0.16 -5.0134,0.34667 -7.52,0.56 -2.4534,0.16 -4.9334,0.29333 -7.44,0.4 l -0.08,-0.08 0.08,-0.08"
         style="font-style:normal;font-variant:normal;font-weight:normal;font-stretch:normal;font-size:80px;line-height:125%;font-family:'Airmole Stripe';-inkscape-font-specification:'Airmole Stripe';text-align:start;writing-mode:lr-tb;text-anchor:start;fill:#333333;fill-opacity:1;stroke:none;stroke-width:1px;stroke-linecap:butt;stroke-linejoin:miter;stroke-opacity:1" />
    </g>
  </g>
</svg>
