<?xml version="1.0" encoding="UTF-8" standalone="no"?>
<!-- Created with Inkscape (http://www.inkscape.org/) -->

<svg
   width="210mm"
   height="297mm"
   viewBox="0 0 210 297"
   version="1.1"
   id="svg1955"
   inkscape:version="1.2.2 (732a01da63, 2022-12-09)"
   sodipodi:docname="QH.svg"
   xmlns:inkscape="http://www.inkscape.org/namespaces/inkscape"
   xmlns:sodipodi="http://sodipodi.sourceforge.net/DTD/sodipodi-0.dtd"
   xmlns="http://www.w3.org/2000/svg"
   xmlns:svg="http://www.w3.org/2000/svg">
  <sodipodi:namedview
     id="namedview1957"
     pagecolor="#ffffff"
     bordercolor="#000000"
     borderopacity="0.25"
     inkscape:showpageshadow="2"
     inkscape:pageopacity="0.0"
     inkscape:pagecheckerboard="0"
     inkscape:deskcolor="#d1d1d1"
     inkscape:document-units="mm"
     showgrid="false"
     inkscape:zoom="1.6352936"
     inkscape:cx="117.10436"
     inkscape:cy="64.820166"
     inkscape:window-width="725"
     inkscape:window-height="439"
     inkscape:window-x="837"
     inkscape:window-y="517"
     inkscape:window-maximized="0"
     inkscape:current-layer="layer1" />
  <defs
     id="defs1952" />
  <g
     inkscape:label="Layer 1"
     inkscape:groupmode="layer"
     id="layer1">
    <g
       id="g15563"
       transform="matrix(0.26458333,0,0,0.26458333,-255.26186,-76.163536)">
      <g
         transform="translate(943.91212,277.92857)"
         id="g4644">
        <rect
           style="fill:#000000;fill-opacity:1;stroke:none;stroke-width:3;stroke-linecap:butt;stroke-linejoin:round;stroke-miterlimit:4;stroke-dasharray:none;stroke-opacity:1"
           id="rect4646"
           width="90"
           height="135"
           x="20.85714"
           y="9.9336166"
           ry="14.04" />
        <rect
           style="fill:#f2f2f2;fill-opacity:1;stroke:none;stroke-width:3;stroke-linecap:butt;stroke-linejoin:round;stroke-miterlimit:4;stroke-dasharray:none;stroke-opacity:1"
           id="rect4648"
           width="80"
           height="125"
           x="25.85714"
           y="14.933617"
           ry="13" />
      </g>
      <path
         id="text5349"
         d="m 1009.5037,296.80751 c 2.4629,3e-5 4.6342,0.58984 6.5139,1.76944 1.8926,1.17966 3.3314,2.7741 4.3167,4.78334 0.9851,2.00927 1.4777,4.25835 1.4777,6.74722 0,1.71112 -0.2528,3.38334 -0.7583,5.01667 -0.5056,1.63334 -1.1861,2.975 -2.0417,4.025 l 2.8,2.66389 -2.6639,2.81944 -3.0333,-2.81944 c -1.9185,1.1537 -4.1222,1.73055 -6.6111,1.73055 -2.45,0 -4.6148,-0.57685 -6.4944,-1.73055 -1.8667,-1.15371 -3.29912,-2.74167 -4.29727,-4.76389 -0.99815,-2.02222 -1.49722,-4.31018 -1.49722,-6.86389 0,-2.55369 0.49907,-4.84165 1.49722,-6.86389 0.99815,-2.0222 2.43057,-3.61016 4.29727,-4.76389 1.8796,-1.16664 4.0444,-1.74997 6.4944,-1.75 m 3.0139,16.21667 2.8778,2.72222 c 0.7518,-1.51666 1.1277,-3.3574 1.1277,-5.52222 0,-2.72221 -0.6352,-4.8935 -1.9055,-6.51389 -1.2704,-1.62035 -2.975,-2.43054 -5.1139,-2.43056 -2.113,2e-5 -3.8111,0.81669 -5.0944,2.45 -1.2834,1.62039 -1.925,3.77224 -1.925,6.45556 0,2.67038 0.6416,4.81575 1.925,6.43611 1.2833,1.62037 2.9749,2.43056 5.075,2.43055 1.1925,1e-5 2.2166,-0.21388 3.0722,-0.64166 l -2.7028,-2.56667 2.6639,-2.81944"
         style="font-style:normal;font-variant:normal;font-weight:bold;font-stretch:normal;font-size:35px;line-height:125%;font-family:AlMothnna;-inkscape-font-specification:'AlMothnna Bold';text-align:start;writing-mode:lr-tb;text-anchor:start;fill:#aa0000;fill-opacity:1;stroke:none;stroke-width:1px;stroke-linecap:butt;stroke-linejoin:miter;stroke-opacity:1" />
      <path
         sodipodi:nodetypes="ccccccc"
         id="path5462"
         d="m 984.74176,305.29639 c 0.6064,-3.125 1.8192,-6.25 6.064,-6.25 4.2449,0 7.5801,3.125 6.0641,9.375 -1.516,6.25 -8.4897,9.375 -12.1281,15.625 -3.6384,-6.25 -10.61202,-9.375 -12.12802,-15.625 -1.516,-6.25 1.8192,-9.375 6.06402,-9.375 4.2448,0 5.4576,3.125 6.064,6.25 z"
         style="fill:#d40000;fill-opacity:1;stroke:none;stroke-width:0.354331;stroke-linecap:round;stroke-linejoin:round;stroke-miterlimit:4;stroke-dasharray:1.41732, 1.41732;stroke-dashoffset:0;stroke-opacity:1" />
      <path
         sodipodi:nodetypes="ccccccc"
         id="path5724"
         d="m 1009.769,339.86219 c 1.213,-6.25 3.6386,-12.5 12.1283,-12.5 8.4893,0 15.16,6.25 12.128,18.75 -3.032,12.5 -16.9793,18.75 -24.2563,31.25 -7.2767,-12.5 -21.22396,-18.75 -24.25596,-31.25 -3.032,-12.5 3.6386,-18.75 12.128,-18.75 8.48956,0 10.91526,6.25 12.12796,12.5 z"
         style="fill:#d40000;fill-opacity:1;stroke:none;stroke-width:0.354331;stroke-linecap:round;stroke-linejoin:round;stroke-miterlimit:4;stroke-dasharray:1.41732, 1.41732;stroke-dashoffset:0;stroke-opacity:1" />
      <path
         id="text4704"
         d="m 1032.169,360.30646 c -3.4667,0.4267 -6.9067,1.12004 -10.32,2.08 -3.36,0.9067 -6.6933,2.00003 -10,3.28 -3.2533,1.2267 -6.48,2.5867 -9.68,4.08 -3.14666,1.49336 -6.21333,3.01336 -9.19998,4.56 -0.42668,0.21336 -0.98668,0.53336 -1.68,0.96 -0.69334,0.37336 -1.41334,0.77336 -2.16,1.2 -0.69334,0.37335 -1.38667,0.72002 -2.08,1.04 -0.64,0.32002 -1.2,0.48002 -1.68,0.48 h 0.08 c -0.0533,2e-5 -0.10667,0.0267 -0.16,0.08 0,2e-5 -0.0267,2e-5 -0.08,0 l -0.08,-0.08 c -0.10667,-0.58665 -0.18667,-1.19998 -0.24,-1.84 -0.0533,-0.63998 -0.08,-1.25331 -0.08,-1.84 l -0.24,-0.48 c 6.98666,-4.21331 14.37332,-7.75997 22.15998,-10.64 7.7867,-2.87996 15.84,-4.82663 24.16,-5.84 l 0.08,0.08 c 0.16,0.42671 0.3733,0.85337 0.64,1.28 0.2666,0.42671 0.48,0.88004 0.64,1.36 l -0.08,0.08 v 0.16 m -23.44,42.16 c -2.9867,-0.16 -5.7867,-0.90667 -8.4,-2.24 -2.61333,-1.33333 -4.93333,-3.04 -6.95998,-5.12 -2.02668,-2.13333 -3.73334,-4.50666 -5.12,-7.12 -1.38667,-2.66665 -2.34667,-5.41332 -2.88,-8.24 h 0.16 c 1.86666,-1.33331 3.78666,-2.47998 5.76,-3.44 1.97332,-0.95998 3.97332,-1.86664 6,-2.72 2.02665,-0.85331 4.05328,-1.65331 6.07998,-2.4 2.08,-0.79997 4.16,-1.67997 6.24,-2.64 l 0.08,0.24 c -0.1067,5.06669 -0.24,10.21335 -0.4,15.44 -0.1067,5.22668 0.027,10.48 0.4,15.76 l -0.72,2.24 -0.24,0.24 m 0.96,-58.8 h 0.4 c 2.1333,5e-5 4.1867,0.32005 6.16,0.96 1.9733,0.58672 3.8133,1.44005 5.52,2.56 1.7066,1.06672 3.28,2.34672 4.72,3.84 1.44,1.44005 2.6933,3.01338 3.76,4.72 0,0.0534 -0.027,0.08 -0.08,0.08 -0.1067,4e-5 -0.2134,-0.0266 -0.32,-0.08 -7.7334,1.12004 -15.4667,3.09337 -23.2,5.92 -7.68,2.77337 -14.90666,6.37336 -21.67998,10.8 l -0.4,-0.24 c 0,-3.46664 0.61333,-6.87997 1.84,-10.24 1.27999,-3.41329 3.03999,-6.45329 5.28,-9.12 2.23999,-2.66662 4.87999,-4.82662 7.92,-6.48 3.09328,-1.70661 6.47998,-2.58661 10.15998,-2.64 l -0.08,-0.08 m 1.28,58.72 c -0.1067,-5.81333 -0.32,-11.51999 -0.64,-17.12 -0.2667,-5.59998 -0.48,-11.17331 -0.64,-16.72 l 0.08,-0.08 c 3.7867,-1.43997 7.52,-2.8533 11.2,-4.24 3.68,-1.43996 7.5733,-2.39996 11.68,-2.88 l 0.08,0.08 c 0.6933,1.8667 1.2266,3.7867 1.6,5.76 0.4266,1.92003 0.64,3.89336 0.64,5.92 0,2.72002 -0.3467,5.44002 -1.04,8.16 -0.6934,2.66668 -1.7067,5.20001 -3.04,7.6 -1.28,2.34667 -2.88,4.48 -4.8,6.4 -1.92,1.92 -4.08,3.52 -6.48,4.8 1.2266,0.48 2.4533,0.93333 3.68,1.36 1.28,0.37333 2.5333,0.77333 3.76,1.2 l 0.08,0.08 c -0.4267,1.27999 -0.8267,2.55999 -1.2,3.84 -0.32,1.27999 -0.6934,2.53332 -1.12,3.76 l -0.08,0.08 c -1.8134,-0.74668 -3.6,-1.52001 -5.36,-2.32 -1.76,-0.74668 -3.5467,-1.46668 -5.36,-2.16 l -0.08,-0.08 c 0.2667,-0.69334 0.5067,-1.41334 0.72,-2.16 0.2133,-0.69334 0.4533,-1.38667 0.72,-2.08 -0.7467,0.26666 -1.52,0.42666 -2.32,0.48 -0.7467,0.0533 -1.4933,0.13333 -2.24,0.24 l -0.08,-0.08 0.24,0.16"
         style="font-style:normal;font-variant:normal;font-weight:normal;font-stretch:normal;font-size:80px;line-height:125%;font-family:'Airmole Stripe';-inkscape-font-specification:'Airmole Stripe';text-align:start;writing-mode:lr-tb;text-anchor:start;fill:#800000;fill-opacity:1;stroke:none;stroke-width:1px;stroke-linecap:butt;stroke-linejoin:miter;stroke-opacity:1" />
    </g>
  </g>
</svg>
