<?xml version="1.0" encoding="UTF-8" standalone="no"?>
<!-- Created with Inkscape (http://www.inkscape.org/) -->

<svg
   width="210mm"
   height="297mm"
   viewBox="0 0 210 297"
   version="1.1"
   id="svg1955"
   inkscape:version="1.2.2 (732a01da63, 2022-12-09)"
   sodipodi:docname="QS.svg"
   xmlns:inkscape="http://www.inkscape.org/namespaces/inkscape"
   xmlns:sodipodi="http://sodipodi.sourceforge.net/DTD/sodipodi-0.dtd"
   xmlns="http://www.w3.org/2000/svg"
   xmlns:svg="http://www.w3.org/2000/svg">
  <sodipodi:namedview
     id="namedview1957"
     pagecolor="#ffffff"
     bordercolor="#000000"
     borderopacity="0.25"
     inkscape:showpageshadow="2"
     inkscape:pageopacity="0.0"
     inkscape:pagecheckerboard="0"
     inkscape:deskcolor="#d1d1d1"
     inkscape:document-units="mm"
     showgrid="false"
     inkscape:zoom="1.6352936"
     inkscape:cx="117.10436"
     inkscape:cy="27.517995"
     inkscape:window-width="725"
     inkscape:window-height="439"
     inkscape:window-x="858"
     inkscape:window-y="349"
     inkscape:window-maximized="0"
     inkscape:current-layer="layer1" />
  <defs
     id="defs1952" />
  <g
     inkscape:label="Layer 1"
     inkscape:groupmode="layer"
     id="layer1">
    <g
       id="g15787"
       transform="matrix(0.26458333,0,0,0.26458333,-255.37526,-1.8250693)">
      <g
         transform="translate(944.34071,-3.035717)"
         id="g4368">
        <rect
           style="fill:#000000;fill-opacity:1;stroke:none;stroke-width:3;stroke-linecap:butt;stroke-linejoin:round;stroke-miterlimit:4;stroke-dasharray:none;stroke-opacity:1"
           id="rect4370"
           width="90"
           height="135"
           x="20.85714"
           y="9.9336166"
           ry="14.04" />
        <rect
           style="fill:#f2f2f2;fill-opacity:1;stroke:none;stroke-width:3;stroke-linecap:butt;stroke-linejoin:round;stroke-miterlimit:4;stroke-dasharray:none;stroke-opacity:1"
           id="rect4372"
           width="80"
           height="125"
           x="25.85714"
           y="14.933617"
           ry="13" />
      </g>
      <path
         sodipodi:nodetypes="ccsscssccc"
         id="path4919"
         d="m 978.20374,39.362194 c 4.5071,-1.001575 4.992,-3.641382 5.33204,-8.496093 -0.78317,1.296981 -2.20704,2.254106 -4.53125,2.246093 -3.8203,-0.01317 -6.37925,-2.234875 -5.46875,-7.03125 0.91796,-4.835737 7.79296,-6.710737 10.91796,-11.71875 3.125,5.008013 9.99999,6.883013 10.91799,11.71875 0.9105,4.796382 -1.543,7.017718 -5.46877,7.03125 -2.32422,0.008 -3.74808,-0.949112 -4.53125,-2.246093 0.34004,4.854711 0.82494,7.494518 5.33203,8.496093 -3.125,0 -9.375,0 -12.5,0 z"
         style="fill:#000000;fill-opacity:1;stroke:none;stroke-width:0.354331;stroke-linecap:round;stroke-linejoin:round;stroke-miterlimit:4;stroke-dasharray:1.41732, 1.41732;stroke-dashoffset:0;stroke-opacity:1" />
      <path
         sodipodi:nodetypes="ccsscssccc"
         id="path5149"
         d="m 997.69245,93.567269 c 9.01435,-2.003133 9.98405,-7.282769 10.66415,-16.992156 -1.5664,2.593935 -4.4141,4.508195 -9.06245,4.492162 -7.6407,-0.02633 -12.7587,-4.469728 -10.9377,-14.062498 1.836,-9.67147 15.58605,-13.421465 21.83615,-23.437508 6.25,10.016043 20,13.766038 21.836,23.437508 1.821,9.59277 -3.086,14.035431 -10.9376,14.062498 -4.6484,0.01603 -7.496,-1.898227 -9.0624,-4.492162 0.68,9.709387 1.6497,14.989023 10.664,16.992156 -6.25,0 -18.7501,0 -25.00015,0 z"
         style="fill:#000000;fill-opacity:1;stroke:none;stroke-width:0.354331;stroke-linecap:round;stroke-linejoin:round;stroke-miterlimit:4;stroke-dasharray:1.41732, 1.41732;stroke-dashoffset:0;stroke-opacity:1" />
      <path
         id="text4428"
         d="m 1032.5976,79.342177 c -3.4667,0.426708 -6.9067,1.12004 -10.32,2.08 -3.36,0.906705 -6.6934,2.000037 -10,3.28 -3.2534,1.226701 -6.48,2.5867 -9.68,4.08 -3.14667,1.493364 -6.21334,3.013362 -9.19999,4.56 -0.42668,0.213361 -0.98668,0.53336 -1.68,0.96 -0.69334,0.373359 -1.41334,0.773359 -2.16,1.2 -0.69334,0.373358 -1.38667,0.720025 -2.08,1.04 -0.64001,0.320024 -1.20001,0.480024 -1.68,0.48 h 0.08 c -0.0533,2.4e-5 -0.10667,0.02669 -0.16,0.08 0,2.4e-5 -0.0267,2.4e-5 -0.08,0 l -0.08,-0.08 c -0.10667,-0.586642 -0.18667,-1.199975 -0.24,-1.84 -0.0533,-0.639974 -0.08,-1.253307 -0.08,-1.84 l -0.24,-0.48 c 6.98666,-4.213301 14.37332,-7.759964 22.15999,-10.64 7.7866,-2.879959 15.84,-4.826623 24.16,-5.84 l 0.08,0.08 c 0.16,0.426711 0.3733,0.853377 0.64,1.28 0.2666,0.426709 0.48,0.880042 0.64,1.36 l -0.08,0.08 v 0.16 m -23.44,42.160003 c -2.9867,-0.16 -5.7867,-0.90667 -8.4,-2.24 -2.61334,-1.33333 -4.93334,-3.04 -6.95999,-5.12 -2.02668,-2.13333 -3.73334,-4.50666 -5.12,-7.12 -1.38667,-2.66665 -2.34667,-5.41332 -2.88,-8.240003 h 0.16 c 1.86666,-1.33331 3.78666,-2.479976 5.76,-3.44 1.97332,-0.959974 3.97332,-1.866639 6,-2.72 2.02665,-0.853304 4.05329,-1.653304 6.07999,-2.4 2.08,-0.799969 4.16,-1.679968 6.24,-2.64 l 0.08,0.24 c -0.1067,5.066695 -0.24,10.213356 -0.4,15.440003 -0.1067,5.22668 0.027,10.48 0.4,15.76 l -0.72,2.24 -0.24,0.24 m 0.96,-58.800003 h 0.4 c 2.1333,5.8e-5 4.1866,0.320058 6.16,0.96 1.9733,0.586723 3.8133,1.440056 5.52,2.56 1.7066,1.06672 3.28,2.346719 4.72,3.84 1.44,1.440049 2.6933,3.013381 3.76,4.72 0,0.05338 -0.027,0.08005 -0.08,0.08 -0.1067,4.6e-5 -0.2134,-0.02662 -0.32,-0.08 -7.7334,1.120045 -15.4667,3.093376 -23.2,5.92 -7.68001,2.773371 -14.90667,6.373367 -21.67999,10.8 l -0.4,-0.24 c 0,-3.466634 0.61333,-6.879964 1.84,-10.24 1.27999,-3.41329 3.03999,-6.453287 5.28,-9.12 2.23999,-2.666615 4.87998,-4.826613 7.91999,-6.48 3.0933,-1.70661 6.48,-2.586609 10.16,-2.64 l -0.08,-0.08 m 1.28,58.720003 c -0.1067,-5.81333 -0.32,-11.51999 -0.64,-17.12 -0.2667,-5.599981 -0.48,-11.173309 -0.64,-16.720003 l 0.08,-0.08 c 3.7866,-1.439965 7.52,-2.853297 11.2,-4.24 3.68,-1.439961 7.5733,-2.39996 11.68,-2.88 l 0.08,0.08 c 0.6933,1.866705 1.2266,3.786703 1.6,5.76 0.4266,1.920033 0.64,3.893364 0.64,5.92 0,2.720026 -0.3467,5.440023 -1.04,8.160003 -0.6934,2.66668 -1.7067,5.20001 -3.04,7.6 -1.28,2.34667 -2.88,4.48001 -4.8,6.4 -1.92,1.92 -4.08,3.52 -6.48,4.8 1.2266,0.48 2.4533,0.93333 3.68,1.36 1.28,0.37333 2.5333,0.77333 3.76,1.2 l 0.08,0.08 c -0.4267,1.27999 -0.8267,2.55999 -1.2,3.84 -0.32,1.27999 -0.6934,2.53332 -1.12,3.76 l -0.08,0.08 c -1.8134,-0.74668 -3.6,-1.52001 -5.36,-2.32 -1.76,-0.74668 -3.5467,-1.46667 -5.36,-2.16 l -0.08,-0.08 c 0.2666,-0.69334 0.5066,-1.41334 0.72,-2.16 0.2133,-0.69334 0.4533,-1.38667 0.72,-2.08 -0.7467,0.26666 -1.52,0.42666 -2.32,0.48 -0.7467,0.0533 -1.4934,0.13333 -2.24,0.24 l -0.08,-0.08 0.24,0.16"
         style="font-style:normal;font-variant:normal;font-weight:normal;font-stretch:normal;font-size:80px;line-height:125%;font-family:'Airmole Stripe';-inkscape-font-specification:'Airmole Stripe';text-align:start;writing-mode:lr-tb;text-anchor:start;fill:#333333;fill-opacity:1;stroke:none;stroke-width:1px;stroke-linecap:butt;stroke-linejoin:miter;stroke-opacity:1" />
      <path
         id="text5245"
         d="m 1007.6719,13.680805 c 2.4629,2.6e-5 4.6342,0.58984 6.5138,1.769444 1.8926,1.179653 3.3315,2.774096 4.3167,4.783334 0.9852,2.009276 1.4778,4.258348 1.4778,6.747222 0,1.711122 -0.2528,3.383342 -0.7583,5.016667 -0.5056,1.633339 -1.1862,2.975004 -2.0417,4.025 l 2.8,2.663888 -2.6639,2.819445 -3.0333,-2.819445 c -1.9186,1.153704 -4.1223,1.730555 -6.6111,1.730556 -2.4501,-10e-7 -4.6149,-0.576852 -6.4945,-1.730556 -1.86666,-1.153701 -3.29907,-2.741663 -4.29721,-4.763888 -0.99815,-2.022215 -1.49723,-4.310176 -1.49723,-6.863889 0,-2.553689 0.49908,-4.84165 1.49723,-6.863889 0.99814,-2.022201 2.43055,-3.610162 4.29721,-4.763889 1.8796,-1.166641 4.0444,-1.749974 6.4945,-1.75 m 3.0138,16.216667 2.8778,2.722222 c 0.7519,-1.516658 1.1278,-3.357397 1.1278,-5.522222 0,-2.722207 -0.6352,-4.893502 -1.9056,-6.513889 -1.2703,-1.62035 -2.975,-2.430534 -5.1138,-2.430556 -2.113,2.2e-5 -3.8112,0.816687 -5.0945,2.45 -1.2833,1.620388 -1.925,3.772238 -1.925,6.455556 0,2.67038 0.6417,4.815748 1.925,6.436111 1.2833,1.620375 2.975,2.430559 5.075,2.430555 1.1926,4e-6 2.2167,-0.213885 3.0722,-0.641666 l -2.7027,-2.566667 2.6638,-2.819444"
         style="font-style:normal;font-variant:normal;font-weight:bold;font-stretch:normal;font-size:35px;line-height:125%;font-family:AlMothnna;-inkscape-font-specification:'AlMothnna Bold';text-align:start;writing-mode:lr-tb;text-anchor:start;fill:#000000;fill-opacity:1;stroke:none;stroke-width:1px;stroke-linecap:butt;stroke-linejoin:miter;stroke-opacity:1" />
    </g>
  </g>
</svg>
